<?xml version="1.0" encoding="utf-8"?>
<!-- Generator: Adobe Illustrator 16.0.0, SVG Export Plug-In . SVG Version: 6.00 Build 0)  -->
<!DOCTYPE svg PUBLIC "-//W3C//DTD SVG 1.1//EN" "http://www.w3.org/Graphics/SVG/1.1/DTD/svg11.dtd">
<svg version="1.1" id="Layer_1" xmlns="http://www.w3.org/2000/svg" xmlns:xlink="http://www.w3.org/1999/xlink" x="0px" y="0px"
	 width="80px" height="80px" viewBox="0 0 80 80" enable-background="new 0 0 80 80" xml:space="preserve">
<g>
	<path fill-rule="evenodd" clip-rule="evenodd" fill="#FFFFFF" d="M52.35,11.525h13.3c1.575,0,2.851,1.339,2.851,2.992v12.966
		c0,1.652-1.275,2.992-2.851,2.992h-13.3c-1.574,0-2.85-1.34-2.85-2.992V14.517C49.5,12.864,50.775,11.525,52.35,11.525z"/>
	<path fill="#BCBEC0" d="M65.649,31h-13.3C50.503,31,49,29.422,49,27.483V14.517C49,12.578,50.503,11,52.35,11h13.3
		C67.497,11,69,12.578,69,14.517v12.966C69,29.422,67.497,31,65.649,31z M52.35,12.05c-1.296,0-2.35,1.107-2.35,2.467v12.966
		c0,1.36,1.054,2.467,2.35,2.467h13.3c1.297,0,2.35-1.107,2.35-2.467V14.517c0-1.36-1.053-2.467-2.35-2.467H52.35z"/>
</g>
<g>
	<circle fill-rule="evenodd" clip-rule="evenodd" fill="#FFFFFF" cx="19" cy="21" r="9.474"/>
	<path fill="#BCBEC0" d="M19,31c-5.514,0-10-4.486-10-10s4.486-10,10-10s10,4.486,10,10S24.514,31,19,31z M19,12.053
		c-4.934,0-8.947,4.014-8.947,8.947s4.014,8.947,8.947,8.947s8.947-4.014,8.947-8.947S23.934,12.053,19,12.053z"/>
</g>
<g>
	<circle fill-rule="evenodd" clip-rule="evenodd" fill="#FFFFFF" cx="19" cy="61" r="9.474"/>
	<path fill="#BCBEC0" d="M19,71c-5.514,0-10-4.486-10-10s4.486-10,10-10s10,4.486,10,10S24.514,71,19,71z M19,52.053
		c-4.934,0-8.947,4.014-8.947,8.947s4.014,8.947,8.947,8.947s8.947-4.014,8.947-8.947S23.934,52.053,19,52.053z"/>
</g>
<circle fill-rule="evenodd" clip-rule="evenodd" fill="#231F20" cx="19" cy="61" r="5.263"/>
<g>
	<path fill-rule="evenodd" clip-rule="evenodd" fill="#FFFFFF" d="M52.35,51.525h13.3c1.575,0,2.851,1.339,2.851,2.992v12.965
		c0,1.652-1.275,2.992-2.851,2.992h-13.3c-1.574,0-2.85-1.34-2.85-2.992V54.518C49.5,52.864,50.775,51.525,52.35,51.525z"/>
	<path fill="#BCBEC0" d="M65.649,71h-13.3C50.503,71,49,69.422,49,67.482V54.518C49,52.578,50.503,51,52.35,51h13.3
		C67.497,51,69,52.578,69,54.518v12.965C69,69.422,67.497,71,65.649,71z M52.35,52.05c-1.296,0-2.35,1.106-2.35,2.468v12.965
		c0,1.361,1.054,2.468,2.35,2.468h13.3c1.297,0,2.35-1.106,2.35-2.468V54.518c0-1.361-1.053-2.468-2.35-2.468H52.35z"/>
</g>
<polygon fill-rule="evenodd" clip-rule="evenodd" fill="#231F20" points="57.457,63.918 53.91,60.371 52.15,62.131 55.697,65.679 
	57.457,67.438 59.218,65.679 65.849,59.047 64.089,57.286 "/>
</svg>
