<svg xmlns="http://www.w3.org/2000/svg" xmlns:xlink="http://www.w3.org/1999/xlink"><symbol id="icon-24-7" viewBox="0 0 40 40">

<g>
	<path class="st1" d="M15.9,18c4.5,0,8.2-3.7,8.2-8.2c0-4.5-3.7-8.2-8.2-8.2S7.7,5.3,7.7,9.9C7.7,14.4,11.4,18,15.9,18z M15.9,4.6
		c2.9,0,5.3,2.4,5.3,5.3c0,2.9-2.4,5.3-5.3,5.3c-2.9,0-5.3-2.4-5.3-5.3C10.6,6.9,13,4.6,15.9,4.6z"/>
	<path class="st1" d="M15.6,32c-0.1-0.3-0.4-0.6-0.7-0.6c-3.7-0.1-7.3-0.4-10.9-1c0,0-0.1,0-0.1-0.1v-2.3c0-2.4,1.9-4.3,4.3-4.3h0.7
		c0.1,0,0.1,0,0.1,0l1.7,0.5c1.3,0.4,2.7,0.7,4,0.8c0.3,0,0.5-0.2,0.6-0.5c0.1-0.6,0.3-1.2,0.6-1.8c0.1-0.3-0.1-0.5-0.4-0.6
		c-1.3,0-2.6-0.3-3.9-0.7l-1.7-0.5c-0.3-0.1-0.7-0.2-1-0.2H8.2c-4,0-7.2,3.2-7.2,7.2v2.3c0,1.4,1.1,2.7,2.5,2.9
		c4.2,0.7,8.3,1,12.5,1c0.3,0,0.5-0.3,0.3-0.6C16.1,33.2,15.8,32.6,15.6,32z"/>
	<path class="st1" d="M31.2,28.5l-1.3-1v-2.7c0-0.8-0.6-1.4-1.4-1.4c-0.8,0-1.4,0.6-1.4,1.4v3.4c0,0.5,0.2,0.9,0.6,1.2l1.9,1.4
		c0.6,0.5,1.5,0.3,2-0.3C32,29.9,31.8,29,31.2,28.5z"/>
	<path class="st1" d="M28.4,17.2c-5.8,0-10.6,4.7-10.6,10.6c0,5.8,4.7,10.6,10.6,10.6c5.8,0,10.6-4.7,10.6-10.6
		C39,21.9,34.3,17.2,28.4,17.2z M28.4,35.4c-4.3,0-7.7-3.4-7.7-7.7s3.4-7.7,7.7-7.7c4.3,0,7.7,3.4,7.7,7.7S32.7,35.4,28.4,35.4z"/>
</g>
</symbol><symbol id="icon-accordion" viewBox="0 0 40 40">

<path class="st0" d="M20,39C5.6,39,1,34.4,1,20S5.6,1,20,1c14.4,0,19,4.6,19,19S34.4,39,20,39z M20,3.8C7.1,3.8,3.8,7.1,3.8,20
	S7.1,36.2,20,36.2c12.9,0,16.2-3.3,16.2-16.2S32.9,3.8,20,3.8z"/>
<path class="st0" d="M20,25.3c-0.4,0-0.7-0.1-1-0.4L13.1,19c-0.5-0.5-0.5-1.4,0-2c0.5-0.5,1.4-0.6,2,0l4.9,4.9l4.9-4.9
	c0.5-0.5,1.4-0.6,2,0s0.5,1.4,0,2L21,24.9C20.7,25.2,20.4,25.3,20,25.3z"/>
</symbol><symbol id="icon-arr-b" viewBox="0 0 40 40">

<path class="st0" d="M19.6,33.4c-0.1,0-0.2,0-0.3,0c-0.5,0-0.9-0.1-1.4-0.3c-0.2-0.1-0.4-0.2-0.6-0.3c-0.2-0.1-0.4-0.1-0.6-0.3
	c-0.4-0.2-0.8-0.5-1.2-0.8c-0.2-0.2-0.3-0.3-0.5-0.5c-0.2-0.1-0.4-0.3-0.5-0.5c0-0.1-0.3-0.4-0.3-0.5l-0.2-0.4
	c-0.1-0.1-0.1-0.2-0.2-0.3c-0.1-0.1-0.2-0.2-0.2-0.3L13,28.6c-0.1-0.1-0.1-0.2-0.2-0.4c-0.1-0.1-0.2-0.2-0.2-0.3l-0.4-0.7
	C12.1,27.1,12,27,12,26.9c-0.1-0.1-0.2-0.2-0.2-0.3l-0.4-0.7c-0.1-0.1-0.1-0.2-0.2-0.3c-0.1-0.1-0.2-0.2-0.2-0.3l-0.4-0.7
	c-0.1-0.1-0.1-0.2-0.2-0.3c-0.1-0.1-0.2-0.2-0.2-0.3l-0.4-0.6c-0.1-0.1-0.1-0.2-0.2-0.4c-0.1-0.1-0.2-0.2-0.3-0.3l-0.4-0.7
	c-0.1-0.1-0.1-0.2-0.2-0.3c-0.1-0.1-0.2-0.2-0.2-0.3l-0.4-0.7c-0.1-0.1-0.1-0.2-0.2-0.3c-0.1-0.1-0.2-0.2-0.2-0.3l-0.4-0.7
	c-0.1-0.1-0.1-0.2-0.2-0.4c-0.1-0.1-0.2-0.2-0.2-0.3l-0.4-0.7c-0.1-0.1-0.1-0.2-0.2-0.3c-0.1-0.1-0.2-0.2-0.2-0.3l-0.4-0.7
	c-0.1-0.1-0.1-0.2-0.2-0.3c-0.1-0.1-0.2-0.2-0.3-0.3l-0.4-0.7C4.1,15.2,4,15,4,14.9c-0.1-0.1-0.2-0.2-0.2-0.3l-0.4-0.7
	c-0.1-0.1-0.1-0.2-0.2-0.3c-0.1-0.1-0.2-0.2-0.2-0.3l-0.4-0.7c-0.1-0.1-0.1-0.2-0.2-0.4c-0.1-0.1-0.2-0.2-0.2-0.3l-0.4-0.7
	C0.6,9.9,1,8,2.3,7.1C3.7,6.2,5.6,6.6,6.5,8l0.4,0.7C7,8.7,7.1,8.8,7.1,9c0.1,0.1,0.2,0.2,0.2,0.3l0.4,0.7C7.9,10.1,8,10.2,8,10.3
	c0.1,0.1,0.2,0.2,0.2,0.3l0.4,0.7c0.1,0.1,0.1,0.2,0.2,0.3c0.1,0.1,0.2,0.2,0.2,0.3l0.4,0.7c0.1,0.1,0.1,0.2,0.2,0.3
	c0.1,0.1,0.2,0.2,0.3,0.3l0.4,0.7c0.1,0.1,0.1,0.2,0.2,0.3c0.1,0.1,0.2,0.2,0.2,0.3l0.4,0.7c0.1,0.1,0.1,0.2,0.2,0.3
	c0.1,0.1,0.2,0.2,0.2,0.3l0.4,0.7c0.1,0.1,0.1,0.2,0.2,0.3c0.1,0.1,0.2,0.2,0.2,0.3l0.4,0.7c0.1,0.1,0.1,0.2,0.2,0.3
	c0.1,0.1,0.2,0.2,0.2,0.3l0.4,0.7c0.1,0.1,0.1,0.2,0.2,0.3c0.1,0.1,0.2,0.2,0.2,0.3l0.4,0.7c0.1,0.1,0.1,0.2,0.2,0.3
	c0.1,0.1,0.2,0.2,0.2,0.3l0.4,0.7c0.1,0.1,0.1,0.2,0.2,0.3c0.1,0.1,0.2,0.2,0.2,0.3l0.4,0.7c0.1,0.1,0.1,0.2,0.2,0.4
	c0.1,0.1,0.2,0.2,0.2,0.3l0.4,0.7c0.1,0.1,0.1,0.2,0.2,0.4c0.1,0.1,0.2,0.2,0.2,0.3l0.4,0.7c0.1,0.1,0.1,0.2,0.2,0.4
	c0.1,0.1,0.2,0.2,0.2,0.3l0.2,0.4c0,0,0.1,0.1,0.1,0.1c0,0,0.1,0.1,0.1,0.1l0.2,0.1c0,0,0.1,0,0.1,0.1c0,0,0.1,0,0.1,0
	c0.1,0,0.2,0,0.3,0c0,0,0.1,0,0.1,0c0.1,0,0.1,0,0.2,0c0,0,0.1,0,0.1,0c0,0,0,0,0.1,0c0.1,0,0.1-0.1,0.2-0.1c0,0,0.1,0,0.1-0.1
	c0,0,0,0,0-0.1l0,0c0.1,0,0.1-0.1,0.2-0.1l-0.1-0.1l0.2-0.3c0.1-0.1,0.2-0.2,0.2-0.3c0.1-0.1,0.1-0.2,0.2-0.4l0.4-0.7
	c0.1-0.1,0.2-0.2,0.2-0.3c0.1-0.1,0.1-0.2,0.2-0.4l0.4-0.7c0.1-0.1,0.2-0.2,0.2-0.3c0.1-0.1,0.1-0.2,0.2-0.4l0.4-0.7
	c0.1-0.1,0.2-0.2,0.2-0.3c0.1-0.1,0.1-0.2,0.2-0.3l0.4-0.7c0.1-0.1,0.2-0.2,0.2-0.3c0.1-0.1,0.1-0.2,0.2-0.3l0.4-0.7
	c0.1-0.1,0.2-0.2,0.2-0.3c0.1-0.1,0.1-0.2,0.2-0.3l0.4-0.7c0.1-0.1,0.1-0.2,0.2-0.3c0.1-0.1,0.1-0.2,0.2-0.4l0.4-0.7
	c0.1-0.1,0.2-0.2,0.2-0.3c0.1-0.1,0.1-0.2,0.2-0.4l0.4-0.7c0.1-0.1,0.2-0.2,0.2-0.3c0.1-0.1,0.1-0.2,0.2-0.3l0.4-0.7
	c0.1-0.1,0.2-0.2,0.2-0.3c0.1-0.1,0.1-0.2,0.2-0.3l0.4-0.7c0.1-0.1,0.2-0.2,0.2-0.3c0.1-0.1,0.1-0.2,0.2-0.3l0.4-0.7
	c0.1-0.1,0.1-0.2,0.2-0.3c0.1-0.1,0.1-0.2,0.2-0.4l0.4-0.7c0.1-0.1,0.2-0.2,0.2-0.3c0.1-0.1,0.1-0.2,0.2-0.4l0.4-0.7
	c0.1-0.1,0.2-0.2,0.2-0.3c0.1-0.1,0.1-0.2,0.2-0.3L33.5,8c0.9-1.4,2.8-1.8,4.2-0.8c1.4,0.9,1.8,2.8,0.8,4.2l-0.4,0.6
	c-0.1,0.1-0.2,0.2-0.2,0.3c-0.1,0.1-0.1,0.2-0.2,0.3l-0.4,0.7c-0.1,0.1-0.2,0.2-0.2,0.3c-0.1,0.1-0.1,0.2-0.2,0.4l-0.4,0.7
	c-0.1,0.1-0.1,0.2-0.2,0.3c-0.1,0.1-0.1,0.2-0.2,0.4l-0.4,0.7c-0.1,0.1-0.2,0.2-0.2,0.3c-0.1,0.1-0.1,0.2-0.2,0.3l-0.4,0.7
	c-0.1,0.1-0.2,0.2-0.2,0.3c-0.1,0.1-0.1,0.2-0.2,0.3l-0.4,0.7c-0.1,0.1-0.2,0.2-0.2,0.3c-0.1,0.1-0.1,0.2-0.2,0.3l-0.4,0.7
	c-0.1,0.1-0.2,0.2-0.2,0.3c-0.1,0.1-0.1,0.2-0.2,0.4l-0.4,0.7c-0.1,0.1-0.1,0.2-0.2,0.3c-0.1,0.1-0.1,0.2-0.2,0.4L31,22.6
	c-0.1,0.1-0.2,0.2-0.2,0.3c-0.1,0.1-0.1,0.2-0.2,0.3l-0.4,0.7c-0.1,0.1-0.2,0.2-0.2,0.3c-0.1,0.1-0.1,0.2-0.2,0.3l-0.4,0.7
	c-0.1,0.1-0.2,0.2-0.3,0.3c-0.1,0.1-0.1,0.2-0.2,0.3l-0.4,0.7c-0.1,0.1-0.2,0.2-0.2,0.3c-0.1,0.1-0.1,0.2-0.2,0.4l-0.4,0.7
	c-0.1,0.1-0.2,0.2-0.2,0.3c-0.1,0.1-0.1,0.2-0.2,0.4l-0.4,0.7c-0.1,0.1-0.2,0.2-0.2,0.3c-0.1,0.1-0.1,0.2-0.2,0.4l-0.6,0.8
	c-0.2,0.2-0.3,0.4-0.5,0.5c-0.1,0.2-0.3,0.4-0.5,0.5c-0.4,0.3-0.7,0.6-1.1,0.8c-0.2,0.1-0.4,0.2-0.7,0.3c-0.2,0.1-0.4,0.2-0.7,0.3
	c-0.4,0.1-0.9,0.2-1.3,0.3c-0.2,0-0.5,0-0.7,0C19.9,33.4,19.8,33.4,19.6,33.4z"/>
</symbol><symbol id="icon-arr-l" viewBox="0 0 40 40">

<path class="st0" d="M31.5,1.1c0.6,0,1.2,0.3,1.5,0.8c0.6,0.8,0.4,2-0.5,2.6l-0.4,0.3c-0.1,0-0.1,0.1-0.2,0.1
	C31.9,4.9,31.8,5,31.7,5l-0.4,0.3c-0.1,0-0.1,0.1-0.2,0.1c-0.1,0.1-0.1,0.1-0.2,0.2l-0.4,0.3c-0.1,0-0.1,0.1-0.2,0.1
	c-0.1,0.1-0.1,0.1-0.2,0.2l-0.4,0.3c-0.1,0-0.1,0.1-0.2,0.1c-0.1,0.1-0.1,0.1-0.2,0.2L28.9,7c-0.1,0-0.1,0.1-0.2,0.1
	c-0.1,0.1-0.1,0.1-0.2,0.1l-0.4,0.3c-0.1,0.1-0.1,0.1-0.2,0.1c-0.1,0.1-0.1,0.1-0.2,0.1l-0.4,0.3c-0.1,0.1-0.1,0.1-0.2,0.1
	C27,8.3,27,8.4,26.9,8.4l-0.4,0.3c-0.1,0.1-0.1,0.1-0.2,0.1c-0.1,0.1-0.1,0.1-0.2,0.1l-0.4,0.3c-0.1,0.1-0.1,0.1-0.2,0.1
	c-0.1,0.1-0.1,0.1-0.2,0.2l-0.4,0.3c-0.1,0-0.1,0.1-0.2,0.1c-0.1,0.1-0.1,0.1-0.2,0.2l-0.4,0.3c-0.1,0-0.1,0.1-0.2,0.1
	c-0.1,0.1-0.1,0.1-0.2,0.2L23.3,11c-0.1,0-0.1,0.1-0.2,0.1c-0.1,0.1-0.1,0.1-0.2,0.2l-0.4,0.3c-0.1,0-0.1,0.1-0.2,0.1
	c-0.1,0.1-0.1,0.1-0.2,0.2l-0.4,0.3c-0.1,0-0.1,0.1-0.2,0.1c-0.1,0.1-0.1,0.1-0.2,0.1l-0.4,0.3c-0.1,0.1-0.1,0.1-0.2,0.1
	c-0.1,0.1-0.1,0.1-0.2,0.1l-0.2,0.1L20.2,13c-0.1,0.2-0.3,0.4-0.5,0.5l-0.4,0.3c-0.1,0.1-0.1,0.1-0.2,0.1C19,14,18.9,14,18.9,14.1
	l-0.4,0.3c-0.1,0.1-0.1,0.1-0.2,0.1c-0.1,0.1-0.1,0.1-0.2,0.2l-0.4,0.3c-0.1,0-0.1,0.1-0.2,0.1c-0.1,0.1-0.1,0.1-0.2,0.2l-0.4,0.3
	c-0.1,0-0.1,0.1-0.2,0.1c-0.1,0.1-0.1,0.1-0.2,0.2L16,16c-0.1,0-0.1,0.1-0.2,0.1c-0.1,0.1-0.1,0.1-0.2,0.2l-0.4,0.3
	c-0.1,0-0.1,0.1-0.2,0.1c-0.1,0.1-0.1,0.1-0.2,0.2l-0.4,0.3c-0.1,0.1-0.1,0.1-0.2,0.1c-0.1,0.1-0.1,0.1-0.2,0.1l-0.4,0.3
	c-0.1,0.1-0.1,0.1-0.2,0.1c-0.1,0.1-0.1,0.1-0.2,0.1l-0.4,0.3c-0.1,0.1-0.1,0.1-0.2,0.1c-0.1,0.1-0.1,0.1-0.2,0.2L12,18.9
	c-0.1,0-0.1,0.1-0.2,0.1c-0.1,0.1-0.1,0.1-0.2,0.2l-0.4,0.3c-0.1,0-0.1,0.1-0.2,0.1c-0.1,0.1-0.1,0.1-0.2,0.1c0,0-0.1,0-0.1,0.1
	c0,0,0,0,0,0c0,0,0,0,0,0L10.6,20c0,0,0,0,0,0.1c0,0,0,0,0,0l0,0.1c0,0,0,0.1,0,0.1c0,0,0,0,0,0.1c0,0,0,0.1,0,0.1c0,0,0,0,0,0.1
	c0,0,0,0,0,0c0,0,0,0.1,0.1,0.1c0,0,0.1,0.1,0.1,0.1c0.1,0,0.1,0.1,0.2,0.1l0.4,0.3c0.1,0,0.1,0.1,0.2,0.2c0.1,0,0.1,0.1,0.2,0.1
	l0.4,0.3c0.1,0,0.1,0.1,0.2,0.2c0.1,0,0.1,0.1,0.2,0.1l0.4,0.3c0.1,0,0.1,0.1,0.2,0.1c0.1,0,0.1,0.1,0.2,0.1l0.4,0.3
	c0.1,0,0.1,0.1,0.2,0.2c0.1,0,0.1,0.1,0.2,0.1l0.4,0.3c0.1,0,0.1,0.1,0.2,0.2c0.1,0,0.1,0.1,0.2,0.1l0.4,0.3c0.1,0,0.1,0.1,0.2,0.2
	c0.1,0,0.1,0.1,0.2,0.1l0.4,0.3c0.1,0,0.1,0.1,0.2,0.2c0.1,0,0.1,0.1,0.2,0.1l0.4,0.3c0.1,0,0.1,0.1,0.2,0.2c0.1,0,0.1,0.1,0.2,0.1
	l0.4,0.3c0.1,0,0.1,0.1,0.2,0.2c0.1,0,0.1,0.1,0.2,0.1l0.4,0.3c0.1,0,0.1,0.1,0.2,0.2c0.1,0,0.1,0.1,0.2,0.1l0.4,0.3
	c0.1,0,0.1,0.1,0.2,0.2c0.1,0,0.1,0.1,0.2,0.1l0.4,0.3c0.1,0,0.1,0.1,0.2,0.2c0.1,0,0.1,0.1,0.2,0.1l0.4,0.3c0.1,0,0.1,0.1,0.2,0.2
	c0.1,0,0.1,0.1,0.2,0.1l0.4,0.3c0.1,0,0.1,0.1,0.2,0.2c0.1,0,0.1,0.1,0.2,0.1l0.4,0.3c0.1,0,0.1,0.1,0.2,0.2c0.1,0,0.1,0.1,0.2,0.1
	l0.4,0.3c0.1,0,0.1,0.1,0.2,0.2c0.1,0,0.1,0.1,0.2,0.1l0.4,0.3c0.1,0,0.1,0.1,0.2,0.2c0.1,0,0.1,0.1,0.2,0.1l0.4,0.3
	c0.1,0,0.1,0.1,0.2,0.2c0.1,0,0.1,0.1,0.2,0.1l0.4,0.3c0.1,0,0.1,0.1,0.2,0.2c0.1,0,0.1,0.1,0.2,0.1l0.4,0.3c0.1,0,0.1,0.1,0.2,0.2
	c0.1,0,0.1,0.1,0.2,0.1l0.4,0.3c0.1,0,0.1,0.1,0.2,0.2c0.1,0,0.1,0.1,0.2,0.1l0.4,0.3c0.1,0,0.1,0.1,0.2,0.2c0.1,0,0.1,0.1,0.2,0.1
	l0.4,0.3c0.1,0,0.1,0.1,0.2,0.2c0.1,0,0.1,0.1,0.2,0.1l0.4,0.3c0.1,0,0.1,0.1,0.2,0.2c0.1,0,0.1,0.1,0.2,0.1l0.4,0.3
	c0.1,0,0.1,0.1,0.2,0.2c0.1,0,0.1,0.1,0.2,0.1l0.4,0.3c0.1,0,0.1,0.1,0.2,0.2c0.1,0,0.1,0.1,0.2,0.1l0.4,0.3c0.8,0.6,1,1.7,0.5,2.6
	c-0.6,0.8-1.7,1-2.6,0.5l-0.4-0.3c-0.1,0-0.1-0.1-0.2-0.2c-0.1,0-0.1-0.1-0.2-0.1l-0.4-0.3c-0.1,0-0.1-0.1-0.2-0.2
	c-0.1,0-0.1-0.1-0.2-0.1l-0.4-0.3c-0.1,0-0.1-0.1-0.2-0.2c-0.1,0-0.1-0.1-0.2-0.1l-0.4-0.3c-0.1,0-0.1-0.1-0.2-0.2
	c-0.1,0-0.1-0.1-0.2-0.1l-0.4-0.3c-0.1,0-0.1-0.1-0.2-0.2c-0.1,0-0.1-0.1-0.2-0.1l-0.4-0.3c-0.1,0-0.1-0.1-0.2-0.2
	c-0.1,0-0.1-0.1-0.2-0.1l-0.4-0.3c-0.1,0-0.1-0.1-0.2-0.2c-0.1,0-0.1-0.1-0.2-0.1l-0.4-0.3c-0.1,0-0.1-0.1-0.2-0.2
	c-0.1,0-0.1-0.1-0.2-0.1L23.4,34c-0.1,0-0.1-0.1-0.2-0.2c-0.1,0-0.1-0.1-0.2-0.1l-0.4-0.3c-0.1,0-0.1-0.1-0.2-0.2
	c-0.1,0-0.1-0.1-0.2-0.1l-0.4-0.3c-0.1,0-0.1-0.1-0.2-0.2c-0.1,0-0.1-0.1-0.2-0.1L21,32.3c-0.1,0-0.1-0.1-0.2-0.2
	c-0.1,0-0.1-0.1-0.2-0.1l-0.4-0.3c-0.1,0-0.1-0.1-0.2-0.2c-0.1,0-0.1-0.1-0.2-0.1l-0.4-0.3c-0.1,0-0.1-0.1-0.2-0.2
	c-0.1,0-0.1-0.1-0.2-0.1l-0.4-0.3c-0.1,0-0.1-0.1-0.2-0.2c-0.1,0-0.1-0.1-0.2-0.1l-0.4-0.3c-0.1,0-0.1-0.1-0.2-0.2
	c-0.1,0-0.1-0.1-0.2-0.1L17,29.5c-0.1,0-0.1-0.1-0.2-0.2c-0.1,0-0.1-0.1-0.2-0.1l-0.4-0.3c-0.1,0-0.1-0.1-0.2-0.2
	c-0.1,0-0.1-0.1-0.2-0.1l-0.4-0.3c-0.1,0-0.1-0.1-0.2-0.2c-0.1,0-0.1-0.1-0.2-0.1l-0.4-0.3c-0.1,0-0.1-0.1-0.2-0.2
	c-0.1,0-0.1-0.1-0.2-0.1l-0.4-0.3c-0.1,0-0.1-0.1-0.2-0.2c-0.1,0-0.1-0.1-0.2-0.1L13,26.7c-0.1,0-0.1-0.1-0.2-0.2
	c-0.1,0-0.1-0.1-0.2-0.1l-0.4-0.3c-0.1,0-0.1-0.1-0.2-0.2c-0.1,0-0.1-0.1-0.2-0.1l-0.4-0.3c-0.1,0-0.1-0.1-0.2-0.2
	c-0.1,0-0.1-0.1-0.2-0.1L10.5,25c-0.1,0-0.1-0.1-0.2-0.2c-0.1,0-0.1-0.1-0.2-0.1l-0.4-0.3c-0.1,0-0.1-0.1-0.2-0.2
	c-0.1,0-0.1-0.1-0.2-0.1l-0.4-0.3c-0.1-0.1-0.2-0.1-0.2-0.2c-0.1-0.1-0.2-0.1-0.3-0.2c-0.2-0.2-0.4-0.4-0.6-0.6
	c-0.1-0.1-0.2-0.2-0.2-0.4c-0.1-0.1-0.2-0.2-0.2-0.3c-0.1-0.3-0.2-0.5-0.3-0.8C7,21.2,7,21,7,20.9c0-0.1-0.1-0.3-0.1-0.4
	c0-0.4,0-0.6,0-0.8C7,19.5,7,19.3,7,19.2c0-0.1,0-0.3,0.1-0.4c0.1-0.3,0.2-0.5,0.4-0.8c0.1-0.1,0.2-0.2,0.3-0.4
	c0.1-0.1,0.2-0.2,0.3-0.4c0.2-0.2,0.4-0.4,0.7-0.6c0.1-0.1,0.1-0.1,0.2-0.1C9,16.5,9,16.4,9.1,16.4l0.4-0.3c0.1,0,0.1-0.1,0.2-0.1
	c0.1-0.1,0.1-0.1,0.2-0.2l0.4-0.3c0.1,0,0.1-0.1,0.2-0.1c0.1-0.1,0.1-0.1,0.2-0.1l0.4-0.3c0.1-0.1,0.1-0.1,0.2-0.1
	c0.1-0.1,0.1-0.1,0.2-0.1l0.4-0.3c0.1-0.1,0.1-0.1,0.2-0.1c0.1-0.1,0.1-0.1,0.2-0.1l0.4-0.3c0.1-0.1,0.1-0.1,0.2-0.1
	c0.1-0.1,0.1-0.1,0.2-0.2l0.4-0.3c0.1,0,0.1-0.1,0.2-0.1c0.1-0.1,0.1-0.1,0.2-0.2l0.4-0.3c0.1,0,0.1-0.1,0.2-0.1
	c0.1-0.1,0.1-0.1,0.2-0.2l0.4-0.3c0.1,0,0.1-0.1,0.2-0.1c0.1-0.1,0.1-0.1,0.2-0.2l0.4-0.3c0.1,0,0.1-0.1,0.2-0.1
	c0.1-0.1,0.1-0.1,0.2-0.1l0.4-0.3c0.1-0.1,0.1-0.1,0.2-0.1c0.1-0.1,0.1-0.1,0.2-0.1l0.4-0.3c0.1-0.1,0.3-0.2,0.4-0.2l0-0.1l0.4-0.3
	c0.1-0.1,0.1-0.1,0.2-0.1c0.1-0.1,0.1-0.1,0.2-0.1l0.4-0.3c0.1-0.1,0.1-0.1,0.2-0.1c0.1-0.1,0.1-0.1,0.2-0.2L20,8.8
	c0.1,0,0.1-0.1,0.2-0.1c0.1-0.1,0.1-0.1,0.2-0.2l0.4-0.3c0.1,0,0.1-0.1,0.2-0.1C21,8,21.1,8,21.2,7.9l0.4-0.3c0.1,0,0.1-0.1,0.2-0.1
	c0.1-0.1,0.1-0.1,0.2-0.2l0.4-0.3c0.1,0,0.1-0.1,0.2-0.1c0.1-0.1,0.1-0.1,0.2-0.2l0.4-0.3c0.1,0,0.1-0.1,0.2-0.1
	c0.1-0.1,0.1-0.1,0.2-0.1L24,6c0.1-0.1,0.1-0.1,0.2-0.1c0.1-0.1,0.1-0.1,0.2-0.1l0.4-0.3c0.1-0.1,0.1-0.1,0.2-0.1
	c0.1-0.1,0.1-0.1,0.2-0.1l0.4-0.3c0.1-0.1,0.1-0.1,0.2-0.1c0.1-0.1,0.1-0.1,0.2-0.1l0.4-0.3c0.1-0.1,0.1-0.1,0.2-0.1
	C26.7,4.1,26.8,4,26.8,4l0.4-0.3c0.1,0,0.1-0.1,0.2-0.1c0.1-0.1,0.1-0.1,0.2-0.2L28,3.1c0.1,0,0.1-0.1,0.2-0.1
	c0.1-0.1,0.1-0.1,0.2-0.2l0.4-0.3c0.1,0,0.1-0.1,0.2-0.1c0.1-0.1,0.1-0.1,0.2-0.2L29.6,2c0.1,0,0.1-0.1,0.2-0.1
	C29.9,1.8,30,1.8,30,1.7l0.4-0.3C30.8,1.2,31.1,1.1,31.5,1.1z"/>
</symbol><symbol id="icon-arr-r-2" viewBox="0 0 40 40">

<path d="M39,19.8c0-0.9-0.5-1.6-1.1-2.1l-15-15c-1-1-2.7-1-3.7,0s-1,2.7,0,3.7l10.8,10.8L3.6,17.5c-1.5,0-2.6,1.2-2.6,2.7
	c0,1.5,1.2,2.6,2.6,2.6c0,0,0,0,0,0L30,22.6L19.1,33.5c-1,1-1,2.7,0,3.7c0.5,0.5,1.2,0.8,1.9,0.8c0.7,0,1.4-0.3,1.9-0.8l15.4-15.4
	C38.8,21.3,39,20.6,39,19.8C39,19.9,39,19.9,39,19.8z"/>
</symbol><symbol id="icon-arr-r" viewBox="0 0 40 40">

<path class="st0" d="M8.6,39c-0.6,0-1.2-0.3-1.5-0.8c-0.6-0.8-0.4-2,0.5-2.6L8,35.4c0.1,0,0.1-0.1,0.2-0.1c0.1-0.1,0.1-0.1,0.2-0.2
	l0.4-0.3c0.1,0,0.1-0.1,0.2-0.1c0.1-0.1,0.1-0.1,0.2-0.2l0.4-0.3c0.1,0,0.1-0.1,0.2-0.1C9.8,34.1,9.9,34,10,34l0.4-0.3
	c0.1,0,0.1-0.1,0.2-0.1c0.1-0.1,0.1-0.1,0.2-0.2l0.4-0.3c0.1,0,0.1-0.1,0.2-0.1c0.1-0.1,0.1-0.1,0.2-0.1l0.4-0.3
	c0.1-0.1,0.1-0.1,0.2-0.1c0.1-0.1,0.1-0.1,0.2-0.1l0.4-0.3c0.1-0.1,0.1-0.1,0.2-0.1c0.1-0.1,0.1-0.1,0.2-0.1l0.4-0.3
	c0.1-0.1,0.1-0.1,0.2-0.1c0.1-0.1,0.1-0.1,0.2-0.1l0.4-0.3c0.1-0.1,0.1-0.1,0.2-0.1c0.1-0.1,0.1-0.1,0.2-0.2l0.4-0.3
	c0.1,0,0.1-0.1,0.2-0.1c0.1-0.1,0.1-0.1,0.2-0.2l0.4-0.3c0.1,0,0.1-0.1,0.2-0.1c0.1-0.1,0.1-0.1,0.2-0.2l0.4-0.3
	c0.1,0,0.1-0.1,0.2-0.1c0.1-0.1,0.1-0.1,0.2-0.2l0.4-0.3c0.1,0,0.1-0.1,0.2-0.1c0.1-0.1,0.1-0.1,0.2-0.2l0.4-0.3
	c0.1,0,0.1-0.1,0.2-0.1c0.1-0.1,0.1-0.1,0.2-0.1l0.4-0.3c0.1-0.1,0.1-0.1,0.2-0.1c0.1-0.1,0.1-0.1,0.2-0.1l0.2-0.1l0.1,0.1
	c0.1-0.2,0.3-0.4,0.5-0.5l0.4-0.3c0.1-0.1,0.1-0.1,0.2-0.1c0.1-0.1,0.1-0.1,0.2-0.1l0.4-0.3c0.1-0.1,0.1-0.1,0.2-0.1
	c0.1-0.1,0.1-0.1,0.2-0.2l0.4-0.3c0.1,0,0.1-0.1,0.2-0.1c0.1-0.1,0.1-0.1,0.2-0.2l0.4-0.3c0.1,0,0.1-0.1,0.2-0.1
	c0.1-0.1,0.1-0.1,0.2-0.2l0.4-0.3c0.1,0,0.1-0.1,0.2-0.1c0.1-0.1,0.1-0.1,0.2-0.2l0.4-0.3c0.1,0,0.1-0.1,0.2-0.1
	c0.1-0.1,0.1-0.1,0.2-0.2l0.4-0.3c0.1-0.1,0.1-0.1,0.2-0.1c0.1-0.1,0.1-0.1,0.2-0.1l0.4-0.3c0.1-0.1,0.1-0.1,0.2-0.1
	c0.1-0.1,0.1-0.1,0.2-0.1l0.4-0.3c0.1-0.1,0.1-0.1,0.2-0.1c0.1-0.1,0.1-0.1,0.2-0.2l0.4-0.3c0.1,0,0.1-0.1,0.2-0.1
	c0.1-0.1,0.1-0.1,0.2-0.2l0.4-0.3c0.1,0,0.1-0.1,0.2-0.1c0.1-0.1,0.1-0.1,0.2-0.1c0,0,0.1,0,0.1-0.1c0,0,0,0,0,0c0,0,0,0,0,0
	l0.1-0.1c0,0,0,0,0-0.1c0,0,0,0,0,0l0-0.1c0,0,0-0.1,0-0.1c0,0,0,0,0-0.1c0,0,0-0.1,0-0.1c0,0,0,0,0-0.1c0,0,0,0,0,0
	c0,0,0-0.1-0.1-0.1c0,0-0.1-0.1-0.1-0.1c-0.1,0-0.1-0.1-0.2-0.1L28.7,19c-0.1,0-0.1-0.1-0.2-0.2c-0.1,0-0.1-0.1-0.2-0.1l-0.4-0.3
	c-0.1,0-0.1-0.1-0.2-0.2c-0.1,0-0.1-0.1-0.2-0.1l-0.4-0.3c-0.1,0-0.1-0.1-0.2-0.1c-0.1,0-0.1-0.1-0.2-0.1l-0.4-0.3
	c-0.1,0-0.1-0.1-0.2-0.2c-0.1,0-0.1-0.1-0.2-0.1l-0.4-0.3c-0.1,0-0.1-0.1-0.2-0.2c-0.1,0-0.1-0.1-0.2-0.1l-0.4-0.3
	c-0.1,0-0.1-0.1-0.2-0.2c-0.1,0-0.1-0.1-0.2-0.1l-0.4-0.3c-0.1,0-0.1-0.1-0.2-0.2c-0.1,0-0.1-0.1-0.2-0.1L23,15.1
	c-0.1,0-0.1-0.1-0.2-0.2c-0.1,0-0.1-0.1-0.2-0.1l-0.4-0.3c-0.1,0-0.1-0.1-0.2-0.2c-0.1,0-0.1-0.1-0.2-0.1l-0.4-0.3
	c-0.1,0-0.1-0.1-0.2-0.2c-0.1,0-0.1-0.1-0.2-0.1l-0.4-0.3c-0.1,0-0.1-0.1-0.2-0.2c-0.1,0-0.1-0.1-0.2-0.1l-0.4-0.3
	c-0.1,0-0.1-0.1-0.2-0.2c-0.1,0-0.1-0.1-0.2-0.1L19,12.2c-0.1,0-0.1-0.1-0.2-0.2c-0.1,0-0.1-0.1-0.2-0.1l-0.4-0.3
	c-0.1,0-0.1-0.1-0.2-0.2c-0.1,0-0.1-0.1-0.2-0.1l-0.4-0.3c-0.1,0-0.1-0.1-0.2-0.2c-0.1,0-0.1-0.1-0.2-0.1l-0.4-0.3
	c-0.1,0-0.1-0.1-0.2-0.2c-0.1,0-0.1-0.1-0.2-0.1L15.8,10c-0.1,0-0.1-0.1-0.2-0.2c-0.1,0-0.1-0.1-0.2-0.1L15,9.4
	c-0.1,0-0.1-0.1-0.2-0.2c-0.1,0-0.1-0.1-0.2-0.1l-0.4-0.3c-0.1,0-0.1-0.1-0.2-0.2c-0.1,0-0.1-0.1-0.2-0.1l-0.4-0.3
	c-0.1,0-0.1-0.1-0.2-0.2C13.1,8.1,13,8.1,13,8l-0.4-0.3c-0.1,0-0.1-0.1-0.2-0.2c-0.1,0-0.1-0.1-0.2-0.1l-0.4-0.3
	c-0.1,0-0.1-0.1-0.2-0.2c-0.1,0-0.1-0.1-0.2-0.1l-0.4-0.3c-0.1,0-0.1-0.1-0.2-0.2c-0.1,0-0.1-0.1-0.2-0.1L10.1,6
	C10.1,6,10,5.9,9.9,5.9c-0.1,0-0.1-0.1-0.2-0.1L9.3,5.5c-0.1,0-0.1-0.1-0.2-0.2C9.1,5.3,9,5.2,8.9,5.2L8.5,4.9
	c-0.1,0-0.1-0.1-0.2-0.2c-0.1,0-0.1-0.1-0.2-0.1L7.7,4.4c-0.8-0.6-1-1.7-0.5-2.6C7.8,1,9,0.7,9.8,1.3l0.4,0.3c0.1,0,0.1,0.1,0.2,0.2
	c0.1,0,0.1,0.1,0.2,0.1L11,2.2c0.1,0,0.1,0.1,0.2,0.2c0.1,0,0.1,0.1,0.2,0.1l0.4,0.3c0.1,0,0.1,0.1,0.2,0.2c0.1,0,0.1,0.1,0.2,0.1
	l0.4,0.3c0.1,0,0.1,0.1,0.2,0.2c0.1,0,0.1,0.1,0.2,0.1l0.4,0.3c0.1,0,0.1,0.1,0.2,0.2c0.1,0,0.1,0.1,0.2,0.1l0.4,0.3
	c0.1,0,0.1,0.1,0.2,0.2c0.1,0,0.1,0.1,0.2,0.1L15.1,5c0.1,0,0.1,0.1,0.2,0.2c0.1,0,0.1,0.1,0.2,0.1l0.4,0.3c0.1,0,0.1,0.1,0.2,0.2
	c0.1,0,0.1,0.1,0.2,0.1l0.4,0.3c0.1,0,0.1,0.1,0.2,0.2c0.1,0,0.1,0.1,0.2,0.1l0.4,0.3c0.1,0,0.1,0.1,0.2,0.2c0.1,0,0.1,0.1,0.2,0.1
	l0.4,0.3c0.1,0,0.1,0.1,0.2,0.2c0.1,0,0.1,0.1,0.2,0.1l0.4,0.3c0.1,0,0.1,0.1,0.2,0.2c0.1,0,0.1,0.1,0.2,0.1l0.4,0.3
	c0.1,0,0.1,0.1,0.2,0.2c0.1,0,0.1,0.1,0.2,0.1l0.4,0.3c0.1,0,0.1,0.1,0.2,0.2c0.1,0,0.1,0.1,0.2,0.1l0.4,0.3c0.1,0,0.1,0.1,0.2,0.2
	c0.1,0,0.1,0.1,0.2,0.1l0.4,0.3c0.1,0,0.1,0.1,0.2,0.2c0.1,0,0.1,0.1,0.2,0.1l0.4,0.3c0.1,0,0.1,0.1,0.2,0.2c0.1,0,0.1,0.1,0.2,0.1
	l0.4,0.3c0.1,0,0.1,0.1,0.2,0.2c0.1,0,0.1,0.1,0.2,0.1l0.4,0.3c0.1,0,0.1,0.1,0.2,0.2c0.1,0,0.1,0.1,0.2,0.1l0.4,0.3
	c0.1,0,0.1,0.1,0.2,0.2c0.1,0,0.1,0.1,0.2,0.1l0.4,0.3c0.1,0,0.1,0.1,0.2,0.2c0.1,0,0.1,0.1,0.2,0.1l0.4,0.3c0.1,0,0.1,0.1,0.2,0.2
	c0.1,0,0.1,0.1,0.2,0.1L28,14c0.1,0,0.1,0.1,0.2,0.2c0.1,0,0.1,0.1,0.2,0.1l0.4,0.3c0.1,0,0.1,0.1,0.2,0.2c0.1,0,0.1,0.1,0.2,0.1
	l0.4,0.3c0.1,0,0.1,0.1,0.2,0.2c0.1,0,0.1,0.1,0.2,0.1l0.4,0.3c0.1,0,0.1,0.1,0.2,0.2c0.1,0,0.1,0.1,0.2,0.1l0.4,0.3
	c0.1,0.1,0.2,0.1,0.2,0.2c0.1,0.1,0.2,0.1,0.3,0.2c0.2,0.2,0.4,0.4,0.6,0.6c0.1,0.1,0.2,0.2,0.2,0.4c0.1,0.1,0.2,0.2,0.2,0.3
	c0.1,0.3,0.2,0.5,0.3,0.8c0,0.1,0.1,0.3,0.1,0.4c0,0.1,0.1,0.3,0.1,0.4c0,0.4,0,0.6,0,0.8c0,0.2-0.1,0.3-0.1,0.4
	c0,0.1,0,0.3-0.1,0.4c-0.1,0.3-0.2,0.5-0.4,0.8c-0.1,0.1-0.2,0.2-0.3,0.4c-0.1,0.1-0.2,0.2-0.3,0.4c-0.2,0.2-0.4,0.4-0.7,0.6
	c-0.1,0.1-0.1,0.1-0.2,0.1c-0.1,0.1-0.1,0.1-0.2,0.2L30.6,24c-0.1,0-0.1,0.1-0.2,0.1c-0.1,0.1-0.1,0.1-0.2,0.2l-0.4,0.3
	c-0.1,0-0.1,0.1-0.2,0.1c-0.1,0.1-0.1,0.1-0.2,0.1L29,25.1c-0.1,0.1-0.1,0.1-0.2,0.1c-0.1,0.1-0.1,0.1-0.2,0.1l-0.4,0.3
	c-0.1,0.1-0.1,0.1-0.2,0.1c-0.1,0.1-0.1,0.1-0.2,0.1l-0.4,0.3c-0.1,0.1-0.1,0.1-0.2,0.1c-0.1,0.1-0.1,0.1-0.2,0.2l-0.4,0.3
	c-0.1,0-0.1,0.1-0.2,0.1c-0.1,0.1-0.1,0.1-0.2,0.2l-0.4,0.3c-0.1,0-0.1,0.1-0.2,0.1c-0.1,0.1-0.1,0.1-0.2,0.2L25,28
	c-0.1,0-0.1,0.1-0.2,0.1c-0.1,0.1-0.1,0.1-0.2,0.2l-0.4,0.3c-0.1,0-0.1,0.1-0.2,0.1c-0.1,0.1-0.1,0.1-0.2,0.1l-0.4,0.3
	c-0.1,0.1-0.1,0.1-0.2,0.1c-0.1,0.1-0.1,0.1-0.2,0.1l-0.4,0.3c-0.1,0.1-0.3,0.2-0.4,0.2l0,0.1l-0.4,0.3c-0.1,0.1-0.1,0.1-0.2,0.1
	c-0.1,0.1-0.1,0.1-0.2,0.1L21,30.8c-0.1,0.1-0.1,0.1-0.2,0.1c-0.1,0.1-0.1,0.1-0.2,0.2l-0.4,0.3c-0.1,0-0.1,0.1-0.2,0.1
	c-0.1,0.1-0.1,0.1-0.2,0.2l-0.4,0.3c-0.1,0-0.1,0.1-0.2,0.1c-0.1,0.1-0.1,0.1-0.2,0.2l-0.4,0.3c-0.1,0-0.1,0.1-0.2,0.1
	c-0.1,0.1-0.1,0.1-0.2,0.2L17.7,33c-0.1,0-0.1,0.1-0.2,0.1c-0.1,0.1-0.1,0.1-0.2,0.2l-0.4,0.3c-0.1,0-0.1,0.1-0.2,0.1
	c-0.1,0.1-0.1,0.1-0.2,0.1l-0.4,0.3c-0.1,0.1-0.1,0.1-0.2,0.1c-0.1,0.1-0.1,0.1-0.2,0.1l-0.4,0.3c-0.1,0.1-0.1,0.1-0.2,0.1
	C15,34.9,15,35,14.9,35l-0.4,0.3c-0.1,0.1-0.1,0.1-0.2,0.1c-0.1,0.1-0.1,0.1-0.2,0.1l-0.4,0.3c-0.1,0.1-0.1,0.1-0.2,0.1
	c-0.1,0.1-0.1,0.1-0.2,0.2l-0.4,0.3c-0.1,0-0.1,0.1-0.2,0.1c-0.1,0.1-0.1,0.1-0.2,0.2L12.1,37c-0.1,0-0.1,0.1-0.2,0.1
	c-0.1,0.1-0.1,0.1-0.2,0.2l-0.4,0.3c-0.1,0-0.1,0.1-0.2,0.1c-0.1,0.1-0.1,0.1-0.2,0.2l-0.4,0.3c-0.1,0-0.1,0.1-0.2,0.1
	c-0.1,0.1-0.1,0.1-0.2,0.2l-0.4,0.3C9.4,38.9,9,39,8.6,39z"/>
</symbol><symbol id="icon-bezpecnost" viewBox="0 0 40 40">

<path class="st0" d="M20,36c-1.9,0-13.2-4.8-14.2-17.5l0,0C5.3,12.9,6,9.5,8.1,7.2C10.7,4.4,15.4,4,20,4s9.3,0.4,11.9,3.2
	c2,2.2,2.8,5.7,2.3,11.3C33.2,31.2,21.9,36,20,36z M8.3,18.3C9.2,29.4,19,33.4,20,33.5c1-0.1,10.8-4.1,11.7-15.2
	c0.4-4.8-0.1-7.7-1.6-9.4C28.5,7.2,25.6,6.5,20,6.5S11.5,7.2,9.9,8.9C8.4,10.6,7.9,13.5,8.3,18.3L8.3,18.3z"/>
<path class="st0" d="M18.4,22.3L18.4,22.3c-0.3,0-0.6-0.1-0.9-0.4l-3.1-3.1c-0.5-0.5-0.5-1.3,0-1.8c0.5-0.5,1.3-0.5,1.8,0l2.2,2.2
	l5.3-5.3c0.5-0.5,1.3-0.5,1.8,0c0.5,0.5,0.5,1.3,0,1.8L19.3,22C19.1,22.2,18.8,22.3,18.4,22.3z"/>
</symbol><symbol id="icon-cloud" viewBox="0 0 40 40">

<path class="st0" d="M28.4,15.5l-1.2,0.2c0.1,0.3,0.3,0.6,0.5,0.8c0.3,0.2,0.6,0.3,1,0.2L28.4,15.5z M13.1,15.4l-0.2,1.2
	c0.7,0.1,1.3-0.3,1.4-1L13.1,15.4z M6.9,21.6l0,1.2c0.4,0,0.7-0.2,0.9-0.4c0.2-0.3,0.3-0.6,0.3-1L6.9,21.6z M6.8,21.6l0-1.2h0V21.6z
	 M6.8,29.6c-1.9,0-3.4-1.5-3.4-3.4H0.9c0,3.3,2.6,5.9,5.9,5.9V29.6z M30.1,29.6H6.8v2.5h23.3V29.6z M36.6,23.1
	c0,3.6-2.9,6.5-6.5,6.5v2.5c5,0,9-4,9-9H36.6z M30.1,16.6c3.6,0,6.5,2.9,6.5,6.5h2.5c0-5-4-9-9-9V16.6z M28.7,16.7
	c0.5-0.1,0.9-0.2,1.4-0.2v-2.5c-0.7,0-1.3,0.1-1.9,0.2L28.7,16.7z M20.8,10.4c3.2,0,5.9,2.3,6.4,5.4l2.4-0.4
	c-0.8-4.2-4.4-7.4-8.9-7.4V10.4z M14.4,15.7c0.6-3,3.2-5.3,6.4-5.3V7.9c-4.4,0-8,3.1-8.8,7.3L14.4,15.7z M12.2,16.6
	c0.2,0,0.5,0,0.7,0.1l0.4-2.5c-0.4-0.1-0.7-0.1-1.1-0.1V16.6z M8,20.8c0-2.3,1.9-4.2,4.2-4.2v-2.5c-3.7,0-6.7,3-6.7,6.7H8z
	 M8.1,21.4c0-0.2,0-0.4,0-0.6H5.6c0,0.3,0,0.6,0.1,1L8.1,21.4z M6.8,22.8L6.8,22.8l0.1-2.5l-0.1,0L6.8,22.8z M3.4,26.2
	c0-1.9,1.5-3.4,3.4-3.4v-2.5c-3.3,0-5.9,2.6-5.9,5.9H3.4z"/>
</symbol><symbol id="icon-company" viewBox="0 0 40 40">

<path class="st0" d="M38.2,6.4L23.7,1.2C22.9,0.9,22,1.5,22,2.4v5.8H18V2.4c0-0.8-0.8-1.4-1.6-1.1L1.8,6.4C1.3,6.6,1,7,1,7.6v30.4
	c0,0.7,0.5,1.2,1.2,1.2h35.6c0.7,0,1.2-0.5,1.2-1.2V7.6C39,7,38.7,6.6,38.2,6.4z M36.6,36.7H3.4V8.4l12.1-4.3v29.8H18V10.6H22V34
	h2.4V4.1l12.1,4.3V36.7z"/>
<path class="st0" d="M26.7,8.5h2.4v3.3h-2.4V8.5z"/>
<path class="st0" d="M26.7,16.1h2.4v3.2h-2.4V16.1z"/>
<path class="st0" d="M26.7,23.5h2.4v3.2h-2.4V23.5z"/>
<path class="st0" d="M31.9,16.1h2.4v3.2h-2.4V16.1z"/>
<path class="st0" d="M31.9,23.5h2.4v3.2h-2.4V23.5z"/>
<path class="st0" d="M26.7,30.9h2.4v3.2h-2.4V30.9z"/>
<path class="st0" d="M31.9,30.9h2.4v3.2h-2.4V30.9z"/>
<path class="st0" d="M10.9,8.5h2.4v3.3h-2.4V8.5z"/>
<path class="st0" d="M10.9,16.1h2.4v3.2h-2.4V16.1z"/>
<path class="st0" d="M10.9,23.5h2.4v3.2h-2.4V23.5z"/>
<path class="st0" d="M5.7,16.1h2.4v3.2H5.7V16.1z"/>
<path class="st0" d="M5.7,23.5h2.4v3.2H5.7V23.5z"/>
<path class="st0" d="M10.9,30.9h2.4v3.2h-2.4V30.9z"/>
<path class="st0" d="M5.7,30.9h2.4v3.2H5.7V30.9z"/>
</symbol><symbol id="icon-eshop" viewBox="0 0 40 40">

<path class="st0" d="M36.2,21c-0.6,0-1.1,0.5-1.1,1.1v7.2c0,0.1-0.1,0.2-0.2,0.2H5c-0.1,0-0.2-0.1-0.2-0.2V18c0-0.6-0.5-1.1-1.1-1.1
	c-0.6,0-1.1,0.5-1.1,1.1v11.3c0,1.3,1.1,2.4,2.4,2.4h8.1v5h-2.4c-0.6,0-1.1,0.5-1.1,1.1s0.5,1.1,1.1,1.1h18.3c0.6,0,1.1-0.5,1.1-1.1
	s-0.5-1.1-1.1-1.1h-2.4v-5h8.1c1.3,0,2.4-1.1,2.4-2.4v-7.2C37.3,21.5,36.8,21,36.2,21z M24.5,36.7h-9.1v-5h9.1V36.7z"/>
<path class="st0" d="M38.5,5.8c-0.5-1.3-1-2.5-1.3-3.2C36.9,1.6,36,1,35,1H5c-1,0-2,0.7-2.3,1.6L1.4,6c-1.6,4.4,1.8,9.3,6.5,9.3
	c2.5,0,4.7-1.3,5.9-3.3c1.3,2,3.6,3.3,6.1,3.3c2.6,0,4.8-1.3,6.1-3.3c1.2,2,3.4,3.3,5.9,3.3C36.8,15.2,40.3,10.3,38.5,5.8z M35,3.3
	c0.1,0,0.2,0.1,0.2,0.1c0.5,1.2,1,2.4,1.4,3.6h-9.2l0-3.8H35z M25.1,7H14.8V3.3h10.2V7z M4.8,3.4c0-0.1,0.1-0.1,0.2-0.1h7.6V7H3.4
	C3.8,5.8,4.3,4.6,4.8,3.4z M7.9,13c-2.2,0-4.1-1.6-4.6-3.8h9.2C12.1,11.4,10.2,13,7.9,13z M20,13c-2.3,0-4.3-1.6-4.9-3.8h9.8
	C24.3,11.4,22.3,13,20,13z M32,13L32,13c-2.3,0-4.2-1.6-4.6-3.8h9.2C36.2,11.4,34.2,13,32,13z"/>
</symbol><symbol id="icon-eye" viewBox="0 0 40 40">

<path class="st1" d="M12.7,20c0-4,3.3-7.3,7.3-7.3s7.3,3.3,7.3,7.3c0,4-3.3,7.3-7.3,7.3S12.7,24,12.7,20z M20,15.6
	c-2.4,0-4.4,2-4.4,4.4c0,2.4,2,4.4,4.4,4.4s4.4-2,4.4-4.4C24.4,17.6,22.4,15.6,20,15.6z"/>
<path class="st1" d="M5,17.4c-0.8,1.2-1.1,2.1-1.1,2.6s0.3,1.5,1.1,2.6c0.8,1.1,2,2.4,3.4,3.5c3,2.3,7.1,4.1,11.5,4.1
	c4.5,0,8.5-1.8,11.5-4.1c1.5-1.1,2.7-2.4,3.4-3.5c0.8-1.2,1.1-2.1,1.1-2.6s-0.3-1.5-1.1-2.6c-0.8-1.1-2-2.4-3.4-3.5
	c-3-2.3-7.1-4.1-11.5-4.1c-4.5,0-8.5,1.8-11.5,4.1C7,15,5.8,16.2,5,17.4z M6.7,11.5c3.4-2.6,8.1-4.7,13.3-4.7
	c5.2,0,9.9,2.1,13.3,4.7c1.7,1.3,3.1,2.7,4.1,4.2c1,1.4,1.6,2.9,1.6,4.3s-0.7,2.9-1.6,4.3c-1,1.4-2.4,2.9-4.1,4.2
	c-3.4,2.6-8.1,4.7-13.3,4.7c-5.2,0-9.9-2.1-13.3-4.7c-1.7-1.3-3.1-2.7-4.1-4.2C1.7,22.9,1,21.4,1,20s0.7-2.9,1.6-4.3
	C3.6,14.3,5,12.8,6.7,11.5z"/>
</symbol><symbol id="icon-fb" viewBox="0 0 40 40">

<path class="st1" d="M28.4,7.8c-1.1-0.2-2.5-0.4-3.4-0.4c-2.5,0-2.6,1.1-2.6,2.8v3.1h6.2L28,19.7h-5.7V39h-7.8V19.7h-4v-6.4h4V9.4
	C14.6,4,17.1,1,23.5,1c2.2,0,3.8,0.3,5.9,0.8L28.4,7.8z"/>
</symbol><symbol id="icon-funkcni-internet" viewBox="0 0 40 40">

<path class="st0" d="M36.1,1H3.9C2.3,1,1,2.3,1,3.9v32.2C1,37.7,2.3,39,3.9,39h32.2c1.6,0,2.9-1.3,2.9-2.9V3.9C39,2.3,37.7,1,36.1,1
	z M3.9,3.6h32.2c0.2,0,0.3,0.1,0.3,0.3v5.2H3.6V3.9C3.6,3.7,3.7,3.6,3.9,3.6z M36.1,36.4H3.9c-0.2,0-0.3-0.1-0.3-0.3V11.7h32.8v24.4
	C36.4,36.3,36.3,36.4,36.1,36.4z"/>
<path class="st0" d="M5.2,5.1H8v2.6H5.2V5.1z"/>
<path class="st0" d="M10,5.1h2.8v2.6H10V5.1z"/>
<path class="st0" d="M28.1,18c-2.7,0-5.1,1.8-5.8,4.3c-1.5-0.4-3.1-0.4-4.6,0c-0.8-2.5-3.1-4.3-5.8-4.3c-3.4,0-6.1,2.7-6.1,6.1
	c0,3.4,2.7,6.1,6.1,6.1c3.1,0,5.6-2.3,6-5.2c1.4-0.5,2.8-0.5,4.2,0c0.4,2.9,3,5.2,6,5.2c3.4,0,6.1-2.7,6.1-6.1
	C34.2,20.7,31.5,18,28.1,18z M11.9,27.6c-1.9,0-3.5-1.6-3.5-3.5c0-1.9,1.6-3.5,3.5-3.5c1.9,0,3.5,1.6,3.5,3.5
	C15.4,26,13.8,27.6,11.9,27.6z M28.1,27.6c-1.9,0-3.5-1.6-3.5-3.5c0-1.9,1.6-3.5,3.5-3.5c1.9,0,3.5,1.6,3.5,3.5
	C31.6,26,30,27.6,28.1,27.6z"/>
</symbol><symbol id="icon-fyzicka-bezpecnost" viewBox="0 0 40 40">

<path class="st0" d="M18.9,13.5c-3.4,0-6.3-2.8-6.3-6.2c0-3.4,2.8-6.2,6.3-6.2s6.3,2.8,6.3,6.2C25.2,10.7,22.4,13.5,18.9,13.5z
	 M18.9,3.4c-2.1,0-3.8,1.7-3.8,3.8c0,2.1,1.7,3.8,3.8,3.8s3.8-1.7,3.8-3.8C22.7,5.1,21,3.4,18.9,3.4z"/>
<path class="st0" d="M30,39c-3.4,0-6.8-1.8-8.4-4.8l-16,0c-0.3,0-0.6-0.1-0.8-0.3l-3.3-3.2c-0.5-0.5-0.5-1.3,0-1.7l3.3-3.2
	c0.4-0.4,1.1-0.5,1.5-0.1L8,26.7l1.9-1.2c0.4-0.3,0.9-0.2,1.3,0l1.9,1.2l1.9-1.2c0.2-0.1,0.4-0.2,0.6-0.2h0l6.1,0
	c1.6-3,4.6-4.8,8.1-4.8h0c5,0,9.1,4.1,9.2,9.2C39.1,34.7,35,39,30,39z M6.1,31.7l16.3,0c0.5,0,0.9,0.3,1.1,0.7
	c1,2.4,3.7,4.1,6.5,4.1c3.7,0,6.7-3.1,6.6-6.8c0-3.8-3-6.8-6.7-6.8c0,0,0,0,0,0c-2.7,0-5.1,1.6-6.2,4.1c-0.2,0.5-0.6,0.7-1.1,0.7
	c0,0,0,0,0,0l-6.5,0l-2.3,1.4c-0.4,0.2-0.9,0.2-1.3,0L10.6,28l-1.9,1.2c-0.4,0.3-0.9,0.2-1.3,0l-1.6-1.1L4,29.7L6.1,31.7z"/>
<path class="st0" d="M9.3,21.8h2.4v2.1H9.3V21.8z"/>
<path class="st0" d="M17.8,23.3l-2.9-6.4l-3.2,1v2H9.3v-2.3c0-0.9,0.6-1.7,1.5-2l3.7-1.2c1-0.3,2.1,0.2,2.6,1.2l1.9,4.2l1.9-4.2
	c0.4-1,1.6-1.5,2.6-1.2l3.7,1.2c0.9,0.3,1.5,1.1,1.5,2v1.8h-2.4v-1.5l-3.2-1L20,23.3C19.7,24.1,18.3,24.4,17.8,23.3z"/>
<path class="st0" d="M30,31.5c0.9,0,1.7-0.8,1.7-1.7c0-1-0.8-1.7-1.7-1.7c-0.9,0-1.7,0.8-1.7,1.7C28.3,30.7,29,31.5,30,31.5z"/>
</symbol><symbol id="icon-globe" viewBox="0 0 40 40">

<path class="st2" d="M3,20c0-9.4,7.6-17,17-17c9.4,0,17,7.6,17,17c0,9.4-7.6,17-17,17C10.6,37,3,29.4,3,20z"/>
<path class="st4" d="M19,3c-3.9,4.6-6.2,10.5-6.2,17c0,6.5,2.3,12.4,6.2,17 M21,3c3.9,4.6,6.2,10.5,6.2,17S24.9,32.4,21,37"/>
<path class="st5" d="M3,20H37"/>
</symbol><symbol id="icon-hamburger" viewBox="0 0 40 40">

<path class="st0" d="M30.7,39c-6.1,0-8.3-2.3-8.3-8.3c0-6.2,2.2-8.3,8.3-8.3s8.3,2.2,8.3,8.3C39,36.7,36.7,39,30.7,39z M30.7,25.4
	c-4.4,0-5.2,0.8-5.2,5.2s0.8,5.2,5.2,5.2s5.2-0.8,5.2-5.2S35.1,25.4,30.7,25.4z"/>
<path class="st0" d="M9.3,39C3.3,39,1,36.7,1,30.7c0-6.2,2.2-8.3,8.3-8.3s8.3,2.2,8.3,8.3C17.7,36.7,15.4,39,9.3,39z M9.3,25.4
	c-4.4,0-5.2,0.8-5.2,5.2s0.8,5.2,5.2,5.2s5.2-0.8,5.2-5.2S13.7,25.4,9.3,25.4z"/>
<path class="st0" d="M30.7,17.7c-6.1,0-8.3-2.3-8.3-8.3c0-6.2,2.2-8.3,8.3-8.3S39,3.2,39,9.3C39,15.4,36.7,17.7,30.7,17.7z
	 M30.7,4.1c-4.4,0-5.2,0.8-5.2,5.2s0.8,5.2,5.2,5.2s5.2-0.8,5.2-5.2S35.1,4.1,30.7,4.1z"/>
<path class="st0" d="M9.3,17.7C3.3,17.7,1,15.4,1,9.3C1,3.2,3.2,1,9.3,1s8.3,2.2,8.3,8.3C17.7,15.4,15.4,17.7,9.3,17.7z M9.3,4.1
	c-4.4,0-5.2,0.8-5.2,5.2s0.8,5.2,5.2,5.2s5.2-0.8,5.2-5.2S13.7,4.1,9.3,4.1z"/>
</symbol><symbol id="icon-helpdesk" viewBox="0 0 40 40">

<path class="st0" d="M35.7,26.9c-0.5-0.6-1.3-0.9-2-0.9H31c-1.1-2.8-3.3-5-6-6.3c2.8-1.7,4.6-4.8,4.6-8.3c0-5.3-4.3-9.7-9.6-9.7
	c-4.5,0-8.3,3.1-9.3,7.4c-1.2,0.1-2.2,1.1-2.2,2.3l0,3.3c0,1.2,1,2.3,2.3,2.3h1.3c0.8,1.1,1.8,2,2.9,2.7c-2.7,1.3-4.9,3.5-6,6.3H6.3
	c-1.6,0-2.9,1.5-2.7,3.1l1.1,8.1c0.1,0.7,0.7,1.2,1.4,1.1c0.7-0.1,1.2-0.7,1.1-1.4l-1.1-8.1c0-0.1,0.1-0.2,0.2-0.2h27.4
	c0.1,0,0.2,0.1,0.2,0.2l-1.1,8.1c-0.1,0.7,0.4,1.3,1.1,1.4c0.1,0,0.1,0,0.2,0c0.6,0,1.1-0.5,1.2-1.1l1.1-8.1
	C36.5,28.3,36.2,27.5,35.7,26.9z M26.4,8.2c-3.3,0.8-6.7-0.7-8.4-3.6c0.7-0.2,1.3-0.3,2.1-0.3C22.8,4.3,25.2,5.9,26.4,8.2z
	 M13.5,14.5c-0.4-0.9-0.7-1.9-0.7-3c0-2.3,1.1-4.4,2.8-5.7c1,1.9,2.6,3.4,4.6,4.3c2.1,1,4.5,1.2,6.7,0.6c0.5,4.2-2.9,8-7.1,8
	c-1.7,0-3.3-0.6-4.5-1.6H19c0.7,0,1.2-0.6,1.2-1.2c0-0.7-0.6-1.2-1.2-1.2H13.5z M11.8,26c1.6-3,4.7-4.9,8.2-4.9s6.6,1.9,8.2,4.9
	H11.8z"/>
</symbol><symbol id="icon-hw-sw" viewBox="0 0 40 40">

<path class="st0" d="M20,36c-0.7,0-1.2-0.6-1.2-1.2v-6.2c0-0.7,0.6-1.2,1.2-1.2s1.2,0.6,1.2,1.2v6.2C21.2,35.4,20.7,36,20,36z"/>
<path class="st0" d="M23.9,36h-7.8c-0.7,0-1.2-0.6-1.2-1.2s0.6-1.2,1.2-1.2h7.8c0.7,0,1.2,0.6,1.2,1.2S24.6,36,23.9,36z"/>
<path class="st0" d="M20,29.8c-11.5,0-15.2-3.1-15.2-12.9S8.5,4,20,4c11.5,0,15.2,3.1,15.2,12.9S31.5,29.8,20,29.8z M20,6.5
	c-10.2,0-12.7,2-12.7,10.4c0,8.3,2.6,10.4,12.7,10.4c10.1,0,12.7-2.1,12.7-10.4C32.7,8.5,30.2,6.5,20,6.5z"/>
</symbol><symbol id="icon-ic" viewBox="0 0 40 40">

<path class="st0" d="M20,36.2C5.5,36.2,1,34,1,20C1,6,5.5,3.8,20,3.8C34.5,3.8,39,6,39,20C39,34,34.5,36.2,20,36.2z M20,6.7
	C6.2,6.7,4,8.6,4,20S6.2,33.3,20,33.3c13.8,0,16-1.9,16-13.3S33.8,6.7,20,6.7z"/>
<path class="st0" d="M29.2,15.9H10.8c-0.8,0-1.5-0.7-1.5-1.5S10,13,10.8,13h18.4c0.8,0,1.5,0.7,1.5,1.5S30,15.9,29.2,15.9z"/>
</symbol><symbol id="icon-iot" viewBox="0 0 40 40">

<path class="st0" d="M37.8,16.6L22,2.2c-1.1-1-2.8-1-4,0l-3.7,3.4V2.3C14.3,1.6,13.8,1,13,1H6.5C5.8,1,5.2,1.6,5.2,2.3v11.6l-3,2.7
	c-0.8,0.8-0.3,2.3,0.9,2.3H6v17.2C6,37.7,7.3,39,8.9,39h22.2c1.6,0,2.9-1.3,2.9-2.9V18.9h2.9C38,18.9,38.6,17.4,37.8,16.6z
	 M19.8,4.1c0.1-0.1,0.3-0.1,0.4,0l13.3,12.1H7.3H6.5L19.8,4.1z M7.8,3.6h3.9V8l-3.9,3.6V3.6z M31.4,36.1c0,0.2-0.1,0.3-0.3,0.3H8.9
	c-0.2,0-0.3-0.1-0.3-0.3V18.9h22.8V36.1z"/>
<path class="st0" d="M20,23.2c2.6,0,5,1,6.8,2.9l1.9-1.8c-2.3-2.4-5.4-3.7-8.7-3.7c-3.3,0-6.4,1.3-8.7,3.7l1.9,1.8
	C15,24.2,17.4,23.2,20,23.2z"/>
<path class="st0" d="M20,25.5c-2.2,0-4.2,0.9-5.7,2.4l1.9,1.8c1-1.1,2.4-1.7,3.9-1.7c1.5,0,2.8,0.6,3.9,1.7l1.9-1.8
	C24.2,26.4,22.2,25.5,20,25.5z"/>
<path class="st0" d="M20,34.7c1.2,0,2.2-1,2.2-2.2c0-1.2-1-2.2-2.2-2.2c-1.2,0-2.2,1-2.2,2.2C17.8,33.7,18.8,34.7,20,34.7z"/>
</symbol><symbol id="icon-li" viewBox="0 0 40 40">

<path class="st1" d="M9.2,6c0,2.2-1.6,3.9-4.2,3.9C2.6,9.9,1,8.1,1,6C1,3.7,2.6,2,5.1,2C7.6,2,9.2,3.7,9.2,6z M1.2,38V12.9H9v25
	L1.2,38L1.2,38z"/>
<path class="st1" d="M15.2,20.9c0-3.1-0.1-5.8-0.2-8h6.8l0.4,3.4h0.2c1-1.6,3.6-4,7.7-4c5.1,0,9,3.4,9,10.8V38h-7.8V24.1
	c0-3.2-1.1-5.4-3.9-5.4c-2.2,0-3.4,1.5-3.9,2.9c-0.2,0.5-0.3,1.2-0.3,1.9V38h-7.8L15.2,20.9L15.2,20.9z"/>
</symbol><symbol id="icon-lock" viewBox="0 0 40 40">

<g>
	<circle class="st1" cx="20" cy="28" r="2.9"/>
	<path class="st1" d="M34.2,21.3c-0.3-2.1-2.1-3.7-4.2-3.9l-1.3-0.1l0.6-5.6c0.1-0.7,0.1-1.4,0-2.2l0-0.4c-0.5-4.3-3.8-7.7-8.1-8.2
		c-0.7-0.1-1.4-0.1-2.2,0c-4.3,0.5-7.6,3.9-8.1,8.2l0,0.4c-0.1,0.7-0.1,1.4,0,2.2l0.6,5.6L10,17.5c-2.1,0.2-3.9,1.8-4.2,3.9
		c-0.7,4.4-0.7,8.9,0,13.3c0.3,2.1,2.1,3.7,4.2,3.9l2.9,0.2c4.7,0.4,9.4,0.4,14,0l2.9-0.2c2.1-0.2,3.9-1.8,4.2-3.9
		C34.9,30.2,34.9,25.7,34.2,21.3z M13.7,9.9l0-0.4c0.3-2.9,2.6-5.2,5.5-5.6c0.5-0.1,1-0.1,1.5,0c2.9,0.3,5.2,2.6,5.5,5.6l0,0.4
		c0.1,0.5,0.1,1,0,1.5l-0.6,5.7c-3.8-0.2-7.6-0.2-11.3,0l-0.6-5.7C13.6,10.9,13.6,10.4,13.7,9.9z M31.3,34.1
		c-0.1,0.8-0.8,1.4-1.5,1.4l-2.9,0.2c-4.5,0.4-9,0.4-13.6,0l-2.9-0.2c-0.8-0.1-1.4-0.6-1.5-1.4c-0.7-4.1-0.7-8.2,0-12.3
		c0.1-0.8,0.8-1.4,1.5-1.4l2.9-0.2c4.5-0.4,9-0.4,13.6,0l2.9,0.2c0.8,0.1,1.4,0.6,1.5,1.4C31.9,25.9,31.9,30.1,31.3,34.1z"/>
</g>
</symbol><symbol id="icon-marker-2" viewBox="0 0 40 40">

<path class="st0" d="M20,39c-4.7,0-16.7-9.4-16.7-21.3c0-4.5,1.7-8.7,4.9-11.8C11.3,2.7,15.5,1,20,1c0,0,0,0,0,0
	c9.2,0,16.7,7.5,16.7,16.7C36.7,29.6,24.7,39,20,39z M20,4c-3.7,0-7.1,1.4-9.7,4c-2.6,2.6-4,6-4,9.7C6.3,28.2,17.1,36,20,36
	s13.7-7.8,13.7-18.2C33.7,10.2,27.6,4,20,4L20,4z"/>
<path class="st0" d="M20,23.8c-3.8,0-7-3.1-7-7c0-3.8,3.1-7,7-7s7,3.1,7,7C27,20.6,23.8,23.8,20,23.8z M20,12.9
	c-2.2,0-3.9,1.8-3.9,4c0,2.2,1.8,4,3.9,4c2.2,0,4-1.8,4-4C24,14.6,22.2,12.9,20,12.9z"/>
</symbol><symbol id="icon-marker" viewBox="0 0 40 40">

<path class="st0" d="M20,39c-1.8,0-3.5-0.1-5.2-0.3c-2.4-0.3-4.7-0.9-6.5-1.7c-1.9-0.8-3.3-1.8-4.2-2.9c-1-1.3-1.1-2.8-0.5-4.2
	c0.3-0.6,1-0.9,1.6-0.6c0.6,0.3,0.9,1,0.6,1.6c-0.2,0.3-0.3,0.9,0.2,1.7c0.4,0.5,1.3,1.3,3.2,2.1c1.6,0.7,3.6,1.2,5.9,1.5
	c2.3,0.3,4.7,0.4,7,0.3c2.3-0.1,4.6-0.5,6.5-1c1.9-0.5,3.4-1.2,4.4-2c0.6-0.4,1.2-1.1,1.2-1.9c0-0.7,0.5-1.2,1.2-1.2
	c0.7,0,1.2,0.5,1.2,1.2c0,1-0.4,2.4-2.2,3.8c-1.3,1-3,1.8-5.2,2.4c-2.1,0.6-4.5,1-7.1,1.1C21.5,39,20.8,39,20,39z"/>
<path class="st0" d="M20,34.1c-3.1,0-5.9-1.7-7.1-4.3L7.5,18.2c-1.7-3.6-1.4-7.6,0.8-11C10.7,3.3,15.1,1,20,1s9.3,2.3,11.7,6.1
	c2.2,3.4,2.5,7.4,0.8,11l-5.4,11.7C25.9,32.4,23.1,34.1,20,34.1z M20,3.5c-4,0-7.7,1.9-9.6,5c-1.7,2.7-1.9,5.9-0.6,8.7l5.4,11.7
	c0.8,1.7,2.7,2.9,4.9,2.9s4.1-1.1,4.9-2.9l5.4-11.7c1.3-2.8,1.1-6-0.6-8.7C27.7,5.3,24,3.5,20,3.5z"/>
<ellipse class="st0" cx="20" cy="12" rx="3.9" ry="3.7"/>
</symbol><symbol id="icon-office" viewBox="0 0 40 40">

<g>
	<g>
		<path class="st0" d="M34.6,20.8h1.9v1.9h-1.9V20.8z"/>
		<path class="st0" d="M3.4,20.7h1.9v1.9H3.4V20.7z"/>
		<path class="st0" d="M16.8,34H9.6c-0.5,0-1-0.4-1-1v-7.2c0-0.5,0.4-1,1-1h7.2c0.5,0,1,0.4,1,1V33C17.8,33.5,17.3,34,16.8,34z
			 M10.6,32h5.3v-5.3h-5.3V32z"/>
		<path class="st0" d="M34.6,24.5v12.5h-3.2v-7.8c0-3-2.4-5.4-5.4-5.4c-3,0-5.4,2.4-5.4,5.4v7.8H5.4V24.3H3.4V38c0,0.5,0.4,1,1,1
			h31.2c0.5,0,1-0.4,1-1V24.5H34.6z M22.6,29.3c0-1.9,1.5-3.4,3.4-3.4c1.9,0,3.4,1.5,3.4,3.4v7.8h-6.8V29.3z"/>
		<path class="st0" d="M33.1,12.4h1.9v1.9h-1.9V12.4z"/>
		<path class="st0" d="M38,6.5h-7.2V2c0-0.5-0.4-1-1-1H10.1c-0.5,0-1,0.4-1,1v4.6H2c-0.5,0-1,0.4-1,1v10.3c0,0.5,0.4,1,1,1h36
			c0.5,0,1-0.4,1-1V7.5C39,7,38.5,6.5,38,6.5z M11.1,3.9l8.3,6c0.3,0.2,0.8,0.2,1.1,0l8.3-6v8.5H11.1V3.9z M13.1,2.9h13.7l-6.9,5
			L13.1,2.9z M9.2,8.5v3.9H3V8.5H9.2z M37,16.8H3v-2.4h7.2h19.7h0v0c0.5,0,1-0.4,1-1V8.5H37L37,16.8L37,16.8z"/>
	</g>
</g>
</symbol><symbol id="icon-options" viewBox="0 0 40 40">

<path class="st3" d="M5.6,11.8H1.5 M17.9,11.8h20.6"/>
<path class="st3" d="M34.4,28.2h4.1 M22.1,28.2H1.5"/>
<path class="st3" d="M11.8,17.9c3.4,0,6.2-2.7,6.2-6.2s-2.8-6.2-6.2-6.2c-3.4,0-6.2,2.7-6.2,6.2S8.4,17.9,11.8,17.9z"/>
<path class="st3" d="M28.2,34.4c-3.4,0-6.2-2.7-6.2-6.2c0-3.4,2.8-6.2,6.2-6.2c3.4,0,6.2,2.7,6.2,6.2C34.4,31.7,31.6,34.4,28.2,34.4
	z"/>
</symbol><symbol id="icon-phone" viewBox="0 0 40 40">

<path class="st0" d="M30.3,36.8c-0.6,0-1.2-0.1-1.8-0.3C15.5,33,7.4,26.5,1.8,14.7C1,13.6,0.8,12,1.3,10.6c0.9-2.4,2.6-4.4,5.2-6.3
	c2-1.6,5-1.5,7.3,0.3l1.4,1.1c1.4,1.2,2.3,2.8,2.4,4.5c0.1,1.7-0.4,3.4-1.6,4.7l-0.3,0.3c-1,1.2-1.5,3-0.4,4.2
	c1.4,1.6,3.2,2.9,5.7,4.2c1.6,0.9,3.8,0.5,5.1-0.9l0.2-0.2c2.1-2.5,6.2-2.9,8.9-0.8l1.4,1.2c2.4,1.9,3.1,5.2,1.5,7.8
	c-1.5,2.4-3.4,3.9-4.8,5C32.4,36.4,31.4,36.8,30.3,36.8z M9.8,5.4c-0.7,0-1.4,0.2-2,0.7c-2.3,1.7-3.8,3.3-4.5,5.4
	C3,12.1,3.1,13,3.6,13.5l0.1,0.2C9,24.9,16.6,31.1,29.1,34.4c1.1,0.4,2.1,0.2,2.9-0.4c2-1.5,3.2-2.8,4.3-4.4c1-1.6,0.5-3.7-1-5
	l-1.4-1.1c-1.8-1.4-4.6-1.1-6.1,0.6l-0.2,0.2c-1.9,2.1-5.1,2.7-7.6,1.3c-2.7-1.4-4.7-2.9-6.3-4.6c-1.7-1.8-1.5-4.8,0.4-7.1l0.3-0.4
	c0.7-0.8,1.1-1.9,1-3.1c-0.1-1.2-0.7-2.3-1.6-3l-1.4-1.1C11.7,5.7,10.7,5.4,9.8,5.4z"/>
<path class="st0" d="M27,12.7c-0.3,0-0.6-0.1-0.8-0.3c-0.4-0.4-0.4-1.1,0-1.5l4.8-4.7c0.4-0.4,1.1-0.4,1.5,0c0.4,0.4,0.4,1.1,0,1.5
	l-4.8,4.7C27.6,12.6,27.3,12.7,27,12.7z"/>
<path class="st0" d="M30.7,16.1c-0.4,0-0.9-0.3-1-0.7c-0.2-0.6,0.1-1.2,0.7-1.4l3.7-1.3c0.6-0.2,1.2,0.1,1.4,0.7s-0.1,1.2-0.7,1.4
	L31.1,16C30.9,16.1,30.8,16.1,30.7,16.1z"/>
<path class="st0" d="M23.6,9c-0.1,0-0.2,0-0.4-0.1c-0.6-0.2-0.8-0.8-0.6-1.4L23.9,4c0.2-0.6,0.8-0.8,1.4-0.6
	c0.6,0.2,0.8,0.8,0.6,1.4l-1.3,3.6C24.5,8.7,24,9,23.6,9z"/>
</symbol><symbol id="icon-play" viewBox="0 0 40 40">

<path class="st0" d="M9,39c-1.2,0-2.3-0.3-3.4-0.9c-2.1-1.2-3.3-3.4-3.3-5.8V7.7c0-2.4,1.2-4.6,3.3-5.8c2.1-1.2,4.6-1.2,6.7-0.1
	l22.1,12.3c2.2,1.2,3.4,3.4,3.5,5.9c0,2.5-1.3,4.7-3.5,5.9L12.2,38.1C11.2,38.7,10.1,39,9,39z M9,3.8C8.3,3.8,7.6,4,7,4.4
	c-1.2,0.7-1.9,2-1.9,3.3v24.6c0,1.4,0.7,2.6,1.9,3.3c1.2,0.7,2.6,0.7,3.8,0l22.1-12.3c1.2-0.7,2-2,2-3.4c0-1.4-0.7-2.7-2-3.4v0
	L10.8,4.3C10.2,4,9.6,3.8,9,3.8z"/>
</symbol><symbol id="icon-poradenstvi" viewBox="0 0 40 40">

<path class="st0" d="M1.8,37.2l1.5-10.3C1.8,24.4,1,21.5,1,18.6C1,8.5,10.3,1.1,20,1.1c1,0,2,0.1,2.9,0.2c0.7,0.1,1.2,0.8,1.1,1.5
	c-0.1,0.7-0.8,1.2-1.5,1.1c-0.8-0.1-1.7-0.2-2.6-0.2c-9,0-16.4,6.7-16.4,14.9c0,2.6,0.7,5.1,2.1,7.3c0.2,0.3,0.2,0.6,0.2,0.9
	l-1.2,8.7l9.3-2.8c0.2-0.1,0.5-0.1,0.8,0c1.7,0.5,3.4,0.8,5.2,0.8c9,0,16.4-6.7,16.4-14.9c0-4.7-2.4-9.1-6.6-11.9
	c-0.6-0.4-0.8-1.2-0.3-1.8c0.4-0.6,1.2-0.8,1.8-0.3c4.7,3.2,7.7,8.4,7.7,14.1c0,4.7-2,9.1-5.6,12.4c-3.6,3.3-8.3,5.1-13.4,5.1
	c-1.9,0-3.8-0.3-5.6-0.8L3.5,38.6C2.4,38.9,1.7,38,1.8,37.2z"/>
<path class="st0" d="M27.2,5.1c-0.4,0-0.7-0.2-1-0.3c-0.7-0.2-1.1-0.9-0.9-1.6c0.2-0.7,0.9-1.1,1.6-0.9c0.2,0,0.6,0.2,0.7,0.2
	C29,3.1,28.7,5.1,27.2,5.1z"/>
<path class="st0" d="M19.7,10.1c-1.5,0-3,0.3-4.2,1.2l0.9,2.2c0.9-0.6,1.8-0.9,2.8-0.9c1.4,0,2.1,0.6,2.1,1.7c0,1-0.6,1.8-1.7,3
	c-1.3,1.4-1.9,2.9-1.7,4.3l0.1,0.9h2.8l0-1c-0.1-1.1,0.3-2.1,1.4-3.2c1.3-1.4,2.3-2.6,2.3-4.3C24.5,12.1,23,10.1,19.7,10.1z"/>
<path class="st0" d="M19.3,23.6c-1.1,0-1.9,0.8-1.9,1.8c0,1,0.8,1.8,1.9,1.8c1.1,0,1.9-0.8,1.9-1.8C21.3,24.3,20.4,23.6,19.3,23.6z"/>
</symbol><symbol id="icon-school" viewBox="0 0 40 40">

<path class="st0" d="M25.3,35.1h-1.9v-3.6c0-1.8-1.5-3.3-3.3-3.3c-1.8,0-3.3,1.5-3.3,3.3v3.6h-1.9v-3.6c0-2.9,2.4-5.3,5.3-5.3
	c2.9,0,5.3,2.4,5.3,5.3V35.1z"/>
<path class="st0" d="M13.8,20h1.9v3.5h-1.9V20z"/>
<path class="st0" d="M24.3,20h1.9v3.5h-1.9V20z"/>
<path class="st0" d="M9.4,33h1.9v1.9H9.4V33z"/>
<path class="st0" d="M28.6,33h1.9v1.9h-1.9V33z"/>
<path class="st0" d="M22.4,13.9h-2.3c-0.5,0-1-0.4-1-1v-2.5h1.9V12h1.3V13.9z"/>
<path class="st0" d="M1,37.1h38v1.9H1V37.1z"/>
<path class="st0" d="M38.9,22.6l-2.6-6.1c-0.2-0.4-0.5-0.6-0.9-0.6h-4.8v-4l1.8,1.4l1.2-1.5l-13-10.6c-0.4-0.3-0.9-0.3-1.2,0
	l-2.1,1.7l1.2,1.5L20,3.3l8.6,7v20.5h1.9v-6.9h3.9v11h1.9v-11H38C38.7,24,39.2,23.2,38.9,22.6z M30.6,22v-4.1h4.2l1.8,4.1H30.6z"/>
<path class="st0" d="M20,7.1c-0.8,0-1.6,0.2-2.3,0.5c-0.5-3.7-3.6-6.6-7.4-6.6c-4.1,0-7.5,3.4-7.5,7.5c0,2.9,1.6,5.4,3.3,7.3H4.6
	c-0.4,0-0.7,0.2-0.9,0.6l-2.6,6.1C0.8,23.2,1.3,24,2,23.9h1.6v11h1.9v-11h3.9v6.9h1.9v-12c0.8-0.6,2.2-1.8,3.5-3.5
	c0.9,1.9,2.9,3.2,5.1,3.2c3.1,0,5.7-2.5,5.7-5.7S23.1,7.1,20,7.1z M9.4,22h-6l1.8-4.1H8c0.6,0.5,1.1,0.9,1.4,1.1V22z M10.3,17.2
	C8.8,16,4.7,12.5,4.7,8.6C4.7,5.5,7.2,3,10.3,3c3.1,0,5.5,2.5,5.5,5.6C15.8,12.4,11.8,16,10.3,17.2z M20,16.6
	c-1.9,0-3.4-1.4-3.7-3.2c0.6-1.1,1.1-2.2,1.3-3.4c0.7-0.5,1.5-0.8,2.4-0.8c2.1,0,3.7,1.7,3.7,3.7S22.1,16.6,20,16.6z"/>
<path class="st0" d="M10.3,12c-2,0-3.6-1.6-3.6-3.6c0-2,1.6-3.6,3.6-3.6c2,0,3.6,1.6,3.6,3.6C13.8,10.4,12.2,12,10.3,12z M10.3,6.8
	c-0.9,0-1.6,0.7-1.6,1.6c0,0.9,0.7,1.6,1.6,1.6c0.9,0,1.6-0.7,1.6-1.6C11.9,7.5,11.2,6.8,10.3,6.8z"/>
</symbol><symbol id="icon-send" viewBox="0 0 40 40">

<path class="st0" d="M18.1,29.9l-2.8-1.4l3.8-7.6l-7.7,3.8l-1.4-2.8l10.5-5.2c0.8-0.4,1.8-0.2,2.4,0.4c0.6,0.6,0.8,1.6,0.4,2.4
	L18.1,29.9z"/>
<path class="st0" d="M24,39c-2.4,0-4.6-1.3-5.6-3.5l-4.1-8.4c-0.3-0.6-0.8-1.1-1.4-1.4l-8.4-4.2C2.1,20.4,0.8,18,1,15.4
	c0.2-2.9,2.2-5.4,5.1-6.3l24.5-7.7c2.4-0.8,4.9-0.2,6.6,1.5c1.7,1.7,2.3,4.2,1.5,6.6l-7.8,24.5c-0.9,2.8-3.4,4.8-6.4,5
	C24.3,39,24.1,39,24,39z M32.7,4.2c-0.4,0-0.8,0.1-1.1,0.2L7,12.1c-2,0.6-2.8,2.3-2.9,3.6c-0.1,0.7,0,2.3,1.7,3.1l8.4,4.2
	c1.2,0.6,2.2,1.6,2.8,2.8l4.1,8.4c0.8,1.7,2.5,1.7,3.1,1.7c1.3-0.1,3-0.9,3.6-2.9l7.8-24.5c0.4-1.3,0.1-2.5-0.7-3.4
	C34.3,4.5,33.6,4.2,32.7,4.2z"/>
<path class="st0" d="M3.4,29.2c-0.4,0-0.8-0.2-1.1-0.5c-0.6-0.6-0.6-1.6,0-2.2L3.7,25c0.6-0.6,1.6-0.6,2.2,0c0.6,0.6,0.6,1.6,0,2.2
	l-1.5,1.5C4.2,29,3.8,29.2,3.4,29.2z"/>
<path class="st0" d="M12.2,38.1c-0.4,0-0.8-0.2-1.1-0.5c-0.6-0.6-0.6-1.6,0-2.2l1.5-1.5c0.6-0.6,1.6-0.6,2.2,0
	c0.6,0.6,0.6,1.6,0,2.2l-1.5,1.5C13,38,12.6,38.1,12.2,38.1z"/>
<path class="st0" d="M6.3,35.1c-0.4,0-0.8-0.2-1.1-0.5c-0.6-0.6-0.6-1.6,0-2.2L9.7,28c0.6-0.6,1.6-0.6,2.2,0c0.6,0.6,0.6,1.6,0,2.2
	l-4.5,4.4C7.1,35,6.7,35.1,6.3,35.1z"/>
</symbol><symbol id="icon-service" viewBox="0 0 40 40">

<path class="st0" d="M20,39c-0.6,0-1.2-0.5-1.2-1.2v-7.5c0-0.6,0.5-1.2,1.2-1.2s1.2,0.5,1.2,1.2v7.5C21.2,38.5,20.6,39,20,39z"/>
<path class="st0" d="M24.7,39h-9.4c-0.6,0-1.2-0.5-1.2-1.2s0.5-1.2,1.2-1.2h9.4c0.6,0,1.2,0.5,1.2,1.2S25.3,39,24.7,39z"/>
<path class="st0" d="M20,31.5c-13.7,0-18.1-3.7-18.1-15.2C1.9,4.6,6.2,1,20,1c13.8,0,18.1,3.6,18.1,15.2
	C38.1,27.8,33.7,31.5,20,31.5z M20,3.3C7.5,3.3,4.3,6,4.3,16.2c0,10.2,3.2,12.9,15.7,12.9c12.5,0,15.7-2.7,15.7-12.9
	C35.7,6,32.5,3.3,20,3.3z"/>
<path class="st0" d="M22.1,20.7c-0.1,0-0.3,0-0.4,0c-1-0.2-1.4-1-1.9-2.1L18.1,15c-0.1-0.2-0.2-0.5-0.3-0.7
	c-0.2,0.1-0.4,0.3-0.6,0.5l-3.9,3.3c-0.5,0.4-1.2,0.3-1.7-0.2c-0.4-0.5-0.3-1.2,0.2-1.7l3.9-3.3c0.9-0.8,1.6-1.3,2.6-1.1
	c1,0.2,1.4,1,1.9,2.1l1.8,3.5c0.1,0.2,0.2,0.5,0.3,0.7c0.2-0.1,0.4-0.3,0.6-0.5l3.9-3.3c0.5-0.4,1.2-0.3,1.7,0.2
	c0.4,0.5,0.3,1.2-0.2,1.7l-3.9,3.3C23.5,20.2,22.9,20.7,22.1,20.7z"/>
</symbol><symbol id="icon-shield-2" viewBox="0 0 40 40">

<path class="st2" d="M5.1,18.2c1.1,13.4,13,18.8,14.9,18.8c1.8,0,13.8-5.3,14.9-18.8c1-12.4-3-15.1-14.9-15.1
	C8.2,3.1,4.1,5.7,5.1,18.2z"/>
<path class="st2" d="M25.3,14.1l-7.1,7.1l-3.6-3.6"/>
</symbol><symbol id="icon-shield" viewBox="0 0 40 40">

<path class="st0" d="M20,39c-1.6,0-3.2-0.6-4.5-1.7L7,30c-1.6-1.4-2.5-3.3-2.5-5.4V11.7c0-2,0.9-4,2.3-5.3c1.4-1.3,3.4-2,5.3-1.8
	l1.6,0.2c0.9,0.1,1.6-0.4,2-1.2C16.6,2,18.2,1,20,1c1.8,0,3.4,1,4.2,2.6c0.4,0.8,1.2,1.2,2,1.2l1.6-0.2c1.9-0.2,3.9,0.5,5.3,1.8
	c1.5,1.3,2.3,3.3,2.3,5.3v12.8c0,2.1-0.9,4.1-2.5,5.4l-8.5,7.3C23.2,38.4,21.6,39,20,39z M11.5,7.3c-1.1,0-2,0.4-2.8,1.1
	c-0.9,0.8-1.5,2.1-1.5,3.4v12.8c0,1.3,0.6,2.6,1.6,3.4l8.5,7.3c1.6,1.4,3.9,1.4,5.5,0l8.5-7.3c1-0.9,1.6-2.1,1.6-3.4V11.7
	c0-1.3-0.5-2.5-1.5-3.4c-0.9-0.8-2.1-1.2-3.3-1.1l-1.6,0.2c-1.9,0.2-3.8-0.9-4.6-2.6c-0.7-1.5-2.9-1.5-3.6,0
	c-0.9,1.8-2.7,2.8-4.6,2.6l-1.6-0.2C11.8,7.3,11.6,7.3,11.5,7.3z"/>
<path class="st0" d="M18,24.9C18,24.9,18,24.9,18,24.9c-0.4,0-0.7-0.2-1-0.4l-3.3-3.5c-0.5-0.5-0.5-1.4,0.1-1.9
	c0.5-0.5,1.4-0.5,1.9,0.1l2.4,2.6l6.3-6.1c0.5-0.5,1.4-0.5,1.9,0c0.5,0.5,0.5,1.4,0,1.9L19,24.5C18.7,24.7,18.4,24.9,18,24.9z"/>
</symbol><symbol id="icon-sitove-sluzby" viewBox="0 0 40 40">

<path class="st0" d="M20,35.2C7.9,35.2,3.2,31,3.2,20C3.2,9,7.9,4.8,20,4.8S36.8,9,36.8,20C36.8,31,32.1,35.2,20,35.2z M20,7.3
	C9.2,7.3,5.7,10.4,5.7,20c0,9.6,3.5,12.7,14.3,12.7S34.3,29.6,34.3,20C34.3,10.4,30.8,7.3,20,7.3z"/>
<circle class="st0" cx="20" cy="20" r="1.6"/>
<circle class="st0" cx="26.2" cy="20" r="1.6"/>
<circle class="st0" cx="20" cy="13.8" r="1.6"/>
<circle class="st0" cx="13.8" cy="13.8" r="1.6"/>
<circle class="st0" cx="13.8" cy="20" r="1.6"/>
<circle class="st0" cx="26.2" cy="13.8" r="1.6"/>
<path class="st0" d="M26.2,27.5H13.8c-0.7,0-1.2-0.6-1.2-1.2c0-0.7,0.6-1.2,1.2-1.2h12.4c0.7,0,1.2,0.6,1.2,1.2
	C27.5,26.9,26.9,27.5,26.2,27.5z"/>
</symbol><symbol id="icon-space" viewBox="0 0 40 40">

<path class="st2" d="M29.2,4.9c4.6,0,5.9,1.3,5.9,5.9v5c0,4.6-1.4,5.9-5.9,5.9H10.8c-4.5,0-5.9-1.3-5.9-5.9v-5
	c0-4.6,1.3-5.9,5.9-5.9H29.2z"/>
<path class="st3" d="M15,35.1H25"/>
<path class="st3" d="M9.9,28.4h20.2"/>
</symbol><symbol id="icon-sprava-pc" viewBox="0 0 40 40">

<path class="st0" d="M27,15.5h-3V9.1c0-1.6-1.3-2.9-2.9-2.9H9.8c-1.6,0-2.9,1.3-2.9,2.9v6.4h-3c-1.6,0-2.9,1.3-2.9,2.9v11.1
	c0,1.6,1.3,2.9,2.9,2.9h3v3.9c0,1.6,1.3,2.9,2.9,2.9h11.3c1.6,0,2.9-1.3,2.9-2.9v-3.9h3c1.6,0,2.9-1.3,2.9-2.9V18.4
	C29.9,16.8,28.6,15.5,27,15.5z M9.5,9.1c0-0.2,0.1-0.3,0.3-0.3h11.3c0.2,0,0.3,0.1,0.3,0.3v6.4h-12V9.1z M21.5,36.3
	c0,0.2-0.1,0.3-0.3,0.3H9.8c-0.2,0-0.3-0.1-0.3-0.3v-8.1h12V36.3z M27.3,29.5c0,0.2-0.1,0.3-0.3,0.3h-3v-1.7h1.4v-2.6h-20v2.6h1.4
	v1.7h-3c-0.2,0-0.3-0.1-0.3-0.3V18.4c0-0.2,0.1-0.3,0.3-0.3H27c0.2,0,0.3,0.1,0.3,0.3V29.5z"/>
<path class="st0" d="M10.8,31.1h9.4v2.6h-9.4V31.1z"/>
<path class="st0" d="M5.8,19.4h3V22h-3V19.4z"/>
<path class="st0" d="M34.7,3.1c-2.3-1.6-5.2-2.3-8-1.7l0.5,2.6c2.1-0.4,4.3,0,6,1.3c1.7,1.2,2.9,3.1,3.2,5.3l2.6-0.4
	C38.5,7.2,37,4.7,34.7,3.1z"/>
<path class="st0" d="M32.3,6.6c-1.6-1.1-3.5-1.5-5.3-1.1L27.4,8c1.2-0.2,2.4,0,3.3,0.7c1,0.7,1.6,1.7,1.8,3l2.6-0.4
	C34.8,9.3,33.8,7.7,32.3,6.6z"/>
<path class="st0" d="M29.8,10.1c-0.9-0.6-2-0.4-2.6,0.5c-0.6,0.9-0.4,2.1,0.5,2.7c0.9,0.6,2,0.4,2.6-0.5
	C30.9,11.9,30.7,10.7,29.8,10.1z"/>
</symbol><symbol id="icon-sprava-serveru" viewBox="0 0 40 40">

<path class="st0" d="M20.7,1.2c-4.2,0.2-7.9,2.9-9.6,6.8C7,8.2,3.6,11.8,3.6,16.2c0,2.4,1,4.6,2.7,6.1c0.5,0.5,1.4,0.4,1.8-0.1
	c0.5-0.5,0.4-1.4-0.1-1.8c-1.2-1.1-1.8-2.6-1.8-4.2c0-3.1,2.4-5.6,5.3-5.6c1.1,0,2.3,0.4,3.1,1.1c0.6,0.4,1.4,0.3,1.8-0.2
	c0.4-0.6,0.3-1.4-0.2-1.8c-0.7-0.6-1.5-1-2.4-1.3c1.4-2.7,4-4.5,7-4.6c4.2-0.2,7.9,3,8.8,7c-0.9,0-1.7,0-1.7,0
	c-0.7,0-1.3,0.6-1.3,1.3c0,0.7,0.6,1.3,1.3,1.3c0.6,0,2.5,0.1,2.9,0.1c1.8,0.5,3,2.1,3,4.1c0,1.3-0.6,2.6-1.6,3.4
	c-0.6,0.4-0.7,1.3-0.2,1.8c0.4,0.6,1.3,0.6,1.8,0.2c1.6-1.3,2.6-3.3,2.6-5.4c0-2.8-1.6-5.2-4-6.3C31.7,5.5,26.6,0.9,20.7,1.2z"/>
<path class="st0" d="M27.2,17.9H12.8c-1.6,0-2.9,1.3-2.9,2.9v3.8c0,1.6,1.3,2.9,2.9,2.9h14.3c1.6,0,2.9-1.3,2.9-2.9v-3.8
	C30.1,19.2,28.8,17.9,27.2,17.9z M27.5,24.6c0,0.2-0.1,0.3-0.3,0.3H12.8c-0.2,0-0.3-0.1-0.3-0.3v-3.8c0-0.2,0.1-0.3,0.3-0.3h14.3
	c0.2,0,0.3,0.1,0.3,0.3L27.5,24.6z"/>
<path class="st0" d="M14.9,24c0.7,0,1.3-0.6,1.3-1.3c0-0.7-0.6-1.3-1.3-1.3c-0.7,0-1.3,0.6-1.3,1.3C13.6,23.5,14.2,24,14.9,24z"/>
<path class="st0" d="M19,24c0.7,0,1.3-0.6,1.3-1.3c0-0.7-0.6-1.3-1.3-1.3c-0.7,0-1.3,0.6-1.3,1.3C17.7,23.5,18.3,24,19,24z"/>
<path class="st0" d="M27.2,29.5H12.8c-1.6,0-2.9,1.3-2.9,2.9v3.8c0,1.6,1.3,2.9,2.9,2.9h14.3c1.6,0,2.9-1.3,2.9-2.9v-3.8
	C30.1,30.8,28.8,29.5,27.2,29.5z M27.5,36.2c0,0.2-0.1,0.3-0.3,0.3H12.8c-0.2,0-0.3-0.1-0.3-0.3v-3.8c0-0.2,0.1-0.3,0.3-0.3h14.3
	c0.2,0,0.3,0.1,0.3,0.3L27.5,36.2z"/>
<path class="st0" d="M14.9,35.6c0.7,0,1.3-0.6,1.3-1.3c0-0.7-0.6-1.3-1.3-1.3c-0.7,0-1.3,0.6-1.3,1.3C13.6,35.1,14.2,35.6,14.9,35.6
	z"/>
<path class="st0" d="M19,35.6c0.7,0,1.3-0.6,1.3-1.3c0-0.7-0.6-1.3-1.3-1.3c-0.7,0-1.3,0.6-1.3,1.3C17.7,35.1,18.3,35.6,19,35.6z"/>
</symbol><symbol id="icon-sprava-siti" viewBox="0 0 40 40">

<path class="st0" d="M35,1h-6.1c-0.7,0-1.3,0.6-1.3,1.3v5.8l-5.2,6.6h-7.7l-3.1-3.1V6.7c0-0.7-0.6-1.3-1.3-1.3H5
	C4.3,5.4,3.7,6,3.7,6.7v5.4c0,0.7,0.6,1.3,1.3,1.3h4.8l3.1,3.1v8.3L10.2,28H5.5c-0.7,0-1.3,0.6-1.3,1.3v5.4c0,0.7,0.6,1.3,1.3,1.3
	h5.3c0.7,0,1.3-0.6,1.3-1.3v-5l2.7-3.1h7.8c0,0,2.6,3.9,2.6,4v7.2c0,0.7,0.6,1.3,1.3,1.3h7.7c0.7,0,1.3-0.6,1.3-1.3V30
	c0-0.7-0.6-1.3-1.3-1.3h-7.1l-2.3-3.5c0,0,0-9.3,0-9.3l4.8-6H35c0.7,0,1.3-0.6,1.3-1.3V2.3C36.3,1.6,35.7,1,35,1L35,1z M27.8,31.2
	h5.1v5.2h-5.1V31.2z M15.5,17.2h6.7V24h-6.7V17.2z M6.3,8H9v2.8H6.3V8z M9.6,33.4H6.8v-2.8h2.7L9.6,33.4L9.6,33.4z M33.7,7.2h-3.5
	V3.6h3.5V7.2z"/>
</symbol><symbol id="icon-star" viewBox="0 0 40 40">

<path class="st5" d="M16,7.2c1.3-1.8,2-2.8,2.8-3.1c0.8-0.3,1.7-0.3,2.5,0c0.8,0.3,1.5,1.3,2.8,3.1c1.2,1.7,1.8,2.5,2.5,3.2
	c0.7,0.7,1.5,1.3,2.4,1.7c0.9,0.5,1.9,0.7,3.9,1.3c2.2,0.6,3.3,0.9,3.9,1.6c0.6,0.6,0.9,1.5,0.8,2.3c-0.1,0.8-0.8,1.7-2.2,3.5
	c-1.3,1.6-1.9,2.4-2.3,3.3c-0.4,0.9-0.8,1.8-0.9,2.8c-0.2,1-0.1,2-0.1,4c0.1,2.2,0.1,3.3-0.3,4.1c-0.4,0.7-1.2,1.2-2,1.4
	c-0.9,0.2-2-0.2-4.1-0.9c-2-0.7-2.9-1-3.9-1.1c-1-0.1-2-0.1-3,0c-1,0.1-2,0.5-3.9,1.1c-2.2,0.7-3.3,1.1-4.1,0.9
	c-0.8-0.2-1.6-0.7-2-1.4C8,34,8,32.9,8.1,30.7c0.1-2,0.1-3-0.1-4c-0.2-1-0.5-1.9-0.9-2.8c-0.4-0.9-1.1-1.7-2.3-3.3
	c-1.4-1.8-2.1-2.6-2.2-3.5c-0.1-0.8,0.2-1.7,0.8-2.3C3.9,14.3,5,14,7.2,13.3c2-0.6,3-0.8,3.9-1.3c0.9-0.4,1.7-1,2.4-1.7
	C14.2,9.6,14.8,8.8,16,7.2z"/>
</symbol><symbol id="icon-tw" viewBox="0 0 40 40">

<path class="st1" d="M39,8.2c-1.4,0.6-2.9,1-4.5,1.2c1.6-1,2.8-2.5,3.4-4.3C36.4,6,34.8,6.7,33,7c-1.4-1.5-3.5-2.5-5.7-2.5
	c-4.3,0-7.8,3.5-7.8,7.8c0,0.6,0.1,1.2,0.2,1.8C13.2,13.8,7.5,10.7,3.6,6C3,7.1,2.6,8.5,2.6,9.9c0,2.7,1.4,5.1,3.5,6.5
	c-1.3,0-2.5-0.4-3.5-1v0.1c0,3.8,2.7,6.9,6.3,7.6c-0.7,0.2-1.3,0.3-2.1,0.3c-0.5,0-1,0-1.5-0.1c1,3.1,3.9,5.4,7.3,5.4
	c-2.7,2.1-6,3.3-9.7,3.3c-0.6,0-1.3,0-1.9-0.1c3.5,2.2,7.5,3.5,12,3.5c14.3,0,22.2-11.9,22.2-22.2c0-0.3,0-0.7,0-1
	C36.6,11.2,38,9.8,39,8.2z"/>
</symbol><symbol id="icon-yt" viewBox="0 0 40 40">

<g>
	<g>
		<path class="st6" d="M35.2,20.6c-0.2-0.8-0.6-1.5-1.2-2.1c-0.6-0.6-1.4-0.9-2.2-1c-2.6-0.3-6.5-0.4-11.8-0.4
			c-5.2,0-9.2,0.1-11.7,0.4c-0.8,0.1-1.6,0.4-2.2,1c-0.6,0.6-1,1.3-1.2,2.1c-0.4,1.6-0.6,4.1-0.6,7.4c0,3.4,0.2,5.8,0.6,7.4
			C5,36.3,5.4,37,6.1,37.6c0.6,0.6,1.4,0.9,2.2,1C10.8,38.9,14.8,39,20,39c5.2,0,9.2-0.1,11.8-0.4c0.8-0.1,1.5-0.4,2.2-1
			c0.6-0.6,1-1.3,1.2-2.1c0.4-1.6,0.6-4.1,0.6-7.4C35.7,24.7,35.5,22.2,35.2,20.6z M13.3,22.8H11v12.1H8.9V22.8H6.6v-2h6.6
			L13.3,22.8L13.3,22.8z M19,34.8h-1.9v-1.1c-0.8,0.9-1.5,1.3-2.2,1.3c-0.7,0-1.1-0.3-1.2-0.8c-0.1-0.3-0.2-0.9-0.2-1.5v-8.3h1.9
			v7.7c0,0.5,0,0.7,0,0.7c0,0.3,0.2,0.4,0.4,0.4c0.4,0,0.8-0.3,1.2-0.9v-8H19L19,34.8L19,34.8z M26.2,31.7c0,1-0.1,1.7-0.2,2.1
			c-0.2,0.8-0.7,1.2-1.5,1.2c-0.7,0-1.3-0.4-2-1.2v1h-1.9V20.8h1.9v4.6c0.6-0.8,1.3-1.1,2-1.1c0.8,0,1.3,0.4,1.5,1.2
			c0.1,0.4,0.2,1.1,0.2,2.1V31.7z M33.4,30h-3.8v1.8c0,1,0.3,1.5,1,1.5c0.5,0,0.7-0.3,0.8-0.8c0-0.1,0-0.6,0-1.3h1.9v0.3
			c0,0.7,0,1.1,0,1.2c0,0.4-0.2,0.8-0.4,1.1c-0.5,0.7-1.3,1.1-2.3,1.1c-1,0-1.7-0.4-2.3-1.1c-0.4-0.5-0.6-1.3-0.6-2.5v-3.7
			c0-1.1,0.2-1.9,0.6-2.5c0.6-0.7,1.3-1.1,2.3-1.1c0.9,0,1.7,0.4,2.2,1.1c0.4,0.5,0.6,1.3,0.6,2.5L33.4,30L33.4,30z"/>
		<path class="st6" d="M23.5,26c-0.3,0-0.6,0.2-1,0.5v6.4c0.3,0.3,0.6,0.5,1,0.5c0.6,0,0.8-0.5,0.8-1.4v-4.5
			C24.3,26.4,24,26,23.5,26z"/>
		<path class="st6" d="M30.5,26c-0.6,0-1,0.5-1,1.4v1h1.9v-1C31.5,26.4,31.2,26,30.5,26z"/>
		<path class="st6" d="M12,9.5v5.7h2.1V9.5L16.7,1h-2.2l-1.4,5.6L11.6,1H9.4c0.4,1.2,0.9,2.5,1.4,4C11.4,6.9,11.8,8.4,12,9.5z"/>
		<path class="st6" d="M19.6,15.4c1,0,1.7-0.4,2.2-1.1c0.4-0.5,0.6-1.4,0.6-2.5V8.1c0-1.1-0.2-2-0.6-2.5c-0.5-0.7-1.3-1.1-2.2-1.1
			c-0.9,0-1.7,0.4-2.2,1.1c-0.4,0.5-0.6,1.4-0.6,2.5v3.7c0,1.1,0.2,2,0.6,2.5C17.9,15,18.6,15.4,19.6,15.4z M18.6,7.7
			c0-1,0.3-1.5,0.9-1.5c0.6,0,0.9,0.5,0.9,1.5v4.5c0,1-0.3,1.5-0.9,1.5c-0.6,0-0.9-0.5-0.9-1.5V7.7z"/>
		<path class="st6" d="M25.4,15.4c0.7,0,1.4-0.4,2.2-1.3v1.2h1.9V4.6h-1.9v8.1c-0.4,0.6-0.8,0.9-1.2,0.9c-0.3,0-0.4-0.2-0.4-0.5
			c0,0,0-0.3,0-0.7V4.6H24V13c0,0.7,0.1,1.3,0.2,1.6C24.3,15.1,24.7,15.4,25.4,15.4z"/>
	</g>
</g>
</symbol><symbol id="icon-zabezpeceni-it" viewBox="0 0 40 40">

<path class="st0" d="M37.7,1h-7.1c-0.7,0-1.3,0.6-1.3,1.3v2.3h-4.4V2.3c0-0.7-0.6-1.3-1.3-1.3h-7.1c-0.7,0-1.3,0.6-1.3,1.3v2.3h-4.4
	V2.3c0-0.7-0.6-1.3-1.3-1.3H2.3C1.6,1,1,1.6,1,2.3v7.2c0,0.7,0.6,1.3,1.3,1.3h7.1c0.7,0,1.3-0.6,1.3-1.3V7.2h4.4v2.3
	c0,0.7,0.6,1.3,1.3,1.3h2.3v4.9h-3.8c-0.7,0-1.3,0.6-1.3,1.3c0,1.8-1.4,2.8-2.9,3.2c-0.6,0.1-1,0.6-1,1.2c-0.2,6.9,2.5,14.2,9,17.4
	c0.9,0.4,1.9,0.4,2.7-0.1c6.1-3.5,9.1-10.4,9-17.2c0-0.6-0.5-1.2-1.1-1.3c-1.6-0.3-2.8-1.6-2.8-3.2c0-0.7-0.6-1.3-1.3-1.3h-3.8v-4.9
	h2.3c0.7,0,1.3-0.6,1.3-1.3V7.2h4.4v2.3c0,0.7,0.6,1.3,1.3,1.3h7.1c0.7,0,1.3-0.6,1.3-1.3V2.3C39,1.6,38.4,1,37.7,1L37.7,1z
	 M8.1,8.2H3.6V3.6h4.5V8.2z M27.7,22.4c-0.2,9-5.9,12.9-7.7,14c-0.1,0.1-0.2,0.1-0.3,0c-2.3-1.1-7.4-4.6-7.5-14
	c1.9-0.7,3.4-2.3,3.8-4.2H24C24.4,20.1,25.8,21.7,27.7,22.4z M22.3,8.2h-4.5V3.6h4.5V8.2z M36.4,8.2h-4.5V3.6h4.5V8.2z"/>
<path class="st0" d="M17.5,30.1c0.5,0.5,1.4,0.6,1.9,0.1l5.8-5.7l-1.8-1.9l-4.8,4.8l-1.8-2l-1.9,1.7L17.5,30.1z"/>
</symbol><symbol id="icon-zalohovani-dat" viewBox="0 0 40 40">

<path class="st0" d="M1.5,18c0,2.4,0.9,4.6,2.5,6.3c0.5,0.5,1.3,0.5,1.8,0.1c0.5-0.5,0.6-1.3,0.1-1.8c-1.1-1.2-1.8-2.8-1.8-4.5
	c0-3.6,2.8-6.5,6.2-6.5c1.2-0.2,2.8,0.6,3.7,1.3c0.6,0.4,1.4,0.3,1.8-0.2c0.4-0.6,0.3-1.4-0.2-1.8c-0.9-0.7-1.8-1.1-2.8-1.5
	C14.3,6.1,17.4,4,21,3.8c5-0.3,9.3,3.5,10.2,8.3c-1,0-2.1-0.1-2.1-0.1c-0.7,0-1.3,0.6-1.3,1.3c0,0.7,0.6,1.3,1.3,1.3
	c0.6,0,2.8,0.1,3.2,0.2c2.1,0.5,3.5,2.5,3.5,4.7c0,1.1-0.4,2.2-1,3c-0.4,0.6-0.3,1.4,0.2,1.8c0.6,0.4,1.4,0.3,1.8-0.2
	c1-1.3,1.5-2.9,1.5-4.6c0-3.1-1.8-5.8-4.6-7C33.2,6.1,27.5,0.8,20.8,1.2C16.1,1.5,11.9,4.5,10,8.9C5.3,9.1,1.5,13.1,1.5,18z"/>
<path class="st0" d="M28.9,22.2v-2.3c0-4.3-3.6-7.8-8-7.8s-8,3.5-8,7.8v2.3c-1.2,0.4-2,1.5-2,2.8v11.3c0,1.6,1.3,2.9,2.9,2.9H28
	c1.6,0,2.9-1.3,2.9-2.9V25C30.9,23.7,30.1,22.6,28.9,22.2z M15.4,19.9c0-2.9,2.4-5.2,5.4-5.2s5.4,2.3,5.4,5.2v2.2H15.4V19.9z
	 M28.3,36.3c0,0.2-0.1,0.3-0.3,0.3H13.7c-0.2,0-0.3-0.1-0.3-0.3V25c0-0.2,0.1-0.3,0.3-0.3H28c0.2,0,0.3,0.1,0.3,0.3V36.3z"/>
<path class="st0" d="M20.9,27c-1.2,0-2.2,1-2.2,2.1c0,0.7,0.3,1.3,0.9,1.7v2.1c0,0.7,0.6,1.3,1.3,1.3c0.7,0,1.3-0.6,1.3-1.3v-2.1
	c0.5-0.4,0.9-1,0.9-1.7C23,28,22,27,20.9,27z"/>
</symbol><symbol id="icon-zarizeni" viewBox="0 0 40 40">

<path class="st0" d="M37.9,31.3H37V13c0-1.4-1.2-2.6-2.6-2.6h-1.7c-0.6,0-1.1,0.5-1.1,1.1c0,0.6,0.5,1.1,1.1,1.1h1.7
	c0.2,0,0.3,0.1,0.3,0.3v18.3H5.3V13c0-0.2,0.2-0.3,0.3-0.3h1.7c0.6,0,1.1-0.5,1.1-1.1c0-0.6-0.5-1.1-1.1-1.1H5.6
	C4.2,10.4,3,11.6,3,13v18.3H2.1c-0.6,0-1.1,0.5-1.1,1.2v1.4C1,36.7,3.3,39,6.2,39h27.6c2.9,0,5.2-2.3,5.2-5.2v-1.4
	C39,31.8,38.5,31.3,37.9,31.3z M36.7,33.8c0,1.6-1.3,2.9-2.9,2.9H6.2c-1.6,0-2.9-1.3-2.9-2.9v-0.2h33.5V33.8z"/>
<path class="st0" d="M31.1,21L29.7,11c-0.2-1.3-1.3-2.2-2.6-2.2h-1.5V6.6C25.6,3.5,23.1,1,20,1s-5.6,2.5-5.6,5.6v2.1h-1.5
	c-1.3,0-2.4,1-2.6,2.2L8.9,21c-0.4,2.6,1.7,5,4.3,5h13.5C29.3,26,31.4,23.6,31.1,21z M16.7,6.6c0-1.8,1.5-3.3,3.3-3.3
	s3.3,1.5,3.3,3.3v2.1h-6.7V6.6z M12.9,11h1.5v1.9c0,0.6,0.5,1.1,1.1,1.1c0.6,0,1.1-0.5,1.1-1.1V11h6.7v1.9c0,0.6,0.5,1.1,1.1,1.1
	c0.6,0,1.1-0.5,1.1-1.1V11h1.5c0.2,0,0.3,0.1,0.3,0.3l1.1,8H11.5l1.1-8C12.6,11.1,12.7,11,12.9,11z M26.7,23.7H13.3
	c-1.2,0-2.1-1-2.1-2.2h17.7C28.9,22.7,27.9,23.7,26.7,23.7z"/>
</symbol>
    <symbol id="icon-zaruka" viewBox="0 0 40 40">

<path class="st0" d="M12.4,18.4h2.4v2.1h-2.4V18.4z"/>
<path class="st0" d="M9.3,39.1c-3.8,0-6.9-3.1-6.9-6.9c0-1.5,0.5-3,1.4-4.2V14.9C2.1,13.3,1,11.1,1,8.7c0-1.6,0.4-3.1,1.3-4.4
	C3.1,3,4.2,2,5.6,1.3c0.8-0.4,1.8,0.2,1.8,1.1v5.7l1.8,1l2.2-1.1V2.4c0-0.9,1-1.5,1.8-1.1c2.8,1.4,4.6,4.3,4.6,7.4
	c0,2.4-1,4.6-2.8,6.2v1.8h-2.4v-2.3c0-0.4,0.2-0.7,0.5-1c1.5-1.1,2.3-2.8,2.3-4.7c0-1.5-0.5-2.8-1.5-3.9v4c0,0.5-0.3,0.9-0.7,1.1
	l-3.5,1.7c-0.4,0.2-0.8,0.2-1.2,0L5.5,9.9c-0.4-0.2-0.6-0.6-0.6-1v-4C4,5.9,3.4,7.3,3.4,8.7c0,1.8,0.9,3.5,2.4,4.7
	c0.3,0.2,0.5,0.6,0.5,1v14.1c0,0.3-0.1,0.6-0.3,0.8c-0.7,0.8-1.1,1.9-1.1,2.9c0,2.5,2,4.4,4.5,4.4c2.5,0,4.5-2,4.5-4.4
	c0-1.1-0.4-2.1-1.1-2.9c-0.2-0.2-0.3-0.5-0.3-0.8V22h2.4v6c0.9,1.2,1.4,2.7,1.4,4.2C16.3,36,13.2,39.1,9.3,39.1z"/>
<path class="st0" d="M10.5,33.5c0.6-0.6,0.6-1.7,0-2.3c-0.6-0.6-1.7-0.6-2.3,0c-0.6,0.6-0.6,1.7,0,2.3C8.8,34.1,9.9,34.1,10.5,33.5z
	"/>
<path class="st0" d="M30.1,39.2h-3c-0.6,0-1-0.4-1.2-0.9l-0.4-1.4c-0.2-0.1-0.3-0.1-0.5-0.2l-1.3,0.8c-0.5,0.3-1.1,0.2-1.5-0.2
	l-2.1-2.1c-0.4-0.4-0.5-1-0.2-1.5l0.8-1.3c-0.1-0.1-0.1-0.3-0.2-0.4l-1.5-0.4c-0.5-0.1-0.9-0.6-0.9-1.2v-2.9c0-0.6,0.4-1.1,0.9-1.2
	l1.5-0.4c0.1-0.1,0.1-0.3,0.2-0.4l-0.8-1.3c-0.3-0.5-0.2-1.1,0.2-1.5l2.1-2.1c0.4-0.4,1-0.5,1.5-0.2l1.3,0.8
	c0.2-0.1,0.3-0.1,0.5-0.2l0.4-1.4c0.1-0.5,0.6-0.9,1.2-0.9h3c0.6,0,1,0.4,1.2,0.9l0.4,1.5c0.2,0.1,0.3,0.1,0.5,0.2l1.3-0.8
	c0.5-0.3,1.1-0.2,1.5,0.2l2.1,2.1c0.4,0.4,0.5,1,0.2,1.5l-0.8,1.3c0.1,0.1,0.1,0.3,0.2,0.4l1.5,0.4c0.5,0.1,0.9,0.6,0.9,1.2v2.9
	c0,0.6-0.4,1.1-0.9,1.2l-1.5,0.4c-0.1,0.2-0.1,0.3-0.2,0.4l0.8,1.3c0.3,0.5,0.2,1.1-0.2,1.5l-2.1,2.1c-0.4,0.4-1,0.5-1.5,0.2
	l-1.3-0.8c-0.2,0.1-0.3,0.1-0.5,0.2l-0.4,1.4C31.2,38.8,30.7,39.2,30.1,39.2z M28.1,36.7h1.1l0.3-1.2c0.1-0.4,0.4-0.8,0.9-0.9
	c0.5-0.1,0.9-0.3,1.3-0.5c0.4-0.2,0.8-0.2,1.2,0l1.1,0.6l0.7-0.7l-0.6-1c-0.2-0.4-0.2-0.9,0-1.2c0.2-0.4,0.4-0.8,0.5-1.3
	c0.1-0.4,0.5-0.7,0.9-0.8l1.2-0.3v-1l-1.2-0.3c-0.4-0.1-0.8-0.4-0.9-0.8c-0.1-0.4-0.3-0.9-0.5-1.3c-0.2-0.4-0.2-0.9,0-1.2l0.6-1
	L33.9,23l-1.1,0.6c-0.4,0.2-0.8,0.2-1.2,0c-0.4-0.2-0.9-0.4-1.3-0.5c-0.4-0.1-0.7-0.5-0.9-0.9l-0.3-1.2h-1.1l-0.3,1.2
	c-0.1,0.4-0.4,0.8-0.9,0.9c-0.4,0.1-0.9,0.3-1.3,0.5c-0.4,0.2-0.8,0.2-1.2,0L23.4,23l-0.7,0.7l0.6,1c0.2,0.4,0.2,0.9,0,1.2
	c-0.2,0.4-0.4,0.9-0.5,1.3c-0.1,0.4-0.5,0.7-0.9,0.8l-1.2,0.3v1l1.2,0.3c0.4,0.1,0.8,0.4,0.9,0.8c0.1,0.4,0.3,0.9,0.5,1.3
	c0.2,0.4,0.2,0.9,0,1.2l-0.6,1l0.7,0.7l1.1-0.6c0.4-0.2,0.8-0.2,1.2,0c0.4,0.2,0.8,0.4,1.3,0.5c0.4,0.1,0.7,0.5,0.9,0.9L28.1,36.7z"/>
<path class="st0" d="M30.8,15h-2.4V8.4h-6.9V5.9h8.1c0.7,0,1.2,0.6,1.2,1.2V15z"/>
<path class="st0" d="M30.2,32.6l-2.8-2.9c-0.2-0.2-0.3-0.5-0.3-0.8l0-4.2l2.4,0l0,3.7l2.4,2.5L30.2,32.6z"/>
</symbol>

    <symbol id="icon-server" fill="none" viewBox="0 0 65 64">
        <circle cx="32.333" cy="32" r="32" fill="#DCF8F5"/>
        <path stroke="#323232" stroke-linecap="round" stroke-linejoin="round" stroke-width="2" d="M16.148 49.334v6.667M20.666 56h-9.333"/>
        <rect width="21.333" height="14.667" x="5.333" y="34.666" stroke="#323232" stroke-linecap="round" stroke-linejoin="round" stroke-width="2" rx="1"/>
        <path stroke="#323232" stroke-linecap="round" stroke-linejoin="round" stroke-width="2" d="M48.148 49.334v6.667M52.666 56h-9.333"/>
        <rect width="21.333" height="14.667" x="37.333" y="34.666" stroke="#323232" stroke-linecap="round" stroke-linejoin="round" stroke-width="2" rx="1"/>
        <path stroke="#323232" stroke-linecap="round" stroke-linejoin="round" stroke-width="2" d="M32.815 20v6.667m4.518.001H28"/>
        <rect width="21.333" height="14.667" x="22" y="5.334" stroke="#323232" stroke-linecap="round" stroke-linejoin="round" stroke-width="2" rx="1"/>
        <path stroke="#323232" stroke-linecap="round" stroke-linejoin="round" stroke-width="2" d="M13.333 13.334h-2.667a5.333 5.333 0 0 0-5.333 5.333v5.334m45.334-10.667h2.667a5.333 5.333 0 0 1 5.333 5.333v5.334"/>
    </symbol>


        <symbol id="icon-shoping" fill="none" viewBox="0 0 55 54">
            <circle cx="26.1" cy="26" r="22" fill="#7FDAD1"/>
            <path stroke="#323232" stroke-linecap="round" stroke-linejoin="round" stroke-width="2" d="M20.35 38.25V18a2.25 2.25 0 0 1 2.25-2.25h11.25v22.5"/>
            <path stroke="#323232" stroke-linecap="round" stroke-linejoin="round" stroke-width="2" d="M33.85 15.75V9a2.25 2.25 0 0 1 2.25-2.25h9A2.25 2.25 0 0 1 47.35 9v27a2.25 2.25 0 0 1-2.25 2.25h-36A2.25 2.25 0 0 1 6.85 36v-9a2.25 2.25 0 0 1 2.25-2.25h11.25m-13.5 22.5h40.5"/>
        </symbol>


    <symbol id="icon-wifi" fill="none" viewBox="0 0 65 65">
        <circle cx="32" cy="33" r="32" fill="#DCF8F5"/>
        <path stroke="#323232" stroke-linecap="round" stroke-linejoin="round" stroke-width="2" d="M35 11.314c4.419-4.419 11.581-4.419 16 0m-12 5.334a5.659 5.659 0 0 1 8 0M35 45.333H19m23.907.093a.132.132 0 0 1 0-.19.132.132 0 0 1 .189 0 .132.132 0 0 1 0 .19.132.132 0 0 1-.19 0M43 34.667V24"/>
        <path stroke="#323232" stroke-linecap="round" stroke-linejoin="round" stroke-width="2" d="M13.666 34.666H51a5.332 5.332 0 0 1 5.333 5.333v10.667A5.332 5.332 0 0 1 51 55.999H13.666a5.332 5.332 0 0 1-5.333-5.333V39.999a5.332 5.332 0 0 1 5.333-5.333Z" clip-rule="evenodd"/>
    </symbol>

    <symbol id="icon-protection" fill="none" viewBox="0 0 55 54">
        <circle cx="27.699" cy="27" r="22" fill="#7FDAD1"/>
        <path stroke="#323232" stroke-linecap="round" stroke-linejoin="round" stroke-width="2" d="M36.7 28.129c0 4.296-5.349 7.474-7.804 8.71a2.652 2.652 0 0 1-2.392.002c-2.455-1.237-7.805-4.422-7.805-8.712v-6.095a1.148 1.148 0 0 1 1.072-1.114 12.815 12.815 0 0 0 6.607-2.481 2.207 2.207 0 0 1 2.642 0 12.815 12.815 0 0 0 6.607 2.481c.592.04 1.056.522 1.072 1.114v6.095Z" clip-rule="evenodd"/>
        <path stroke="#323232" stroke-linecap="round" stroke-linejoin="round" stroke-width="2" d="M47.009 21.044c.614 1.926.931 3.934.94 5.956 0 11.184-9.066 20.25-20.25 20.25S7.45 38.184 7.45 27 16.515 6.75 27.7 6.75c2.022.009 4.03.326 5.956.94m7.091 3.7 2.703 2.7 4.497-4.5"/>
    </symbol>

    <symbol id="icon-lega-law" fill="none" viewBox="0 0 55 54">
        <circle cx="26.3" cy="26" r="22" fill="#7FDAD1"/>
        <path stroke="#323232" stroke-linecap="round" stroke-linejoin="round" stroke-width="2" d="M30.541 46.447v-.877a4.538 4.538 0 0 1 4.525-4.525h7.157a4.538 4.538 0 0 1 4.525 4.525v.877a1.08 1.08 0 0 1-1.08 1.08H31.621a1.08 1.08 0 0 1-1.081-1.08Zm3.944-13.96a4.322 4.322 0 1 1 8.325-2.323 4.322 4.322 0 0 1-8.325 2.323ZM5.691 42.125v-.877a4.538 4.538 0 0 1 4.525-4.525h7.157a4.538 4.538 0 0 1 4.525 4.525v.877a1.08 1.08 0 0 1-1.08 1.08H6.772a1.08 1.08 0 0 1-1.08-1.08Zm3.944-13.958a4.322 4.322 0 1 1 8.326-2.323 4.322 4.322 0 0 1-8.326 2.323Z" clip-rule="evenodd"/>
        <path stroke="#323232" stroke-linecap="round" stroke-linejoin="round" stroke-width="2" d="M38.04 12.878a.106.106 0 1 1 0 .151.104.104 0 0 1 0-.151m-5.63 0a.106.106 0 1 1 0 .151.104.104 0 0 1 0-.151m-5.629 0a.106.106 0 1 1 0 .151.104.104 0 0 1 0-.151"/>
        <path stroke="#323232" stroke-linecap="round" stroke-linejoin="round" stroke-width="2" d="M27.3 19.436v3.241a1.08 1.08 0 0 0 1.765.839l4.435-3.611a2.04 2.04 0 0 1 1.31-.469h5.456a4.322 4.322 0 0 0 4.321-4.322v-4.322a4.322 4.322 0 0 0-4.322-4.321H25.14a4.322 4.322 0 0 0-4.322 4.322v4.321a4.322 4.322 0 0 0 4.322 4.322h2.16Z" clip-rule="evenodd"/>
    </symbol>

    <symbol id="icon-heard-hand" fill="none" viewBox="0 0 55 54">
        <circle cx="26.899" cy="26" r="22" fill="#7FDAD1"/>
        <path stroke="#000" stroke-linecap="round" stroke-linejoin="round" stroke-width="2" d="M14.4 45.195h5.873c.765 0 1.526.091 2.269.273l6.205 1.508a9.62 9.62 0 0 0 4.11.096l6.862-1.335a9.46 9.46 0 0 0 4.786-2.492l4.855-4.722a3.382 3.382 0 0 0 0-4.88 3.623 3.623 0 0 0-4.637-.32l-5.658 4.127a4.763 4.763 0 0 1-2.81.911h-5.463 3.477c1.96 0 3.548-1.544 3.548-3.451v-.69c0-1.584-1.108-2.964-2.686-3.347l-5.367-1.305a11.31 11.31 0 0 0-2.668-.319c-2.17 0-6.1 1.797-6.1 1.797L14.4 33.805m-9-.956v13.05c0 1.26 0 1.89.246 2.371.215.424.56.768.983.984.481.245 1.111.245 2.371.245h1.8c1.26 0 1.89 0 2.372-.245a2.25 2.25 0 0 0 .983-.983c.245-.482.245-1.112.245-2.372v-13.05c0-1.26 0-1.89-.245-2.371a2.25 2.25 0 0 0-.983-.984c-.481-.245-1.111-.245-2.372-.245H9c-1.26 0-1.89 0-2.371.245a2.25 2.25 0 0 0-.983.984c-.246.48-.246 1.11-.246 2.371ZM39.58 8.082c-1.343-2.81-4.439-4.299-7.45-2.862-3.01 1.437-4.293 4.844-3.033 7.835.78 1.85 3.012 5.439 4.603 7.912.588.914.882 1.37 1.312 1.638.368.229.83.352 1.263.338.505-.017.988-.265 1.955-.763 2.614-1.345 6.342-3.338 7.941-4.55 2.588-1.96 3.229-5.563 1.291-8.302-1.937-2.739-5.314-3.008-7.882-1.246Z"/>
    </symbol>

    <symbol id="icon-internet-DB" fill="none" viewBox="0 0 64 64">
        <circle cx="32" cy="32" r="32" fill="#DCF8F5"/>
        <path stroke="#323232" stroke-linecap="round" stroke-linejoin="round" stroke-width="2" d="M56 45.334v5.333a5.333 5.333 0 0 1-5.333 5.334H40M20 49.64V56m5.334 0H14.667"/>
        <rect width="24" height="17.333" x="8" y="32" stroke="#323232" stroke-linecap="round" stroke-linejoin="round" stroke-width="2" rx="1.15"/>
        <path stroke="#323232" stroke-linecap="round" stroke-linejoin="round" stroke-width="2" d="M8 24V13.333A5.333 5.333 0 0 1 13.333 8H16m16 6.654-.013.013.013.014.014-.014-.014-.013m6.666 0-.013.013.013.014.014-.014-.014-.013m6.667 0-.013.013.013.014.014-.014-.014-.013"/>
        <path stroke="#323232" stroke-linecap="round" stroke-linejoin="round" stroke-width="2" d="M24 24V13.333A5.333 5.333 0 0 1 29.333 8h21.334A5.333 5.333 0 0 1 56 13.333V32a5.333 5.333 0 0 1-5.333 5.333H40m-16-16h32"/>
    </symbol>

    <symbol id="icon-content" fill="none" viewBox="0 0 55 54">
        <circle cx="26.5" cy="26" r="22" fill="#7FDAD1"/>
        <path stroke="#323232" stroke-linecap="round" stroke-linejoin="round" stroke-width="2" d="M16.25 6.75H14a4.499 4.499 0 0 0-4.5 4.5v31.5a4.5 4.5 0 0 0 4.5 4.5h27a4.5 4.5 0 0 0 4.5-4.5V17.613a4.501 4.501 0 0 0-1.319-3.181L37.82 8.067a4.501 4.501 0 0 0-3.182-1.318H25.25"/>
        <path stroke="#323232" stroke-linecap="round" stroke-linejoin="round" stroke-width="2" d="M45.5 18h-9a2.25 2.25 0 0 1-2.25-2.25v-9"/>
        <path stroke="#323232" stroke-linecap="round" stroke-linejoin="round" stroke-width="2" d="M23 4.5h-4.5a2.25 2.25 0 0 0-2.25 2.25V18l4.5-2.25 4.5 2.25V6.75A2.25 2.25 0 0 0 23 4.5Z" clip-rule="evenodd"/>
        <path stroke="#323232" stroke-linecap="round" stroke-linejoin="round" stroke-width="2" d="M16.25 27H36.5m-20.25 7.875H36.5"/>
    </symbol>

    <symbol id="icon-content-book" fill="none" viewBox="0 0 65 64">
        <circle cx="32.666" cy="32" r="32" fill="#DCF8F5"/>
        <path stroke="#323232" stroke-linecap="round" stroke-linejoin="round" stroke-width="2" d="M45.666 48H16.333m-8 0V16a8 8 0 0 1 8-8H43a5.332 5.332 0 0 1 5.333 5.333v24A2.668 2.668 0 0 1 45.666 40H16.333a8 8 0 0 0-8 8v0a8 8 0 0 0 8 8H51a5.332 5.332 0 0 0 5.333-5.333V13.333"/>
    </symbol>

    <symbol id="icon-business" fill="none" viewBox="0 0 65 64">
        <circle cx="32.5" cy="32" r="32" fill="#DCF8F5"/>
        <path stroke="#323232" stroke-linecap="round" stroke-linejoin="round" stroke-width="2" d="M53.833 21.333V16a8 8 0 0 0-8-8h-32a8 8 0 0 0-8 8v24a8 8 0 0 0 8 8H32.5"/>
        <path stroke="#323232" stroke-linecap="round" stroke-linejoin="round" stroke-width="2" d="M17.833 26.666h5.334c.736 0 1.333.597 1.333 1.333v9.334h-8v-9.334c0-.736.597-1.333 1.333-1.333Zm8-10.666h5.334c.736 0 1.333.597 1.333 1.333v20h-8v-20c0-.736.597-1.333 1.333-1.333Z" clip-rule="evenodd"/>
        <path stroke="#323232" stroke-linecap="round" stroke-linejoin="round" stroke-width="2" d="M40.5 26.667v-4c0-.736-.597-1.333-1.333-1.333h-5.334c-.736 0-1.333.597-1.333 1.333v14.667h2.667"/>
        <path stroke="#323232" stroke-linecap="round" stroke-linejoin="round" stroke-width="2" d="M59.833 54.66v-1.332a5.333 5.333 0 0 0-5.333-5.334h-9.334a5.333 5.333 0 0 0-5.333 5.334v1.333c0 .736.597 1.333 1.333 1.333H58.5c.736 0 1.333-.597 1.333-1.333Z" clip-rule="evenodd"/>
        <circle cx="49.833" cy="35.999" r="5.333" stroke="#323232" stroke-linecap="round" stroke-linejoin="round" stroke-width="2"/>
    </symbol>

    <!--new icon-->

    <symbol id="icon-send-message" fill="none" viewBox="0 0 24 24">
        <path stroke="#000" stroke-linecap="round" stroke-linejoin="round" stroke-width="2" d="M10.883 11.998H5.39"/>
        <path stroke="#000" stroke-linecap="round" stroke-linejoin="round" stroke-width="2" d="m5.24 3.625 14.598 7.297a1.203 1.203 0 0 1 0 2.153L5.24 20.372a1.203 1.203 0 0 1-1.701-1.384l1.85-6.99L3.54 5.01a1.203 1.203 0 0 1 1.7-1.385Z" clip-rule="evenodd"/>
    </symbol>

    <symbol id="icon-phone-call" fill="none" viewBox="0 0 54 55">
        <circle cx="27" cy="27.5" r="23" fill="#BFF2EE"/>
        <path stroke="#000" stroke-linecap="round" stroke-linejoin="round" stroke-width="3" d="M31.612 14a11.25 11.25 0 0 1 8.887 8.887M31.612 5a20.25 20.25 0 0 1 17.887 17.865m-26.49 8.827a32.856 32.856 0 0 1-6.403-9.022c-.135-.28-.202-.421-.254-.599a2.354 2.354 0 0 1 .33-1.94c.108-.15.237-.278.494-.535.787-.787 1.18-1.18 1.437-1.576a4.5 4.5 0 0 0 0-4.905c-.257-.396-.65-.79-1.437-1.576l-.438-.438c-1.196-1.196-1.794-1.794-2.436-2.119a4.5 4.5 0 0 0-4.062 0c-.642.325-1.24.923-2.436 2.119l-.355.354c-1.191 1.192-1.787 1.788-2.242 2.598-.505.899-.868 2.295-.865 3.326.003.929.183 1.564.543 2.834a42.837 42.837 0 0 0 10.966 18.638 42.837 42.837 0 0 0 18.638 10.966c1.27.36 1.905.54 2.834.543 1.031.003 2.427-.36 3.326-.865.81-.455 1.406-1.05 2.598-2.242l.354-.355c1.196-1.196 1.794-1.794 2.119-2.436a4.5 4.5 0 0 0 0-4.062c-.325-.642-.923-1.24-2.119-2.436l-.438-.438c-.787-.787-1.18-1.18-1.576-1.437a4.5 4.5 0 0 0-4.905 0c-.396.257-.79.65-1.576 1.437-.257.257-.386.386-.536.493a2.354 2.354 0 0 1-1.94.331c-.177-.052-.317-.12-.598-.254a32.854 32.854 0 0 1-9.022-6.404Z"/>
    </symbol>

    <symbol id="icon-map-pointer" fill="none" viewBox="0 0 54 54">
        <circle cx="27" cy="27" r="23" fill="#BFF2EE"/>
        <path stroke="#323232" stroke-linecap="round" stroke-linejoin="round" stroke-width="3" d="M39.728 12.04v0c7.03 7.062 7.03 18.478 0 25.54v0l-7.452 7.477a7.444 7.444 0 0 1-10.528.025l-.024-.025-7.452-7.476c-7.03-7.063-7.03-18.479 0-25.541v0c6.996-7.03 18.366-7.057 25.396-.06l.06.06h0Z" clip-rule="evenodd"/>
        <path stroke="#323232" stroke-linecap="round" stroke-linejoin="round" stroke-width="3" d="M33.75 23.915v5.335a2.25 2.25 0 0 1-2.25 2.25h-9a2.25 2.25 0 0 1-2.25-2.25v-5.465c0-.683.31-1.33.845-1.757l4.419-3.535a2.25 2.25 0 0 1 2.81 0l4.582 3.665a2.25 2.25 0 0 1 .844 1.757Z" clip-rule="evenodd"/>
    </symbol>

    <symbol id="icon-mail-delivery" fill="none" viewBox="0 0 54 55">
        <circle cx="27" cy="27.5" r="23" fill="#BFF2EE"/>
        <path stroke="#323232" stroke-linecap="round" stroke-linejoin="round" stroke-width="3" d="M15.75 21.88 25.195 26a4.5 4.5 0 0 0 3.598 0l9.457-4.125"/>
        <path stroke="#323232" stroke-linecap="round" stroke-linejoin="round" stroke-width="3" d="M6.75 29.75v-9a9 9 0 0 1 9-9h22.5a9 9 0 0 1 9 9V36.5a9 9 0 0 1-9 9H27M6.75 38.75H18m-6.75 6.75H18"/>
    </symbol>

    <symbol id="icon-company-id" fill="none" viewBox="0 0 54 54">
        <circle cx="27" cy="27" r="23" fill="#BFF2EE"/>
        <path stroke="#323232" stroke-linecap="round" stroke-linejoin="round" stroke-width="3" d="M44.559 40.98v0a38.814 38.814 0 0 0-17.027.405l-.532.133a41.256 41.256 0 0 1-18.097.43l-.344-.068a2.25 2.25 0 0 1-1.809-2.206V15.287a2.25 2.25 0 0 1 2.691-2.207v0a38.816 38.816 0 0 0 17.027-.405l1.064-.266a38.814 38.814 0 0 1 17.027-.405l.882.176a2.25 2.25 0 0 1 1.809 2.207v24.387a2.25 2.25 0 0 1-2.691 2.206Z" clip-rule="evenodd"/>
        <circle cx="27" cy="27" r="5.625" stroke="#323232" stroke-linecap="round" stroke-linejoin="round" stroke-width="3"/>
        <path stroke="#323232" stroke-linecap="round" stroke-linejoin="round" stroke-width="3" d="M38.25 33.75h2.25m-27-13.5h2.25"/>
    </symbol>

    <symbol id="icon-video-play" fill="none" viewBox="0 0 74 74">
        <path fill="#fff" fill-rule="evenodd" stroke="#323232" stroke-linecap="round" stroke-linejoin="round" stroke-width="1.5" d="M64.75 37c0 15.327-12.423 27.75-27.75 27.75S9.25 52.327 9.25 37 21.673 9.25 37 9.25 64.75 21.673 64.75 37Z" clip-rule="evenodd"/>
        <path fill="#000" fill-rule="evenodd" stroke="#323232" stroke-linecap="round" stroke-linejoin="round" stroke-width="1.5" d="m33.734 27.93 11.97 7.079c1.514.894 1.514 3.086 0 3.98l-11.97 7.08c-1.541.912-3.49-.2-3.49-1.992V29.92c0-1.791 1.949-2.904 3.49-1.992Z" clip-rule="evenodd"/>
    </symbol>

    <symbol id="icon-server-shield" fill="none" viewBox="0 0 40 40">
        <path stroke="#7FDAD1" stroke-linecap="round" stroke-linejoin="round" stroke-width="2" d="M27.5 21.742v0a3.903 3.903 0 0 1-3.68 4.092h-7.636a3.905 3.905 0 0 1-3.684-4.09v0a3.903 3.903 0 0 1 3.682-4.092h7.636a3.902 3.902 0 0 1 3.682 4.09v0Z" clip-rule="evenodd"/>
        <path stroke="#7FDAD1" stroke-linecap="round" stroke-linejoin="round" stroke-width="2" d="m27.488 21.412-.405-5.81a3.333 3.333 0 0 0-3.326-3.102h-7.513a3.333 3.333 0 0 0-3.325 3.101l-.405 5.809"/>
        <path stroke="#7FDAD1" stroke-linecap="round" stroke-linejoin="round" stroke-width="2" d="M5.833 17.945a17.682 17.682 0 0 0 11.487 16.56l.05.02a7.5 7.5 0 0 0 5.26-.002l.04-.015a17.711 17.711 0 0 0 11.496-16.585v-6.206a3.333 3.333 0 0 0-2.34-3.182L20.995 5.152a3.333 3.333 0 0 0-1.988 0L8.173 8.535a3.333 3.333 0 0 0-2.34 3.182v6.228Z" clip-rule="evenodd"/>
        <path stroke="#7FDAD1" stroke-linecap="round" stroke-linejoin="round" stroke-width="2" d="M16.75 21.667a.083.083 0 1 1-.167 0 .083.083 0 0 1 .167 0"/>
    </symbol>

    <symbol id="icon-security-video-camera" fill="none" viewBox="0 0 40 40">
        <path stroke="#7FDAD1" stroke-linecap="round" stroke-linejoin="round" stroke-width="2" d="M8.853 17.526 23.18 22.74a1.665 1.665 0 0 0 2.133-.995l1.59-4.37a1.653 1.653 0 0 1 1.716-1.08l6.394.628a.992.992 0 0 0 1.03-.648l.564-1.551a.992.992 0 0 0-.593-1.272l-22.668-8.25a3.33 3.33 0 0 0-4.268 1.99L6.87 13.26a3.324 3.324 0 0 0 1.984 4.266ZM5 23.334h3.333c.92 0 1.667.746 1.667 1.667v6.666c0 .92-.746 1.667-1.667 1.667H5v-10Z" clip-rule="evenodd"/>
        <path stroke="#7FDAD1" stroke-linecap="round" stroke-linejoin="round" stroke-width="2" d="M16.667 20.37v6.296c0 .92-.747 1.667-1.667 1.667h-5m6.666-17.12L13.333 10m20.092 6.768L32 20.68a2.763 2.763 0 0 1-3.542 1.652l-2.966-1.08"/>
    </symbol>


    <symbol id="icon-security-shield" fill="none" viewBox="0 0 40 40">
        <path stroke="#7FDAD1" stroke-linecap="round" stroke-linejoin="round" stroke-width="2" d="M22.545 18.542v-2.247A2.546 2.546 0 0 0 20 13.75v0a2.546 2.546 0 0 0-2.545 2.545v2.247"/>
        <path stroke="#7FDAD1" stroke-linecap="round" stroke-linejoin="round" stroke-width="2" d="M22.917 18.543h-5.833c-.92 0-1.667.747-1.667 1.667v3.54c0 .92.747 1.666 1.667 1.666h5.833c.92 0 1.667-.746 1.667-1.666v-3.54c0-.92-.747-1.667-1.667-1.667Z" clip-rule="evenodd"/>
        <path stroke="#7FDAD1" stroke-linecap="round" stroke-linejoin="round" stroke-width="2" d="M33.334 18.736c0 7.28-5.262 14.104-12.467 16.144a3.19 3.19 0 0 1-1.733 0c-7.205-2.04-12.467-8.864-12.467-16.144v-6.713c0-1.353.818-2.573 2.072-3.085l8.106-3.317a8.326 8.326 0 0 1 6.312 0l8.107 3.317a3.333 3.333 0 0 1 2.07 3.085v6.713Z" clip-rule="evenodd"/>
    </symbol>


    <symbol id="icon-printer-2" fill="none" viewBox="0 0 40 40">
        <path stroke="#7FDAD1" stroke-linecap="round" stroke-linejoin="round" stroke-width="2" d="M11.667 13.333V6.667c0-.92.747-1.667 1.667-1.667h13.333c.92 0 1.667.747 1.667 1.667v6.666M11.667 28.334H8.333A3.332 3.332 0 0 1 5 25.001v-8.334a3.332 3.332 0 0 1 3.333-3.333h23.334A3.332 3.332 0 0 1 35 16.667v1.667m-23.333-.001h1.667"/>
        <path stroke="#7FDAD1" stroke-linecap="round" stroke-linejoin="round" stroke-width="2" d="M18.334 35h-5c-.92 0-1.667-.726-1.667-1.62V23.335h6.667m16.23 10.789a.439.439 0 0 0 0 .875c.24 0 .436-.196.435-.438a.435.435 0 0 0-.435-.437M35 29.166c-3.415.075-5.758 2.418-5.833 5.833M23.333 35c.017-1.474.267-2.858.713-4.123 1.144-3.238 3.592-5.685 6.83-6.83A12.785 12.785 0 0 1 35 23.334"/>
    </symbol>

    <symbol id="icon-network-browser" fill="none" viewBox="0 0 40 40">
        <path stroke="#7FDAD1" stroke-linecap="round" stroke-linejoin="round" stroke-width="2" d="M5.437 34.124a.435.435 0 0 0-.435.437.436.436 0 1 0 .872.002.439.439 0 0 0-.437-.439m5.396.876c-.075-3.417-2.418-5.76-5.833-5.835m0-5.831c1.475.017 2.858.267 4.123.713 3.239 1.145 5.687 3.592 6.83 6.83.447 1.265.697 2.649.714 4.124"/>
        <path stroke="#7FDAD1" stroke-linecap="round" stroke-linejoin="round" stroke-width="2" d="M5 18.333v-10A3.332 3.332 0 0 1 8.333 5h23.334A3.332 3.332 0 0 1 35 8.333v23.334A3.332 3.332 0 0 1 31.667 35h-10"/>
        <path stroke="#7FDAD1" stroke-linecap="round" stroke-linejoin="round" stroke-width="2" d="M9.708 9.15c-.005 0-.008.003-.008.008s.003.008.008.008.009-.003.009-.008-.004-.009-.009-.009m4.239.001c-.005 0-.009.003-.009.008s.005.008.009.008c.005 0 .008-.003.008-.008s-.003-.009-.008-.009m4.232.001c-.005 0-.008.003-.008.008s.003.008.008.008.008-.003.008-.008-.003-.009-.008-.009M5.077 13.333h29.924"/>
    </symbol>

    <symbol id="icon-key-repair" fill="none" viewBox="0 0 40 40">
        <path stroke="#7FDAD1" stroke-linecap="round" stroke-linejoin="round" stroke-width="2" d="M12.5 19.333a7.502 7.502 0 0 0 15 0v-.063a7.42 7.42 0 0 0-2.515-5.575 1.5 1.5 0 0 0-2.465 1.157v4.105a.375.375 0 0 1-.375.375h-4.29a.375.375 0 0 1-.375-.375v-4.105a1.5 1.5 0 0 0-2.465-1.157A7.419 7.419 0 0 0 12.5 19.27"/>
        <circle cx="20" cy="20" r="15" stroke="#7FDAD1" stroke-linecap="round" stroke-linejoin="round" stroke-width="2"/>
        <path stroke="#7FDAD1" stroke-linecap="round" stroke-linejoin="round" stroke-width="2" d="M16.666 34.628v-8.724m6.667 8.725v-8.725"/>
    </symbol>

    <symbol id="icon-home-smart" fill="none" viewBox="0 0 40 40">
        <path stroke="#7FDAD1" stroke-linecap="round" stroke-linejoin="round" stroke-width="2" d="M21.667 35h7.857a3.332 3.332 0 0 0 3.333-3.333v-25c0-.92-.747-1.667-1.667-1.667h-3.095c-.92 0-1.666.747-1.666 1.667v3.843"/>
        <path stroke="#7FDAD1" stroke-linecap="round" stroke-linejoin="round" stroke-width="2" d="M5 17.856 17.83 6.859a3.333 3.333 0 0 1 4.338 0L35 17.856M5.437 34.124a.435.435 0 0 0-.435.437.436.436 0 1 0 .872.002.439.439 0 0 0-.437-.439m5.396.876c-.075-3.417-2.418-5.76-5.833-5.835m0-5.831c1.475.017 2.858.267 4.123.713 3.239 1.145 5.687 3.592 6.83 6.83.447 1.265.697 2.649.714 4.124"/>
    </symbol>

    <symbol id="icon-displays-network-group" fill="none" viewBox="0 0 40 40">
        <path stroke="#7FDAD1" stroke-linecap="round" stroke-linejoin="round" stroke-width="2" d="M10.093 30.834v4.167M12.916 35H7.083"/>
        <rect width="13.333" height="9.167" x="3.333" y="21.666" stroke="#7FDAD1" stroke-linecap="round" stroke-linejoin="round" stroke-width="2" rx="1"/>
        <path stroke="#7FDAD1" stroke-linecap="round" stroke-linejoin="round" stroke-width="2" d="M30.093 30.834v4.167M32.916 35h-5.833"/>
        <rect width="13.333" height="9.167" x="23.333" y="21.666" stroke="#7FDAD1" stroke-linecap="round" stroke-linejoin="round" stroke-width="2" rx="1"/>
        <path stroke="#7FDAD1" stroke-linecap="round" stroke-linejoin="round" stroke-width="2" d="M20.51 12.5v4.167m2.823 0H17.5"/>
        <rect width="13.333" height="9.167" x="13.75" y="3.334" stroke="#7FDAD1" stroke-linecap="round" stroke-linejoin="round" stroke-width="2" rx="1"/>
        <path stroke="#7FDAD1" stroke-linecap="round" stroke-linejoin="round" stroke-width="2" d="M8.333 8.334H6.666a3.333 3.333 0 0 0-3.333 3.333v3.334m28.334-6.667h1.667a3.333 3.333 0 0 1 3.333 3.333v3.334"/>
    </symbol>

    <symbol id="icon-devices_mobile" fill="none" viewBox="0 0 40 40">
        <path stroke="#7FDAD1" stroke-linecap="round" stroke-linejoin="round" stroke-width="2" d="M23.125 31.666H5c-.92 0-1.667-.747-1.667-1.667v-1.666c0-.92.747-1.667 1.667-1.667h18.125"/>
        <path stroke="#7FDAD1" stroke-linecap="round" stroke-linejoin="round" stroke-width="2" d="M33.333 8.333A3.332 3.332 0 0 0 30 5H8.333A3.332 3.332 0 0 0 5 8.333v18.334"/>
        <path stroke="#7FDAD1" stroke-linecap="round" stroke-linejoin="round" stroke-width="2" d="M26.458 13.334h6.875a3.332 3.332 0 0 1 3.334 3.333v15a3.332 3.332 0 0 1-3.334 3.334h-6.875a3.332 3.332 0 0 1-3.333-3.334v-15a3.332 3.332 0 0 1 3.333-3.333Z" clip-rule="evenodd"/>
        <path stroke="#7FDAD1" stroke-linecap="round" stroke-linejoin="round" stroke-width="2" d="M33.333 13.334v-5M28.434 31.25h2.916"/>
    </symbol>

    <symbol id="icon-developer-project" fill="none" viewBox="0 0 65 64">
        <circle cx="32.5" cy="32" r="32" fill="#DCF8F5"/>
        <path stroke="#323232" stroke-linecap="round" stroke-linejoin="round" stroke-width="2" d="M37.835 21.328V10.657a2.668 2.668 0 0 1 3.604-2.497l13.339 5.002a2.668 2.668 0 0 1 1.731 2.5v40.347"/>
        <path stroke="#323232" stroke-linecap="round" stroke-linejoin="round" stroke-width="2" d="M25.03 21.328h14.939a3.201 3.201 0 0 1 3.201 3.201v31.48H21.828V24.53a3.201 3.201 0 0 1 3.201-3.2Z" clip-rule="evenodd"/>
        <path stroke="#323232" stroke-linecap="round" stroke-linejoin="round" stroke-width="2" d="M29.832 21.33v-5.336a2.668 2.668 0 0 0-2.668-2.668H16.493a2.668 2.668 0 0 0-2.668 2.668v13.339M21.829 7.99v5.336M59.178 56.01H5.822m22.676-19.475h8.003m-8.003-7.203h8.003m-8.003 14.406h8.003"/>
        <path stroke="#323232" stroke-linecap="round" stroke-linejoin="round" stroke-width="2" d="M8.49 56.01V32a2.668 2.668 0 0 1 2.667-2.668h10.671"/>
    </symbol>

    <symbol id="icon-databases_server-databases" fill="none" viewBox="0 0 40 40">
        <path stroke="#7FDAD1" stroke-linecap="round" stroke-linejoin="round" stroke-width="2" d="M10.808 24.148v1.668m5.002-1.668v1.668m5.857-14.131h8.358m-19.196-.833v1.667m5.001-1.667v1.667"/>
        <rect width="30.012" height="13.339" x="4.993" y="4.994" stroke="#7FDAD1" stroke-linecap="round" stroke-linejoin="round" stroke-width="2" rx="1.5"/>
        <path stroke="#7FDAD1" stroke-linecap="round" stroke-linejoin="round" stroke-width="2" d="M16.665 31.673h-9.17a2.501 2.501 0 0 1-2.502-2.501v-8.337a2.501 2.501 0 0 1 2.501-2.501"/>
        <circle cx="29.17" cy="29.171" r="6.669" stroke="#7FDAD1" stroke-linecap="round" stroke-linejoin="round" stroke-width="2"/>
        <path stroke="#7FDAD1" stroke-linecap="round" stroke-linejoin="round" stroke-width="2" d="m31.413 27.85-2.801 2.8-1.684-1.68"/>
    </symbol>

    <symbol id="icon-book-text-title" fill="none" viewBox="0 0 40 40">
        <path stroke="#7FDAD1" stroke-linecap="round" stroke-linejoin="round" stroke-width="2" d="M6.667 31.667V8.333A3.333 3.333 0 0 1 10 5h21.667c.92 0 1.667.746 1.667 1.667v20c0 .92-.747 1.666-1.667 1.666H10a3.333 3.333 0 0 0-3.333 3.334v0A3.333 3.333 0 0 0 10 35h23.334M30 35v-6.666m-3.334-15.001H13.333M26.666 20H13.333"/>
    </symbol>

    <symbol id="icon-24-help-desk" fill="none" viewBox="0 0 32 32">
        <path stroke="#7FDAD1" stroke-linecap="round" stroke-linejoin="round" stroke-width="2" d="M8.722 13.877a2.457 2.457 0 0 1 4.913 0c0 3.07-4.913 3.07-4.913 6.706h4.913m8.252.001v-2.092h1.392-5.332a.914.914 0 0 1-.797-1.372 235.36 235.36 0 0 1 3.17-5.303c.448-.727 1.567-.4 1.567.453v6.222M30.04 4.006v4.822h-4.82 4.821"/>
        <path stroke="#7FDAD1" stroke-linecap="round" stroke-linejoin="round" stroke-width="2" d="M29.175 8.827C26.632 4.165 21.687 1 16 1 7.715 1 1 7.717 1 16c0 8.283 6.715 15 15 15s15-6.717 15-15"/>
    </symbol>

    <symbol id="icon-mini-heart-checkmark" fill="none" viewBox="0 0 25 24">
        <path stroke="#7FDAD1" stroke-linecap="round" stroke-linejoin="round" stroke-width="2" d="M12.5 5.708a4.753 4.753 0 0 1 3.7-1.712c3.172 0 5.303 2.982 5.303 5.758 0 5.803-7.225 10.249-9.004 10.249s-9.004-4.446-9.004-10.25c0-2.775 2.131-5.757 5.302-5.757A4.753 4.753 0 0 1 12.5 5.708Z" clip-rule="evenodd"/>
        <path stroke="#7FDAD1" stroke-linecap="round" stroke-linejoin="round" stroke-width="2" d="m14.355 10.574-2.317 2.32-1.393-1.394"/>
    </symbol>

    <symbol id="icon-mini-scale-toolset" fill="none" viewBox="0 0 24 24">
        <path stroke="#7FDAD1" stroke-linecap="round" stroke-linejoin="round" stroke-width="2" d="M21.004 12v5.002a4.002 4.002 0 0 1-4.002 4.002H6.998a4.002 4.002 0 0 1-4.002-4.002V6.998a4.002 4.002 0 0 1 4.002-4.002H12m9.004 4.002V2.996h-4.002M11 13 21.004 2.996"/>
        <path stroke="#7FDAD1" stroke-linecap="round" stroke-linejoin="round" stroke-width="2" d="M15.002 13H11V8.998"/>
    </symbol>

    <symbol id="icon-mini-security-lock" fill="none" viewBox="0 0 24 24">
        <path stroke="#7FDAD1" stroke-linecap="round" stroke-linejoin="round" stroke-width="2" d="M8 10V7a4 4 0 0 1 8 0m-4 10v-3"/>
        <rect width="14" height="11" x="5" y="10" stroke="#7FDAD1" stroke-linecap="round" stroke-linejoin="round" stroke-width="2" rx="3"/>
    </symbol>

    <symbol id="icon-protected" fill="none" viewBox="0 0 40 40">
        <path stroke="#7FDAD1" stroke-linecap="round" stroke-linejoin="round" stroke-width="2" d="M22.545 18.542v-2.247A2.546 2.546 0 0 0 20 13.75v0a2.546 2.546 0 0 0-2.545 2.545v2.247"/>
        <path stroke="#7FDAD1" stroke-linecap="round" stroke-linejoin="round" stroke-width="2" d="M22.917 18.543h-5.833c-.92 0-1.667.747-1.667 1.667v3.54c0 .92.747 1.666 1.667 1.666h5.833c.92 0 1.667-.746 1.667-1.666v-3.54c0-.92-.747-1.667-1.667-1.667Z" clip-rule="evenodd"/>
        <path stroke="#7FDAD1" stroke-linecap="round" stroke-linejoin="round" stroke-width="2" d="M33.334 18.736c0 7.28-5.262 14.104-12.467 16.144a3.19 3.19 0 0 1-1.733 0c-7.205-2.04-12.467-8.864-12.467-16.144v-6.713c0-1.353.818-2.573 2.072-3.085l8.106-3.317a8.326 8.326 0 0 1 6.312 0l8.107 3.317a3.333 3.333 0 0 1 2.07 3.085v6.713Z" clip-rule="evenodd"/>
    </symbol>

    <symbol id="icon-green-sky" fill="none" viewBox="0 0 55 54">
        <circle cx="27.199" cy="27" r="22" fill="#7FDAD1"/>
        <path stroke="#323232" stroke-linecap="round" stroke-linejoin="round" stroke-width="2" d="M14.428 20.403C8.94 21.153 4.7 25.808 4.7 31.5c0 6.212 5.038 11.25 11.25 11.25H40.7a9 9 0 0 0 0-18c0-7.456-6.043-13.5-13.5-13.5-5.933 0-10.96 3.832-12.77 9.153Z" clip-rule="evenodd"/>
        <path stroke="#323232" stroke-linecap="round" stroke-linejoin="round" stroke-width="2" d="m33.2 26.25-7.502 7.5-4.5-4.5"/>
    </symbol>

    <symbol id="icon-green-scale" fill="none" viewBox="0 0 54 54">
        <circle cx="26" cy="26" r="22" fill="#7FDAD1"/>
        <path stroke="#323232" stroke-linecap="round" stroke-linejoin="round" stroke-width="2" d="M47.258 26.999v11.254a9.004 9.004 0 0 1-9.004 9.004H15.745a9.004 9.004 0 0 1-9.004-9.004V15.744a9.004 9.004 0 0 1 9.004-9.004H27m20.258 9.004V6.74h-9.004M24.749 29.25l22.51-22.51"/>
        <path stroke="#323232" stroke-linecap="round" stroke-linejoin="round" stroke-width="2" d="M33.753 29.25h-9.004v-9.004"/>
    </symbol>

    <symbol id="icon-school-icon" fill="none" viewBox="0 0 65 64">
        <circle cx="32.5" cy="32" r="32" fill="#DCF8F5"/>
        <path stroke="#323232" stroke-linecap="round" stroke-linejoin="round" stroke-width="2" d="M19.167 53.334V27.778c0-1.82.928-3.514 2.462-4.494l8-5.111a5.333 5.333 0 0 1 5.743 0l8 5.111a5.333 5.333 0 0 1 2.462 4.494v4M32.5 5.334h10.667v6.667H32.5m0 5.333v-12"/>
        <path stroke="#323232" stroke-linecap="round" stroke-linejoin="round" stroke-width="2" d="M32.499 29a.332.332 0 1 0 .005 0h-.005M5.833 53.333H32.5m-24 0v-24a2.667 2.667 0 0 1 2.667-2.667h8.119M56.5 32v-2.667a2.667 2.667 0 0 0-2.667-2.667h-8.12"/>
        <circle cx="48.5" cy="48.001" r="10.667" stroke="#323232" stroke-linecap="round" stroke-linejoin="round" stroke-width="2"/>
        <path stroke="#323232" stroke-linecap="round" stroke-linejoin="round" stroke-width="2" d="M48.246 44.404v4.157l3.276 1.998M32.5 40h-1.333a2.667 2.667 0 0 0-2.667 2.667v10.666"/>
    </symbol>

    <symbol id="icon-green-book" fill="none" viewBox="0 0 65 64">
        <circle cx="32.666" cy="32" r="32" fill="#DCF8F5"/>
        <path stroke="#323232" stroke-linecap="round" stroke-linejoin="round" stroke-width="2" d="M45.666 48H16.333m-8 0V16a8 8 0 0 1 8-8H43a5.332 5.332 0 0 1 5.333 5.333v24A2.668 2.668 0 0 1 45.666 40H16.333a8 8 0 0 0-8 8v0a8 8 0 0 0 8 8H51a5.332 5.332 0 0 0 5.333-5.333V13.333"/>
    </symbol>

    <symbol id="icon-infinyty-space" fill="none" viewBox="0 0 55 54">
        <circle cx="27.8" cy="27" r="22" fill="#7FDAD1"/>
        <path stroke="#323232" stroke-linecap="round" stroke-linejoin="round" stroke-width="2" d="M27.393 27.43c-1.148 1.258-4.642 4.773-7.882 4.773v-.005l-.011.005v0A5.2 5.2 0 0 1 14.3 27a5.2 5.2 0 0 1 5.202-5.202v0l.011.004V21.8c3.24 0 6.734 3.512 7.882 4.772-.002 0 .405.43.405.43l-.407.43v0Z" clip-rule="evenodd"/>
        <path stroke="#323232" stroke-linecap="round" stroke-linejoin="round" stroke-width="2" d="M28.207 27.43c1.148 1.258 4.642 4.773 7.882 4.773v-.005l.011.005v0A5.2 5.2 0 0 0 41.3 27a5.2 5.2 0 0 0-5.202-5.202v0l-.011.004V21.8c-3.24 0-6.735 3.512-7.882 4.772.002 0-.405.43-.405.43l.407.43v0Z" clip-rule="evenodd"/>
        <path stroke="#323232" stroke-linecap="round" stroke-linejoin="round" stroke-width="2" d="M42.119 12.681c7.908 7.908 7.908 20.73 0 28.638-7.908 7.908-20.73 7.908-28.638 0-7.908-7.908-7.908-20.73 0-28.638 7.908-7.908 20.73-7.908 28.638 0"/>
    </symbol>

    <symbol id="icon-big-security" fill="none" viewBox="0 0 55 54">
        <circle cx="26.6" cy="26" r="22" fill="#7FDAD1"/>
        <circle cx="43.35" cy="11.25" r="4.5" stroke="#323232" stroke-linecap="round" stroke-linejoin="round" stroke-width="2"/>
        <path stroke="#323232" stroke-linecap="round" stroke-linejoin="round" stroke-width="2" d="M32.35 6.254a20.945 20.945 0 0 0-4.75-.629C15.794 5.625 6.225 15.195 6.225 27s9.57 21.375 21.375 21.375S48.975 38.805 48.975 27a20.945 20.945 0 0 0-.629-4.75"/>
        <path stroke="#323232" stroke-linecap="round" stroke-linejoin="round" stroke-width="2" d="M38.85 28.688a5.625 5.625 0 0 1-5.625 5.625H20.85a4.5 4.5 0 1 1 0-9 6.732 6.732 0 0 1 13.11-2.176 5.607 5.607 0 0 1 4.89 5.551v0Z" clip-rule="evenodd"/>
    </symbol>





</svg>