<?xml version="1.0" encoding="utf-8"?>
<!-- Generator: Adobe Illustrator 26.1.0, SVG Export Plug-In . SVG Version: 6.00 Build 0)  -->
<svg version="1.1" id="Vrstva_1" xmlns="http://www.w3.org/2000/svg" xmlns:xlink="http://www.w3.org/1999/xlink" x="0px" y="0px"
	 width="10px" height="7px" viewBox="0 0 10 7" style="enable-background:new 0 0 10 7;" xml:space="preserve">
<style type="text/css">
	.st0{fill:#FA4514;}
</style>
<path class="st0" d="M4.907,6.942c-0.022,0-0.044-0.001-0.067-0.003C4.721,6.929,4.604,6.906,4.49,6.872
	C4.433,6.854,4.379,6.83,4.33,6.802C4.275,6.787,4.222,6.766,4.17,6.737C4.068,6.683,3.971,6.618,3.881,6.543
	C3.834,6.504,3.793,6.461,3.759,6.414C3.71,6.378,3.666,6.334,3.626,6.282C3.614,6.267,3.551,6.179,3.54,6.162L3.481,6.073
	C3.463,6.046,3.447,6.018,3.433,5.989c-0.021-0.024-0.042-0.051-0.06-0.078L3.261,5.745c-0.02-0.029-0.037-0.06-0.052-0.091
	C3.188,5.63,3.168,5.604,3.15,5.576L3.039,5.41C3.02,5.382,3.002,5.353,2.988,5.321c-0.021-0.024-0.042-0.05-0.06-0.078L2.817,5.077
	C2.798,5.049,2.781,5.02,2.767,4.99C2.745,4.965,2.725,4.938,2.706,4.91L2.595,4.744C2.576,4.717,2.56,4.688,2.545,4.658
	c-0.022-0.025-0.042-0.052-0.062-0.08L2.375,4.416C2.356,4.387,2.34,4.357,2.325,4.327C2.302,4.302,2.281,4.274,2.261,4.245
	L2.15,4.078C2.132,4.05,2.115,4.021,2.101,3.991C2.079,3.966,2.059,3.94,2.04,3.912L1.929,3.745C1.91,3.717,1.894,3.688,1.879,3.659
	C1.858,3.635,1.837,3.608,1.819,3.581L1.708,3.414C1.688,3.385,1.671,3.356,1.657,3.326c-0.021-0.025-0.042-0.051-0.061-0.08
	L1.485,3.08C1.466,3.051,1.45,3.022,1.435,2.993c-0.021-0.025-0.042-0.051-0.061-0.08L1.263,2.747
	C1.245,2.719,1.229,2.691,1.215,2.662C1.192,2.637,1.171,2.609,1.152,2.581L1.041,2.414c-0.019-0.028-0.035-0.057-0.05-0.087
	C0.97,2.302,0.949,2.276,0.93,2.248L0.819,2.081C0.801,2.053,0.784,2.024,0.77,1.994C0.749,1.97,0.729,1.944,0.71,1.917L0.599,1.75
	C0.58,1.722,0.562,1.692,0.547,1.662C0.526,1.637,0.505,1.61,0.486,1.582L0.375,1.416C0.146,1.071,0.24,0.605,0.584,0.375
	c0.343-0.23,0.81-0.137,1.04,0.209l0.111,0.167c0.019,0.028,0.035,0.057,0.05,0.087c0.021,0.024,0.041,0.05,0.06,0.078l0.111,0.166
	C1.975,1.11,1.992,1.14,2.007,1.17c0.021,0.025,0.042,0.051,0.061,0.08l0.111,0.167c0.019,0.028,0.035,0.057,0.05,0.087
	C2.25,1.528,2.271,1.555,2.29,1.583L2.401,1.75c0.018,0.027,0.034,0.056,0.048,0.084c0.022,0.025,0.043,0.053,0.063,0.082
	l0.111,0.167c0.019,0.028,0.035,0.057,0.05,0.087c0.021,0.025,0.042,0.051,0.061,0.08l0.111,0.167
	c0.019,0.028,0.035,0.057,0.05,0.087c0.021,0.024,0.042,0.05,0.06,0.078l0.111,0.167c0.019,0.028,0.036,0.058,0.05,0.087
	c0.022,0.025,0.042,0.052,0.062,0.08l0.111,0.167c0.019,0.028,0.035,0.057,0.05,0.087C3.36,3.192,3.38,3.219,3.399,3.247L3.51,3.414
	C3.529,3.441,3.545,3.47,3.56,3.499C3.582,3.524,3.602,3.551,3.621,3.58l0.111,0.167c0.019,0.028,0.035,0.057,0.049,0.086
	c0.021,0.024,0.042,0.051,0.061,0.079l0.111,0.167c0.019,0.028,0.036,0.058,0.051,0.087c0.021,0.025,0.042,0.052,0.061,0.08
	l0.111,0.166C4.195,4.439,4.212,4.469,4.227,4.5c0.021,0.024,0.042,0.05,0.06,0.078l0.111,0.166c0.02,0.028,0.037,0.058,0.051,0.089
	c0.021,0.023,0.041,0.049,0.059,0.076l0.111,0.166c0.019,0.028,0.036,0.059,0.051,0.088c0.022,0.025,0.043,0.053,0.062,0.082
	l0.062,0.093c0.006,0.01,0.013,0.02,0.019,0.029C4.821,5.374,4.83,5.382,4.839,5.389l0.042,0.028
	C4.889,5.421,4.897,5.426,4.905,5.43C4.913,5.433,4.92,5.435,4.929,5.437c0.023,0.008,0.048,0.009,0.073,0.012
	C5.011,5.447,5.02,5.446,5.028,5.445c0.018-0.002,0.036-0.006,0.053-0.012c0.007-0.002,0.013-0.004,0.02-0.005
	c0.005-0.004,0.011-0.007,0.017-0.01C5.133,5.41,5.147,5.4,5.16,5.39c0.006-0.006,0.013-0.011,0.019-0.016
	c0.003-0.005,0.007-0.01,0.01-0.014l0.004,0.003c0.014-0.011,0.027-0.021,0.041-0.029L5.219,5.32l0.058-0.087
	c0.019-0.027,0.038-0.054,0.06-0.077c0.015-0.031,0.032-0.062,0.052-0.091l0.111-0.166c0.019-0.027,0.038-0.053,0.059-0.076
	c0.015-0.03,0.031-0.06,0.05-0.088L5.72,4.568C5.738,4.54,5.758,4.515,5.78,4.49c0.015-0.03,0.031-0.06,0.05-0.088l0.111-0.167
	C5.96,4.207,5.981,4.18,6.004,4.154c0.014-0.028,0.03-0.057,0.048-0.084l0.11-0.166c0.02-0.029,0.04-0.056,0.062-0.081
	c0.014-0.03,0.03-0.059,0.049-0.086l0.11-0.166c0.02-0.029,0.04-0.056,0.062-0.082C6.461,3.46,6.478,3.431,6.497,3.403l0.111-0.167
	c0.018-0.027,0.037-0.053,0.059-0.077c0.015-0.03,0.032-0.06,0.052-0.089L6.83,2.903C6.848,2.876,6.868,2.85,6.889,2.826
	c0.016-0.03,0.032-0.06,0.052-0.088l0.111-0.167c0.019-0.028,0.039-0.055,0.061-0.08c0.015-0.029,0.03-0.057,0.049-0.084l0.11-0.167
	c0.02-0.029,0.04-0.056,0.062-0.082c0.015-0.029,0.031-0.058,0.049-0.085l0.11-0.166c0.02-0.029,0.04-0.056,0.062-0.082
	C7.57,1.796,7.587,1.767,7.606,1.739l0.111-0.167C7.735,1.545,7.755,1.52,7.776,1.495c0.015-0.03,0.032-0.06,0.052-0.089
	l0.111-0.167c0.018-0.027,0.038-0.053,0.059-0.078c0.016-0.03,0.032-0.06,0.052-0.088l0.111-0.167C8.18,0.878,8.2,0.852,8.222,0.827
	C8.236,0.798,8.253,0.77,8.271,0.742l0.104-0.157c0.229-0.345,0.693-0.44,1.04-0.209c0.345,0.229,0.438,0.695,0.21,1.04L9.521,1.572
	c-0.02,0.029-0.04,0.056-0.062,0.082C9.443,1.683,9.427,1.712,9.407,1.741L9.296,1.907C9.278,1.935,9.258,1.96,9.236,1.985
	c-0.015,0.03-0.031,0.06-0.051,0.088L9.074,2.24C9.057,2.267,9.037,2.292,9.016,2.317c-0.015,0.03-0.032,0.06-0.052,0.089
	L8.853,2.573c-0.019,0.028-0.039,0.055-0.061,0.08C8.777,2.681,8.761,2.71,8.743,2.737l-0.11,0.166
	c-0.02,0.029-0.04,0.056-0.062,0.082C8.556,3.014,8.54,3.042,8.521,3.069l-0.11,0.167c-0.02,0.029-0.04,0.056-0.062,0.082
	C8.334,3.347,8.317,3.376,8.298,3.405L8.187,3.571C8.169,3.599,8.148,3.625,8.128,3.649c-0.016,0.03-0.032,0.06-0.052,0.088
	L7.965,3.904C7.947,3.931,7.928,3.957,7.906,3.981C7.892,4.012,7.874,4.041,7.854,4.07L7.743,4.236
	c-0.019,0.028-0.039,0.055-0.061,0.08C7.668,4.346,7.651,4.374,7.634,4.401l-0.11,0.166c-0.02,0.028-0.04,0.056-0.062,0.081
	c-0.014,0.029-0.03,0.058-0.049,0.086L7.302,4.9C7.282,4.93,7.261,4.957,7.238,4.982C7.225,5.012,7.208,5.04,7.189,5.067
	L7.078,5.234C7.06,5.263,7.039,5.288,7.019,5.312C7.004,5.343,6.986,5.372,6.968,5.4L6.856,5.567
	c-0.019,0.027-0.039,0.054-0.06,0.078c-0.016,0.031-0.032,0.061-0.052,0.09L6.634,5.901c-0.019,0.027-0.038,0.053-0.06,0.076
	C6.56,6.009,6.543,6.038,6.523,6.067L6.383,6.269c-0.038,0.05-0.081,0.094-0.127,0.131c-0.034,0.047-0.074,0.09-0.119,0.129
	c-0.09,0.077-0.186,0.144-0.286,0.199c-0.054,0.03-0.11,0.053-0.167,0.069C5.633,6.826,5.579,6.851,5.52,6.869
	C5.41,6.902,5.296,6.926,5.183,6.938C5.124,6.943,5.065,6.942,5.009,6.936C4.976,6.94,4.941,6.942,4.907,6.942z"/>
</svg>
