<?xml version="1.0" encoding="utf-8"?>
<!-- Generator: Adobe Illustrator 26.0.3, SVG Export Plug-In . SVG Version: 6.00 Build 0)  -->
<svg version="1.1" id="Vrstva_1" xmlns="http://www.w3.org/2000/svg" xmlns:xlink="http://www.w3.org/1999/xlink" x="0px" y="0px"
	 width="20px" height="20px" viewBox="0 0 20 20" style="enable-background:new 0 0 20 20;" xml:space="preserve" fill="#FA4514">
<g id="_9-Home">
	<path d="M14.2,20H5.8c-2,0.1-3.6-1.4-3.7-3.4v-4.5c0-0.4,0.3-0.7,0.7-0.7s0.7,0.3,0.7,0.7v4.5c0.1,1.2,1.1,2,2.3,2h8.3
		c1.2,0.1,2.2-0.8,2.3-2v-4.5c0-0.4,0.3-0.7,0.7-0.7s0.7,0.3,0.7,0.7v4.5C17.8,18.6,16.1,20.1,14.2,20z M19.8,10.5
		c0.3-0.3,0.3-0.7,0-1c0,0,0,0,0,0l-9.3-9.3c-0.3-0.3-0.7-0.3-1,0c0,0,0,0,0,0L0.2,9.5c-0.3,0.3-0.3,0.7,0,1c0.3,0.3,0.7,0.3,1,0
		L10,1.7l8.8,8.8C19.1,10.8,19.5,10.8,19.8,10.5C19.8,10.5,19.8,10.5,19.8,10.5z"/>
</g>
</svg>
