<?xml version="1.0" encoding="utf-8"?>
<!-- Generator: Adobe Illustrator 26.1.0, SVG Export Plug-In . SVG Version: 6.00 Build 0)  -->
<svg version="1.1" id="Vrstva_1" xmlns="http://www.w3.org/2000/svg" xmlns:xlink="http://www.w3.org/1999/xlink" x="0px" y="0px"
	 width="1586px" height="253px" viewBox="0 0 1586 253" style="enable-background:new 0 0 1586 253;" xml:space="preserve">
<style type="text/css">
	.st0{fill:#002858;}
	.st1{fill:#FA4514;}
</style>
<path class="st0" d="M285.5,8H282V4.5c0-2.5-2-4.5-4.5-4.5C275,0,273,2,273,4.5V8h-3.5c-2.5,0-4.5,2-4.5,4.5c0,2.5,2,4.5,4.5,4.5
	h3.5v3.5c0,2.5,2,4.5,4.5,4.5c2.5,0,4.5-2,4.5-4.5v-3.6h3.5c2.5,0,4.5-2,4.5-4.5C290,10,288,8,285.5,8z"/>
<path class="st1" d="M7.4,119.9H6.1v-1.3c0-0.9-0.7-1.6-1.6-1.6c-0.9,0-1.6,0.7-1.6,1.6v1.3H1.6c-0.9,0-1.6,0.7-1.6,1.6
	c0,0.9,0.7,1.6,1.6,1.6h1.3v1.3c0,0.9,0.7,1.6,1.6,1.6c0.9,0,1.6-0.7,1.6-1.6v-1.3h1.3c0.9,0,1.6-0.7,1.6-1.6
	C9,120.6,8.3,119.9,7.4,119.9z"/>
<path class="st1" d="M197,241.5h-2.4V239c0-1.7-1.4-3-3-3c-1.7,0-3,1.4-3,3v2.4H186c-1.7,0-3,1.4-3,3c0,1.7,1.4,3,3,3h2.4v2.4
	c0,1.7,1.4,3,3,3c1.7,0,3-1.4,3-3v-2.4h2.4c1.7,0,3-1.4,3-3C200,242.8,198.6,241.5,197,241.5z"/>
</svg>
