<svg xmlns="http://www.w3.org/2000/svg" width="65" height="64" fill="none" viewBox="0 0 65 64">
  <circle cx="32.5" cy="32" r="32" fill="#DCF8F5"/>
  <path stroke="#323232" stroke-linecap="round" stroke-linejoin="round" stroke-width="2" d="M37.835 21.328V10.657a2.668 2.668 0 0 1 3.604-2.497l13.339 5.002a2.668 2.668 0 0 1 1.731 2.5v40.347"/>
  <path stroke="#323232" stroke-linecap="round" stroke-linejoin="round" stroke-width="2" d="M25.03 21.328h14.939a3.201 3.201 0 0 1 3.201 3.201v31.48H21.828V24.53a3.201 3.201 0 0 1 3.201-3.2Z" clip-rule="evenodd"/>
  <path stroke="#323232" stroke-linecap="round" stroke-linejoin="round" stroke-width="2" d="M29.832 21.33v-5.336a2.668 2.668 0 0 0-2.668-2.668H16.493a2.668 2.668 0 0 0-2.668 2.668v13.339M21.829 7.99v5.336M59.178 56.01H5.822m22.676-19.475h8.003m-8.003-7.203h8.003m-8.003 14.406h8.003"/>
  <path stroke="#323232" stroke-linecap="round" stroke-linejoin="round" stroke-width="2" d="M8.49 56.01V32a2.668 2.668 0 0 1 2.667-2.668h10.671"/>
</svg>
