<?xml version="1.0" encoding="utf-8"?>
<!-- Generator: Adobe Illustrator 26.3.1, SVG Export Plug-In . SVG Version: 6.00 Build 0)  -->
<svg version="1.1" id="Vrstva_1" xmlns="http://www.w3.org/2000/svg" xmlns:xlink="http://www.w3.org/1999/xlink" x="0px" y="0px"
	 width="40px" height="40px" viewBox="0 0 40 40" style="enable-background:new 0 0 40 40;" xml:space="preserve">
<style type="text/css">
	.st0{fill:#010202;}
	.st1{fill-rule:evenodd;clip-rule:evenodd;fill:#010202;}
	.st2{fill:none;stroke:#010202;stroke-width:1.6;stroke-linecap:round;stroke-linejoin:round;}
	.st3{fill:none;stroke:#010202;stroke-width:1.6;stroke-linecap:round;}
	.st4{fill:none;stroke:#010202;stroke-width:1.6;stroke-linejoin:round;}
	.st5{fill:none;stroke:#010202;stroke-width:1.6;}
	.st6{fill:#020203;}
</style>
<g>
	<path class="st1" d="M15.9,18c4.5,0,8.2-3.7,8.2-8.2c0-4.5-3.7-8.2-8.2-8.2S7.7,5.3,7.7,9.9C7.7,14.4,11.4,18,15.9,18z M15.9,4.6
		c2.9,0,5.3,2.4,5.3,5.3c0,2.9-2.4,5.3-5.3,5.3c-2.9,0-5.3-2.4-5.3-5.3C10.6,6.9,13,4.6,15.9,4.6z"/>
	<path class="st1" d="M15.6,32c-0.1-0.3-0.4-0.6-0.7-0.6c-3.7-0.1-7.3-0.4-10.9-1c0,0-0.1,0-0.1-0.1v-2.3c0-2.4,1.9-4.3,4.3-4.3h0.7
		c0.1,0,0.1,0,0.1,0l1.7,0.5c1.3,0.4,2.7,0.7,4,0.8c0.3,0,0.5-0.2,0.6-0.5c0.1-0.6,0.3-1.2,0.6-1.8c0.1-0.3-0.1-0.5-0.4-0.6
		c-1.3,0-2.6-0.3-3.9-0.7l-1.7-0.5c-0.3-0.1-0.7-0.2-1-0.2H8.2c-4,0-7.2,3.2-7.2,7.2v2.3c0,1.4,1.1,2.7,2.5,2.9
		c4.2,0.7,8.3,1,12.5,1c0.3,0,0.5-0.3,0.3-0.6C16.1,33.2,15.8,32.6,15.6,32z"/>
	<path class="st1" d="M31.2,28.5l-1.3-1v-2.7c0-0.8-0.6-1.4-1.4-1.4c-0.8,0-1.4,0.6-1.4,1.4v3.4c0,0.5,0.2,0.9,0.6,1.2l1.9,1.4
		c0.6,0.5,1.5,0.3,2-0.3C32,29.9,31.8,29,31.2,28.5z"/>
	<path class="st1" d="M28.4,17.2c-5.8,0-10.6,4.7-10.6,10.6c0,5.8,4.7,10.6,10.6,10.6c5.8,0,10.6-4.7,10.6-10.6
		C39,21.9,34.3,17.2,28.4,17.2z M28.4,35.4c-4.3,0-7.7-3.4-7.7-7.7s3.4-7.7,7.7-7.7c4.3,0,7.7,3.4,7.7,7.7S32.7,35.4,28.4,35.4z"/>
</g>
</svg>
