<?xml version="1.0" encoding="utf-8"?>
<!-- Generator: Adobe Illustrator 26.3.1, SVG Export Plug-In . SVG Version: 6.00 Build 0)  -->
<svg version="1.1" id="Vrstva_1" xmlns="http://www.w3.org/2000/svg" xmlns:xlink="http://www.w3.org/1999/xlink" x="0px" y="0px"
	 width="40px" height="40px" viewBox="0 0 40 40" style="enable-background:new 0 0 40 40;" xml:space="preserve">
<style type="text/css">
	.st0{fill:#010202;}
	.st1{fill-rule:evenodd;clip-rule:evenodd;fill:#010202;}
	.st2{fill:none;stroke:#010202;stroke-width:1.6;stroke-linecap:round;stroke-linejoin:round;}
	.st3{fill:none;stroke:#010202;stroke-width:1.6;stroke-linecap:round;}
	.st4{fill:none;stroke:#010202;stroke-width:1.6;stroke-linejoin:round;}
	.st5{fill:none;stroke:#010202;stroke-width:1.6;}
	.st6{fill:#020203;}
</style>
<path class="st0" d="M37.9,31.3H37V13c0-1.4-1.2-2.6-2.6-2.6h-1.7c-0.6,0-1.1,0.5-1.1,1.1c0,0.6,0.5,1.1,1.1,1.1h1.7
	c0.2,0,0.3,0.1,0.3,0.3v18.3H5.3V13c0-0.2,0.2-0.3,0.3-0.3h1.7c0.6,0,1.1-0.5,1.1-1.1c0-0.6-0.5-1.1-1.1-1.1H5.6
	C4.2,10.4,3,11.6,3,13v18.3H2.1c-0.6,0-1.1,0.5-1.1,1.2v1.4C1,36.7,3.3,39,6.2,39h27.6c2.9,0,5.2-2.3,5.2-5.2v-1.4
	C39,31.8,38.5,31.3,37.9,31.3z M36.7,33.8c0,1.6-1.3,2.9-2.9,2.9H6.2c-1.6,0-2.9-1.3-2.9-2.9v-0.2h33.5V33.8z"/>
<path class="st0" d="M31.1,21L29.7,11c-0.2-1.3-1.3-2.2-2.6-2.2h-1.5V6.6C25.6,3.5,23.1,1,20,1s-5.6,2.5-5.6,5.6v2.1h-1.5
	c-1.3,0-2.4,1-2.6,2.2L8.9,21c-0.4,2.6,1.7,5,4.3,5h13.5C29.3,26,31.4,23.6,31.1,21z M16.7,6.6c0-1.8,1.5-3.3,3.3-3.3
	s3.3,1.5,3.3,3.3v2.1h-6.7V6.6z M12.9,11h1.5v1.9c0,0.6,0.5,1.1,1.1,1.1c0.6,0,1.1-0.5,1.1-1.1V11h6.7v1.9c0,0.6,0.5,1.1,1.1,1.1
	c0.6,0,1.1-0.5,1.1-1.1V11h1.5c0.2,0,0.3,0.1,0.3,0.3l1.1,8H11.5l1.1-8C12.6,11.1,12.7,11,12.9,11z M26.7,23.7H13.3
	c-1.2,0-2.1-1-2.1-2.2h17.7C28.9,22.7,27.9,23.7,26.7,23.7z"/>
</svg>
