<?xml version="1.0" encoding="utf-8"?>
<!-- Generator: Adobe Illustrator 26.3.1, SVG Export Plug-In . SVG Version: 6.00 Build 0)  -->
<svg version="1.1" id="Vrstva_1" xmlns="http://www.w3.org/2000/svg" xmlns:xlink="http://www.w3.org/1999/xlink" x="0px" y="0px"
	 width="40px" height="40px" viewBox="0 0 40 40" style="enable-background:new 0 0 40 40;" xml:space="preserve">
<style type="text/css">
	.st0{fill:#010202;}
	.st1{fill-rule:evenodd;clip-rule:evenodd;fill:#010202;}
	.st2{fill:none;stroke:#010202;stroke-width:1.6;stroke-linecap:round;stroke-linejoin:round;}
	.st3{fill:none;stroke:#010202;stroke-width:1.6;stroke-linecap:round;}
	.st4{fill:none;stroke:#010202;stroke-width:1.6;stroke-linejoin:round;}
	.st5{fill:none;stroke:#010202;stroke-width:1.6;}
	.st6{fill:#020203;}
</style>
<path class="st0" d="M20,36c-1.9,0-13.2-4.8-14.2-17.5l0,0C5.3,12.9,6,9.5,8.1,7.2C10.7,4.4,15.4,4,20,4s9.3,0.4,11.9,3.2
	c2,2.2,2.8,5.7,2.3,11.3C33.2,31.2,21.9,36,20,36z M8.3,18.3C9.2,29.4,19,33.4,20,33.5c1-0.1,10.8-4.1,11.7-15.2
	c0.4-4.8-0.1-7.7-1.6-9.4C28.5,7.2,25.6,6.5,20,6.5S11.5,7.2,9.9,8.9C8.4,10.6,7.9,13.5,8.3,18.3L8.3,18.3z"/>
<path class="st0" d="M18.4,22.3L18.4,22.3c-0.3,0-0.6-0.1-0.9-0.4l-3.1-3.1c-0.5-0.5-0.5-1.3,0-1.8c0.5-0.5,1.3-0.5,1.8,0l2.2,2.2
	l5.3-5.3c0.5-0.5,1.3-0.5,1.8,0c0.5,0.5,0.5,1.3,0,1.8L19.3,22C19.1,22.2,18.8,22.3,18.4,22.3z"/>
</svg>
