<?xml version="1.0" encoding="utf-8"?>
<!-- Generator: Adobe Illustrator 26.3.1, SVG Export Plug-In . SVG Version: 6.00 Build 0)  -->
<svg version="1.1" id="Vrstva_1" xmlns="http://www.w3.org/2000/svg" xmlns:xlink="http://www.w3.org/1999/xlink" x="0px" y="0px"
	 width="40px" height="40px" viewBox="0 0 40 40" style="enable-background:new 0 0 40 40;" xml:space="preserve">
<style type="text/css">
	.st0{fill:#010202;}
	.st1{fill-rule:evenodd;clip-rule:evenodd;fill:#010202;}
	.st2{fill:none;stroke:#010202;stroke-width:1.6;stroke-linecap:round;stroke-linejoin:round;}
	.st3{fill:none;stroke:#010202;stroke-width:1.6;stroke-linecap:round;}
	.st4{fill:none;stroke:#010202;stroke-width:1.6;stroke-linejoin:round;}
	.st5{fill:none;stroke:#010202;stroke-width:1.6;}
	.st6{fill:#020203;}
</style>
<path class="st0" d="M27,15.5h-3V9.1c0-1.6-1.3-2.9-2.9-2.9H9.8c-1.6,0-2.9,1.3-2.9,2.9v6.4h-3c-1.6,0-2.9,1.3-2.9,2.9v11.1
	c0,1.6,1.3,2.9,2.9,2.9h3v3.9c0,1.6,1.3,2.9,2.9,2.9h11.3c1.6,0,2.9-1.3,2.9-2.9v-3.9h3c1.6,0,2.9-1.3,2.9-2.9V18.4
	C29.9,16.8,28.6,15.5,27,15.5z M9.5,9.1c0-0.2,0.1-0.3,0.3-0.3h11.3c0.2,0,0.3,0.1,0.3,0.3v6.4h-12V9.1z M21.5,36.3
	c0,0.2-0.1,0.3-0.3,0.3H9.8c-0.2,0-0.3-0.1-0.3-0.3v-8.1h12V36.3z M27.3,29.5c0,0.2-0.1,0.3-0.3,0.3h-3v-1.7h1.4v-2.6h-20v2.6h1.4
	v1.7h-3c-0.2,0-0.3-0.1-0.3-0.3V18.4c0-0.2,0.1-0.3,0.3-0.3H27c0.2,0,0.3,0.1,0.3,0.3V29.5z"/>
<path class="st0" d="M10.8,31.1h9.4v2.6h-9.4V31.1z"/>
<path class="st0" d="M5.8,19.4h3V22h-3V19.4z"/>
<path class="st0" d="M34.7,3.1c-2.3-1.6-5.2-2.3-8-1.7l0.5,2.6c2.1-0.4,4.3,0,6,1.3c1.7,1.2,2.9,3.1,3.2,5.3l2.6-0.4
	C38.5,7.2,37,4.7,34.7,3.1z"/>
<path class="st0" d="M32.3,6.6c-1.6-1.1-3.5-1.5-5.3-1.1L27.4,8c1.2-0.2,2.4,0,3.3,0.7c1,0.7,1.6,1.7,1.8,3l2.6-0.4
	C34.8,9.3,33.8,7.7,32.3,6.6z"/>
<path class="st0" d="M29.8,10.1c-0.9-0.6-2-0.4-2.6,0.5c-0.6,0.9-0.4,2.1,0.5,2.7c0.9,0.6,2,0.4,2.6-0.5
	C30.9,11.9,30.7,10.7,29.8,10.1z"/>
</svg>
