<?xml version="1.0" encoding="utf-8"?>
<!-- Generator: Adobe Illustrator 26.3.1, SVG Export Plug-In . SVG Version: 6.00 Build 0)  -->
<svg version="1.1" id="Vrstva_1" xmlns="http://www.w3.org/2000/svg" xmlns:xlink="http://www.w3.org/1999/xlink" x="0px" y="0px"
	 width="40px" height="40px" viewBox="0 0 40 40" style="enable-background:new 0 0 40 40;" xml:space="preserve">
<style type="text/css">
	.st0{fill:#010202;}
	.st1{fill-rule:evenodd;clip-rule:evenodd;fill:#010202;}
	.st2{fill:none;stroke:#010202;stroke-width:1.6;stroke-linecap:round;stroke-linejoin:round;}
	.st3{fill:none;stroke:#010202;stroke-width:1.6;stroke-linecap:round;}
	.st4{fill:none;stroke:#010202;stroke-width:1.6;stroke-linejoin:round;}
	.st5{fill:none;stroke:#010202;stroke-width:1.6;}
	.st6{fill:#020203;}
</style>
<path class="st0" d="M20,39c-1.6,0-3.2-0.6-4.5-1.7L7,30c-1.6-1.4-2.5-3.3-2.5-5.4V11.7c0-2,0.9-4,2.3-5.3c1.4-1.3,3.4-2,5.3-1.8
	l1.6,0.2c0.9,0.1,1.6-0.4,2-1.2C16.6,2,18.2,1,20,1c1.8,0,3.4,1,4.2,2.6c0.4,0.8,1.2,1.2,2,1.2l1.6-0.2c1.9-0.2,3.9,0.5,5.3,1.8
	c1.5,1.3,2.3,3.3,2.3,5.3v12.8c0,2.1-0.9,4.1-2.5,5.4l-8.5,7.3C23.2,38.4,21.6,39,20,39z M11.5,7.3c-1.1,0-2,0.4-2.8,1.1
	c-0.9,0.8-1.5,2.1-1.5,3.4v12.8c0,1.3,0.6,2.6,1.6,3.4l8.5,7.3c1.6,1.4,3.9,1.4,5.5,0l8.5-7.3c1-0.9,1.6-2.1,1.6-3.4V11.7
	c0-1.3-0.5-2.5-1.5-3.4c-0.9-0.8-2.1-1.2-3.3-1.1l-1.6,0.2c-1.9,0.2-3.8-0.9-4.6-2.6c-0.7-1.5-2.9-1.5-3.6,0
	c-0.9,1.8-2.7,2.8-4.6,2.6l-1.6-0.2C11.8,7.3,11.6,7.3,11.5,7.3z"/>
<path class="st0" d="M18,24.9C18,24.9,18,24.9,18,24.9c-0.4,0-0.7-0.2-1-0.4l-3.3-3.5c-0.5-0.5-0.5-1.4,0.1-1.9
	c0.5-0.5,1.4-0.5,1.9,0.1l2.4,2.6l6.3-6.1c0.5-0.5,1.4-0.5,1.9,0c0.5,0.5,0.5,1.4,0,1.9L19,24.5C18.7,24.7,18.4,24.9,18,24.9z"/>
</svg>
