<?xml version="1.0" encoding="utf-8"?>
<!-- Generator: Adobe Illustrator 26.3.1, SVG Export Plug-In . SVG Version: 6.00 Build 0)  -->
<svg version="1.1" id="Vrstva_1" xmlns="http://www.w3.org/2000/svg" xmlns:xlink="http://www.w3.org/1999/xlink" x="0px" y="0px"
	 width="40px" height="40px" viewBox="0 0 40 40" style="enable-background:new 0 0 40 40;" xml:space="preserve">
<style type="text/css">
	.st0{fill:#010202;}
	.st1{fill-rule:evenodd;clip-rule:evenodd;fill:#010202;}
	.st2{fill:none;stroke:#010202;stroke-width:1.6;stroke-linecap:round;stroke-linejoin:round;}
	.st3{fill:none;stroke:#010202;stroke-width:1.6;stroke-linecap:round;}
	.st4{fill:none;stroke:#010202;stroke-width:1.6;stroke-linejoin:round;}
	.st5{fill:none;stroke:#010202;stroke-width:1.6;}
	.st6{fill:#020203;}
</style>
<g>
	<g>
		<path class="st6" d="M35.2,20.6c-0.2-0.8-0.6-1.5-1.2-2.1c-0.6-0.6-1.4-0.9-2.2-1c-2.6-0.3-6.5-0.4-11.8-0.4
			c-5.2,0-9.2,0.1-11.7,0.4c-0.8,0.1-1.6,0.4-2.2,1c-0.6,0.6-1,1.3-1.2,2.1c-0.4,1.6-0.6,4.1-0.6,7.4c0,3.4,0.2,5.8,0.6,7.4
			C5,36.3,5.4,37,6.1,37.6c0.6,0.6,1.4,0.9,2.2,1C10.8,38.9,14.8,39,20,39c5.2,0,9.2-0.1,11.8-0.4c0.8-0.1,1.5-0.4,2.2-1
			c0.6-0.6,1-1.3,1.2-2.1c0.4-1.6,0.6-4.1,0.6-7.4C35.7,24.7,35.5,22.2,35.2,20.6z M13.3,22.8H11v12.1H8.9V22.8H6.6v-2h6.6
			L13.3,22.8L13.3,22.8z M19,34.8h-1.9v-1.1c-0.8,0.9-1.5,1.3-2.2,1.3c-0.7,0-1.1-0.3-1.2-0.8c-0.1-0.3-0.2-0.9-0.2-1.5v-8.3h1.9
			v7.7c0,0.5,0,0.7,0,0.7c0,0.3,0.2,0.4,0.4,0.4c0.4,0,0.8-0.3,1.2-0.9v-8H19L19,34.8L19,34.8z M26.2,31.7c0,1-0.1,1.7-0.2,2.1
			c-0.2,0.8-0.7,1.2-1.5,1.2c-0.7,0-1.3-0.4-2-1.2v1h-1.9V20.8h1.9v4.6c0.6-0.8,1.3-1.1,2-1.1c0.8,0,1.3,0.4,1.5,1.2
			c0.1,0.4,0.2,1.1,0.2,2.1V31.7z M33.4,30h-3.8v1.8c0,1,0.3,1.5,1,1.5c0.5,0,0.7-0.3,0.8-0.8c0-0.1,0-0.6,0-1.3h1.9v0.3
			c0,0.7,0,1.1,0,1.2c0,0.4-0.2,0.8-0.4,1.1c-0.5,0.7-1.3,1.1-2.3,1.1c-1,0-1.7-0.4-2.3-1.1c-0.4-0.5-0.6-1.3-0.6-2.5v-3.7
			c0-1.1,0.2-1.9,0.6-2.5c0.6-0.7,1.3-1.1,2.3-1.1c0.9,0,1.7,0.4,2.2,1.1c0.4,0.5,0.6,1.3,0.6,2.5L33.4,30L33.4,30z"/>
		<path class="st6" d="M23.5,26c-0.3,0-0.6,0.2-1,0.5v6.4c0.3,0.3,0.6,0.5,1,0.5c0.6,0,0.8-0.5,0.8-1.4v-4.5
			C24.3,26.4,24,26,23.5,26z"/>
		<path class="st6" d="M30.5,26c-0.6,0-1,0.5-1,1.4v1h1.9v-1C31.5,26.4,31.2,26,30.5,26z"/>
		<path class="st6" d="M12,9.5v5.7h2.1V9.5L16.7,1h-2.2l-1.4,5.6L11.6,1H9.4c0.4,1.2,0.9,2.5,1.4,4C11.4,6.9,11.8,8.4,12,9.5z"/>
		<path class="st6" d="M19.6,15.4c1,0,1.7-0.4,2.2-1.1c0.4-0.5,0.6-1.4,0.6-2.5V8.1c0-1.1-0.2-2-0.6-2.5c-0.5-0.7-1.3-1.1-2.2-1.1
			c-0.9,0-1.7,0.4-2.2,1.1c-0.4,0.5-0.6,1.4-0.6,2.5v3.7c0,1.1,0.2,2,0.6,2.5C17.9,15,18.6,15.4,19.6,15.4z M18.6,7.7
			c0-1,0.3-1.5,0.9-1.5c0.6,0,0.9,0.5,0.9,1.5v4.5c0,1-0.3,1.5-0.9,1.5c-0.6,0-0.9-0.5-0.9-1.5V7.7z"/>
		<path class="st6" d="M25.4,15.4c0.7,0,1.4-0.4,2.2-1.3v1.2h1.9V4.6h-1.9v8.1c-0.4,0.6-0.8,0.9-1.2,0.9c-0.3,0-0.4-0.2-0.4-0.5
			c0,0,0-0.3,0-0.7V4.6H24V13c0,0.7,0.1,1.3,0.2,1.6C24.3,15.1,24.7,15.4,25.4,15.4z"/>
	</g>
</g>
</svg>
