<?xml version="1.0" encoding="utf-8"?>
<!-- Generator: Adobe Illustrator 26.3.1, SVG Export Plug-In . SVG Version: 6.00 Build 0)  -->
<svg version="1.1" id="Vrstva_1" xmlns="http://www.w3.org/2000/svg" xmlns:xlink="http://www.w3.org/1999/xlink" x="0px" y="0px"
	 width="40px" height="40px" viewBox="0 0 40 40" style="enable-background:new 0 0 40 40;" xml:space="preserve">
<style type="text/css">
	.st0{fill:#010202;}
	.st1{fill-rule:evenodd;clip-rule:evenodd;fill:#010202;}
	.st2{fill:none;stroke:#010202;stroke-width:1.6;stroke-linecap:round;stroke-linejoin:round;}
	.st3{fill:none;stroke:#010202;stroke-width:1.6;stroke-linecap:round;}
	.st4{fill:none;stroke:#010202;stroke-width:1.6;stroke-linejoin:round;}
	.st5{fill:none;stroke:#010202;stroke-width:1.6;}
	.st6{fill:#020203;}
</style>
<path class="st0" d="M30.3,36.8c-0.6,0-1.2-0.1-1.8-0.3C15.5,33,7.4,26.5,1.8,14.7C1,13.6,0.8,12,1.3,10.6c0.9-2.4,2.6-4.4,5.2-6.3
	c2-1.6,5-1.5,7.3,0.3l1.4,1.1c1.4,1.2,2.3,2.8,2.4,4.5c0.1,1.7-0.4,3.4-1.6,4.7l-0.3,0.3c-1,1.2-1.5,3-0.4,4.2
	c1.4,1.6,3.2,2.9,5.7,4.2c1.6,0.9,3.8,0.5,5.1-0.9l0.2-0.2c2.1-2.5,6.2-2.9,8.9-0.8l1.4,1.2c2.4,1.9,3.1,5.2,1.5,7.8
	c-1.5,2.4-3.4,3.9-4.8,5C32.4,36.4,31.4,36.8,30.3,36.8z M9.8,5.4c-0.7,0-1.4,0.2-2,0.7c-2.3,1.7-3.8,3.3-4.5,5.4
	C3,12.1,3.1,13,3.6,13.5l0.1,0.2C9,24.9,16.6,31.1,29.1,34.4c1.1,0.4,2.1,0.2,2.9-0.4c2-1.5,3.2-2.8,4.3-4.4c1-1.6,0.5-3.7-1-5
	l-1.4-1.1c-1.8-1.4-4.6-1.1-6.1,0.6l-0.2,0.2c-1.9,2.1-5.1,2.7-7.6,1.3c-2.7-1.4-4.7-2.9-6.3-4.6c-1.7-1.8-1.5-4.8,0.4-7.1l0.3-0.4
	c0.7-0.8,1.1-1.9,1-3.1c-0.1-1.2-0.7-2.3-1.6-3l-1.4-1.1C11.7,5.7,10.7,5.4,9.8,5.4z"/>
<path class="st0" d="M27,12.7c-0.3,0-0.6-0.1-0.8-0.3c-0.4-0.4-0.4-1.1,0-1.5l4.8-4.7c0.4-0.4,1.1-0.4,1.5,0c0.4,0.4,0.4,1.1,0,1.5
	l-4.8,4.7C27.6,12.6,27.3,12.7,27,12.7z"/>
<path class="st0" d="M30.7,16.1c-0.4,0-0.9-0.3-1-0.7c-0.2-0.6,0.1-1.2,0.7-1.4l3.7-1.3c0.6-0.2,1.2,0.1,1.4,0.7s-0.1,1.2-0.7,1.4
	L31.1,16C30.9,16.1,30.8,16.1,30.7,16.1z"/>
<path class="st0" d="M23.6,9c-0.1,0-0.2,0-0.4-0.1c-0.6-0.2-0.8-0.8-0.6-1.4L23.9,4c0.2-0.6,0.8-0.8,1.4-0.6
	c0.6,0.2,0.8,0.8,0.6,1.4l-1.3,3.6C24.5,8.7,24,9,23.6,9z"/>
</svg>
