<?xml version="1.0" encoding="utf-8"?>
<!-- Generator: Adobe Illustrator 26.3.1, SVG Export Plug-In . SVG Version: 6.00 Build 0)  -->
<svg version="1.1" id="Vrstva_1" xmlns="http://www.w3.org/2000/svg" xmlns:xlink="http://www.w3.org/1999/xlink" x="0px" y="0px"
	 width="40px" height="40px" viewBox="0 0 40 40" style="enable-background:new 0 0 40 40;" xml:space="preserve">
<style type="text/css">
	.st0{fill:#010202;}
	.st1{fill-rule:evenodd;clip-rule:evenodd;fill:#010202;}
	.st2{fill:none;stroke:#010202;stroke-width:1.6;stroke-linecap:round;stroke-linejoin:round;}
	.st3{fill:none;stroke:#010202;stroke-width:1.6;stroke-linecap:round;}
	.st4{fill:none;stroke:#010202;stroke-width:1.6;stroke-linejoin:round;}
	.st5{fill:none;stroke:#010202;stroke-width:1.6;}
	.st6{fill:#020203;}
</style>
<path class="st1" d="M9.2,6c0,2.2-1.6,3.9-4.2,3.9C2.6,9.9,1,8.1,1,6C1,3.7,2.6,2,5.1,2C7.6,2,9.2,3.7,9.2,6z M1.2,38V12.9H9v25
	L1.2,38L1.2,38z"/>
<path class="st1" d="M15.2,20.9c0-3.1-0.1-5.8-0.2-8h6.8l0.4,3.4h0.2c1-1.6,3.6-4,7.7-4c5.1,0,9,3.4,9,10.8V38h-7.8V24.1
	c0-3.2-1.1-5.4-3.9-5.4c-2.2,0-3.4,1.5-3.9,2.9c-0.2,0.5-0.3,1.2-0.3,1.9V38h-7.8L15.2,20.9L15.2,20.9z"/>
</svg>
