<svg xmlns="http://www.w3.org/2000/svg" width="54" height="55" fill="none" viewBox="0 0 54 55">
  <circle cx="27" cy="27.5" r="23" fill="#BFF2EE"/>
  <path stroke="#000" stroke-linecap="round" stroke-linejoin="round" stroke-width="3" d="M31.612 14a11.25 11.25 0 0 1 8.887 8.887M31.612 5a20.25 20.25 0 0 1 17.887 17.865m-26.49 8.827a32.856 32.856 0 0 1-6.403-9.022c-.135-.28-.202-.421-.254-.599a2.354 2.354 0 0 1 .33-1.94c.108-.15.237-.278.494-.535.787-.787 1.18-1.18 1.437-1.576a4.5 4.5 0 0 0 0-4.905c-.257-.396-.65-.79-1.437-1.576l-.438-.438c-1.196-1.196-1.794-1.794-2.436-2.119a4.5 4.5 0 0 0-4.062 0c-.642.325-1.24.923-2.436 2.119l-.355.354c-1.191 1.192-1.787 1.788-2.242 2.598-.505.899-.868 2.295-.865 3.326.003.929.183 1.564.543 2.834a42.837 42.837 0 0 0 10.966 18.638 42.837 42.837 0 0 0 18.638 10.966c1.27.36 1.905.54 2.834.543 1.031.003 2.427-.36 3.326-.865.81-.455 1.406-1.05 2.598-2.242l.354-.355c1.196-1.196 1.794-1.794 2.119-2.436a4.5 4.5 0 0 0 0-4.062c-.325-.642-.923-1.24-2.119-2.436l-.438-.438c-.787-.787-1.18-1.18-1.576-1.437a4.5 4.5 0 0 0-4.905 0c-.396.257-.79.65-1.576 1.437-.257.257-.386.386-.536.493a2.354 2.354 0 0 1-1.94.331c-.177-.052-.317-.12-.598-.254a32.854 32.854 0 0 1-9.022-6.404Z"/>
</svg>
