<svg xmlns="http://www.w3.org/2000/svg" width="40" height="40" fill="none" viewBox="0 0 40 40">
  <path stroke="#7FDAD1" stroke-linecap="round" stroke-linejoin="round" stroke-width="2" d="M5.437 34.124a.435.435 0 0 0-.435.437.436.436 0 1 0 .872.002.439.439 0 0 0-.437-.439m5.396.876c-.075-3.417-2.418-5.76-5.833-5.835m0-5.831c1.475.017 2.858.267 4.123.713 3.239 1.145 5.687 3.592 6.83 6.83.447 1.265.697 2.649.714 4.124"/>
  <path stroke="#7FDAD1" stroke-linecap="round" stroke-linejoin="round" stroke-width="2" d="M5 18.333v-10A3.332 3.332 0 0 1 8.333 5h23.334A3.332 3.332 0 0 1 35 8.333v23.334A3.332 3.332 0 0 1 31.667 35h-10"/>
  <path stroke="#7FDAD1" stroke-linecap="round" stroke-linejoin="round" stroke-width="2" d="M9.708 9.15c-.005 0-.008.003-.008.008s.003.008.008.008.009-.003.009-.008-.004-.009-.009-.009m4.239.001c-.005 0-.009.003-.009.008s.005.008.009.008c.005 0 .008-.003.008-.008s-.003-.009-.008-.009m4.232.001c-.005 0-.008.003-.008.008s.003.008.008.008.008-.003.008-.008-.003-.009-.008-.009M5.077 13.333h29.924"/>
</svg>
