<?xml version="1.0" encoding="utf-8"?>
<!-- Generator: Adobe Illustrator 26.3.1, SVG Export Plug-In . SVG Version: 6.00 Build 0)  -->
<svg version="1.1" id="Vrstva_1" xmlns="http://www.w3.org/2000/svg" xmlns:xlink="http://www.w3.org/1999/xlink" x="0px" y="0px"
	 width="40px" height="40px" viewBox="0 0 40 40" style="enable-background:new 0 0 40 40;" xml:space="preserve">
<style type="text/css">
	.st0{fill:#010202;}
	.st1{fill-rule:evenodd;clip-rule:evenodd;fill:#010202;}
	.st2{fill:none;stroke:#010202;stroke-width:1.6;stroke-linecap:round;stroke-linejoin:round;}
	.st3{fill:none;stroke:#010202;stroke-width:1.6;stroke-linecap:round;}
	.st4{fill:none;stroke:#010202;stroke-width:1.6;stroke-linejoin:round;}
	.st5{fill:none;stroke:#010202;stroke-width:1.6;}
	.st6{fill:#020203;}
</style>
<path class="st0" d="M28.4,15.5l-1.2,0.2c0.1,0.3,0.3,0.6,0.5,0.8c0.3,0.2,0.6,0.3,1,0.2L28.4,15.5z M13.1,15.4l-0.2,1.2
	c0.7,0.1,1.3-0.3,1.4-1L13.1,15.4z M6.9,21.6l0,1.2c0.4,0,0.7-0.2,0.9-0.4c0.2-0.3,0.3-0.6,0.3-1L6.9,21.6z M6.8,21.6l0-1.2h0V21.6z
	 M6.8,29.6c-1.9,0-3.4-1.5-3.4-3.4H0.9c0,3.3,2.6,5.9,5.9,5.9V29.6z M30.1,29.6H6.8v2.5h23.3V29.6z M36.6,23.1
	c0,3.6-2.9,6.5-6.5,6.5v2.5c5,0,9-4,9-9H36.6z M30.1,16.6c3.6,0,6.5,2.9,6.5,6.5h2.5c0-5-4-9-9-9V16.6z M28.7,16.7
	c0.5-0.1,0.9-0.2,1.4-0.2v-2.5c-0.7,0-1.3,0.1-1.9,0.2L28.7,16.7z M20.8,10.4c3.2,0,5.9,2.3,6.4,5.4l2.4-0.4
	c-0.8-4.2-4.4-7.4-8.9-7.4V10.4z M14.4,15.7c0.6-3,3.2-5.3,6.4-5.3V7.9c-4.4,0-8,3.1-8.8,7.3L14.4,15.7z M12.2,16.6
	c0.2,0,0.5,0,0.7,0.1l0.4-2.5c-0.4-0.1-0.7-0.1-1.1-0.1V16.6z M8,20.8c0-2.3,1.9-4.2,4.2-4.2v-2.5c-3.7,0-6.7,3-6.7,6.7H8z
	 M8.1,21.4c0-0.2,0-0.4,0-0.6H5.6c0,0.3,0,0.6,0.1,1L8.1,21.4z M6.8,22.8L6.8,22.8l0.1-2.5l-0.1,0L6.8,22.8z M3.4,26.2
	c0-1.9,1.5-3.4,3.4-3.4v-2.5c-3.3,0-5.9,2.6-5.9,5.9H3.4z"/>
</svg>
