<svg xmlns="http://www.w3.org/2000/svg" width="40" height="40" fill="none" viewBox="0 0 40 40">
  <path stroke="#7FDAD1" stroke-linecap="round" stroke-linejoin="round" stroke-width="2" d="M11.667 13.333V6.667c0-.92.747-1.667 1.667-1.667h13.333c.92 0 1.667.747 1.667 1.667v6.666M11.667 28.334H8.333A3.332 3.332 0 0 1 5 25.001v-8.334a3.332 3.332 0 0 1 3.333-3.333h23.334A3.332 3.332 0 0 1 35 16.667v1.667m-23.333-.001h1.667"/>
  <path stroke="#7FDAD1" stroke-linecap="round" stroke-linejoin="round" stroke-width="2" d="M18.334 35h-5c-.92 0-1.667-.726-1.667-1.62V23.335h6.667m16.23 10.789a.439.439 0 0 0 0 .875c.24 0 .436-.196.435-.438a.435.435 0 0 0-.435-.437M35 29.166c-3.415.075-5.758 2.418-5.833 5.833M23.333 35c.017-1.474.267-2.858.713-4.123 1.144-3.238 3.592-5.685 6.83-6.83A12.785 12.785 0 0 1 35 23.334"/>
</svg>
