<?xml version="1.0" encoding="utf-8"?>
<!-- Generator: Adobe Illustrator 26.3.1, SVG Export Plug-In . SVG Version: 6.00 Build 0)  -->
<svg version="1.1" id="Vrstva_1" xmlns="http://www.w3.org/2000/svg" xmlns:xlink="http://www.w3.org/1999/xlink" x="0px" y="0px"
	 width="40px" height="40px" viewBox="0 0 40 40" style="enable-background:new 0 0 40 40;" xml:space="preserve">
<style type="text/css">
	.st0{fill:#010202;}
	.st1{fill-rule:evenodd;clip-rule:evenodd;fill:#010202;}
	.st2{fill:none;stroke:#010202;stroke-width:1.6;stroke-linecap:round;stroke-linejoin:round;}
	.st3{fill:none;stroke:#010202;stroke-width:1.6;stroke-linecap:round;}
	.st4{fill:none;stroke:#010202;stroke-width:1.6;stroke-linejoin:round;}
	.st5{fill:none;stroke:#010202;stroke-width:1.6;}
	.st6{fill:#020203;}
</style>
<path class="st0" d="M37.8,16.6L22,2.2c-1.1-1-2.8-1-4,0l-3.7,3.4V2.3C14.3,1.6,13.8,1,13,1H6.5C5.8,1,5.2,1.6,5.2,2.3v11.6l-3,2.7
	c-0.8,0.8-0.3,2.3,0.9,2.3H6v17.2C6,37.7,7.3,39,8.9,39h22.2c1.6,0,2.9-1.3,2.9-2.9V18.9h2.9C38,18.9,38.6,17.4,37.8,16.6z
	 M19.8,4.1c0.1-0.1,0.3-0.1,0.4,0l13.3,12.1H7.3H6.5L19.8,4.1z M7.8,3.6h3.9V8l-3.9,3.6V3.6z M31.4,36.1c0,0.2-0.1,0.3-0.3,0.3H8.9
	c-0.2,0-0.3-0.1-0.3-0.3V18.9h22.8V36.1z"/>
<path class="st0" d="M20,23.2c2.6,0,5,1,6.8,2.9l1.9-1.8c-2.3-2.4-5.4-3.7-8.7-3.7c-3.3,0-6.4,1.3-8.7,3.7l1.9,1.8
	C15,24.2,17.4,23.2,20,23.2z"/>
<path class="st0" d="M20,25.5c-2.2,0-4.2,0.9-5.7,2.4l1.9,1.8c1-1.1,2.4-1.7,3.9-1.7c1.5,0,2.8,0.6,3.9,1.7l1.9-1.8
	C24.2,26.4,22.2,25.5,20,25.5z"/>
<path class="st0" d="M20,34.7c1.2,0,2.2-1,2.2-2.2c0-1.2-1-2.2-2.2-2.2c-1.2,0-2.2,1-2.2,2.2C17.8,33.7,18.8,34.7,20,34.7z"/>
</svg>
