<?xml version="1.0" encoding="utf-8"?>
<!-- Generator: Adobe Illustrator 26.3.1, SVG Export Plug-In . SVG Version: 6.00 Build 0)  -->
<svg version="1.1" id="Vrstva_1" xmlns="http://www.w3.org/2000/svg" xmlns:xlink="http://www.w3.org/1999/xlink" x="0px" y="0px"
	 width="40px" height="40px" viewBox="0 0 40 40" style="enable-background:new 0 0 40 40;" xml:space="preserve">
<style type="text/css">
	.st0{fill:#010202;}
	.st1{fill-rule:evenodd;clip-rule:evenodd;fill:#010202;}
	.st2{fill:none;stroke:#010202;stroke-width:1.6;stroke-linecap:round;stroke-linejoin:round;}
	.st3{fill:none;stroke:#010202;stroke-width:1.6;stroke-linecap:round;}
	.st4{fill:none;stroke:#010202;stroke-width:1.6;stroke-linejoin:round;}
	.st5{fill:none;stroke:#010202;stroke-width:1.6;}
	.st6{fill:#020203;}
</style>
<path class="st1" d="M39,8.2c-1.4,0.6-2.9,1-4.5,1.2c1.6-1,2.8-2.5,3.4-4.3C36.4,6,34.8,6.7,33,7c-1.4-1.5-3.5-2.5-5.7-2.5
	c-4.3,0-7.8,3.5-7.8,7.8c0,0.6,0.1,1.2,0.2,1.8C13.2,13.8,7.5,10.7,3.6,6C3,7.1,2.6,8.5,2.6,9.9c0,2.7,1.4,5.1,3.5,6.5
	c-1.3,0-2.5-0.4-3.5-1v0.1c0,3.8,2.7,6.9,6.3,7.6c-0.7,0.2-1.3,0.3-2.1,0.3c-0.5,0-1,0-1.5-0.1c1,3.1,3.9,5.4,7.3,5.4
	c-2.7,2.1-6,3.3-9.7,3.3c-0.6,0-1.3,0-1.9-0.1c3.5,2.2,7.5,3.5,12,3.5c14.3,0,22.2-11.9,22.2-22.2c0-0.3,0-0.7,0-1
	C36.6,11.2,38,9.8,39,8.2z"/>
</svg>
