<svg xmlns="http://www.w3.org/2000/svg" width="65" height="64" fill="none" viewBox="0 0 65 64">
  <circle cx="32.333" cy="32" r="32" fill="#DCF8F5"/>
  <path stroke="#323232" stroke-linecap="round" stroke-linejoin="round" stroke-width="2" d="M16.148 49.334v6.667M20.666 56h-9.333"/>
  <rect width="21.333" height="14.667" x="5.333" y="34.666" stroke="#323232" stroke-linecap="round" stroke-linejoin="round" stroke-width="2" rx="1"/>
  <path stroke="#323232" stroke-linecap="round" stroke-linejoin="round" stroke-width="2" d="M48.148 49.334v6.667M52.666 56h-9.333"/>
  <rect width="21.333" height="14.667" x="37.333" y="34.666" stroke="#323232" stroke-linecap="round" stroke-linejoin="round" stroke-width="2" rx="1"/>
  <path stroke="#323232" stroke-linecap="round" stroke-linejoin="round" stroke-width="2" d="M32.815 20v6.667m4.518.001H28"/>
  <rect width="21.333" height="14.667" x="22" y="5.334" stroke="#323232" stroke-linecap="round" stroke-linejoin="round" stroke-width="2" rx="1"/>
  <path stroke="#323232" stroke-linecap="round" stroke-linejoin="round" stroke-width="2" d="M13.333 13.334h-2.667a5.333 5.333 0 0 0-5.333 5.333v5.334m45.334-10.667h2.667a5.333 5.333 0 0 1 5.333 5.333v5.334"/>
</svg>
