<?xml version="1.0" encoding="utf-8"?>
<!-- Generator: Adobe Illustrator 26.3.1, SVG Export Plug-In . SVG Version: 6.00 Build 0)  -->
<svg version="1.1" id="Vrstva_1" xmlns="http://www.w3.org/2000/svg" xmlns:xlink="http://www.w3.org/1999/xlink" x="0px" y="0px"
	 width="40px" height="40px" viewBox="0 0 40 40" style="enable-background:new 0 0 40 40;" xml:space="preserve">
<style type="text/css">
	.st0{fill:#010202;}
	.st1{fill-rule:evenodd;clip-rule:evenodd;fill:#010202;}
	.st2{fill:none;stroke:#010202;stroke-width:1.6;stroke-linecap:round;stroke-linejoin:round;}
	.st3{fill:none;stroke:#010202;stroke-width:1.6;stroke-linecap:round;}
	.st4{fill:none;stroke:#010202;stroke-width:1.6;stroke-linejoin:round;}
	.st5{fill:none;stroke:#010202;stroke-width:1.6;}
	.st6{fill:#020203;}
</style>
<path class="st0" d="M36.1,1H3.9C2.3,1,1,2.3,1,3.9v32.2C1,37.7,2.3,39,3.9,39h32.2c1.6,0,2.9-1.3,2.9-2.9V3.9C39,2.3,37.7,1,36.1,1
	z M3.9,3.6h32.2c0.2,0,0.3,0.1,0.3,0.3v5.2H3.6V3.9C3.6,3.7,3.7,3.6,3.9,3.6z M36.1,36.4H3.9c-0.2,0-0.3-0.1-0.3-0.3V11.7h32.8v24.4
	C36.4,36.3,36.3,36.4,36.1,36.4z"/>
<path class="st0" d="M5.2,5.1H8v2.6H5.2V5.1z"/>
<path class="st0" d="M10,5.1h2.8v2.6H10V5.1z"/>
<path class="st0" d="M28.1,18c-2.7,0-5.1,1.8-5.8,4.3c-1.5-0.4-3.1-0.4-4.6,0c-0.8-2.5-3.1-4.3-5.8-4.3c-3.4,0-6.1,2.7-6.1,6.1
	c0,3.4,2.7,6.1,6.1,6.1c3.1,0,5.6-2.3,6-5.2c1.4-0.5,2.8-0.5,4.2,0c0.4,2.9,3,5.2,6,5.2c3.4,0,6.1-2.7,6.1-6.1
	C34.2,20.7,31.5,18,28.1,18z M11.9,27.6c-1.9,0-3.5-1.6-3.5-3.5c0-1.9,1.6-3.5,3.5-3.5c1.9,0,3.5,1.6,3.5,3.5
	C15.4,26,13.8,27.6,11.9,27.6z M28.1,27.6c-1.9,0-3.5-1.6-3.5-3.5c0-1.9,1.6-3.5,3.5-3.5c1.9,0,3.5,1.6,3.5,3.5
	C31.6,26,30,27.6,28.1,27.6z"/>
</svg>
