<?xml version="1.0" encoding="utf-8"?>
<!-- Generator: Adobe Illustrator 26.3.1, SVG Export Plug-In . SVG Version: 6.00 Build 0)  -->
<svg version="1.1" id="Vrstva_1" xmlns="http://www.w3.org/2000/svg" xmlns:xlink="http://www.w3.org/1999/xlink" x="0px" y="0px"
	 width="40px" height="40px" viewBox="0 0 40 40" style="enable-background:new 0 0 40 40;" xml:space="preserve">
<style type="text/css">
	.st0{fill:#010202;}
	.st1{fill-rule:evenodd;clip-rule:evenodd;fill:#010202;}
	.st2{fill:none;stroke:#010202;stroke-width:1.6;stroke-linecap:round;stroke-linejoin:round;}
	.st3{fill:none;stroke:#010202;stroke-width:1.6;stroke-linecap:round;}
	.st4{fill:none;stroke:#010202;stroke-width:1.6;stroke-linejoin:round;}
	.st5{fill:none;stroke:#010202;stroke-width:1.6;}
	.st6{fill:#020203;}
</style>
<path class="st0" d="M36.2,21c-0.6,0-1.1,0.5-1.1,1.1v7.2c0,0.1-0.1,0.2-0.2,0.2H5c-0.1,0-0.2-0.1-0.2-0.2V18c0-0.6-0.5-1.1-1.1-1.1
	c-0.6,0-1.1,0.5-1.1,1.1v11.3c0,1.3,1.1,2.4,2.4,2.4h8.1v5h-2.4c-0.6,0-1.1,0.5-1.1,1.1s0.5,1.1,1.1,1.1h18.3c0.6,0,1.1-0.5,1.1-1.1
	s-0.5-1.1-1.1-1.1h-2.4v-5h8.1c1.3,0,2.4-1.1,2.4-2.4v-7.2C37.3,21.5,36.8,21,36.2,21z M24.5,36.7h-9.1v-5h9.1V36.7z"/>
<path class="st0" d="M38.5,5.8c-0.5-1.3-1-2.5-1.3-3.2C36.9,1.6,36,1,35,1H5c-1,0-2,0.7-2.3,1.6L1.4,6c-1.6,4.4,1.8,9.3,6.5,9.3
	c2.5,0,4.7-1.3,5.9-3.3c1.3,2,3.6,3.3,6.1,3.3c2.6,0,4.8-1.3,6.1-3.3c1.2,2,3.4,3.3,5.9,3.3C36.8,15.2,40.3,10.3,38.5,5.8z M35,3.3
	c0.1,0,0.2,0.1,0.2,0.1c0.5,1.2,1,2.4,1.4,3.6h-9.2l0-3.8H35z M25.1,7H14.8V3.3h10.2V7z M4.8,3.4c0-0.1,0.1-0.1,0.2-0.1h7.6V7H3.4
	C3.8,5.8,4.3,4.6,4.8,3.4z M7.9,13c-2.2,0-4.1-1.6-4.6-3.8h9.2C12.1,11.4,10.2,13,7.9,13z M20,13c-2.3,0-4.3-1.6-4.9-3.8h9.8
	C24.3,11.4,22.3,13,20,13z M32,13L32,13c-2.3,0-4.2-1.6-4.6-3.8h9.2C36.2,11.4,34.2,13,32,13z"/>
</svg>
