<?xml version="1.0" encoding="utf-8"?>
<!-- Generator: Adobe Illustrator 26.3.1, SVG Export Plug-In . SVG Version: 6.00 Build 0)  -->
<svg version="1.1" id="Vrstva_1" xmlns="http://www.w3.org/2000/svg" xmlns:xlink="http://www.w3.org/1999/xlink" x="0px" y="0px"
	 width="40px" height="40px" viewBox="0 0 40 40" style="enable-background:new 0 0 40 40;" xml:space="preserve">
<style type="text/css">
	.st0{fill:#010202;}
	.st1{fill-rule:evenodd;clip-rule:evenodd;fill:#010202;}
	.st2{fill:none;stroke:#010202;stroke-width:1.6;stroke-linecap:round;stroke-linejoin:round;}
	.st3{fill:none;stroke:#010202;stroke-width:1.6;stroke-linecap:round;}
	.st4{fill:none;stroke:#010202;stroke-width:1.6;stroke-linejoin:round;}
	.st5{fill:none;stroke:#010202;stroke-width:1.6;}
	.st6{fill:#020203;}
</style>
<path class="st0" d="M18.1,29.9l-2.8-1.4l3.8-7.6l-7.7,3.8l-1.4-2.8l10.5-5.2c0.8-0.4,1.8-0.2,2.4,0.4c0.6,0.6,0.8,1.6,0.4,2.4
	L18.1,29.9z"/>
<path class="st0" d="M24,39c-2.4,0-4.6-1.3-5.6-3.5l-4.1-8.4c-0.3-0.6-0.8-1.1-1.4-1.4l-8.4-4.2C2.1,20.4,0.8,18,1,15.4
	c0.2-2.9,2.2-5.4,5.1-6.3l24.5-7.7c2.4-0.8,4.9-0.2,6.6,1.5c1.7,1.7,2.3,4.2,1.5,6.6l-7.8,24.5c-0.9,2.8-3.4,4.8-6.4,5
	C24.3,39,24.1,39,24,39z M32.7,4.2c-0.4,0-0.8,0.1-1.1,0.2L7,12.1c-2,0.6-2.8,2.3-2.9,3.6c-0.1,0.7,0,2.3,1.7,3.1l8.4,4.2
	c1.2,0.6,2.2,1.6,2.8,2.8l4.1,8.4c0.8,1.7,2.5,1.7,3.1,1.7c1.3-0.1,3-0.9,3.6-2.9l7.8-24.5c0.4-1.3,0.1-2.5-0.7-3.4
	C34.3,4.5,33.6,4.2,32.7,4.2z"/>
<path class="st0" d="M3.4,29.2c-0.4,0-0.8-0.2-1.1-0.5c-0.6-0.6-0.6-1.6,0-2.2L3.7,25c0.6-0.6,1.6-0.6,2.2,0c0.6,0.6,0.6,1.6,0,2.2
	l-1.5,1.5C4.2,29,3.8,29.2,3.4,29.2z"/>
<path class="st0" d="M12.2,38.1c-0.4,0-0.8-0.2-1.1-0.5c-0.6-0.6-0.6-1.6,0-2.2l1.5-1.5c0.6-0.6,1.6-0.6,2.2,0
	c0.6,0.6,0.6,1.6,0,2.2l-1.5,1.5C13,38,12.6,38.1,12.2,38.1z"/>
<path class="st0" d="M6.3,35.1c-0.4,0-0.8-0.2-1.1-0.5c-0.6-0.6-0.6-1.6,0-2.2L9.7,28c0.6-0.6,1.6-0.6,2.2,0c0.6,0.6,0.6,1.6,0,2.2
	l-4.5,4.4C7.1,35,6.7,35.1,6.3,35.1z"/>
</svg>
