<?xml version="1.0" encoding="utf-8"?>
<!-- Generator: Adobe Illustrator 26.3.1, SVG Export Plug-In . SVG Version: 6.00 Build 0)  -->
<svg version="1.1" id="Vrstva_1" xmlns="http://www.w3.org/2000/svg" xmlns:xlink="http://www.w3.org/1999/xlink" x="0px" y="0px"
	 width="40px" height="40px" viewBox="0 0 40 40" style="enable-background:new 0 0 40 40;" xml:space="preserve">
<style type="text/css">
	.st0{fill:#010202;}
	.st1{fill-rule:evenodd;clip-rule:evenodd;fill:#010202;}
	.st2{fill:none;stroke:#010202;stroke-width:1.6;stroke-linecap:round;stroke-linejoin:round;}
	.st3{fill:none;stroke:#010202;stroke-width:1.6;stroke-linecap:round;}
	.st4{fill:none;stroke:#010202;stroke-width:1.6;stroke-linejoin:round;}
	.st5{fill:none;stroke:#010202;stroke-width:1.6;}
	.st6{fill:#020203;}
</style>
<g>
	<g>
		<path class="st0" d="M34.6,20.8h1.9v1.9h-1.9V20.8z"/>
		<path class="st0" d="M3.4,20.7h1.9v1.9H3.4V20.7z"/>
		<path class="st0" d="M16.8,34H9.6c-0.5,0-1-0.4-1-1v-7.2c0-0.5,0.4-1,1-1h7.2c0.5,0,1,0.4,1,1V33C17.8,33.5,17.3,34,16.8,34z
			 M10.6,32h5.3v-5.3h-5.3V32z"/>
		<path class="st0" d="M34.6,24.5v12.5h-3.2v-7.8c0-3-2.4-5.4-5.4-5.4c-3,0-5.4,2.4-5.4,5.4v7.8H5.4V24.3H3.4V38c0,0.5,0.4,1,1,1
			h31.2c0.5,0,1-0.4,1-1V24.5H34.6z M22.6,29.3c0-1.9,1.5-3.4,3.4-3.4c1.9,0,3.4,1.5,3.4,3.4v7.8h-6.8V29.3z"/>
		<path class="st0" d="M33.1,12.4h1.9v1.9h-1.9V12.4z"/>
		<path class="st0" d="M38,6.5h-7.2V2c0-0.5-0.4-1-1-1H10.1c-0.5,0-1,0.4-1,1v4.6H2c-0.5,0-1,0.4-1,1v10.3c0,0.5,0.4,1,1,1h36
			c0.5,0,1-0.4,1-1V7.5C39,7,38.5,6.5,38,6.5z M11.1,3.9l8.3,6c0.3,0.2,0.8,0.2,1.1,0l8.3-6v8.5H11.1V3.9z M13.1,2.9h13.7l-6.9,5
			L13.1,2.9z M9.2,8.5v3.9H3V8.5H9.2z M37,16.8H3v-2.4h7.2h19.7h0v0c0.5,0,1-0.4,1-1V8.5H37L37,16.8L37,16.8z"/>
	</g>
</g>
</svg>
