<?xml version="1.0" encoding="utf-8"?>
<!-- Generator: Adobe Illustrator 26.3.1, SVG Export Plug-In . SVG Version: 6.00 Build 0)  -->
<svg version="1.1" id="Vrstva_1" xmlns="http://www.w3.org/2000/svg" xmlns:xlink="http://www.w3.org/1999/xlink" x="0px" y="0px"
	 width="40px" height="40px" viewBox="0 0 40 40" style="enable-background:new 0 0 40 40;" xml:space="preserve">
<style type="text/css">
	.st0{fill:#010202;}
	.st1{fill-rule:evenodd;clip-rule:evenodd;fill:#010202;}
	.st2{fill:none;stroke:#010202;stroke-width:1.6;stroke-linecap:round;stroke-linejoin:round;}
	.st3{fill:none;stroke:#010202;stroke-width:1.6;stroke-linecap:round;}
	.st4{fill:none;stroke:#010202;stroke-width:1.6;stroke-linejoin:round;}
	.st5{fill:none;stroke:#010202;stroke-width:1.6;}
	.st6{fill:#020203;}
</style>
<path class="st0" d="M30.7,39c-6.1,0-8.3-2.3-8.3-8.3c0-6.2,2.2-8.3,8.3-8.3s8.3,2.2,8.3,8.3C39,36.7,36.7,39,30.7,39z M30.7,25.4
	c-4.4,0-5.2,0.8-5.2,5.2s0.8,5.2,5.2,5.2s5.2-0.8,5.2-5.2S35.1,25.4,30.7,25.4z"/>
<path class="st0" d="M9.3,39C3.3,39,1,36.7,1,30.7c0-6.2,2.2-8.3,8.3-8.3s8.3,2.2,8.3,8.3C17.7,36.7,15.4,39,9.3,39z M9.3,25.4
	c-4.4,0-5.2,0.8-5.2,5.2s0.8,5.2,5.2,5.2s5.2-0.8,5.2-5.2S13.7,25.4,9.3,25.4z"/>
<path class="st0" d="M30.7,17.7c-6.1,0-8.3-2.3-8.3-8.3c0-6.2,2.2-8.3,8.3-8.3S39,3.2,39,9.3C39,15.4,36.7,17.7,30.7,17.7z
	 M30.7,4.1c-4.4,0-5.2,0.8-5.2,5.2s0.8,5.2,5.2,5.2s5.2-0.8,5.2-5.2S35.1,4.1,30.7,4.1z"/>
<path class="st0" d="M9.3,17.7C3.3,17.7,1,15.4,1,9.3C1,3.2,3.2,1,9.3,1s8.3,2.2,8.3,8.3C17.7,15.4,15.4,17.7,9.3,17.7z M9.3,4.1
	c-4.4,0-5.2,0.8-5.2,5.2s0.8,5.2,5.2,5.2s5.2-0.8,5.2-5.2S13.7,4.1,9.3,4.1z"/>
</svg>
