<?xml version="1.0" encoding="utf-8"?>
<!-- Generator: Adobe Illustrator 26.3.1, SVG Export Plug-In . SVG Version: 6.00 Build 0)  -->
<svg version="1.1" id="Vrstva_1" xmlns="http://www.w3.org/2000/svg" xmlns:xlink="http://www.w3.org/1999/xlink" x="0px" y="0px"
	 width="40px" height="40px" viewBox="0 0 40 40" style="enable-background:new 0 0 40 40;" xml:space="preserve">
<style type="text/css">
	.st0{fill:#010202;}
	.st1{fill-rule:evenodd;clip-rule:evenodd;fill:#010202;}
	.st2{fill:none;stroke:#010202;stroke-width:1.6;stroke-linecap:round;stroke-linejoin:round;}
	.st3{fill:none;stroke:#010202;stroke-width:1.6;stroke-linecap:round;}
	.st4{fill:none;stroke:#010202;stroke-width:1.6;stroke-linejoin:round;}
	.st5{fill:none;stroke:#010202;stroke-width:1.6;}
	.st6{fill:#020203;}
</style>
<path class="st0" d="M31.5,1.1c0.6,0,1.2,0.3,1.5,0.8c0.6,0.8,0.4,2-0.5,2.6l-0.4,0.3c-0.1,0-0.1,0.1-0.2,0.1
	C31.9,4.9,31.8,5,31.7,5l-0.4,0.3c-0.1,0-0.1,0.1-0.2,0.1c-0.1,0.1-0.1,0.1-0.2,0.2l-0.4,0.3c-0.1,0-0.1,0.1-0.2,0.1
	c-0.1,0.1-0.1,0.1-0.2,0.2l-0.4,0.3c-0.1,0-0.1,0.1-0.2,0.1c-0.1,0.1-0.1,0.1-0.2,0.2L28.9,7c-0.1,0-0.1,0.1-0.2,0.1
	c-0.1,0.1-0.1,0.1-0.2,0.1l-0.4,0.3c-0.1,0.1-0.1,0.1-0.2,0.1c-0.1,0.1-0.1,0.1-0.2,0.1l-0.4,0.3c-0.1,0.1-0.1,0.1-0.2,0.1
	C27,8.3,27,8.4,26.9,8.4l-0.4,0.3c-0.1,0.1-0.1,0.1-0.2,0.1c-0.1,0.1-0.1,0.1-0.2,0.1l-0.4,0.3c-0.1,0.1-0.1,0.1-0.2,0.1
	c-0.1,0.1-0.1,0.1-0.2,0.2l-0.4,0.3c-0.1,0-0.1,0.1-0.2,0.1c-0.1,0.1-0.1,0.1-0.2,0.2l-0.4,0.3c-0.1,0-0.1,0.1-0.2,0.1
	c-0.1,0.1-0.1,0.1-0.2,0.2L23.3,11c-0.1,0-0.1,0.1-0.2,0.1c-0.1,0.1-0.1,0.1-0.2,0.2l-0.4,0.3c-0.1,0-0.1,0.1-0.2,0.1
	c-0.1,0.1-0.1,0.1-0.2,0.2l-0.4,0.3c-0.1,0-0.1,0.1-0.2,0.1c-0.1,0.1-0.1,0.1-0.2,0.1l-0.4,0.3c-0.1,0.1-0.1,0.1-0.2,0.1
	c-0.1,0.1-0.1,0.1-0.2,0.1l-0.2,0.1L20.2,13c-0.1,0.2-0.3,0.4-0.5,0.5l-0.4,0.3c-0.1,0.1-0.1,0.1-0.2,0.1C19,14,18.9,14,18.9,14.1
	l-0.4,0.3c-0.1,0.1-0.1,0.1-0.2,0.1c-0.1,0.1-0.1,0.1-0.2,0.2l-0.4,0.3c-0.1,0-0.1,0.1-0.2,0.1c-0.1,0.1-0.1,0.1-0.2,0.2l-0.4,0.3
	c-0.1,0-0.1,0.1-0.2,0.1c-0.1,0.1-0.1,0.1-0.2,0.2L16,16c-0.1,0-0.1,0.1-0.2,0.1c-0.1,0.1-0.1,0.1-0.2,0.2l-0.4,0.3
	c-0.1,0-0.1,0.1-0.2,0.1c-0.1,0.1-0.1,0.1-0.2,0.2l-0.4,0.3c-0.1,0.1-0.1,0.1-0.2,0.1c-0.1,0.1-0.1,0.1-0.2,0.1l-0.4,0.3
	c-0.1,0.1-0.1,0.1-0.2,0.1c-0.1,0.1-0.1,0.1-0.2,0.1l-0.4,0.3c-0.1,0.1-0.1,0.1-0.2,0.1c-0.1,0.1-0.1,0.1-0.2,0.2L12,18.9
	c-0.1,0-0.1,0.1-0.2,0.1c-0.1,0.1-0.1,0.1-0.2,0.2l-0.4,0.3c-0.1,0-0.1,0.1-0.2,0.1c-0.1,0.1-0.1,0.1-0.2,0.1c0,0-0.1,0-0.1,0.1
	c0,0,0,0,0,0c0,0,0,0,0,0L10.6,20c0,0,0,0,0,0.1c0,0,0,0,0,0l0,0.1c0,0,0,0.1,0,0.1c0,0,0,0,0,0.1c0,0,0,0.1,0,0.1c0,0,0,0,0,0.1
	c0,0,0,0,0,0c0,0,0,0.1,0.1,0.1c0,0,0.1,0.1,0.1,0.1c0.1,0,0.1,0.1,0.2,0.1l0.4,0.3c0.1,0,0.1,0.1,0.2,0.2c0.1,0,0.1,0.1,0.2,0.1
	l0.4,0.3c0.1,0,0.1,0.1,0.2,0.2c0.1,0,0.1,0.1,0.2,0.1l0.4,0.3c0.1,0,0.1,0.1,0.2,0.1c0.1,0,0.1,0.1,0.2,0.1l0.4,0.3
	c0.1,0,0.1,0.1,0.2,0.2c0.1,0,0.1,0.1,0.2,0.1l0.4,0.3c0.1,0,0.1,0.1,0.2,0.2c0.1,0,0.1,0.1,0.2,0.1l0.4,0.3c0.1,0,0.1,0.1,0.2,0.2
	c0.1,0,0.1,0.1,0.2,0.1l0.4,0.3c0.1,0,0.1,0.1,0.2,0.2c0.1,0,0.1,0.1,0.2,0.1l0.4,0.3c0.1,0,0.1,0.1,0.2,0.2c0.1,0,0.1,0.1,0.2,0.1
	l0.4,0.3c0.1,0,0.1,0.1,0.2,0.2c0.1,0,0.1,0.1,0.2,0.1l0.4,0.3c0.1,0,0.1,0.1,0.2,0.2c0.1,0,0.1,0.1,0.2,0.1l0.4,0.3
	c0.1,0,0.1,0.1,0.2,0.2c0.1,0,0.1,0.1,0.2,0.1l0.4,0.3c0.1,0,0.1,0.1,0.2,0.2c0.1,0,0.1,0.1,0.2,0.1l0.4,0.3c0.1,0,0.1,0.1,0.2,0.2
	c0.1,0,0.1,0.1,0.2,0.1l0.4,0.3c0.1,0,0.1,0.1,0.2,0.2c0.1,0,0.1,0.1,0.2,0.1l0.4,0.3c0.1,0,0.1,0.1,0.2,0.2c0.1,0,0.1,0.1,0.2,0.1
	l0.4,0.3c0.1,0,0.1,0.1,0.2,0.2c0.1,0,0.1,0.1,0.2,0.1l0.4,0.3c0.1,0,0.1,0.1,0.2,0.2c0.1,0,0.1,0.1,0.2,0.1l0.4,0.3
	c0.1,0,0.1,0.1,0.2,0.2c0.1,0,0.1,0.1,0.2,0.1l0.4,0.3c0.1,0,0.1,0.1,0.2,0.2c0.1,0,0.1,0.1,0.2,0.1l0.4,0.3c0.1,0,0.1,0.1,0.2,0.2
	c0.1,0,0.1,0.1,0.2,0.1l0.4,0.3c0.1,0,0.1,0.1,0.2,0.2c0.1,0,0.1,0.1,0.2,0.1l0.4,0.3c0.1,0,0.1,0.1,0.2,0.2c0.1,0,0.1,0.1,0.2,0.1
	l0.4,0.3c0.1,0,0.1,0.1,0.2,0.2c0.1,0,0.1,0.1,0.2,0.1l0.4,0.3c0.1,0,0.1,0.1,0.2,0.2c0.1,0,0.1,0.1,0.2,0.1l0.4,0.3
	c0.1,0,0.1,0.1,0.2,0.2c0.1,0,0.1,0.1,0.2,0.1l0.4,0.3c0.1,0,0.1,0.1,0.2,0.2c0.1,0,0.1,0.1,0.2,0.1l0.4,0.3c0.8,0.6,1,1.7,0.5,2.6
	c-0.6,0.8-1.7,1-2.6,0.5l-0.4-0.3c-0.1,0-0.1-0.1-0.2-0.2c-0.1,0-0.1-0.1-0.2-0.1l-0.4-0.3c-0.1,0-0.1-0.1-0.2-0.2
	c-0.1,0-0.1-0.1-0.2-0.1l-0.4-0.3c-0.1,0-0.1-0.1-0.2-0.2c-0.1,0-0.1-0.1-0.2-0.1l-0.4-0.3c-0.1,0-0.1-0.1-0.2-0.2
	c-0.1,0-0.1-0.1-0.2-0.1l-0.4-0.3c-0.1,0-0.1-0.1-0.2-0.2c-0.1,0-0.1-0.1-0.2-0.1l-0.4-0.3c-0.1,0-0.1-0.1-0.2-0.2
	c-0.1,0-0.1-0.1-0.2-0.1l-0.4-0.3c-0.1,0-0.1-0.1-0.2-0.2c-0.1,0-0.1-0.1-0.2-0.1l-0.4-0.3c-0.1,0-0.1-0.1-0.2-0.2
	c-0.1,0-0.1-0.1-0.2-0.1L23.4,34c-0.1,0-0.1-0.1-0.2-0.2c-0.1,0-0.1-0.1-0.2-0.1l-0.4-0.3c-0.1,0-0.1-0.1-0.2-0.2
	c-0.1,0-0.1-0.1-0.2-0.1l-0.4-0.3c-0.1,0-0.1-0.1-0.2-0.2c-0.1,0-0.1-0.1-0.2-0.1L21,32.3c-0.1,0-0.1-0.1-0.2-0.2
	c-0.1,0-0.1-0.1-0.2-0.1l-0.4-0.3c-0.1,0-0.1-0.1-0.2-0.2c-0.1,0-0.1-0.1-0.2-0.1l-0.4-0.3c-0.1,0-0.1-0.1-0.2-0.2
	c-0.1,0-0.1-0.1-0.2-0.1l-0.4-0.3c-0.1,0-0.1-0.1-0.2-0.2c-0.1,0-0.1-0.1-0.2-0.1l-0.4-0.3c-0.1,0-0.1-0.1-0.2-0.2
	c-0.1,0-0.1-0.1-0.2-0.1L17,29.5c-0.1,0-0.1-0.1-0.2-0.2c-0.1,0-0.1-0.1-0.2-0.1l-0.4-0.3c-0.1,0-0.1-0.1-0.2-0.2
	c-0.1,0-0.1-0.1-0.2-0.1l-0.4-0.3c-0.1,0-0.1-0.1-0.2-0.2c-0.1,0-0.1-0.1-0.2-0.1l-0.4-0.3c-0.1,0-0.1-0.1-0.2-0.2
	c-0.1,0-0.1-0.1-0.2-0.1l-0.4-0.3c-0.1,0-0.1-0.1-0.2-0.2c-0.1,0-0.1-0.1-0.2-0.1L13,26.7c-0.1,0-0.1-0.1-0.2-0.2
	c-0.1,0-0.1-0.1-0.2-0.1l-0.4-0.3c-0.1,0-0.1-0.1-0.2-0.2c-0.1,0-0.1-0.1-0.2-0.1l-0.4-0.3c-0.1,0-0.1-0.1-0.2-0.2
	c-0.1,0-0.1-0.1-0.2-0.1L10.5,25c-0.1,0-0.1-0.1-0.2-0.2c-0.1,0-0.1-0.1-0.2-0.1l-0.4-0.3c-0.1,0-0.1-0.1-0.2-0.2
	c-0.1,0-0.1-0.1-0.2-0.1l-0.4-0.3c-0.1-0.1-0.2-0.1-0.2-0.2c-0.1-0.1-0.2-0.1-0.3-0.2c-0.2-0.2-0.4-0.4-0.6-0.6
	c-0.1-0.1-0.2-0.2-0.2-0.4c-0.1-0.1-0.2-0.2-0.2-0.3c-0.1-0.3-0.2-0.5-0.3-0.8C7,21.2,7,21,7,20.9c0-0.1-0.1-0.3-0.1-0.4
	c0-0.4,0-0.6,0-0.8C7,19.5,7,19.3,7,19.2c0-0.1,0-0.3,0.1-0.4c0.1-0.3,0.2-0.5,0.4-0.8c0.1-0.1,0.2-0.2,0.3-0.4
	c0.1-0.1,0.2-0.2,0.3-0.4c0.2-0.2,0.4-0.4,0.7-0.6c0.1-0.1,0.1-0.1,0.2-0.1C9,16.5,9,16.4,9.1,16.4l0.4-0.3c0.1,0,0.1-0.1,0.2-0.1
	c0.1-0.1,0.1-0.1,0.2-0.2l0.4-0.3c0.1,0,0.1-0.1,0.2-0.1c0.1-0.1,0.1-0.1,0.2-0.1l0.4-0.3c0.1-0.1,0.1-0.1,0.2-0.1
	c0.1-0.1,0.1-0.1,0.2-0.1l0.4-0.3c0.1-0.1,0.1-0.1,0.2-0.1c0.1-0.1,0.1-0.1,0.2-0.1l0.4-0.3c0.1-0.1,0.1-0.1,0.2-0.1
	c0.1-0.1,0.1-0.1,0.2-0.2l0.4-0.3c0.1,0,0.1-0.1,0.2-0.1c0.1-0.1,0.1-0.1,0.2-0.2l0.4-0.3c0.1,0,0.1-0.1,0.2-0.1
	c0.1-0.1,0.1-0.1,0.2-0.2l0.4-0.3c0.1,0,0.1-0.1,0.2-0.1c0.1-0.1,0.1-0.1,0.2-0.2l0.4-0.3c0.1,0,0.1-0.1,0.2-0.1
	c0.1-0.1,0.1-0.1,0.2-0.1l0.4-0.3c0.1-0.1,0.1-0.1,0.2-0.1c0.1-0.1,0.1-0.1,0.2-0.1l0.4-0.3c0.1-0.1,0.3-0.2,0.4-0.2l0-0.1l0.4-0.3
	c0.1-0.1,0.1-0.1,0.2-0.1c0.1-0.1,0.1-0.1,0.2-0.1l0.4-0.3c0.1-0.1,0.1-0.1,0.2-0.1c0.1-0.1,0.1-0.1,0.2-0.2L20,8.8
	c0.1,0,0.1-0.1,0.2-0.1c0.1-0.1,0.1-0.1,0.2-0.2l0.4-0.3c0.1,0,0.1-0.1,0.2-0.1C21,8,21.1,8,21.2,7.9l0.4-0.3c0.1,0,0.1-0.1,0.2-0.1
	c0.1-0.1,0.1-0.1,0.2-0.2l0.4-0.3c0.1,0,0.1-0.1,0.2-0.1c0.1-0.1,0.1-0.1,0.2-0.2l0.4-0.3c0.1,0,0.1-0.1,0.2-0.1
	c0.1-0.1,0.1-0.1,0.2-0.1L24,6c0.1-0.1,0.1-0.1,0.2-0.1c0.1-0.1,0.1-0.1,0.2-0.1l0.4-0.3c0.1-0.1,0.1-0.1,0.2-0.1
	c0.1-0.1,0.1-0.1,0.2-0.1l0.4-0.3c0.1-0.1,0.1-0.1,0.2-0.1c0.1-0.1,0.1-0.1,0.2-0.1l0.4-0.3c0.1-0.1,0.1-0.1,0.2-0.1
	C26.7,4.1,26.8,4,26.8,4l0.4-0.3c0.1,0,0.1-0.1,0.2-0.1c0.1-0.1,0.1-0.1,0.2-0.2L28,3.1c0.1,0,0.1-0.1,0.2-0.1
	c0.1-0.1,0.1-0.1,0.2-0.2l0.4-0.3c0.1,0,0.1-0.1,0.2-0.1c0.1-0.1,0.1-0.1,0.2-0.2L29.6,2c0.1,0,0.1-0.1,0.2-0.1
	C29.9,1.8,30,1.8,30,1.7l0.4-0.3C30.8,1.2,31.1,1.1,31.5,1.1z"/>
</svg>
