<?xml version="1.0" encoding="utf-8"?>
<!-- Generator: Adobe Illustrator 26.3.1, SVG Export Plug-In . SVG Version: 6.00 Build 0)  -->
<svg version="1.1" id="Vrstva_1" xmlns="http://www.w3.org/2000/svg" xmlns:xlink="http://www.w3.org/1999/xlink" x="0px" y="0px"
	 width="40px" height="40px" viewBox="0 0 40 40" style="enable-background:new 0 0 40 40;" xml:space="preserve">
<style type="text/css">
	.st0{fill:#010202;}
	.st1{fill-rule:evenodd;clip-rule:evenodd;fill:#010202;}
	.st2{fill:none;stroke:#010202;stroke-width:1.6;stroke-linecap:round;stroke-linejoin:round;}
	.st3{fill:none;stroke:#010202;stroke-width:1.6;stroke-linecap:round;}
	.st4{fill:none;stroke:#010202;stroke-width:1.6;stroke-linejoin:round;}
	.st5{fill:none;stroke:#010202;stroke-width:1.6;}
	.st6{fill:#020203;}
</style>
<path class="st1" d="M12.7,20c0-4,3.3-7.3,7.3-7.3s7.3,3.3,7.3,7.3c0,4-3.3,7.3-7.3,7.3S12.7,24,12.7,20z M20,15.6
	c-2.4,0-4.4,2-4.4,4.4c0,2.4,2,4.4,4.4,4.4s4.4-2,4.4-4.4C24.4,17.6,22.4,15.6,20,15.6z"/>
<path class="st1" d="M5,17.4c-0.8,1.2-1.1,2.1-1.1,2.6s0.3,1.5,1.1,2.6c0.8,1.1,2,2.4,3.4,3.5c3,2.3,7.1,4.1,11.5,4.1
	c4.5,0,8.5-1.8,11.5-4.1c1.5-1.1,2.7-2.4,3.4-3.5c0.8-1.2,1.1-2.1,1.1-2.6s-0.3-1.5-1.1-2.6c-0.8-1.1-2-2.4-3.4-3.5
	c-3-2.3-7.1-4.1-11.5-4.1c-4.5,0-8.5,1.8-11.5,4.1C7,15,5.8,16.2,5,17.4z M6.7,11.5c3.4-2.6,8.1-4.7,13.3-4.7
	c5.2,0,9.9,2.1,13.3,4.7c1.7,1.3,3.1,2.7,4.1,4.2c1,1.4,1.6,2.9,1.6,4.3s-0.7,2.9-1.6,4.3c-1,1.4-2.4,2.9-4.1,4.2
	c-3.4,2.6-8.1,4.7-13.3,4.7c-5.2,0-9.9-2.1-13.3-4.7c-1.7-1.3-3.1-2.7-4.1-4.2C1.7,22.9,1,21.4,1,20s0.7-2.9,1.6-4.3
	C3.6,14.3,5,12.8,6.7,11.5z"/>
</svg>
