<?xml version="1.0" encoding="utf-8"?>
<!-- Generator: Adobe Illustrator 26.3.1, SVG Export Plug-In . SVG Version: 6.00 Build 0)  -->
<svg version="1.1" id="Vrstva_1" xmlns="http://www.w3.org/2000/svg" xmlns:xlink="http://www.w3.org/1999/xlink" x="0px" y="0px"
	 width="40px" height="40px" viewBox="0 0 40 40" style="enable-background:new 0 0 40 40;" xml:space="preserve">
<style type="text/css">
	.st0{fill:#010202;}
	.st1{fill-rule:evenodd;clip-rule:evenodd;fill:#010202;}
	.st2{fill:none;stroke:#010202;stroke-width:1.6;stroke-linecap:round;stroke-linejoin:round;}
	.st3{fill:none;stroke:#010202;stroke-width:1.6;stroke-linecap:round;}
	.st4{fill:none;stroke:#010202;stroke-width:1.6;stroke-linejoin:round;}
	.st5{fill:none;stroke:#010202;stroke-width:1.6;}
	.st6{fill:#020203;}
</style>
<path class="st0" d="M1.8,37.2l1.5-10.3C1.8,24.4,1,21.5,1,18.6C1,8.5,10.3,1.1,20,1.1c1,0,2,0.1,2.9,0.2c0.7,0.1,1.2,0.8,1.1,1.5
	c-0.1,0.7-0.8,1.2-1.5,1.1c-0.8-0.1-1.7-0.2-2.6-0.2c-9,0-16.4,6.7-16.4,14.9c0,2.6,0.7,5.1,2.1,7.3c0.2,0.3,0.2,0.6,0.2,0.9
	l-1.2,8.7l9.3-2.8c0.2-0.1,0.5-0.1,0.8,0c1.7,0.5,3.4,0.8,5.2,0.8c9,0,16.4-6.7,16.4-14.9c0-4.7-2.4-9.1-6.6-11.9
	c-0.6-0.4-0.8-1.2-0.3-1.8c0.4-0.6,1.2-0.8,1.8-0.3c4.7,3.2,7.7,8.4,7.7,14.1c0,4.7-2,9.1-5.6,12.4c-3.6,3.3-8.3,5.1-13.4,5.1
	c-1.9,0-3.8-0.3-5.6-0.8L3.5,38.6C2.4,38.9,1.7,38,1.8,37.2z"/>
<path class="st0" d="M27.2,5.1c-0.4,0-0.7-0.2-1-0.3c-0.7-0.2-1.1-0.9-0.9-1.6c0.2-0.7,0.9-1.1,1.6-0.9c0.2,0,0.6,0.2,0.7,0.2
	C29,3.1,28.7,5.1,27.2,5.1z"/>
<path class="st0" d="M19.7,10.1c-1.5,0-3,0.3-4.2,1.2l0.9,2.2c0.9-0.6,1.8-0.9,2.8-0.9c1.4,0,2.1,0.6,2.1,1.7c0,1-0.6,1.8-1.7,3
	c-1.3,1.4-1.9,2.9-1.7,4.3l0.1,0.9h2.8l0-1c-0.1-1.1,0.3-2.1,1.4-3.2c1.3-1.4,2.3-2.6,2.3-4.3C24.5,12.1,23,10.1,19.7,10.1z"/>
<path class="st0" d="M19.3,23.6c-1.1,0-1.9,0.8-1.9,1.8c0,1,0.8,1.8,1.9,1.8c1.1,0,1.9-0.8,1.9-1.8C21.3,24.3,20.4,23.6,19.3,23.6z"
	/>
</svg>
