<?xml version="1.0" encoding="utf-8"?>
<!-- Generator: Adobe Illustrator 26.3.1, SVG Export Plug-In . SVG Version: 6.00 Build 0)  -->
<svg version="1.1" id="Vrstva_1" xmlns="http://www.w3.org/2000/svg" xmlns:xlink="http://www.w3.org/1999/xlink" x="0px" y="0px"
	 width="40px" height="40px" viewBox="0 0 40 40" style="enable-background:new 0 0 40 40;" xml:space="preserve">
<style type="text/css">
	.st0{fill:#010202;}
	.st1{fill-rule:evenodd;clip-rule:evenodd;fill:#010202;}
	.st2{fill:none;stroke:#010202;stroke-width:1.6;stroke-linecap:round;stroke-linejoin:round;}
	.st3{fill:none;stroke:#010202;stroke-width:1.6;stroke-linecap:round;}
	.st4{fill:none;stroke:#010202;stroke-width:1.6;stroke-linejoin:round;}
	.st5{fill:none;stroke:#010202;stroke-width:1.6;}
	.st6{fill:#020203;}
</style>
<path class="st0" d="M20,39C5.6,39,1,34.4,1,20S5.6,1,20,1c14.4,0,19,4.6,19,19S34.4,39,20,39z M20,3.8C7.1,3.8,3.8,7.1,3.8,20
	S7.1,36.2,20,36.2c12.9,0,16.2-3.3,16.2-16.2S32.9,3.8,20,3.8z"/>
<path class="st0" d="M20,25.3c-0.4,0-0.7-0.1-1-0.4L13.1,19c-0.5-0.5-0.5-1.4,0-2c0.5-0.5,1.4-0.6,2,0l4.9,4.9l4.9-4.9
	c0.5-0.5,1.4-0.6,2,0s0.5,1.4,0,2L21,24.9C20.7,25.2,20.4,25.3,20,25.3z"/>
</svg>
