<svg xmlns="http://www.w3.org/2000/svg" width="55" height="54" fill="none" viewBox="0 0 55 54">
  <circle cx="26.899" cy="26" r="22" fill="#7FDAD1"/>
  <path stroke="#000" stroke-linecap="round" stroke-linejoin="round" stroke-width="2" d="M14.4 45.195h5.873c.765 0 1.526.091 2.269.273l6.205 1.508a9.62 9.62 0 0 0 4.11.096l6.862-1.335a9.46 9.46 0 0 0 4.786-2.492l4.855-4.722a3.382 3.382 0 0 0 0-4.88 3.623 3.623 0 0 0-4.637-.32l-5.658 4.127a4.763 4.763 0 0 1-2.81.911h-5.463 3.477c1.96 0 3.548-1.544 3.548-3.451v-.69c0-1.584-1.108-2.964-2.686-3.347l-5.367-1.305a11.31 11.31 0 0 0-2.668-.319c-2.17 0-6.1 1.797-6.1 1.797L14.4 33.805m-9-.956v13.05c0 1.26 0 1.89.246 2.371.215.424.56.768.983.984.481.245 1.111.245 2.371.245h1.8c1.26 0 1.89 0 2.372-.245a2.25 2.25 0 0 0 .983-.983c.245-.482.245-1.112.245-2.372v-13.05c0-1.26 0-1.89-.245-2.371a2.25 2.25 0 0 0-.983-.984c-.481-.245-1.111-.245-2.372-.245H9c-1.26 0-1.89 0-2.371.245a2.25 2.25 0 0 0-.983.984c-.246.48-.246 1.11-.246 2.371ZM39.58 8.082c-1.343-2.81-4.439-4.299-7.45-2.862-3.01 1.437-4.293 4.844-3.033 7.835.78 1.85 3.012 5.439 4.603 7.912.588.914.882 1.37 1.312 1.638.368.229.83.352 1.263.338.505-.017.988-.265 1.955-.763 2.614-1.345 6.342-3.338 7.941-4.55 2.588-1.96 3.229-5.563 1.291-8.302-1.937-2.739-5.314-3.008-7.882-1.246Z"/>
</svg>
