<?xml version="1.0" encoding="utf-8"?>
<!-- Generator: Adobe Illustrator 26.3.1, SVG Export Plug-In . SVG Version: 6.00 Build 0)  -->
<svg version="1.1" id="Vrstva_1" xmlns="http://www.w3.org/2000/svg" xmlns:xlink="http://www.w3.org/1999/xlink" x="0px" y="0px"
	 width="40px" height="40px" viewBox="0 0 40 40" style="enable-background:new 0 0 40 40;" xml:space="preserve">
<style type="text/css">
	.st0{fill:#010202;}
	.st1{fill-rule:evenodd;clip-rule:evenodd;fill:#010202;}
	.st2{fill:none;stroke:#010202;stroke-width:1.6;stroke-linecap:round;stroke-linejoin:round;}
	.st3{fill:none;stroke:#010202;stroke-width:1.6;stroke-linecap:round;}
	.st4{fill:none;stroke:#010202;stroke-width:1.6;stroke-linejoin:round;}
	.st5{fill:none;stroke:#010202;stroke-width:1.6;}
	.st6{fill:#020203;}
</style>
<path class="st0" d="M9,39c-1.2,0-2.3-0.3-3.4-0.9c-2.1-1.2-3.3-3.4-3.3-5.8V7.7c0-2.4,1.2-4.6,3.3-5.8c2.1-1.2,4.6-1.2,6.7-0.1
	l22.1,12.3c2.2,1.2,3.4,3.4,3.5,5.9c0,2.5-1.3,4.7-3.5,5.9L12.2,38.1C11.2,38.7,10.1,39,9,39z M9,3.8C8.3,3.8,7.6,4,7,4.4
	c-1.2,0.7-1.9,2-1.9,3.3v24.6c0,1.4,0.7,2.6,1.9,3.3c1.2,0.7,2.6,0.7,3.8,0l22.1-12.3c1.2-0.7,2-2,2-3.4c0-1.4-0.7-2.7-2-3.4v0
	L10.8,4.3C10.2,4,9.6,3.8,9,3.8z"/>
</svg>
