<?xml version="1.0" encoding="utf-8"?>
<!-- Generator: Adobe Illustrator 26.3.1, SVG Export Plug-In . SVG Version: 6.00 Build 0)  -->
<svg version="1.1" id="Vrstva_1" xmlns="http://www.w3.org/2000/svg" xmlns:xlink="http://www.w3.org/1999/xlink" x="0px" y="0px"
	 width="40px" height="40px" viewBox="0 0 40 40" style="enable-background:new 0 0 40 40;" xml:space="preserve">
<style type="text/css">
	.st0{fill:#010202;}
	.st1{fill-rule:evenodd;clip-rule:evenodd;fill:#010202;}
	.st2{fill:none;stroke:#010202;stroke-width:1.6;stroke-linecap:round;stroke-linejoin:round;}
	.st3{fill:none;stroke:#010202;stroke-width:1.6;stroke-linecap:round;}
	.st4{fill:none;stroke:#010202;stroke-width:1.6;stroke-linejoin:round;}
	.st5{fill:none;stroke:#010202;stroke-width:1.6;}
	.st6{fill:#020203;}
</style>
<path class="st0" d="M35.7,26.9c-0.5-0.6-1.3-0.9-2-0.9H31c-1.1-2.8-3.3-5-6-6.3c2.8-1.7,4.6-4.8,4.6-8.3c0-5.3-4.3-9.7-9.6-9.7
	c-4.5,0-8.3,3.1-9.3,7.4c-1.2,0.1-2.2,1.1-2.2,2.3l0,3.3c0,1.2,1,2.3,2.3,2.3h1.3c0.8,1.1,1.8,2,2.9,2.7c-2.7,1.3-4.9,3.5-6,6.3H6.3
	c-1.6,0-2.9,1.5-2.7,3.1l1.1,8.1c0.1,0.7,0.7,1.2,1.4,1.1c0.7-0.1,1.2-0.7,1.1-1.4l-1.1-8.1c0-0.1,0.1-0.2,0.2-0.2h27.4
	c0.1,0,0.2,0.1,0.2,0.2l-1.1,8.1c-0.1,0.7,0.4,1.3,1.1,1.4c0.1,0,0.1,0,0.2,0c0.6,0,1.1-0.5,1.2-1.1l1.1-8.1
	C36.5,28.3,36.2,27.5,35.7,26.9z M26.4,8.2c-3.3,0.8-6.7-0.7-8.4-3.6c0.7-0.2,1.3-0.3,2.1-0.3C22.8,4.3,25.2,5.9,26.4,8.2z
	 M13.5,14.5c-0.4-0.9-0.7-1.9-0.7-3c0-2.3,1.1-4.4,2.8-5.7c1,1.9,2.6,3.4,4.6,4.3c2.1,1,4.5,1.2,6.7,0.6c0.5,4.2-2.9,8-7.1,8
	c-1.7,0-3.3-0.6-4.5-1.6H19c0.7,0,1.2-0.6,1.2-1.2c0-0.7-0.6-1.2-1.2-1.2H13.5z M11.8,26c1.6-3,4.7-4.9,8.2-4.9s6.6,1.9,8.2,4.9
	H11.8z"/>
</svg>
