<svg xmlns="http://www.w3.org/2000/svg" width="55" height="54" fill="none" viewBox="0 0 55 54">
  <circle cx="26.3" cy="26" r="22" fill="#7FDAD1"/>
  <path stroke="#323232" stroke-linecap="round" stroke-linejoin="round" stroke-width="2" d="M30.541 46.447v-.877a4.538 4.538 0 0 1 4.525-4.525h7.157a4.538 4.538 0 0 1 4.525 4.525v.877a1.08 1.08 0 0 1-1.08 1.08H31.621a1.08 1.08 0 0 1-1.081-1.08Zm3.944-13.96a4.322 4.322 0 1 1 8.325-2.323 4.322 4.322 0 0 1-8.325 2.323ZM5.691 42.125v-.877a4.538 4.538 0 0 1 4.525-4.525h7.157a4.538 4.538 0 0 1 4.525 4.525v.877a1.08 1.08 0 0 1-1.08 1.08H6.772a1.08 1.08 0 0 1-1.08-1.08Zm3.944-13.958a4.322 4.322 0 1 1 8.326-2.323 4.322 4.322 0 0 1-8.326 2.323Z" clip-rule="evenodd"/>
  <path stroke="#323232" stroke-linecap="round" stroke-linejoin="round" stroke-width="2" d="M38.04 12.878a.106.106 0 1 1 0 .151.104.104 0 0 1 0-.151m-5.63 0a.106.106 0 1 1 0 .151.104.104 0 0 1 0-.151m-5.629 0a.106.106 0 1 1 0 .151.104.104 0 0 1 0-.151"/>
  <path stroke="#323232" stroke-linecap="round" stroke-linejoin="round" stroke-width="2" d="M27.3 19.436v3.241a1.08 1.08 0 0 0 1.765.839l4.435-3.611a2.04 2.04 0 0 1 1.31-.469h5.456a4.322 4.322 0 0 0 4.321-4.322v-4.322a4.322 4.322 0 0 0-4.322-4.321H25.14a4.322 4.322 0 0 0-4.322 4.322v4.321a4.322 4.322 0 0 0 4.322 4.322h2.16Z" clip-rule="evenodd"/>
</svg>
