<?xml version="1.0" encoding="utf-8"?>
<!-- Generator: Adobe Illustrator 26.3.1, SVG Export Plug-In . SVG Version: 6.00 Build 0)  -->
<svg version="1.1" id="Vrstva_1" xmlns="http://www.w3.org/2000/svg" xmlns:xlink="http://www.w3.org/1999/xlink" x="0px" y="0px"
	 width="40px" height="40px" viewBox="0 0 40 40" style="enable-background:new 0 0 40 40;" xml:space="preserve">
<style type="text/css">
	.st0{fill:#010202;}
	.st1{fill-rule:evenodd;clip-rule:evenodd;fill:#010202;}
	.st2{fill:none;stroke:#010202;stroke-width:1.6;stroke-linecap:round;stroke-linejoin:round;}
	.st3{fill:none;stroke:#010202;stroke-width:1.6;stroke-linecap:round;}
	.st4{fill:none;stroke:#010202;stroke-width:1.6;stroke-linejoin:round;}
	.st5{fill:none;stroke:#010202;stroke-width:1.6;}
	.st6{fill:#020203;}
</style>
<path class="st0" d="M18.9,13.5c-3.4,0-6.3-2.8-6.3-6.2c0-3.4,2.8-6.2,6.3-6.2s6.3,2.8,6.3,6.2C25.2,10.7,22.4,13.5,18.9,13.5z
	 M18.9,3.4c-2.1,0-3.8,1.7-3.8,3.8c0,2.1,1.7,3.8,3.8,3.8s3.8-1.7,3.8-3.8C22.7,5.1,21,3.4,18.9,3.4z"/>
<path class="st0" d="M30,39c-3.4,0-6.8-1.8-8.4-4.8l-16,0c-0.3,0-0.6-0.1-0.8-0.3l-3.3-3.2c-0.5-0.5-0.5-1.3,0-1.7l3.3-3.2
	c0.4-0.4,1.1-0.5,1.5-0.1L8,26.7l1.9-1.2c0.4-0.3,0.9-0.2,1.3,0l1.9,1.2l1.9-1.2c0.2-0.1,0.4-0.2,0.6-0.2h0l6.1,0
	c1.6-3,4.6-4.8,8.1-4.8h0c5,0,9.1,4.1,9.2,9.2C39.1,34.7,35,39,30,39z M6.1,31.7l16.3,0c0.5,0,0.9,0.3,1.1,0.7
	c1,2.4,3.7,4.1,6.5,4.1c3.7,0,6.7-3.1,6.6-6.8c0-3.8-3-6.8-6.7-6.8c0,0,0,0,0,0c-2.7,0-5.1,1.6-6.2,4.1c-0.2,0.5-0.6,0.7-1.1,0.7
	c0,0,0,0,0,0l-6.5,0l-2.3,1.4c-0.4,0.2-0.9,0.2-1.3,0L10.6,28l-1.9,1.2c-0.4,0.3-0.9,0.2-1.3,0l-1.6-1.1L4,29.7L6.1,31.7z"/>
<path class="st0" d="M9.3,21.8h2.4v2.1H9.3V21.8z"/>
<path class="st0" d="M17.8,23.3l-2.9-6.4l-3.2,1v2H9.3v-2.3c0-0.9,0.6-1.7,1.5-2l3.7-1.2c1-0.3,2.1,0.2,2.6,1.2l1.9,4.2l1.9-4.2
	c0.4-1,1.6-1.5,2.6-1.2l3.7,1.2c0.9,0.3,1.5,1.1,1.5,2v1.8h-2.4v-1.5l-3.2-1L20,23.3C19.7,24.1,18.3,24.4,17.8,23.3z"/>
<path class="st0" d="M30,31.5c0.9,0,1.7-0.8,1.7-1.7c0-1-0.8-1.7-1.7-1.7c-0.9,0-1.7,0.8-1.7,1.7C28.3,30.7,29,31.5,30,31.5z"/>
</svg>
