<?xml version="1.0" encoding="utf-8"?>
<!-- Generator: Adobe Illustrator 26.3.1, SVG Export Plug-In . SVG Version: 6.00 Build 0)  -->
<svg version="1.1" id="Vrstva_1" xmlns="http://www.w3.org/2000/svg" xmlns:xlink="http://www.w3.org/1999/xlink" x="0px" y="0px"
	 width="40px" height="40px" viewBox="0 0 40 40" style="enable-background:new 0 0 40 40;" xml:space="preserve">
<style type="text/css">
	.st0{fill:#010202;}
	.st1{fill-rule:evenodd;clip-rule:evenodd;fill:#010202;}
	.st2{fill:none;stroke:#010202;stroke-width:1.6;stroke-linecap:round;stroke-linejoin:round;}
	.st3{fill:none;stroke:#010202;stroke-width:1.6;stroke-linecap:round;}
	.st4{fill:none;stroke:#010202;stroke-width:1.6;stroke-linejoin:round;}
	.st5{fill:none;stroke:#010202;stroke-width:1.6;}
	.st6{fill:#020203;}
</style>
<path class="st0" d="M20,39c-0.6,0-1.2-0.5-1.2-1.2v-7.5c0-0.6,0.5-1.2,1.2-1.2s1.2,0.5,1.2,1.2v7.5C21.2,38.5,20.6,39,20,39z"/>
<path class="st0" d="M24.7,39h-9.4c-0.6,0-1.2-0.5-1.2-1.2s0.5-1.2,1.2-1.2h9.4c0.6,0,1.2,0.5,1.2,1.2S25.3,39,24.7,39z"/>
<path class="st0" d="M20,31.5c-13.7,0-18.1-3.7-18.1-15.2C1.9,4.6,6.2,1,20,1c13.8,0,18.1,3.6,18.1,15.2
	C38.1,27.8,33.7,31.5,20,31.5z M20,3.3C7.5,3.3,4.3,6,4.3,16.2c0,10.2,3.2,12.9,15.7,12.9c12.5,0,15.7-2.7,15.7-12.9
	C35.7,6,32.5,3.3,20,3.3z"/>
<path class="st0" d="M22.1,20.7c-0.1,0-0.3,0-0.4,0c-1-0.2-1.4-1-1.9-2.1L18.1,15c-0.1-0.2-0.2-0.5-0.3-0.7
	c-0.2,0.1-0.4,0.3-0.6,0.5l-3.9,3.3c-0.5,0.4-1.2,0.3-1.7-0.2c-0.4-0.5-0.3-1.2,0.2-1.7l3.9-3.3c0.9-0.8,1.6-1.3,2.6-1.1
	c1,0.2,1.4,1,1.9,2.1l1.8,3.5c0.1,0.2,0.2,0.5,0.3,0.7c0.2-0.1,0.4-0.3,0.6-0.5l3.9-3.3c0.5-0.4,1.2-0.3,1.7,0.2
	c0.4,0.5,0.3,1.2-0.2,1.7l-3.9,3.3C23.5,20.2,22.9,20.7,22.1,20.7z"/>
</svg>
