<?xml version="1.0" encoding="utf-8"?>
<!-- Generator: Adobe Illustrator 26.3.1, SVG Export Plug-In . SVG Version: 6.00 Build 0)  -->
<svg version="1.1" id="Vrstva_1" xmlns="http://www.w3.org/2000/svg" xmlns:xlink="http://www.w3.org/1999/xlink" x="0px" y="0px"
	 width="40px" height="40px" viewBox="0 0 40 40" style="enable-background:new 0 0 40 40;" xml:space="preserve">
<style type="text/css">
	.st0{fill:#010202;}
	.st1{fill-rule:evenodd;clip-rule:evenodd;fill:#010202;}
	.st2{fill:none;stroke:#010202;stroke-width:1.6;stroke-linecap:round;stroke-linejoin:round;}
	.st3{fill:none;stroke:#010202;stroke-width:1.6;stroke-linecap:round;}
	.st4{fill:none;stroke:#010202;stroke-width:1.6;stroke-linejoin:round;}
	.st5{fill:none;stroke:#010202;stroke-width:1.6;}
	.st6{fill:#020203;}
</style>
<path class="st0" d="M25.3,35.1h-1.9v-3.6c0-1.8-1.5-3.3-3.3-3.3c-1.8,0-3.3,1.5-3.3,3.3v3.6h-1.9v-3.6c0-2.9,2.4-5.3,5.3-5.3
	c2.9,0,5.3,2.4,5.3,5.3V35.1z"/>
<path class="st0" d="M13.8,20h1.9v3.5h-1.9V20z"/>
<path class="st0" d="M24.3,20h1.9v3.5h-1.9V20z"/>
<path class="st0" d="M9.4,33h1.9v1.9H9.4V33z"/>
<path class="st0" d="M28.6,33h1.9v1.9h-1.9V33z"/>
<path class="st0" d="M22.4,13.9h-2.3c-0.5,0-1-0.4-1-1v-2.5h1.9V12h1.3V13.9z"/>
<path class="st0" d="M1,37.1h38v1.9H1V37.1z"/>
<path class="st0" d="M38.9,22.6l-2.6-6.1c-0.2-0.4-0.5-0.6-0.9-0.6h-4.8v-4l1.8,1.4l1.2-1.5l-13-10.6c-0.4-0.3-0.9-0.3-1.2,0
	l-2.1,1.7l1.2,1.5L20,3.3l8.6,7v20.5h1.9v-6.9h3.9v11h1.9v-11H38C38.7,24,39.2,23.2,38.9,22.6z M30.6,22v-4.1h4.2l1.8,4.1H30.6z"/>
<path class="st0" d="M20,7.1c-0.8,0-1.6,0.2-2.3,0.5c-0.5-3.7-3.6-6.6-7.4-6.6c-4.1,0-7.5,3.4-7.5,7.5c0,2.9,1.6,5.4,3.3,7.3H4.6
	c-0.4,0-0.7,0.2-0.9,0.6l-2.6,6.1C0.8,23.2,1.3,24,2,23.9h1.6v11h1.9v-11h3.9v6.9h1.9v-12c0.8-0.6,2.2-1.8,3.5-3.5
	c0.9,1.9,2.9,3.2,5.1,3.2c3.1,0,5.7-2.5,5.7-5.7S23.1,7.1,20,7.1z M9.4,22h-6l1.8-4.1H8c0.6,0.5,1.1,0.9,1.4,1.1V22z M10.3,17.2
	C8.8,16,4.7,12.5,4.7,8.6C4.7,5.5,7.2,3,10.3,3c3.1,0,5.5,2.5,5.5,5.6C15.8,12.4,11.8,16,10.3,17.2z M20,16.6
	c-1.9,0-3.4-1.4-3.7-3.2c0.6-1.1,1.1-2.2,1.3-3.4c0.7-0.5,1.5-0.8,2.4-0.8c2.1,0,3.7,1.7,3.7,3.7S22.1,16.6,20,16.6z"/>
<path class="st0" d="M10.3,12c-2,0-3.6-1.6-3.6-3.6c0-2,1.6-3.6,3.6-3.6c2,0,3.6,1.6,3.6,3.6C13.8,10.4,12.2,12,10.3,12z M10.3,6.8
	c-0.9,0-1.6,0.7-1.6,1.6c0,0.9,0.7,1.6,1.6,1.6c0.9,0,1.6-0.7,1.6-1.6C11.9,7.5,11.2,6.8,10.3,6.8z"/>
</svg>
