<svg xmlns="http://www.w3.org/2000/svg" width="55" height="54" fill="none" viewBox="0 0 55 54">
  <circle cx="27.699" cy="27" r="22" fill="#7FDAD1"/>
  <path stroke="#323232" stroke-linecap="round" stroke-linejoin="round" stroke-width="2" d="M36.7 28.129c0 4.296-5.349 7.474-7.804 8.71a2.652 2.652 0 0 1-2.392.002c-2.455-1.237-7.805-4.422-7.805-8.712v-6.095a1.148 1.148 0 0 1 1.072-1.114 12.815 12.815 0 0 0 6.607-2.481 2.207 2.207 0 0 1 2.642 0 12.815 12.815 0 0 0 6.607 2.481c.592.04 1.056.522 1.072 1.114v6.095Z" clip-rule="evenodd"/>
  <path stroke="#323232" stroke-linecap="round" stroke-linejoin="round" stroke-width="2" d="M47.009 21.044c.614 1.926.931 3.934.94 5.956 0 11.184-9.066 20.25-20.25 20.25S7.45 38.184 7.45 27 16.515 6.75 27.7 6.75c2.022.009 4.03.326 5.956.94m7.091 3.7 2.703 2.7 4.497-4.5"/>
</svg>
