<svg xmlns="http://www.w3.org/2000/svg" width="112" height="156" fill="none" viewBox="0 0 112 156">
  <path fill="#fff" fill-rule="evenodd" d="M35.146 40.333s-.489 22.71 22.974 22.278c0 0 17.935 2.127 21.367-22.506 0 0 7.068 2.285 7.334-5.199 0 0-1.813-7.031-7.3-2.42 0 0 2.8-12.4.425-18.835C77.57 7.216 65.008-.792 54.972 1.443 44.936 3.677 37.138 6.48 35.22 14.123c-1.92 7.643-.814 15.063.009 18.981 0 0-2.177-2.08-4.373-.456-2.197 1.62-4.32 3.814-1.489 6.02 2.831 2.208 5.78 1.668 5.78 1.668v-.003Z" clip-rule="evenodd"/>
  <path fill="#7FDAD1" fill-rule="evenodd" d="M2.072 93.286S5.76 72.824 12.846 63.559c7.085-9.266 14.3-14.267 23-14.428 0 0 4.348 10.704 13.779 12.718 9.431 2.015 17.964.205 21.184-2.48 3.219-2.683 7.033-9.86 7.033-9.86s16.704 3.846 21.879 10.875c5.174 7.03 11.142 17.626 11.324 36.558l-18.917-.356-3.324-4.403S77.397 78.439 64.137 79.37c0 0-2.036-8.36-3.056-9-1.022-.642-20.84 1.572-21.85 2.896-1.01 1.324 1.617 8.9 1.617 8.9s-6.753 3.165-8.278 5.356c-1.525 2.192-6.39 9.605-6.39 9.605l-.042-2.735s-21.09.15-24.066-1.106Z" clip-rule="evenodd"/>
  <path fill="#7FDAD1" fill-rule="evenodd" d="M43.403 105.111s-4.734 9.621-6.978 13.488c-2.244 3.867-6.869 15.003-9.357 16.653 0 0-.096 15.745.952 16.743 1.05.996 22.503 1.36 25.863 2.007 3.362.646 25.35-.703 29.411-.339 4.061.364 11.05-.136 11.05-.136l.365-8.047s-9.295 1.418-12.192-8.312c-2.896-9.728-4.098-20.605-3.74-26.01 0 0-.616-2.624-2.657-2.872-2.043-.248-7.207-3.302-6.562-6.378.645-3.075 1.438-2.845 1.438-2.845s-3.193-3.55.29-5.648c0 0-1.2-4.829 1.64-6.57 0 0-8.335-2.656-8.807-2.62-.473.036 1.892 21.462 1.458 22.081-.435.619-12.648 3.371-15.267 3.818-2.62.446-5.048.594-5.521-.706-.473-1.301-1.387-4.306-1.387-4.306l.001-.001Z" clip-rule="evenodd"/>
  <path fill="#000" fill-rule="evenodd" d="M5.242 87.668a1.128 1.128 0 0 0-1.473.29c-.333.439-.295.832-.199 1.125.094.284.3.594.752.759.167.061.478.112.875.103.463-.01 1.154-.087 1.666-.06 1.824.091 3.648.229 5.475.263 3.152.058 6.32-.036 9.452.39.654.088 2.017.537 3.091.642.705.07 1.323-.012 1.747-.224a1.128 1.128 0 1 0-1.01-2.02c-.052.026-.122.013-.202.013a4.23 4.23 0 0 1-.707-.069c-.972-.163-2.054-.501-2.613-.58-3.219-.44-6.476-.35-9.716-.41-1.802-.033-3.602-.169-5.403-.26-.47-.023-1.3.017-1.733.04l-.002-.002Zm.355 1.612-.03.042.03-.041Zm85.679 3.564c.223-.02.687-.058 1.103-.065 1.688-.033 4.123.07 4.712.083 4.459.093 9.393.911 13.843.417a1.13 1.13 0 0 0-.25-2.244c-4.356.483-9.183-.34-13.548-.43-.6-.012-3.081-.116-4.8-.083-.886.016-1.601.092-1.902.192-.453.15-.665.43-.766.623a1.128 1.128 0 0 0-.08.893 1.129 1.129 0 0 0 1.687.614h.001Zm.518-.902Zm-63.665 55.667c.492.064 1.845.234 2.012.248 1.661.144 3.324.23 4.988.296 4.824.188 9.658.137 14.483.036 7.91-.163 16.088-.482 23.981.199 6.622.571 13.066 2.302 19.728 1.35a1.13 1.13 0 0 0-.319-2.236c-6.49.928-12.763-.807-19.215-1.363-7.973-.689-16.233-.372-24.222-.207-4.78.1-9.569.152-14.347-.034-1.63-.064-3.257-.149-4.883-.288-.212-.018-1.902-.256-2.259-.277-.66-.038-.963.364-1.012.425-.085.107-.672 1.485.68 1.824.13.033.26.042.387.029l-.002-.002Zm.212-2.204-.051-.014.05.014Zm5.026-94.343a1.128 1.128 0 0 0-1.398-1.715c-.689.36-1.076 1.284-.725 2.54.413 1.48 1.784 3.672 2.034 4.098 2.891 4.93 7.662 8.366 13.045 10.092 3.805 1.219 7.681 1.355 11.646 1.425 11.676.207 22.105-3.151 24.677-16.01a1.128 1.128 0 1 0-2.214-.441c-2.32 11.601-11.889 14.381-22.421 14.195-3.742-.066-7.405-.167-10.998-1.317-4.856-1.556-9.178-4.635-11.786-9.084-.156-.264-.797-1.276-1.304-2.322-.255-.525-.493-1.052-.554-1.458l-.002-.003Z" clip-rule="evenodd"/>
  <path fill="#fff" fill-rule="evenodd" d="M2.324 93.73s-2.302 18.42-.636 26.65c1.667 8.229 1.705 17.312 11.134 18.158 9.43.846 13.166-1.719 14.572-3.503 1.405-1.784 7.913-12.217 9.487-16.821 1.574-4.606 5.977-13.496 5.977-13.496s.785 5.539 2.915 5.95c2.13.411 6.681-1.396 9.481-1.693 2.802-.299 9.078-1.006 10.022-2.909.944-1.906-1.748-29.74-2.536-32.543-.79-2.804-3.428-3.184-3.428-3.184s-18.05 2.427-19.06 2.668c-1.01.24-1.495 5.278.219 8.913 0 0-6.15-.51-12.95 13.787l-1.176-1.434-24.02-.538v-.004Z" clip-rule="evenodd"/>
  <path fill="#fff" fill-rule="evenodd" d="M92.532 96.4s14.354-.911 19.053 1.358c0 0-3.125 22.692-3.556 28.408-.433 5.716-1.766 18.786-14.077 19.357 0 0-11.521.945-13.363-15.224-1.842-16.167-.973-19.86-.973-19.86s-10.777-3.885-10.005-6.638c.77-2.753 1.612-4.684 1.612-4.684s-2.596-1.931-1.129-4.398c1.468-2.467 1.917-1.252 1.917-1.252s-2.916-4.238.598-6.533c0 0-7.182-2.972-8.43-2.66-1.248.311-1.844-4.02-.339-5.018 1.504-.998 12.03 2.594 16.312 5.41 4.282 2.815 9.493 8.801 12.384 11.734h-.004Z" clip-rule="evenodd"/>
  <path fill="#000" fill-rule="evenodd" d="M77.967 41.417c-.28 1.465-.505 2.938-.81 4.4-.832 3.999-2.566 8.107-5.594 10.952-4.094 3.845-10.643 5.258-16.905 4.532-6.249-.725-12.253-3.581-15.25-8.477-1.431-2.336-2.424-5.062-2.784-7.78-.149-1.119-.316-2.227-.316-3.357 0-.123.066-1.07.028-1.284a1.12 1.12 0 0 0-.665-.872 1.13 1.13 0 0 0-1.572 1.236c-.011.19-.05.842-.05.918 0 1.23.175 2.438.336 3.655.4 3.025 1.503 6.06 3.097 8.663 3.336 5.45 9.962 8.736 16.917 9.542 6.941.804 14.171-.868 18.709-5.13 3.365-3.158 5.334-7.697 6.26-12.137.31-1.483.537-2.981.824-4.468.014-.08.097-.875.119-1.089a1.129 1.129 0 0 0-1.547-1.442 1.17 1.17 0 0 0-.581.658c-.089.237-.205 1.382-.216 1.48Z" clip-rule="evenodd"/>
  <path fill="#000" fill-rule="evenodd" d="M78.936 41.155c.737 0 1.438.34 2.18.515 1.097.26 2.238.291 3.52-.53 1.694-1.084 2.969-3.56 3.112-5.915.156-2.57-.949-4.92-3.82-5.459-1.174-.219-2.219.105-3.177.678-.757.452-1.456 1.07-2.133 1.579a1.131 1.131 0 0 0-.227 1.581c.373.498 1.081.6 1.581.227.618-.464 1.247-1.035 1.937-1.448.487-.291 1.008-.507 1.606-.396 1.587.295 2.069 1.68 1.982 3.1-.1 1.636-.9 3.4-2.076 4.154-.815.522-1.53.317-2.219.116-.755-.22-1.5-.459-2.262-.459a1.129 1.129 0 0 0 0 2.257h-.004ZM34.58 33.494a1.127 1.127 0 0 0 2.053-.027c.156-.353.186-.871-.24-1.377-.34-.404-1.385-.992-1.515-1.054-1.589-.748-3.362-.826-4.9.105-1.313.795-2.44 2.34-2.845 3.967-.444 1.786-.058 3.635 1.625 4.829 1.653 1.172 4.37 1.217 6.339 1.217a1.129 1.129 0 0 0 0-2.257c-.84 0-1.846.013-2.815-.103-.82-.098-1.62-.276-2.218-.698-.843-.597-.962-1.548-.741-2.441.262-1.053.972-2.067 1.824-2.58.869-.527 1.872-.416 2.769.006.049.022.475.293.663.415l.002-.002Zm-.059-.813-.01.029.014-.04-.004.01Zm.013-.042-.006.02.011-.029-.004.01h-.001Z" clip-rule="evenodd"/>
  <path fill="#000" fill-rule="evenodd" d="M34.217 32.063a1.13 1.13 0 0 0 1.333 1.032c.087-.015 1.018-.269.914-1.25a30.655 30.655 0 0 0-.152-.924 18.435 18.435 0 0 1-.21-1.636 104.09 104.09 0 0 1-.346-5.383c-.197-5.293.049-10.645 3.733-14.784 4.402-4.944 14.318-7.538 20.714-6.716 3.33.43 6.754 1.808 9.686 3.387 3.271 1.76 6.562 4.11 8.252 7.524 2.1 4.24 1.743 10.348 1.08 14.934-.216 1.498-.998 3.143-.998 4.65a1.129 1.129 0 0 0 2.257 0c0-1.406.773-2.93.976-4.327.72-4.996.996-11.641-1.292-16.26-1.898-3.833-5.533-6.533-9.204-8.51C67.792 2.095 64.088.627 60.49.163c-7.014-.904-17.86 2.032-22.687 7.453-4.088 4.594-4.521 10.493-4.304 16.368.07 1.839.19 3.668.353 5.5.055.617.127 1.226.236 1.836l.127.743.002.001Zm12.259 3.465a1.127 1.127 0 0 0-.69-.95c-.685-.285-1.299-.247-1.817-.043-.719.287-1.27.951-1.503 1.727-.417 1.372.132 2.921 1.762 3.21 1.188.21 2.16-.572 2.521-1.67.256-.773.165-1.636-.271-2.274h-.002Zm21.964-.911c-.764-.027-1.461.436-1.91 1.164-.564.917-.576 2.183.098 2.946.936 1.057 2.273.903 3.227.072.871-.759 1.272-2.047.734-3.068-.431-.819-1.306-1.198-2.148-1.114Zm-1.995 2.231c0 .03-.002.06 0 .093v-.093Z" clip-rule="evenodd"/>
  <path fill="#000" fill-rule="evenodd" d="M53.96 34.143c-.019.11-.037.234-.038.292-.011.34-.013.68-.018 1.023-.01.4.041.946.048 1.482 0 .101.004.204.004.304a4.333 4.333 0 0 0-.4-.022c-1.973.147-3.71 1.975-2.637 4.054.96 1.86 2.588 2.604 4.397 2.64 2.377.05 5.088-1.235 6.597-2.557.469-.41.516-1.123.107-1.594a1.131 1.131 0 0 0-1.594-.107c-.978.855-2.601 1.703-4.184 1.938-1.319.198-2.637-.04-3.317-1.358-.237-.46.305-.715.75-.763.169.02.973.106 1.279.04.482-.101.775-.384.927-.69.209-.416.31-.969.326-1.561.017-.62-.056-1.292-.047-1.762.006-.321.008-.64.017-.96.014-.087.072-.457.068-.544a1.171 1.171 0 0 0-.057-.337c-.198-.596-.629-.777-1.071-.782-.177 0-.549.002-.902.426a1.123 1.123 0 0 0-.255.834v.004Zm1.947.658a1.14 1.14 0 0 1-.352.255.969.969 0 0 0 .352-.255Zm-5.726 17.084c.06.112.129.223.185.28.83.841 2.065 1.397 3.144 1.823 1.967.775 5.075 1.286 7.72.815 1.954-.348 3.651-1.23 4.624-2.787a1.131 1.131 0 0 0-.359-1.556 1.131 1.131 0 0 0-1.556.358c-.643 1.029-1.813 1.53-3.106 1.76-2.226.397-4.84-.04-6.495-.693-.803-.317-1.75-.683-2.366-1.308.08.08.209.32.209.32s-.857-1.035-1.44-.903a1.128 1.128 0 0 0-.56 1.888v.003Zm.804.342h.026-.04.014Zm.142-.007.056-.009a1.4 1.4 0 0 1-.169.016l.055-.003c.018 0 .038-.004.056-.006l.002.002Zm.057-.007.057-.011-.056.01Z" clip-rule="evenodd"/>
  <path fill="#000" fill-rule="evenodd" d="m58.189 46.828-.045.011c-.23.01-.464-.007-.692-.02a10.245 10.245 0 0 1-2.442-.43c-1.31-.405-2.782-1.227-4.264-1.653-1.206-.346-2.418-.447-3.579-.065-1.543.507-2.622 1.703-3.24 3.191-.851 2.054-.793 4.666-.005 6.477 1.007 2.315 3.532 3.45 5.723 4.299 2.873 1.11 8.185 1.679 12.684.86 3.194-.581 5.963-1.886 7.363-4.02 1.034-1.577 2.15-5.174 1.79-7.93-.288-2.198-1.424-3.888-3.824-4.178-1.728-.208-3.336.613-4.93 1.566-1.194.711-2.373 1.523-3.7 1.523-.33 0-.629.143-.835.367l-.004.002Zm.355 2.228c-.078.016-.156.03-.2.035-.338.02-.686.001-1.023-.017a12.513 12.513 0 0 1-2.98-.527c-1.1-.34-2.318-.972-3.556-1.423-.977-.355-1.967-.618-2.911-.307-.906.297-1.498 1.038-1.86 1.913-.62 1.494-.593 3.394-.02 4.713.35.804.992 1.37 1.72 1.826.863.538 1.848.92 2.746 1.268 2.596 1.003 7.4 1.485 11.467.746 2.52-.459 4.775-1.353 5.878-3.036.835-1.273 1.73-4.177 1.438-6.4-.147-1.126-.627-2.08-1.856-2.229-1.243-.15-2.355.576-3.504 1.263-1.405.838-2.838 1.67-4.38 1.818-.24.265-.597.404-.96.363v-.006Zm-.998-1.233v.012-.022.01Zm.005-.046v.022l.004-.047-.004.023v.002Zm.008-.047-.004.018.01-.052-.006.034Zm.009-.047v.011l.01-.05-.01.04Zm.01-.043.017-.055-.016.055Zm-22.342.038c-.159.04-.465.11-.682.134-.555.061-1.125.088-1.498.16-2.01.387-4.023.97-5.921 1.73-5.29 2.116-9.326 6.092-12.87 10.464C1.992 75.321-1.18 98.74.362 117.753c.23 2.828.907 9.35 2.224 13.894.625 2.157 1.435 3.885 2.338 4.742 5.19 4.921 15.088 4.695 20.667 1.045 3.695-2.416 6.774-7.312 9.538-12.99 3.963-8.142 7.326-17.903 11.365-23.584 1.225-1.723 3.11-2.245 5.12-2.447 2.346-.238 4.871-.037 7.012-.29 1.148-.136 2.683-.708 3.657-1.65.795-.766 1.25-1.754 1.087-2.92-.208-1.494-1.397-2.481-3.206-2.949-3.103-.802-8.234-.08-9.93-.08a1.129 1.129 0 0 0 0 2.257c1.39 0 5.195-.541 8.124-.212.831.095 1.585.252 2.145.555.326.175.583.393.63.74.076.54-.297.931-.726 1.238-.618.442-1.422.706-2.047.778-2.13.25-4.64.05-6.975.287-2.67.27-5.108 1.1-6.734 3.385-4.097 5.761-7.537 15.647-11.556 23.905-2.56 5.256-5.324 9.851-8.745 12.088-4.823 3.157-13.389 3.461-17.877-.795-.703-.667-1.237-2.056-1.723-3.731-1.275-4.398-1.92-10.714-2.14-13.449-1.5-18.478 1.48-41.258 13.407-55.984 3.3-4.073 7.024-7.817 11.953-9.79a30.328 30.328 0 0 1 5.508-1.608c.672-.129 1.954-.136 2.698-.444.736-.304 1.147-.828 1.212-1.501a1.13 1.13 0 0 0-2.153-.57l.002.005Z" clip-rule="evenodd"/>
  <path fill="#000" fill-rule="evenodd" d="M50.931 87.456c1.203-.272 5.04-.208 7.52.098.716.088 1.522.295 1.67.335.348.37.357.906.073 1.328-.07.041-.471.293-.696.409-.384.197-.695.378-.782.454-.45.397-.424.837-.38 1.07.032.184.266 1.082 1.394.925a1.12 1.12 0 0 0 .701-.386c.27-.14.65-.344.891-.502.297-.195.53-.41.667-.598 1.021-1.398.896-3.234-.397-4.419a2.14 2.14 0 0 0-.688-.402c-.4-.154-1.027-.294-1.79-.402-2.27-.32-5.877-.413-7.75-.243-.72.065-1.24.197-1.483.322-.26.133-.419.301-.517.45a1.13 1.13 0 0 0 1.569 1.563l-.002-.002Zm8.565 2.373h-.009.02-.011Z" clip-rule="evenodd"/>
  <path fill="#000" fill-rule="evenodd" d="M59.248 86.882c1.569-.748 2.186-1.764 2.306-2.708.116-.924-.254-1.88-1-2.68-.925-.992-2.443-1.74-3.943-1.828-5.436-.32-15.97.264-20.61 3.224-3.623 2.309-6.829 7.049-9.803 12.559-4.273 7.913-8.118 17.426-12.42 22.958a1.13 1.13 0 0 0 .198 1.584c.49.383 1.2.294 1.585-.197 4.363-5.609 8.29-15.244 12.624-23.271 2.762-5.119 5.664-9.582 9.031-11.728 4.333-2.762 14.19-3.171 19.264-2.873.665.04 1.335.29 1.875.653.343.23.634.503.814.807.106.18.179.364.139.553-.074.357-.438.628-1.03.913a1.13 1.13 0 0 0 .973 2.038l-.003-.004Z" clip-rule="evenodd"/>
  <path fill="#000" fill-rule="evenodd" d="M26.86 82.395c-.13.221-.289.52-.325.681-.277 1.247-.411 2.534-.572 3.8-.413 3.235-.5 6.505-.904 9.741a1.13 1.13 0 0 0 .98 1.261 1.13 1.13 0 0 0 1.26-.98c.404-3.235.491-6.502.904-9.735.149-1.167.268-2.355.516-3.505.073-.112.323-.498.39-.663a1.39 1.39 0 0 0 .103-.585c-.024-.486-.23-.911-.859-1.125a1.13 1.13 0 0 0-1.492 1.112v-.002Zm.695.998.009.004-.033-.015.024.011Zm-.066-.029.022.01-.041-.02.02.01Zm-.06-.032.033.018-.041-.024.009.006Z" clip-rule="evenodd"/>
  <path fill="#000" fill-rule="evenodd" d="M3.016 92.579a1.13 1.13 0 0 0-1.207.677c-.02.049-.197 1.474 1.016 1.572.406.033 2.47.129 2.569.129 1.585 0 3.171.061 4.754.143 3.603.183 12.16-.226 15.298.819a1.13 1.13 0 0 0 .714-2.143c-3.262-1.087-12.152-.74-15.898-.933a94.936 94.936 0 0 0-4.868-.147c-.089 0-2.224-.112-2.378-.121v.004Zm.376.126c.502.276.725.89.497 1.43.12-.285.125-.573.003-.866a1.05 1.05 0 0 0-.501-.562l.001-.002Zm74.454-42.403c.435.147 4.77 1.605 6.082 2.141 7.195 2.943 14.447 6.684 18.345 13.584 6.426 11.38 7.884 22.161 7.375 35.572-.214 5.618-1.02 13.665-1.983 18.9-.58 3.15-.73 6.642-1.284 9.966-.517 3.102-1.381 6.062-3.433 8.375-3.664 4.133-8.462 6.136-12.626 4.91-2.75-.81-5.166-3.039-6.789-6.879-2.445-5.783-2.925-13.452-3.115-19.697-.069-2.268.482-5.123-.2-7.318-.188-.605-.613-1.134-1.265-1.574-.68-.46-1.65-.84-2.726-1.232-1.154-.418-2.444-.856-3.536-1.521-.913-.556-1.688-1.271-2-2.347-.206-.716-.1-1.583.245-2.232.167-.313.386-.587.696-.677.36-.107.775.058 1.278.433a1.13 1.13 0 0 0 1.355-1.808c-1.253-.94-2.374-1.06-3.275-.791-.865.257-1.579.903-2.046 1.78-.607 1.137-.785 2.661-.422 3.918.755 2.622 3.207 3.966 5.663 4.899 1.037.393 2.056.719 2.86 1.094.263.121.499.246.694.388.147.105.28.195.323.337.624 2.014.036 4.636.1 6.716.197 6.506.745 14.486 3.292 20.509 1.947 4.606 4.932 7.194 8.23 8.165 4.907 1.445 10.638-.71 14.954-5.579 2.335-2.632 3.382-5.972 3.97-9.504.551-3.311.698-6.788 1.277-9.927.982-5.325 1.802-13.508 2.02-19.223.527-13.863-1.022-25-7.665-36.767-4.15-7.348-11.797-11.43-19.455-14.564-1.462-.598-5.61-2.07-6.477-2.266-.899-.203-1.324.42-1.391.54a1.129 1.129 0 0 0 .93 1.674v.005Zm.833-.308-.03.03.01-.01.02-.018v-.002Zm.082-.085.03-.038a.853.853 0 0 1-.1.114l.032-.032c.012-.015.025-.028.038-.042v-.002Zm.063-.083-.025.036.014-.018.011-.017v-.001Zm.035-.051-.019.027.015-.02.004-.007Z" clip-rule="evenodd"/>
  <path fill="#000" fill-rule="evenodd" d="M71.404 100.004c.284.062.594.015.857-.157.383-.25.454-.542.487-.67.07-.272.038-.515-.053-.73a1.077 1.077 0 0 0-.72-.642 3.138 3.138 0 0 0-.336-.023c-.347-.161-.603-.491-.766-.855-.188-.424-.257-.911-.112-1.324.232-.663.844-.884 1.485-.937.886-.07 1.864.181 2.56.53a1.128 1.128 0 1 0 1.008-2.02c-1.237-.62-3.082-.995-4.564-.63-1.185.291-2.163 1.006-2.62 2.307-.658 1.878.446 4.44 2.384 5.108.075.025.24.038.39.043Zm-.873-1.295a.962.962 0 0 0 .036.534 1.118 1.118 0 0 1-.036-.534Zm.215-.495Z" clip-rule="evenodd"/>
  <path fill="#000" fill-rule="evenodd" d="M70.893 87.101c-.761.625-1.247 1.527-1.305 2.732-.07 1.434.3 2.747 1.158 3.903.116.156.279.31.484.444.088.058.23.137.355.206a1.13 1.13 0 0 0 1.882.293c.45-.51.421-.992.193-1.441-.108-.21-.326-.458-.66-.656a15.873 15.873 0 0 0-.497-.273c-.496-.705-.7-1.502-.658-2.368.047-.95.761-1.403 1.623-1.583.13-.027.397-.009.397-.009a1.13 1.13 0 0 0 .465-2.17s-1.853-.777-2.733-1.257c-1.927-1.054-4.33-1.68-6.515-1.952a1.13 1.13 0 0 0-1.26.98 1.13 1.13 0 0 0 .98 1.26c1.912.24 4.022.77 5.712 1.694.114.062.24.129.38.197h-.001Zm.793 6.198-.006.008.011-.018-.007.009.002.001Zm.042-.056-.011.015.014-.02-.003.005Z" clip-rule="evenodd"/>
  <path fill="#000" fill-rule="evenodd" d="M63.212 78.362a1.185 1.185 0 0 0-.348.355c-.008.009-.013.025-.02.043l-.022.035c-.101.184-.129.33-.098.44l-.014.065.047.015c.127.206.498.262.9.253l.082.024 1.054.291-.015.026c-.06.076-.255.308-.47.39.05-.02.103-.035.155-.048a1.13 1.13 0 0 0 .176-.154c-.05.056-.1.105-.152.149l-.024.005-.029.02a1.12 1.12 0 0 1-.954.14l-.067-.024h-.008l-.032-.016a1.12 1.12 0 0 1-.502-.415c.172.259.368.36.502.415l.007.003.025.01h.006v.001l.018.007.049.017c.378.125.717.076 1.007-.165.454-.096.958.052 1.402.128 1.561.27 3.099.69 4.615 1.14 4.611 1.365 8.74 3.34 12.488 6.393 10.61 8.65 12.295 22.697 13.324 35.553a1.128 1.128 0 1 0 2.25-.181c-1.076-13.452-3.045-28.072-14.146-37.123-3.985-3.248-8.37-5.356-13.275-6.809-1.601-.474-3.226-.914-4.874-1.199-.879-.152-1.895-.291-2.762.037a1.12 1.12 0 0 0-.3.175l.005.004Zm1.584 1.521-.01.02.014-.018h-.004v-.002ZM62.71 79.3l-.027-.009v.136l.025-.125.002-.002Z" clip-rule="evenodd"/>
  <path fill="#000" fill-rule="evenodd" d="M87.962 92.141a1.13 1.13 0 0 0 1.445 1.304c.134-.041.718-.253.799-1.023.043-.404-.018-2.335-.023-2.424-.127-2.222-.298-4.443-.428-6.663a1.129 1.129 0 1 0-2.255.132c.13 2.22.3 4.44.427 6.66.004.069.028 1.739.033 2.016l.002-.002Zm4.948 5.219c4.164-.27 13.215.382 17.423.909a1.13 1.13 0 0 0 .28-2.24c-4.31-.54-13.584-1.2-17.85-.922a1.13 1.13 0 0 0 .145 2.253h.002Zm-66.92 39.058c-.053.373-.13.947-.13 1.188 0 .967-.01 1.936 0 2.904.034 3.58.096 7.16.333 10.733.003.127.029.839.076.993.132.434.416.621.59.708.487.244 2.018.494 3.996.656 4.146.34 10.445.499 11.949.57 12.16.563 24.01 1.65 36.21.719 1.422-.108 12.694.035 15.11-.061.646-.026 1.005-.21 1.063-.25.33-.236.685-.812.775-1.712.181-1.811-.422-5.687-.246-6.743a1.128 1.128 0 1 0-2.226-.372c-.161.962.268 4.172.255 6.222 0 .194-.02.42-.04.609-2.98.076-13.49-.049-14.863.056-12.108.924-23.867-.165-35.933-.723-1.493-.069-7.75-.226-11.87-.565-1.084-.089-2.004-.167-2.595-.27-.233-3.526-.295-7.058-.328-10.592-.009-.96 0-1.922 0-2.882 0-.313.145-.991.172-1.333a1.665 1.665 0 0 0-.061-.645 1.125 1.125 0 0 0-.444-.588 1.117 1.117 0 0 0-.766-.198c-.174.018-.563.071-.9.565-.21.308-.247.685-.13 1.013l.003-.002Zm1.904.379-.011.012h.002l.008-.012Zm.05-.06-.016.02.009-.011.007-.009Zm13.454-55.973-.194-.353a12.1 12.1 0 0 1-.317-1.424c-.087-.58-.54-2.331-.682-3.8-.044-.45.001-1.054.018-1.242.386-.236.958-.323 1.534-.404.866-.124 1.759-.176 2.383-.285 4.012-.704 8.1-1.15 12.161-1.407.62-.04 1.69-.352 2.713-.482.31-.04.613-.062.888-.034.154.016.312.001.386.123 1.463 2.358 1.548 6.238 1.777 8.92.494 5.79.845 11.627 1.584 17.39.096.746.654 4.271.761 6.548.022.478-.009 1.043-.023 1.268-.654.59-1.688.956-2.813 1.246-2.13.549-4.594.744-6.117.98-1.27.195-5.157 1.255-7.85 1.601a9.973 9.973 0 0 1-1.375.101c-.173-.002-.414-.04-.465-.047-.11-.072-.187-.199-.265-.337a4.092 4.092 0 0 1-.364-.958c-.337-1.259-.396-2.798-.396-3.642a1.13 1.13 0 0 0-2.257 0c0 1.157.121 3.427.717 4.988.343.895.855 1.577 1.48 1.931.534.302 1.731.396 3.215.204 2.713-.349 6.627-1.412 7.906-1.61 1.578-.244 4.13-.456 6.336-1.025 1.677-.433 3.157-1.092 4.039-2.027.225-.237.487-.869.505-1.8.046-2.177-.68-6.823-.793-7.707-.735-5.73-1.083-11.536-1.576-17.294-.255-2.99-.478-7.29-2.108-9.918-.544-.875-1.567-1.245-2.79-1.198-1.16.046-2.528.482-3.258.527-4.146.263-8.315.718-12.409 1.439-.74.13-1.865.175-2.867.364-.862.16-1.641.438-2.17.851-.478.373-.822 1.224-.804 2.353.027 1.63.64 4.015.746 4.724.089.595.23 1.177.391 1.756.053.189.464.951.58 1.103.32.422.705.45.811.46.484.046.845-.143 1.085-.56.055-.091.272-.409.087-.95a1.101 1.101 0 0 0-.21-.368v-.005Zm-1.929.375c-.063.154-.11.395 0 .722a1.11 1.11 0 0 1 0-.722Z" clip-rule="evenodd"/>
  <path fill="#000" fill-rule="evenodd" d="M48.656 76.235c-.13.326-.107.707.096 1.024.542.851 1.53.989 2.317.603.79-.388 1.278-1.259.94-2.197-.337-.931-1.54-1.373-2.395-.913-.248.134-.637.569-.807.922-.102.212-.144.41-.153.561h.002Zm.859-.998Zm.02-.005h-.006l.013-.002h-.007v.002Zm4.475 2.061c.249.317.63.585 1.221.689 1.156.2 2.262-.58 2.748-1.703.498-1.148.291-2.487-.732-3.17-.712-.474-1.467-.447-2.152-.103-.751.379-1.389 1.22-1.606 1.924-.065.21-.198.844-.142 1.286.066.512.33.878.662 1.08l.001-.003ZM7.867 124.998a1.13 1.13 0 0 0-1.625-.435 1.082 1.082 0 0 0-.494.703c-.076.326-.013.616.148.867.125.196.45.576 1.074.524a1.13 1.13 0 0 0 .899-1.661l-.002.002Zm-.014 1.05Zm-.435-1.503Zm1.688 6.057a1.129 1.129 0 0 0 2.248-.145 2.22 2.22 0 0 0-.057-.415 1.12 1.12 0 0 0-.174-.34c-.358-.482-.807-.529-1.218-.411-.173.048-.526.155-.734.655a1.121 1.121 0 0 0-.063.654l-.002.002Zm1.317.887-.02.004h.007l.013-.004Zm.06-.012-.039.009.018-.004.02-.005Zm.05-.013-.038.011.022-.005.016-.006Zm.045-.014-.021.007.014-.004h.007v-.003Zm.352-.198Zm4.792-4.86a1.004 1.004 0 0 0-.157.54 1.128 1.128 0 0 0 1.904.867.466.466 0 0 0 .131-.268.998.998 0 0 0 .167-.567 1.127 1.127 0 0 0-1.918-.838.46.46 0 0 0-.125.264l-.002.002Zm.15-.188a1.21 1.21 0 0 0-.15.188v.013a1.126 1.126 0 0 0-.15.675c.02.207.632.906.632.906s-.565-1-.48-1.581c.042-.071.092-.138.152-.201h-.003Zm1.895.76a1.4 1.4 0 0 0-.007-.146c-.022-.207-.63-.892-.63-.892s.565 1.013.47 1.596c-.036.06-.08.116-.128.17.049-.052.092-.106.127-.161v-.009c.105-.17.16-.364.166-.558h.002Zm.205 5.789c.016-.029.033-.059.043-.083a1.13 1.13 0 1 0-2.052-.944c.019-.038.055-.101.055-.101s-.16.275-.198.48a1.13 1.13 0 0 0 2.15.65l.002-.002Zm7.902-4.507a1.127 1.127 0 0 0-.813 2.055c.141.093.411.2.697.216.296.014.584-.069.738-.154a1.13 1.13 0 0 0-.62-2.119l-.002.002Zm.382.143.04.025-.04-.025Zm-.797-.031a.45.45 0 0 0-.043.022l.043-.022Zm1.613-5.434a1.132 1.132 0 0 0-.554-2.145c-.102.006-.4.069-.553.154a1.14 1.14 0 0 0-.49.534c-.146.325-.215.738.162 1.194a1.13 1.13 0 0 0 1.433.261l.002.002Zm.547-.767c.069-.271.045-.588-.238-.931.223.27.3.613.238.931Zm-4.989-2.174a1.132 1.132 0 0 0-1.697-.25c-.413.361-.424.734-.399.989.022.221.102.426.247.607.154.192.487.398.8.436a1.128 1.128 0 0 0 1.049-1.78v-.002Zm.145.85c-.045.206-.15.4-.31.558a.98.98 0 0 0 .31-.558Zm-13.233-5.278a1.13 1.13 0 0 0-2.237-.297c-.01.06-.014.124-.018.183a1.13 1.13 0 1 0 2.253.129v-.013l.002-.002Zm-4.066-.642a1.13 1.13 0 0 0-1.779-1.301c-.385.337-.541.85-.392 1.34a1.128 1.128 0 0 0 2.17-.039h.001Zm.967 16.846-.023.015a1.13 1.13 0 0 0 1.293 1.851c-.022.016-.1.062-.1.062s.453-.417.491-.493c.152-.297.149-.569.087-.801a1.129 1.129 0 0 0-1.748-.634Zm-.472.911c-.006.314.1.595.351.828a1.13 1.13 0 0 1-.351-.828Zm6.869 3.422c0 .082.01.156.03.214a1.13 1.13 0 0 0 2.128-.755c.094.264-.065.883-.065.883s.029-1.066-.036-1.168a1.13 1.13 0 0 0-2.056.824v.002Zm9.371-2.165-.032.067c-.23.579.052 1.235.63 1.467a1.13 1.13 0 0 0 1.465-.63c-.054.135-.228.355-.228.355s.357-1.185.03-1.549a1.128 1.128 0 0 0-1.867.29h.002Zm-.1.469c-.003.261.075.514.29.753a1.119 1.119 0 0 1-.29-.753Zm1.133-7.024a1.13 1.13 0 0 0-1.136-1.922c-.197.08-.438.31-.438.31s.034-.038.056-.058a1.13 1.13 0 0 0 1.518 1.672v-.002Zm-9.966-5.631-.06.05a1.132 1.132 0 0 0 .019 1.598 1.133 1.133 0 0 0 1.597-.018c-.034.034-.165.137-.165.137s.27-.241.294-.271c.424-.564.214-1.042.038-1.306a1.062 1.062 0 0 0-.853-.5c-.067-.006-.21-.02-.428.049-.17.054-.32.145-.442.261Zm.339 1.854c.103.051.339.158.72.056a1.116 1.116 0 0 1-.72-.056Zm-.663-.809a1.132 1.132 0 0 0 .51.731 1.001 1.001 0 0 1-.51-.73v-.001Zm90.668 4.758h-.044l-.045-.007c.073.006.145.006.214-.002.147-.021.292-.072.427-.154-.074.046-.137.08-.199.106a1.194 1.194 0 0 1-.226.048l-.049.006c-.018 0-.036.003-.055.003h-.019a.76.76 0 0 0 .349-.057 1.131 1.131 0 0 0-.199-2.194c-.326-.043-.493-.013-.775.159a1.13 1.13 0 0 0-.377 1.553 1.13 1.13 0 0 0 1.002.539h-.004Zm-.022 6.479a.737.737 0 0 0 .116-.145 1.129 1.129 0 1 0-1.941-1.152c.112-.188.447-.418.447-.418s-.609.415-.659.945c-.058.62.398 1.17 1.018 1.23.411.038.791-.148 1.017-.46h.002Zm-8.14 6.432a.81.81 0 0 0 .256.15c.056.024.114.044.174.058.056.015.114.025.17.031a.863.863 0 0 0 .357-.02 1.131 1.131 0 0 0 .703-1.726c-.258-.39-.513-.442-.67-.482-.175-.044-.44-.125-.868.127a1.128 1.128 0 0 0-.12 1.86l-.002.002Zm1.22.112c-.21.111-.443.147-.664.12l.015.003.027.004c.118.012.24.005.357-.02.08-.02.168-.054.264-.109v.002Zm-1.414-.326c.066.091.13.161.192.214.078.061.165.112.256.15l.047.016a1.114 1.114 0 0 1-.495-.38Zm.624-5.777a1.127 1.127 0 0 0 1.148-1.751c-.112-.161-.867-.478-.889-.487a1.129 1.129 0 0 0-.259 2.238Zm.264-2.238h-.005.004l.076.007a.49.49 0 0 0-.076-.007h.001Zm2.768 5.126c.007.152.03.311.089.429a1.13 1.13 0 0 0 2.132-.612c.005-.1.005-.201-.013-.276a1.13 1.13 0 0 0-2.21.46l.002-.001Zm0-.013c-.01-.25.025-.478.025-.478s-.047.291-.025.478ZM87.91 139.76l-.004.006-.017.02-.003.005a1.13 1.13 0 0 0 1.375 1.71l-.102.041s.746-.751.76-1.003c.014-.217.059-.714-.597-1.065a1.127 1.127 0 0 0-1.41.286h-.003Zm-.126 1.228a.982.982 0 0 0 .419.448 1.14 1.14 0 0 1-.419-.448Zm-.088-9.07a1.13 1.13 0 0 0-2.097-.82 3.09 3.09 0 0 0-.12.48c-.014.46.209.719.353.855.232.219.517.333.868.306.132-.011.474-.022.795-.426.096-.121.163-.255.203-.395h-.002Zm-.2-1.007c.13.163.207.357.233.558a1.045 1.045 0 0 0-.234-.558Zm-1.02-.42c-.147.011-.432.051-.707.368.188-.212.442-.335.706-.368Zm.206-.005c.185.01.368.068.532.172a1.025 1.025 0 0 0-.532-.172Zm3.677-4.067-.013.02a1.13 1.13 0 0 0 1.98 1.085c-.031.058-.143.203-.143.203s.354-1.126.065-1.492a1.13 1.13 0 0 0-1.89.183v.001Zm-.591 9.637s0 .006.002.008a1.13 1.13 0 0 0 2.173-.613c0-.003 0-.005-.002-.007a1.131 1.131 0 0 0-1.392-.781c-.6.169-.95.794-.781 1.393Zm16.412-19.149h-.004l-.029.007h-.007a1.134 1.134 0 0 0-.721.587c-.274.545-.111.92.092 1.174.067.1.163.197.301.281.094.061.201.112.324.145.212.056.574.038.819-.089a1.09 1.09 0 0 0 .596-.801.913.913 0 0 0-.066-.65c-.083-.23-.264-.509-.737-.645a1.115 1.115 0 0 0-.567-.012l-.001.003Zm-.812 1.46c.027.094.069.203.143.31.033.04.065.078.098.112.058.062.125.12.201.169.087.052.192.097.317.134a1.124 1.124 0 0 1-.759-.725Zm1.956-1.043c.252.331.312.791.113 1.19a1.52 1.52 0 0 0 .112-.299c.031-.176.02-.344-.013-.478a1.407 1.407 0 0 0-.052-.172 1.122 1.122 0 0 0-.16-.241Zm-1.916.215-.004.008.004-.011v.003Zm.219-.318Zm.009-.009-.005.005.014-.015-.007.008-.002.002Zm-4.066-4.22a1.12 1.12 0 0 0-.781.262.973.973 0 0 0-.281.35 1.153 1.153 0 0 0-.079.833.977.977 0 0 0 .396.578c.156.119.345.199.553.224.185.026.38.006.565-.068.614-.243.679-.703.705-.91.041-.337 0-.891-.676-1.179a4.534 4.534 0 0 0-.406-.09h.004Zm-1.167 1.063c-.009.114-.005.246.028.382.068.232.208.433.396.578.058.041.125.081.199.118a1.13 1.13 0 0 1-.624-1.078h.001Zm.015-.129c.065-.373.319-.706.697-.855a1.297 1.297 0 0 0-.326.183c-.114.096-.21.216-.281.35a1.085 1.085 0 0 0-.09.322Zm1.152-.934h.027-.029.002Zm-.319 7.061-.023.015a1.128 1.128 0 0 0 1.081 1.979c-.05.026-.223.084-.223.084s.727-.506.801-.701c.085-.225.103-.464.029-.719a1.132 1.132 0 0 0-1.663-.656l-.002-.002Zm-.483 1.357ZM89.44 110.208l-.014.012a1.13 1.13 0 0 0 1.47 1.714l.017-.013a1.13 1.13 0 0 0-1.471-1.713h-.002Zm-3.164 7.166a1.128 1.128 0 0 0 .138 2.253c.012-.002.603-.131.713-.205.294-.197.426-.46.477-.71a1.129 1.129 0 0 0-1.33-1.335l.002-.003Zm.138 2.251.052-.002h-.052v.002Zm-1-1.451v.011l.005-.029-.005.018Zm.072-.188-.022.047-.021.052-.013.037a.815.815 0 0 1 .056-.138v.002Zm.116-.188Zm-57.53-8.969-.004-.004a1.13 1.13 0 1 0-1.763 1.413 1.128 1.128 0 1 0 1.765-1.409h.002Zm4.376-9.533a1.126 1.126 0 0 0-1.064 1.816c.261.326.5.379.636.412.212.05.589.168 1.07-.303a1.128 1.128 0 0 0-.64-1.925h-.002Zm.288.087c.157.07.3.179.416.324a.996.996 0 0 0-.416-.324Zm-.864-.013Zm2.995 14.198a.87.87 0 0 0 .594.201 1.116 1.116 0 0 1-.594-.203 1.38 1.38 0 0 1-.19-.179c.212.241.505.37.802.381h-.02c.047.003.096.001.143 0h.013l.054-.006.042-.007a.888.888 0 0 0 .656-.362 1.127 1.127 0 0 0 .001-1.496c-.407-.464-.782-.395-.923-.386-.167.011-.607-.008-.933.606a1.128 1.128 0 0 0 .353 1.453l.002-.002Zm1.501-.177c.05-.062.096-.136.143-.221-.17.322-.476.529-.813.585h.015a1.118 1.118 0 0 0 .657-.364h-.002Zm-13.606 2.923.013-.007a1.13 1.13 0 0 0-1.085-1.978c-.004.002-.009.006-.013.007a1.128 1.128 0 1 0 1.087 1.978h-.002Z" clip-rule="evenodd"/>
</svg>
