<svg xmlns="http://www.w3.org/2000/svg" width="50" height="50" viewBox="0 0 50 50" fill="none">
    <g clip-path="url(#clip0)">
        <path opacity="0.4" d="M21 25C21 26.6569 22.3431 28 24 28C25.6569 28 27 26.6569 27 25C27 23.3431 25.6569 22 24 22C22.3431 22 21 23.3431 21 25Z" fill="#FFD500"/>
        <path d="M24.8125 -3.34042e-06C24.6367 0.0390592 24.4727 0.124997 24.3438 0.249997L17.0625 6.5625C16.1484 6.8125 15.3672 7 15 7C14.4023 7 13.1406 6.57422 11.5938 6.0625C10.0469 5.55078 8.16797 5 6 5C3.25391 5 1 7.2539 1 10C1 12.0312 1.54688 13.6953 2.0625 15.0312C2.57812 16.3672 3 17.4023 3 18C3 18.5977 2.60156 19.5977 2.09375 20.7812C1.58594 21.9648 1 23.3633 1 25C1 26.3672 1.5625 27.668 2.0625 28.9062C2.5625 30.1445 3 31.332 3 32C3 32.668 2.57812 33.6562 2.0625 34.9687C1.54688 36.2812 1 37.9258 1 40C1 42.7461 3.25391 45 6 45C8.21094 45 10.0547 44.4492 11.5625 43.9375C13.0703 43.4258 14.2656 43 15 43C15.7344 43 17.2891 43.4609 19.0625 43.9687C20.8359 44.4766 22.8789 45 25 45C27.1211 45 29.1641 44.4766 30.9375 43.9687C32.7109 43.4609 34.2656 43 35 43C35.7344 43 36.9297 43.4258 38.4375 43.9375C39.9453 44.4492 41.7891 45 44 45C46.7461 45 49 42.7461 49 40C49 37.9258 48.4531 36.2812 47.9375 34.9687C47.4219 33.6562 47 32.668 47 32C47 31.332 47.4375 30.1445 47.9375 28.9062C48.4375 27.668 49 26.3672 49 25C49 23.3633 48.4141 21.9648 47.9062 20.7812C47.3984 19.5977 47 18.5977 47 18C47 17.4023 47.4219 16.3672 47.9375 15.0312C48.4531 13.6953 49 12.0312 49 10C49 7.2539 46.7461 5 44 5C41.832 5 39.9531 5.55078 38.4062 6.0625C36.8594 6.57422 35.5977 7 35 7C34.6328 7 33.8516 6.8125 32.9375 6.5625L25.6562 0.249997C25.4531 0.066403 25.1797 -0.0234408 24.9062 -3.34042e-06C24.875 -3.34042e-06 24.8438 -3.34042e-06 24.8125 -3.34042e-06ZM25 2.3125L28.5625 5.40625C27.4258 5.16797 26.2227 5 25 5C23.7773 5 22.5742 5.16797 21.4375 5.40625L25 2.3125ZM6 7C7.83203 7 9.48828 7.44922 10.9688 7.9375C12.4492 8.42578 13.6992 9 15 9C15.7422 9 16.5664 8.80468 17.4375 8.5625C17.5664 8.55468 17.6953 8.52343 17.8125 8.46875C18.3594 8.30859 18.8906 8.14062 19.5 7.96875C21.2383 7.47656 23.168 7 25 7C26.832 7 28.7617 7.47656 30.5 7.96875C31.0781 8.13281 31.5742 8.28515 32.0938 8.4375C32.2383 8.51562 32.3984 8.55859 32.5625 8.5625C33.4336 8.80468 34.2578 9 35 9C36.3008 9 37.5508 8.42578 39.0312 7.9375C40.5117 7.44922 42.168 7 44 7C45.6562 7 47 8.34375 47 10C47 11.668 46.5469 13.0469 46.0625 14.3125C45.5781 15.5781 45 16.6992 45 18C45 19.3008 45.6016 20.4219 46.0938 21.5625C46.5859 22.7031 47 23.8398 47 25C47 25.7344 46.5625 26.9219 46.0625 28.1562C45.5625 29.3906 45 30.668 45 32C45 33.332 45.5781 34.4492 46.0625 35.6875C46.5469 36.9258 47 38.2773 47 40C47 41.6562 45.6562 43 44 43C42.1133 43 40.5039 42.5508 39.0625 42.0625C37.6211 41.5742 36.3672 41 35 41C33.6328 41 32.1328 41.5391 30.4062 42.0312C28.6797 42.5234 26.7773 43 25 43C23.2227 43 21.3203 42.5234 19.5938 42.0312C17.8672 41.5391 16.3672 41 15 41C13.6328 41 12.3789 41.5742 10.9375 42.0625C9.49609 42.5508 7.88672 43 6 43C4.34375 43 3 41.6562 3 40C3 38.2773 3.45312 36.9258 3.9375 35.6875C4.42188 34.4492 5 33.332 5 32C5 30.668 4.4375 29.3906 3.9375 28.1562C3.4375 26.9219 3 25.7344 3 25C3 23.8398 3.41406 22.7031 3.90625 21.5625C4.39844 20.4219 5 19.3008 5 18C5 16.6992 4.42188 15.5781 3.9375 14.3125C3.45312 13.0469 3 11.668 3 10C3 8.34375 4.34375 7 6 7ZM10 11C8.35547 11 7 12.3555 7 14V36C7 37.6445 8.35547 39 10 39H40C41.6445 39 43 37.6445 43 36V14C43 12.3555 41.6445 11 40 11H10ZM10 13H40C40.5547 13 41 13.4453 41 14V36C41 36.5547 40.5547 37 40 37H10C9.44531 37 9 36.5547 9 36V14C9 13.4453 9.44531 13 10 13ZM25 15.1875C23.1055 15.1875 21.5938 16.6055 21.25 18.4062C19.4961 17.7891 17.4844 18.4297 16.5312 20.0937C15.582 21.7539 16.0586 23.8008 17.4688 25C16.0586 26.1992 15.582 28.2461 16.5312 29.9062C17.4844 31.5703 19.4961 32.2109 21.25 31.5937C21.5938 33.3945 23.1055 34.8125 25 34.8125C26.8945 34.8125 28.4062 33.3945 28.75 31.5937C30.5039 32.2109 32.5156 31.5703 33.4688 29.9062V29.875C34.3984 28.2187 33.9336 26.1914 32.5312 25C33.9414 23.8008 34.418 21.7539 33.4688 20.0937L33.4375 20.0312C32.4727 18.4102 30.4844 17.7969 28.75 18.4062C28.4062 16.6055 26.8945 15.1875 25 15.1875ZM25 17.1875C26.0469 17.1875 26.8906 18.0195 26.9062 19.0625C26.8789 19.0859 26.8125 19.2891 26.8125 19.6875V20.125L27.0938 20.4062C27.2617 20.5742 27.4492 20.6641 27.5 20.6875L28.0938 21.3125L28.8125 20.5937C29.0117 20.3945 28.9805 20.4453 29.0625 20.4062V20.375H29.0938C30.0156 19.8477 31.1875 20.1641 31.7188 21.0937C32.2461 22.0156 31.9297 23.1875 31 23.7187L30.9062 23.7812C30.8984 23.7852 30.8867 23.8086 30.875 23.8125C30.7891 23.8359 30.7148 23.8281 30.5625 23.9062L30 24.1875V26.1875H30.8125C30.8477 26.2031 30.9336 26.2148 31 26.25V26.2812C31.9297 26.8125 32.2461 27.9844 31.7188 28.9062C31.1875 29.8359 30.0156 30.1523 29.0938 29.625H29.0625V29.5937C29.1016 29.6133 28.9141 29.5078 28.8125 29.4062L28.0938 28.6875L27.5 29.3125C27.4492 29.3359 27.2617 29.4258 27.0938 29.5937L26.5938 30.0937L26.9062 30.75C26.8867 30.7109 26.9062 30.707 26.9062 30.9062C26.9062 31.9648 26.0586 32.8125 25 32.8125C23.9414 32.8125 23.0938 31.9648 23.0938 30.9062C23.1211 30.8516 23.1875 30.6719 23.1875 30.3125V29.875L22.9062 29.5937C22.7383 29.4258 22.5508 29.3359 22.5 29.3125L21.9062 28.6875L21.1875 29.4062C20.9883 29.6055 21.0195 29.5547 20.9375 29.5937V29.625H20.9062C19.9844 30.1523 18.8125 29.8359 18.2812 28.9062C17.7539 27.9844 18.0703 26.8125 19 26.2812L19.0938 26.2187L19.125 26.1875C19.2109 26.1641 19.2852 26.1719 19.4375 26.0937L20 25.8125V23.8125H19.1875C19.1523 23.7969 19.0664 23.7852 19 23.75V23.7187C18.0703 23.1875 17.7539 22.0156 18.2812 21.0937C18.8125 20.1641 19.9844 19.8477 20.9062 20.375H20.9375V20.4062C20.8984 20.3867 21.0859 20.4922 21.1875 20.5937L21.9062 21.3125L22.5 20.6875C22.5508 20.6641 22.7383 20.5742 22.9062 20.4062L23.4062 19.9062L23.0938 19.25C23.1133 19.2891 23.0938 19.293 23.0938 19.0937C23.0938 18.0352 23.9414 17.1875 25 17.1875ZM25 21C22.8008 21 21 22.8008 21 25C21 27.1992 22.8008 29 25 29C27.1992 29 29 27.1992 29 25C29 22.8008 27.1992 21 25 21ZM25 23C26.1172 23 27 23.8828 27 25C27 26.1172 26.1172 27 25 27C23.8828 27 23 26.1172 23 25C23 23.8828 23.8828 23 25 23Z" fill="#979797"/>
    </g>
    <defs>
        <clipPath id="clip0">
            <rect width="50" height="50" fill="white"/>
        </clipPath>
    </defs>
</svg>