<svg xmlns="http://www.w3.org/2000/svg" width="50" height="50" viewBox="0 0 50 50" fill="none">
    <path opacity="0.4" d="M21 17H17V24H21V17Z" fill="#FFD500"/>
    <path opacity="0.4" d="M33 26H29V33H33V26Z" fill="#FFD500"/>
    <path opacity="0.4" d="M12 26H8V33H12V26Z" fill="#FFD500"/>
    <path d="M14.5 1.48047L13.748 2.3418L3 14.625V46H24H26H47V14.625L35.5 1.48047L34.748 2.3418L25 13.4824L14.5 1.48047ZM14.5 4.51758L24 15.375V44H5V15.375L14.5 4.51758ZM35.5 4.51758L45 15.375V44H26V15.375L35.5 4.51758ZM7 17V18V24H13V17H7ZM16 17V18V24H22V17H16ZM28 17V18V24H34V17H28ZM37 17V18V24H43V17H37ZM9 19H11V22H9V19ZM18 19H20V22H18V19ZM30 19H32V22H30V19ZM39 19H41V22H39V19ZM7 26V27V33H13V26H7ZM16 26V27V33H22V26H16ZM28 26V27V33H34V26H28ZM37 26V27V33H43V26H37ZM9 28H11V31H9V28ZM18 28H20V31H18V28ZM30 28H32V31H30V28ZM39 28H41V31H39V28ZM7 35V36V42H13V35H7ZM16 35V36V42H22V35H16ZM28 35V36V42H34V35H28ZM37 35V36V42H43V35H37ZM9 37H11V40H9V37ZM18 37H20V40H18V37ZM30 37H32V40H30V37ZM39 37H41V40H39V37Z" fill="#979797"/>
</svg>