<svg xmlns="http://www.w3.org/2000/svg" width="50" height="50" viewBox="0 0 50 50" fill="none">
    <path opacity="0.4" d="M31 30H19V48H31V30Z" fill="#FFD500"/>
    <path d="M25 2.59375L24.2812 3.28125L1.28125 26.2812C0.882813 26.6797 0.882813 27.3203 1.28125 27.7188C1.67969 28.1172 2.32031 28.1172 2.71875 27.7188L4.0625 26.375C4.03125 26.5781 4 26.7891 4 27C4 28.1992 4.55859 29.2656 5.40625 30C4.55859 30.7344 4 31.8008 4 33C4 34.1992 4.55859 35.2656 5.40625 36C4.55859 36.7344 4 37.8008 4 39C4 40.1992 4.55859 41.2656 5.40625 42C4.55859 42.7344 4 43.8008 4 45C4 46.4883 4.84375 47.7812 6.0625 48.4688C6.08203 48.4922 6.10156 48.5117 6.125 48.5312C6.3125 48.832 6.64453 49.0078 7 49H43C43.3789 49.0078 43.7305 48.8047 43.9062 48.4688C45.1367 47.7852 46 46.5 46 45C46 43.8008 45.4414 42.7344 44.5938 42C45.4414 41.2656 46 40.1992 46 39C46 37.8008 45.4414 36.7344 44.5938 36C45.4414 35.2656 46 34.1992 46 33C46 31.8008 45.4414 30.7344 44.5938 30C45.4414 29.2656 46 28.1992 46 27C46 26.7891 45.9688 26.5781 45.9375 26.375L47.2812 27.7188C47.6797 28.1172 48.3203 28.1172 48.7188 27.7188C49.1172 27.3203 49.1172 26.6797 48.7188 26.2812L25.7188 3.28125L25 2.59375ZM25 5.4375L30.5625 11H19.4375L25 5.4375ZM32.4688 12.9688C32.4883 12.9688 32.5117 12.9688 32.5312 12.9688L36.5625 17H13.4375L17.4375 13H32.2812C32.3438 12.9961 32.4062 12.9844 32.4688 12.9688ZM11.4375 19H11.4688C11.4805 19 11.4883 19 11.5 19H38.5625L42.5625 23H7.4375L11.4375 19ZM8 25C9.11719 25 10 25.8828 10 27C10 28.1172 9.11719 29 8 29C6.88281 29 6 28.1172 6 27C6 25.8828 6.88281 25 8 25ZM11.4375 25H38.5625C38.2148 25.5938 38 26.2656 38 27C38 27.7344 38.2148 28.4062 38.5625 29H11.4375C11.7852 28.4062 12 27.7344 12 27C12 26.2656 11.7852 25.5938 11.4375 25ZM42 25C43.1172 25 44 25.8828 44 27C44 28.1172 43.1172 29 42 29C40.8828 29 40 28.1172 40 27C40 25.8828 40.8828 25 42 25ZM8 31C9.11719 31 10 31.8828 10 33C10 34.1172 9.11719 35 8 35C6.88281 35 6 34.1172 6 33C6 31.8828 6.88281 31 8 31ZM11.4375 31H18V35H11.4062C11.7656 34.4102 12 33.7383 12 33C12 32.2656 11.7852 31.5938 11.4375 31ZM20 31H30V35.5312C29.8672 35.8086 29.8672 36.1289 30 36.4062V41.5312C29.8672 41.8086 29.8672 42.1289 30 42.4062V47H20V42.1875C20 42.1562 20 42.125 20 42.0938C20.0078 42.0195 20.0078 41.9492 20 41.875V36.1875C20.0273 36.0547 20.0273 35.9141 20 35.7812V31ZM32 31H38.5625C38.2148 31.5938 38 32.2656 38 33C38 33.7344 38.2148 34.4062 38.5625 35H32V31ZM42 31C43.1172 31 44 31.8828 44 33C44 34.1172 43.1172 35 42 35C40.8828 35 40 34.1172 40 33C40 31.8828 40.8828 31 42 31ZM8 37C9.11719 37 10 37.8828 10 39C10 40.1172 9.11719 41 8 41C6.88281 41 6 40.1172 6 39C6 37.8828 6.88281 37 8 37ZM11.4062 37H18V41H11.4375C11.7852 40.4062 12 39.7344 12 39C12 38.2617 11.7656 37.5898 11.4062 37ZM32 37H38.5625C38.2148 37.5938 38 38.2656 38 39C38 39.7344 38.2148 40.4062 38.5625 41H32V37ZM42 37C43.1172 37 44 37.8828 44 39C44 40.1172 43.1172 41 42 41C40.8828 41 40 40.1172 40 39C40 37.8828 40.8828 37 42 37ZM8 43C9.11719 43 10 43.8828 10 45C10 46.1172 9.11719 47 8 47C6.88281 47 6 46.1172 6 45C6 43.8828 6.88281 43 8 43ZM11.4375 43H18V47H11.4375C11.7852 46.4062 12 45.7344 12 45C12 44.2656 11.7852 43.5938 11.4375 43ZM32 43H38.5625C38.2148 43.5938 38 44.2656 38 45C38 45.7344 38.2148 46.4062 38.5625 47H32V43ZM42 43C43.1172 43 44 43.8828 44 45C44 46.1172 43.1172 47 42 47C40.8828 47 40 46.1172 40 45C40 43.8828 40.8828 43 42 43Z" fill="#979797"/>
</svg>