<svg xmlns="http://www.w3.org/2000/svg" width="50" height="50" viewBox="0 0 50 50" fill="none">
    <path opacity="0.4" d="M30 28H20V45H30V28Z" fill="#FFD500"/>
    <path d="M24.9629 1.05469C24.753 1.06193 24.5507 1.13505 24.3848 1.26367L1.38476 19.2109C1.17548 19.3741 1.0396 19.6137 1.007 19.8771C0.974403 20.1404 1.04776 20.406 1.21093 20.6152C1.3741 20.8245 1.61372 20.9604 1.87708 20.993C2.14043 21.0256 2.40595 20.9522 2.61522 20.7891L3.99999 19.709V46C4.00002 46.2652 4.10538 46.5196 4.29291 46.7071C4.48044 46.8946 4.73478 47 4.99999 47H18.832C18.94 47.0179 19.0502 47.0179 19.1582 47H30.832C30.94 47.0179 31.0502 47.0179 31.1582 47H45C45.2652 47 45.5195 46.8946 45.7071 46.7071C45.8946 46.5196 46 46.2652 46 46V19.709L47.3848 20.7891C47.4884 20.8699 47.6069 20.9295 47.7336 20.9645C47.8602 20.9995 47.9925 21.0092 48.1229 20.993C48.2533 20.9769 48.3793 20.9352 48.4936 20.8704C48.6079 20.8056 48.7083 20.7189 48.7891 20.6153C48.8699 20.5117 48.9295 20.3931 48.9645 20.2665C48.9995 20.1398 49.0092 20.0075 48.993 19.8771C48.9769 19.7467 48.9352 19.6207 48.8704 19.5064C48.8056 19.3921 48.7189 19.2917 48.6152 19.2109L41 13.2695C40.9999 13.0615 41 12.8206 41 12.5078C40.9998 11.7763 41 10.8097 41 9.84571C40.9999 7.91762 41 6 41 6C41 5.73479 40.8946 5.48046 40.7071 5.29293C40.5195 5.10539 40.2652 5.00003 40 5H36C35.7348 5.00003 35.4804 5.10539 35.2929 5.29293C35.1054 5.48046 35 5.73479 35 6C35 6 35.0006 7.15707 35 8.31446C34.9999 8.41386 35.0001 8.48922 35 8.58789L25.6152 1.26367C25.4292 1.11939 25.1982 1.04539 24.9629 1.05469ZM25 3.32227L35.3789 11.4199C35.5169 11.5279 35.6808 11.5977 35.8542 11.6224C36.0277 11.647 36.2046 11.6257 36.3672 11.5605C36.3672 11.5605 36.9863 10.7619 36.9863 10.7617C36.9863 10.7616 36.9914 10.7084 36.9922 10.6973C36.9937 10.675 36.9938 10.6688 36.9941 10.6621C36.9946 10.6487 36.9959 10.642 36.9961 10.6348C36.9963 10.6203 36.9959 10.6063 36.9961 10.5879C36.9964 10.551 36.9958 10.4997 36.9961 10.4355C36.9966 10.3073 36.9976 10.1257 36.998 9.90821C36.9986 9.47313 36.9997 8.89546 37 8.31641C37.0003 7.65826 36.9999 7.44548 37 7H39C39 7.6423 38.9999 8.41892 39 9.84571C39.0001 10.8098 38.9998 11.7762 39 12.5078C39.0001 12.8736 38.9999 13.1799 39 13.3984C39.0001 13.617 39.0009 13.681 39.0019 13.7695C39.0036 13.9197 39.0391 14.0675 39.1057 14.2021C39.1723 14.3367 39.2683 14.4545 39.3867 14.5469L44 18.1465V45H32V26H18V45H5.99999V18.1484L25 3.32227ZM20 28H30V45H20V28ZM27 35C26.7348 35 26.4804 35.1054 26.2929 35.2929C26.1053 35.4804 26 35.7348 26 36C26 36.2652 26.1053 36.5196 26.2929 36.7071C26.4804 36.8946 26.7348 37 27 37C27.2652 37 27.5196 36.8946 27.7071 36.7071C27.8946 36.5196 28 36.2652 28 36C28 35.7348 27.8946 35.4804 27.7071 35.2929C27.5196 35.1054 27.2652 35 27 35Z" fill="#979797"/>
</svg>