<svg xmlns="http://www.w3.org/2000/svg" width="50" height="50" viewBox="0 0 50 50" fill="none">
    <path opacity="0.4" d="M24 16L21.5 13L15.5 19V24.5L27 25L30 22.5L27.5 19.5L25.5 21L22.5 20L24 16Z" fill="#FFD500"/>
    <path d="M35.9141 4.00195C35.1212 4.00197 34.3293 4.30082 33.7305 4.90039L24.0098 14.6211L21.6875 12.293C21.5928 12.1982 21.48 12.1235 21.3559 12.0732C21.2318 12.0228 21.0988 11.9979 20.9648 12C20.7044 12.0036 20.4556 12.1087 20.2715 12.293C20.2715 12.293 19.5188 13.0465 16.5117 16.0605C14.8573 17.7183 14.1565 19.5638 14.0254 21.2207C13.9443 22.2453 14.0778 23.1778 14.2852 24H4V26H46V24H29.4551C29.7633 23.6912 30.707 22.7461 30.707 22.7461C30.8939 22.5586 30.9988 22.3047 30.9988 22.04C30.9988 21.7753 30.8939 21.5214 30.707 21.334L28.375 18.9941L38.0996 9.26953C39.2968 8.07086 39.2968 6.09906 38.0996 4.90039C37.5004 4.30117 36.707 4.00193 35.9141 4.00195ZM35.916 5.98828C36.1929 5.9883 36.4688 6.09767 36.6855 6.31445C37.1183 6.74778 37.1183 7.42214 36.6855 7.85547L28.3613 16.1797L26.8203 14.6387L35.1445 6.31445C35.1452 6.31445 35.1458 6.31445 35.1465 6.31445C35.3626 6.09802 35.6392 5.98826 35.916 5.98828ZM20.9785 14.416L22.5957 16.0352L21.9043 16.7266C20.7059 17.925 20.7071 19.898 21.9062 21.0957C23.1046 22.2926 25.0774 22.2932 26.2754 21.0938L26.959 20.4102L28.5879 22.041C28.3494 22.2799 27.8649 22.7638 26.6309 24H16.3535C16.1121 23.2416 15.9418 22.3338 16.0176 21.377C16.1154 20.1406 16.5861 18.8169 17.9277 17.4727C20.3681 15.0266 20.7053 14.6897 20.9785 14.416ZM25.4062 16.0527L26.9473 17.5938L24.8594 19.6816C24.4273 20.1142 23.752 20.1128 23.3184 19.6797C22.8855 19.2474 22.8848 18.5742 23.3184 18.1406L25.4062 16.0527ZM4 29V31H7C7.552 31 8 30.553 8 30C8 29.447 7.552 29 7 29H4ZM13 29C12.8675 28.9981 12.7359 29.0226 12.613 29.072C12.49 29.1214 12.3781 29.1948 12.2837 29.2878C12.1893 29.3809 12.1144 29.4918 12.0632 29.614C12.0121 29.7363 11.9858 29.8675 11.9858 30C11.9858 30.1325 12.0121 30.2637 12.0632 30.386C12.1144 30.5082 12.1893 30.6191 12.2837 30.7122C12.3781 30.8052 12.49 30.8786 12.613 30.928C12.7359 30.9774 12.8675 31.0019 13 31H17C17.1325 31.0019 17.2641 30.9774 17.387 30.928C17.51 30.8786 17.6219 30.8052 17.7163 30.7122C17.8107 30.6191 17.8856 30.5082 17.9368 30.386C17.9879 30.2637 18.0142 30.1325 18.0142 30C18.0142 29.8675 17.9879 29.7363 17.9368 29.614C17.8856 29.4918 17.8107 29.3809 17.7163 29.2878C17.6219 29.1948 17.51 29.1214 17.387 29.072C17.2641 29.0226 17.1325 28.9981 17 29H13ZM23 29C22.8675 28.9981 22.7359 29.0226 22.613 29.072C22.49 29.1214 22.3781 29.1948 22.2837 29.2878C22.1893 29.3809 22.1144 29.4918 22.0632 29.614C22.0121 29.7363 21.9858 29.8675 21.9858 30C21.9858 30.1325 22.0121 30.2637 22.0632 30.386C22.1144 30.5082 22.1893 30.6191 22.2837 30.7122C22.3781 30.8052 22.49 30.8786 22.613 30.928C22.7359 30.9774 22.8675 31.0019 23 31H27C27.1325 31.0019 27.2641 30.9774 27.387 30.928C27.51 30.8786 27.6219 30.8052 27.7163 30.7122C27.8107 30.6191 27.8856 30.5082 27.9368 30.386C27.9879 30.2637 28.0142 30.1325 28.0142 30C28.0142 29.8675 27.9879 29.7363 27.9368 29.614C27.8856 29.4918 27.8107 29.3809 27.7163 29.2878C27.6219 29.1948 27.51 29.1214 27.387 29.072C27.2641 29.0226 27.1325 28.9981 27 29H23ZM33 29C32.8675 28.9981 32.7359 29.0226 32.613 29.072C32.49 29.1214 32.3781 29.1948 32.2837 29.2878C32.1893 29.3809 32.1144 29.4918 32.0632 29.614C32.0121 29.7363 31.9858 29.8675 31.9858 30C31.9858 30.1325 32.0121 30.2637 32.0632 30.386C32.1144 30.5082 32.1893 30.6191 32.2837 30.7122C32.3781 30.8052 32.49 30.8786 32.613 30.928C32.7359 30.9774 32.8675 31.0019 33 31H37C37.1325 31.0019 37.2641 30.9774 37.387 30.928C37.51 30.8786 37.6219 30.8052 37.7163 30.7122C37.8107 30.6191 37.8856 30.5082 37.9368 30.386C37.9879 30.2637 38.0142 30.1325 38.0142 30C38.0142 29.8675 37.9879 29.7363 37.9368 29.614C37.8856 29.4918 37.8107 29.3809 37.7163 29.2878C37.6219 29.1948 37.51 29.1214 37.387 29.072C37.2641 29.0226 37.1325 28.9981 37 29H33ZM43 29C42.448 29 42 29.447 42 30C42 30.553 42.448 31 43 31H46V29H43ZM8 34C7.86749 33.9981 7.73593 34.0226 7.61296 34.072C7.48999 34.1214 7.37807 34.1948 7.2837 34.2878C7.18933 34.3809 7.11439 34.4918 7.06324 34.614C7.0121 34.7363 6.98576 34.8675 6.98576 35C6.98576 35.1325 7.0121 35.2637 7.06324 35.386C7.11439 35.5082 7.18933 35.6191 7.2837 35.7122C7.37807 35.8052 7.48999 35.8786 7.61296 35.928C7.73593 35.9774 7.86749 36.0019 8 36H12C12.1325 36.0019 12.2641 35.9774 12.387 35.928C12.51 35.8786 12.6219 35.8052 12.7163 35.7122C12.8107 35.6191 12.8856 35.5082 12.9368 35.386C12.9879 35.2637 13.0142 35.1325 13.0142 35C13.0142 34.8675 12.9879 34.7363 12.9368 34.614C12.8856 34.4918 12.8107 34.3809 12.7163 34.2878C12.6219 34.1948 12.51 34.1214 12.387 34.072C12.2641 34.0226 12.1325 33.9981 12 34H8ZM18 34C17.8675 33.9981 17.7359 34.0226 17.613 34.072C17.49 34.1214 17.3781 34.1948 17.2837 34.2878C17.1893 34.3809 17.1144 34.4918 17.0632 34.614C17.0121 34.7363 16.9858 34.8675 16.9858 35C16.9858 35.1325 17.0121 35.2637 17.0632 35.386C17.1144 35.5082 17.1893 35.6191 17.2837 35.7122C17.3781 35.8052 17.49 35.8786 17.613 35.928C17.7359 35.9774 17.8675 36.0019 18 36H22C22.1325 36.0019 22.2641 35.9774 22.387 35.928C22.51 35.8786 22.6219 35.8052 22.7163 35.7122C22.8107 35.6191 22.8856 35.5082 22.9368 35.386C22.9879 35.2637 23.0142 35.1325 23.0142 35C23.0142 34.8675 22.9879 34.7363 22.9368 34.614C22.8856 34.4918 22.8107 34.3809 22.7163 34.2878C22.6219 34.1948 22.51 34.1214 22.387 34.072C22.2641 34.0226 22.1325 33.9981 22 34H18ZM28 34C27.8675 33.9981 27.7359 34.0226 27.613 34.072C27.49 34.1214 27.3781 34.1948 27.2837 34.2878C27.1893 34.3809 27.1144 34.4918 27.0632 34.614C27.0121 34.7363 26.9858 34.8675 26.9858 35C26.9858 35.1325 27.0121 35.2637 27.0632 35.386C27.1144 35.5082 27.1893 35.6191 27.2837 35.7122C27.3781 35.8052 27.49 35.8786 27.613 35.928C27.7359 35.9774 27.8675 36.0019 28 36H32C32.1325 36.0019 32.2641 35.9774 32.387 35.928C32.51 35.8786 32.6219 35.8052 32.7163 35.7122C32.8107 35.6191 32.8856 35.5082 32.9368 35.386C32.9879 35.2637 33.0142 35.1325 33.0142 35C33.0142 34.8675 32.9879 34.7363 32.9368 34.614C32.8856 34.4918 32.8107 34.3809 32.7163 34.2878C32.6219 34.1948 32.51 34.1214 32.387 34.072C32.2641 34.0226 32.1325 33.9981 32 34H28ZM38 34C37.8675 33.9981 37.7359 34.0226 37.613 34.072C37.49 34.1214 37.3781 34.1948 37.2837 34.2878C37.1893 34.3809 37.1144 34.4918 37.0632 34.614C37.0121 34.7363 36.9858 34.8675 36.9858 35C36.9858 35.1325 37.0121 35.2637 37.0632 35.386C37.1144 35.5082 37.1893 35.6191 37.2837 35.7122C37.3781 35.8052 37.49 35.8786 37.613 35.928C37.7359 35.9774 37.8675 36.0019 38 36H42C42.1325 36.0019 42.2641 35.9774 42.387 35.928C42.51 35.8786 42.6219 35.8052 42.7163 35.7122C42.8107 35.6191 42.8856 35.5082 42.9368 35.386C42.9879 35.2637 43.0142 35.1325 43.0142 35C43.0142 34.8675 42.9879 34.7363 42.9368 34.614C42.8856 34.4918 42.8107 34.3809 42.7163 34.2878C42.6219 34.1948 42.51 34.1214 42.387 34.072C42.2641 34.0226 42.1325 33.9981 42 34H38ZM4 39V41H7C7.552 41 8 40.553 8 40C8 39.447 7.552 39 7 39H4ZM13 39C12.8675 38.9981 12.7359 39.0226 12.613 39.072C12.49 39.1214 12.3781 39.1948 12.2837 39.2878C12.1893 39.3809 12.1144 39.4918 12.0632 39.614C12.0121 39.7363 11.9858 39.8675 11.9858 40C11.9858 40.1325 12.0121 40.2637 12.0632 40.386C12.1144 40.5082 12.1893 40.6191 12.2837 40.7122C12.3781 40.8052 12.49 40.8786 12.613 40.928C12.7359 40.9774 12.8675 41.0019 13 41H17C17.1325 41.0019 17.2641 40.9774 17.387 40.928C17.51 40.8786 17.6219 40.8052 17.7163 40.7122C17.8107 40.6191 17.8856 40.5082 17.9368 40.386C17.9879 40.2637 18.0142 40.1325 18.0142 40C18.0142 39.8675 17.9879 39.7363 17.9368 39.614C17.8856 39.4918 17.8107 39.3809 17.7163 39.2878C17.6219 39.1948 17.51 39.1214 17.387 39.072C17.2641 39.0226 17.1325 38.9981 17 39H13ZM23 39C22.8675 38.9981 22.7359 39.0226 22.613 39.072C22.49 39.1214 22.3781 39.1948 22.2837 39.2878C22.1893 39.3809 22.1144 39.4918 22.0632 39.614C22.0121 39.7363 21.9858 39.8675 21.9858 40C21.9858 40.1325 22.0121 40.2637 22.0632 40.386C22.1144 40.5082 22.1893 40.6191 22.2837 40.7122C22.3781 40.8052 22.49 40.8786 22.613 40.928C22.7359 40.9774 22.8675 41.0019 23 41H27C27.1325 41.0019 27.2641 40.9774 27.387 40.928C27.51 40.8786 27.6219 40.8052 27.7163 40.7122C27.8107 40.6191 27.8856 40.5082 27.9368 40.386C27.9879 40.2637 28.0142 40.1325 28.0142 40C28.0142 39.8675 27.9879 39.7363 27.9368 39.614C27.8856 39.4918 27.8107 39.3809 27.7163 39.2878C27.6219 39.1948 27.51 39.1214 27.387 39.072C27.2641 39.0226 27.1325 38.9981 27 39H23ZM33 39C32.8675 38.9981 32.7359 39.0226 32.613 39.072C32.49 39.1214 32.3781 39.1948 32.2837 39.2878C32.1893 39.3809 32.1144 39.4918 32.0632 39.614C32.0121 39.7363 31.9858 39.8675 31.9858 40C31.9858 40.1325 32.0121 40.2637 32.0632 40.386C32.1144 40.5082 32.1893 40.6191 32.2837 40.7122C32.3781 40.8052 32.49 40.8786 32.613 40.928C32.7359 40.9774 32.8675 41.0019 33 41H37C37.1325 41.0019 37.2641 40.9774 37.387 40.928C37.51 40.8786 37.6219 40.8052 37.7163 40.7122C37.8107 40.6191 37.8856 40.5082 37.9368 40.386C37.9879 40.2637 38.0142 40.1325 38.0142 40C38.0142 39.8675 37.9879 39.7363 37.9368 39.614C37.8856 39.4918 37.8107 39.3809 37.7163 39.2878C37.6219 39.1948 37.51 39.1214 37.387 39.072C37.2641 39.0226 37.1325 38.9981 37 39H33ZM43 39C42.448 39 42 39.447 42 40C42 40.553 42.448 41 43 41H46V39H43ZM8 44C7.86749 43.9981 7.73593 44.0226 7.61296 44.072C7.48999 44.1214 7.37807 44.1948 7.2837 44.2878C7.18933 44.3809 7.11439 44.4918 7.06324 44.614C7.0121 44.7363 6.98576 44.8675 6.98576 45C6.98576 45.1325 7.0121 45.2637 7.06324 45.386C7.11439 45.5082 7.18933 45.6191 7.2837 45.7122C7.37807 45.8052 7.48999 45.8786 7.61296 45.928C7.73593 45.9774 7.86749 46.0019 8 46H12C12.1325 46.0019 12.2641 45.9774 12.387 45.928C12.51 45.8786 12.6219 45.8052 12.7163 45.7122C12.8107 45.6191 12.8856 45.5082 12.9368 45.386C12.9879 45.2637 13.0142 45.1325 13.0142 45C13.0142 44.8675 12.9879 44.7363 12.9368 44.614C12.8856 44.4918 12.8107 44.3809 12.7163 44.2878C12.6219 44.1948 12.51 44.1214 12.387 44.072C12.2641 44.0226 12.1325 43.9981 12 44H8ZM18 44C17.8675 43.9981 17.7359 44.0226 17.613 44.072C17.49 44.1214 17.3781 44.1948 17.2837 44.2878C17.1893 44.3809 17.1144 44.4918 17.0632 44.614C17.0121 44.7363 16.9858 44.8675 16.9858 45C16.9858 45.1325 17.0121 45.2637 17.0632 45.386C17.1144 45.5082 17.1893 45.6191 17.2837 45.7122C17.3781 45.8052 17.49 45.8786 17.613 45.928C17.7359 45.9774 17.8675 46.0019 18 46H22C22.1325 46.0019 22.2641 45.9774 22.387 45.928C22.51 45.8786 22.6219 45.8052 22.7163 45.7122C22.8107 45.6191 22.8856 45.5082 22.9368 45.386C22.9879 45.2637 23.0142 45.1325 23.0142 45C23.0142 44.8675 22.9879 44.7363 22.9368 44.614C22.8856 44.4918 22.8107 44.3809 22.7163 44.2878C22.6219 44.1948 22.51 44.1214 22.387 44.072C22.2641 44.0226 22.1325 43.9981 22 44H18ZM28 44C27.8675 43.9981 27.7359 44.0226 27.613 44.072C27.49 44.1214 27.3781 44.1948 27.2837 44.2878C27.1893 44.3809 27.1144 44.4918 27.0632 44.614C27.0121 44.7363 26.9858 44.8675 26.9858 45C26.9858 45.1325 27.0121 45.2637 27.0632 45.386C27.1144 45.5082 27.1893 45.6191 27.2837 45.7122C27.3781 45.8052 27.49 45.8786 27.613 45.928C27.7359 45.9774 27.8675 46.0019 28 46H32C32.1325 46.0019 32.2641 45.9774 32.387 45.928C32.51 45.8786 32.6219 45.8052 32.7163 45.7122C32.8107 45.6191 32.8856 45.5082 32.9368 45.386C32.9879 45.2637 33.0142 45.1325 33.0142 45C33.0142 44.8675 32.9879 44.7363 32.9368 44.614C32.8856 44.4918 32.8107 44.3809 32.7163 44.2878C32.6219 44.1948 32.51 44.1214 32.387 44.072C32.2641 44.0226 32.1325 43.9981 32 44H28ZM38 44C37.8675 43.9981 37.7359 44.0226 37.613 44.072C37.49 44.1214 37.3781 44.1948 37.2837 44.2878C37.1893 44.3809 37.1144 44.4918 37.0632 44.614C37.0121 44.7363 36.9858 44.8675 36.9858 45C36.9858 45.1325 37.0121 45.2637 37.0632 45.386C37.1144 45.5082 37.1893 45.6191 37.2837 45.7122C37.3781 45.8052 37.49 45.8786 37.613 45.928C37.7359 45.9774 37.8675 46.0019 38 46H42C42.1325 46.0019 42.2641 45.9774 42.387 45.928C42.51 45.8786 42.6219 45.8052 42.7163 45.7122C42.8107 45.6191 42.8856 45.5082 42.9368 45.386C42.9879 45.2637 43.0142 45.1325 43.0142 45C43.0142 44.8675 42.9879 44.7363 42.9368 44.614C42.8856 44.4918 42.8107 44.3809 42.7163 44.2878C42.6219 44.1948 42.51 44.1214 42.387 44.072C42.2641 44.0226 42.1325 43.9981 42 44H38Z" fill="#979797"/>
 </svg>