<svg width="14" height="8" viewBox="0 0 14 8" fill="none" xmlns="http://www.w3.org/2000/svg">
<path d="M7.70715 7.29315C7.51962 7.48062 7.26532 7.58594 7.00015 7.58594C6.73499 7.58594 6.48068 7.48062 6.29315 7.29315L0.70715 1.70715C0.567341 1.5673 0.472135 1.38914 0.433567 1.19518C0.395 1.00123 0.414803 0.800196 0.490473 0.617496C0.566143 0.434797 0.694283 0.278634 0.858692 0.168749C1.0231 0.0588651 1.2164 0.000193596 1.41415 0.000151157L12.5862 0.000151157C12.7839 0.000193596 12.9772 0.0588651 13.1416 0.168749C13.306 0.278634 13.4342 0.434797 13.5098 0.617496C13.5855 0.800196 13.6053 1.00123 13.5667 1.19518C13.5282 1.38914 13.433 1.5673 13.2932 1.70715L7.70715 7.29315Z" fill="#A8A8A8"/>
</svg>
