<svg width="31" height="24" viewBox="0 0 31 24" fill="none" xmlns="http://www.w3.org/2000/svg">
<path d="M15.5 15.5C14.8129 15.4347 14.1501 15.2119 13.563 14.849L0 7.75V21.312C0.00131993 21.8256 0.205925 22.3178 0.569085 22.6809C0.932245 23.0441 1.42442 23.2487 1.938 23.25H29.063C29.5764 23.2484 30.0683 23.0437 30.4313 22.6806C30.7942 22.3174 30.9987 21.8254 31 21.312V7.75L17.438 14.85C16.8505 15.2127 16.1874 15.4351 15.5 15.5ZM29.063 0H1.938C1.42442 0.00131993 0.932245 0.205925 0.569085 0.569085C0.205925 0.932245 0.00131993 1.42442 0 1.938V3.406L15.5 11.553L31 3.406V1.938C30.9987 1.42459 30.7942 0.932568 30.4313 0.569437C30.0683 0.206305 29.5764 0.00158373 29.063 0Z" fill="#D54D51"/>
</svg>
