<svg width="31" height="31" viewBox="0 0 31 31" fill="none" xmlns="http://www.w3.org/2000/svg">
<path d="M30.95 23.4313L29.542 29.5313C29.448 29.9492 29.2142 30.3226 28.8793 30.5897C28.5444 30.8568 28.1284 31.0016 27.7 31.0003C20.3559 30.9926 13.3147 28.0718 8.12164 22.8787C2.92854 17.6856 0.0076953 10.6444 1.85348e-05 3.30029C-0.00188158 2.8721 0.142364 2.45608 0.408919 2.12098C0.675473 1.78588 1.04838 1.55175 1.46602 1.45729L7.56902 0.0492852C8.00169 -0.0491372 8.45516 0.00697696 8.85078 0.207896C9.24641 0.408814 9.55924 0.741865 9.73502 1.14929L12.552 7.71829C12.7114 8.09564 12.7445 8.51439 12.6465 8.91211C12.5484 9.30982 12.3245 9.66521 12.008 9.92528L8.74802 12.5423C10.8118 16.7397 14.2076 20.1355 18.405 22.1993L21.074 18.9423C21.3326 18.6235 21.6882 18.3979 22.0868 18.2999C22.4854 18.2019 22.9051 18.2368 23.282 18.3993L29.851 21.2153C30.2489 21.4165 30.5709 21.7411 30.769 22.1405C30.9671 22.54 31.0306 22.9928 30.95 23.4313Z" fill="#D54D51"/>
</svg>
