<svg width="45" height="34" viewBox="0 0 45 34" fill="none" xmlns="http://www.w3.org/2000/svg">
<path d="M22.2669 22.4859C21.2982 22.3938 20.3637 22.0797 19.5359 21.5679L0.418945 11.5619V30.6779C0.421056 31.4016 0.709463 32.095 1.22117 32.6067C1.73287 33.1184 2.42629 33.4068 3.14995 33.4089H41.3829C42.1075 33.4081 42.8022 33.1203 43.3149 32.6085C43.8277 32.0966 44.1168 31.4025 44.1189 30.6779V11.5619L24.9979 21.5679C24.1702 22.0797 23.2357 22.3938 22.2669 22.4859ZM41.3829 0.637939H3.14995C2.42629 0.64005 1.73287 0.928457 1.22117 1.44016C0.709463 1.95187 0.421056 2.64528 0.418945 3.36894L0.418945 5.43794L22.2669 16.9229L44.1189 5.43794V3.36894C44.1168 2.64442 43.8277 1.95025 43.3149 1.4384C42.8022 0.926554 42.1075 0.63873 41.3829 0.637939Z" fill="#FFD500"/>
</svg>
