<svg width="44" height="44" viewBox="0 0 44 44" fill="none" xmlns="http://www.w3.org/2000/svg">
<path d="M43.625 33.0261L41.641 41.6261C41.5078 42.2152 41.1775 42.7412 40.7047 43.1171C40.2319 43.4929 39.645 43.6961 39.041 43.6931C28.6903 43.6815 18.7668 39.5645 11.4477 32.2454C4.12866 24.9263 0.0116834 15.0028 3.76189e-05 4.6521C-0.00317903 4.04808 0.199974 3.46107 0.575865 2.98825C0.951756 2.51543 1.47784 2.18516 2.06704 2.0521L10.667 0.0681029C11.2764 -0.0709484 11.9151 0.00749245 12.4727 0.289839C13.0303 0.572186 13.4715 1.04065 13.72 1.6141L17.69 10.8731C17.9159 11.4048 17.9634 11.9953 17.8253 12.5562C17.6872 13.1171 17.371 13.6181 16.924 13.9841L12.329 17.6731C15.2383 23.5903 20.0256 28.3773 25.943 31.2861L29.7 26.6941C30.0645 26.2448 30.5657 25.9269 31.1274 25.7886C31.6892 25.6503 32.2807 25.6993 32.812 25.9281L42.071 29.8971C42.6339 30.1802 43.0896 30.6382 43.3698 31.2025C43.6501 31.7667 43.7396 32.4066 43.625 33.0261Z" fill="#FFD500"/>
</svg>
