<?xml version="1.0" encoding="UTF-8"?>
<svg xmlns="http://www.w3.org/2000/svg" width="79" height="83" viewBox="0 0 79 83" fill="none">
  <path d="M31.1169 82.0362V73.1182C34.2529 74.0732 36.995 73.6182 38.887 70.7922C39.5795 69.8403 39.9572 68.6958 39.9672 67.5187C39.9773 66.3416 39.6191 65.1907 38.9429 64.2272C37.0689 61.3542 34.336 60.7692 31.106 61.8272V52.8602H32.345C35.377 52.8602 38.4089 52.8812 41.4449 52.8342C41.6882 52.8412 41.9302 52.7959 42.1545 52.7014C42.3788 52.6069 42.5801 52.4653 42.7449 52.2862C42.9009 51.9792 42.6189 51.3242 42.3519 50.9482C42.0002 50.5149 41.7378 50.0162 41.5797 49.4809C41.4216 48.9457 41.3711 48.3844 41.431 47.8295C41.4908 47.2746 41.66 46.7371 41.9286 46.2479C42.1972 45.7587 42.56 45.3274 42.996 44.9791C43.4321 44.6307 43.9327 44.3721 44.4692 44.2182C45.0056 44.0643 45.5673 44.0181 46.1217 44.0822C46.6761 44.1464 47.2123 44.3196 47.6995 44.592C48.1866 44.8644 48.615 45.2305 48.96 45.6692C49.5137 46.4077 49.8185 47.3031 49.8301 48.2261C49.8418 49.1491 49.5598 50.0519 49.025 50.8042C48.7748 51.2993 48.5919 51.8256 48.481 52.3692C48.9981 52.595 49.5428 52.7513 50.101 52.8342C53.02 52.8802 55.9399 52.8562 58.8589 52.8562H60.137C60.163 53.3462 60.2 53.7092 60.2 54.0732C60.2033 62.1579 60.2033 70.2428 60.2 78.3282C60.2 80.9402 59.1169 82.0282 56.5289 82.0282C48.4816 82.0315 40.4339 82.0315 32.3859 82.0282L31.1169 82.0362Z" fill="#260E55"></path>
  <path d="M0.000976562 52.9248H8.95297C7.86197 56.0538 8.44199 58.6948 11.115 60.6518C12.1075 61.3798 13.3049 61.7749 14.5358 61.7807C15.7666 61.7864 16.9677 61.4025 17.967 60.6838C20.677 58.7578 21.246 56.1068 20.204 52.9458H29.124V54.1458C29.124 57.1788 29.102 60.2108 29.149 63.2458C29.1428 63.4918 29.1885 63.7364 29.2833 63.9635C29.3781 64.1906 29.5197 64.3952 29.699 64.5638C29.986 64.7308 30.668 64.4758 31.032 64.2108C31.6505 63.6918 32.4045 63.3603 33.2051 63.2556C34.0058 63.1508 34.8197 63.277 35.551 63.6194C36.2822 63.9618 36.9004 64.506 37.3327 65.188C37.765 65.87 37.9933 66.6614 37.9908 67.4688C37.9883 68.2763 37.7551 69.0662 37.3187 69.7455C36.8822 70.4249 36.2606 70.9653 35.5272 71.3031C34.7938 71.641 33.9792 71.7622 33.1792 71.6525C32.3792 71.5427 31.6273 71.2066 31.012 70.6838C30.673 70.4288 30.007 70.1768 29.759 70.3368C29.575 70.4967 29.4265 70.6934 29.3232 70.9142C29.2198 71.1351 29.1639 71.3751 29.159 71.6188C29.108 74.6508 29.131 77.6828 29.13 80.7188C29.13 81.1188 29.13 81.5188 29.13 82.0408H27.782C19.77 82.0408 11.7583 82.0408 3.74698 82.0408C1.07498 82.0408 0.00299072 80.9628 0.00299072 78.2998C0.00299072 70.3258 0.00299072 62.3518 0.00299072 54.3778L0.000976562 52.9248Z" fill="#260E55"></path>
  <path d="M29.058 21.8218V30.7658C25.814 29.7068 23.086 30.3138 21.234 33.1968C20.5648 34.1652 20.2148 35.3183 20.2328 36.4953C20.2507 37.6723 20.6357 38.8142 21.334 39.7618C23.209 42.5308 25.893 43.0268 29.045 42.0618V50.9838H27.809C24.776 50.9838 21.743 50.9618 18.709 51.0028C18.279 51.0088 17.596 51.2188 17.491 51.5028C17.4483 51.7414 17.4553 51.9863 17.5117 52.2221C17.5682 52.4578 17.6728 52.6794 17.819 52.8728C18.4904 53.7152 18.8236 54.7776 18.7535 55.8526C18.6834 56.9275 18.2151 57.9377 17.44 58.6858C16.6663 59.412 15.6464 59.8185 14.5853 59.8235C13.5242 59.8285 12.5005 59.4317 11.72 58.7128C10.9285 57.9798 10.4434 56.9745 10.3622 55.8988C10.2809 54.823 10.6095 53.7564 11.282 52.9128C11.548 52.5358 11.821 51.8828 11.665 51.5678C11.5027 51.3868 11.303 51.2432 11.0797 51.1469C10.8565 51.0505 10.615 51.0038 10.372 51.0098C7.37798 50.9618 4.38199 50.9848 1.38599 50.9848H0.0650024C0.0390024 50.4848 0.000976562 50.0848 0.000976562 49.6908C0.000976562 41.6408 0.000976562 33.5908 0.000976562 25.5408C0.000976562 22.9008 1.09298 21.8258 3.76498 21.8248C11.7777 21.8248 19.7903 21.8248 27.803 21.8248L29.058 21.8218Z" fill="#260E55"></path>
  <path d="M38.04 16.302C41.349 13.967 44.555 11.702 47.764 9.44098C51.526 6.78831 55.2887 4.13698 59.052 1.48698C59.3861 1.194 59.7803 0.977543 60.2068 0.852752C60.6333 0.72796 61.0819 0.697839 61.5212 0.76451C61.9606 0.831181 62.3801 0.993036 62.7504 1.23874C63.1207 1.48444 63.4329 1.80806 63.665 2.18698C68.5537 9.08765 73.4267 15.9997 78.2841 22.923C78.3759 23.0818 78.4571 23.2464 78.527 23.416L71.301 28.516C70.207 25.169 68.093 23.191 64.501 23.487C63.3062 23.5458 62.1609 23.9821 61.2299 24.7333C60.2988 25.4844 59.6301 26.5116 59.32 27.667C58.352 30.704 59.5 33.073 62.099 34.995L54.816 40.146C54.466 39.679 54.129 39.253 53.816 38.81C52.151 36.458 50.516 34.086 48.816 31.762C48.6674 31.5488 48.477 31.368 48.2565 31.2305C48.0359 31.093 47.7899 31.0017 47.533 30.962C47.233 30.962 46.822 31.629 46.674 32.069C46.4578 32.8294 46.0324 33.5138 45.4462 34.0442C44.86 34.5745 44.1366 34.9296 43.3584 35.0689C42.5802 35.2082 41.7786 35.1261 41.0449 34.832C40.3111 34.5378 39.6747 34.0435 39.2081 33.4053C38.7416 32.7671 38.4637 32.0107 38.4061 31.2223C38.3485 30.4338 38.5136 29.6451 38.8824 28.9459C39.2513 28.2467 39.8091 27.6651 40.4924 27.2675C41.1756 26.8699 41.9569 26.6722 42.747 26.697C43.2932 26.6124 43.825 26.4522 44.327 26.221C44.2231 25.6656 44.0431 25.1272 43.7921 24.621C42.0611 22.088 40.2701 19.596 38.5031 17.086C38.3531 16.872 38.235 16.639 38.04 16.302Z" fill="#D54D51"></path>
</svg>
