<?xml version="1.0" encoding="UTF-8"?>
<svg xmlns="http://www.w3.org/2000/svg" width="234" height="35" viewBox="0 0 234 35" fill="none">
  <g transform="translate(0,0)">
    <path d="M10.448 16.7756C11.216 16.9916 11.936 17.225 12.608 17.4756C13.2365 17.7044 13.8302 18.0194 14.372 18.4116C14.8719 18.7792 15.2838 19.2533 15.578 19.7996C15.8997 20.4473 16.0544 21.165 16.028 21.8876C16.0578 22.7964 15.8467 23.6969 15.416 24.4976C15.0066 25.207 14.4246 25.8014 13.724 26.2256C12.9536 26.689 12.1072 27.012 11.224 27.1796C10.2215 27.377 9.20173 27.4734 8.17999 27.4676C6.1052 27.5829 4.04995 27.0137 2.32999 25.8476C1.62123 25.3061 1.05556 24.5995 0.682235 23.7894C0.30891 22.9793 0.139239 22.0903 0.187992 21.1996H5.58799C5.5528 21.5646 5.6046 21.9326 5.73914 22.2737C5.87368 22.6147 6.08713 22.919 6.36199 23.1616C6.94323 23.5782 7.64759 23.7874 8.36199 23.7556C8.93177 23.7815 9.49789 23.6522 9.99999 23.3816C10.2091 23.2526 10.3786 23.0684 10.4898 22.8493C10.6009 22.6302 10.6495 22.3846 10.63 22.1396C10.6443 21.8454 10.5479 21.5565 10.36 21.3296C10.124 21.0858 9.84273 20.8901 9.53199 20.7536C9.06611 20.538 8.58477 20.3575 8.09199 20.2136C7.50399 20.0336 6.80199 19.8116 5.98599 19.5476C5.26599 19.3316 4.58199 19.0983 3.93399 18.8476C3.32643 18.6174 2.75156 18.3088 2.22399 17.9296C1.73295 17.5708 1.33235 17.1024 1.05399 16.5616C0.744387 15.9104 0.596207 15.1942 0.621992 14.4736C0.57292 13.682 0.739525 12.8919 1.10406 12.1875C1.46859 11.4831 2.01739 10.8908 2.69199 10.4736C4.40091 9.52658 6.34062 9.07629 8.29199 9.17364C9.40651 9.15484 10.5174 9.3066 11.586 9.62364C12.4423 9.87438 13.2385 10.297 13.926 10.8656C14.5248 11.3757 14.9989 12.0161 15.312 12.7376C15.625 13.4638 15.7843 14.2469 15.78 15.0376H10.34C10.3784 14.4284 10.1783 13.828 9.78199 13.3636C9.55394 13.1512 9.28408 12.9886 8.98964 12.8863C8.6952 12.784 8.38266 12.7443 8.07199 12.7696C7.56596 12.7574 7.06676 12.8884 6.63199 13.1476C6.43313 13.2685 6.27104 13.4413 6.16319 13.6475C6.05534 13.8537 6.00582 14.0854 6.01999 14.3176C6.01021 14.6035 6.11372 14.8817 6.30799 15.0916C6.55148 15.3303 6.83873 15.5198 7.15399 15.6496C7.60504 15.8452 8.06795 16.0122 8.53999 16.1496C9.09199 16.327 9.72799 16.5356 10.448 16.7756ZM32.156 14.6516C31.8358 14.5678 31.5113 14.501 31.184 14.4516C30.8615 14.4122 30.5368 14.3942 30.212 14.3976C29.5477 14.3661 28.8839 14.4677 28.2595 14.6965C27.6351 14.9252 27.0627 15.2765 26.576 15.7296C25.664 16.6176 25.208 18.1176 25.208 20.2296V26.9996H19.7V9.64764H25.208V12.4556C25.6823 11.5679 26.3844 10.8224 27.242 10.2956C28.2103 9.66566 29.3449 9.33969 30.5 9.35964C31.0656 9.34476 31.6286 9.44266 32.156 9.64764V14.6516ZM42.308 27.4676C40.9344 27.4892 39.5701 27.2383 38.294 26.7296C37.1648 26.2764 36.137 25.6033 35.27 24.7496C34.4431 23.9231 33.7938 22.9362 33.362 21.8496C32.9162 20.7279 32.6914 19.5306 32.7 18.3236C32.6924 17.1157 32.9186 15.9177 33.366 14.7956C33.7978 13.7091 34.4471 12.7222 35.274 11.8956C36.141 11.0419 37.1688 10.3689 38.298 9.91564C39.5741 9.40694 40.9384 9.15611 42.312 9.17764C43.6975 9.15399 45.0739 9.40481 46.362 9.91564C47.4911 10.3689 48.519 11.0419 49.386 11.8956C50.2129 12.7222 50.8622 13.7091 51.294 14.7956C51.7414 15.9177 51.9676 17.1157 51.96 18.3236C51.9676 19.5316 51.7414 20.7296 51.294 21.8516C50.8622 22.9382 50.2129 23.925 49.386 24.7516C48.5177 25.6051 47.4884 26.2774 46.358 26.7296C45.0699 27.2405 43.6935 27.4913 42.308 27.4676ZM42.308 22.7516C42.8957 22.759 43.4783 22.6425 44.018 22.4096C44.5204 22.1915 44.969 21.8658 45.332 21.4556C45.6951 21.0431 45.9816 20.5689 46.178 20.0556C46.3863 19.5036 46.4901 18.9176 46.484 18.3276C46.4868 17.7438 46.3831 17.1643 46.178 16.6176C45.9872 16.1016 45.7001 15.6265 45.332 15.2176C44.9624 14.8147 44.5156 14.4902 44.018 14.2636C43.4814 14.0192 42.8975 13.8963 42.308 13.9036C41.7241 13.895 41.1458 14.018 40.616 14.2636C40.1242 14.4931 39.6824 14.8173 39.316 15.2176C38.9493 15.6243 38.6677 16.1004 38.488 16.6176C38.2944 17.1669 38.197 17.7453 38.2 18.3276C38.194 18.9161 38.2915 19.501 38.488 20.0556C38.6734 20.5703 38.9543 21.0453 39.316 21.4556C39.6759 21.8632 40.1193 22.1885 40.616 22.4096C41.149 22.6436 41.726 22.7602 42.308 22.7516ZM57.716 9.65164L61.928 20.5556L66.176 9.64764H71.936L64.088 26.9996H59.7L51.96 9.64764L57.716 9.65164ZM74.204 9.65164H79.712V12.1716C80.1914 11.234 80.9533 10.4707 81.89 9.98964C82.9786 9.4471 84.1842 9.18125 85.4 9.21564C86.3972 9.19132 87.3891 9.36888 88.316 9.73764C89.0803 10.0473 89.7504 10.5513 90.26 11.1996C90.8125 11.8711 91.1904 12.6688 91.36 13.5216C91.5555 14.5721 91.6459 15.6393 91.63 16.7076V26.9996H86.12V18.1076C86.1644 17.0531 85.935 16.0051 85.454 15.0656C85.204 14.6668 84.8471 14.3461 84.4239 14.14C84.0007 13.9338 83.5282 13.8506 83.06 13.8996C82.5736 13.8668 82.0868 13.9587 81.6458 14.1666C81.2048 14.3745 80.8242 14.6915 80.54 15.0876C79.9431 16.0445 79.6541 17.1614 79.712 18.2876V26.9996H74.2L74.204 9.65164ZM104.588 22.7516C105.172 22.7603 105.75 22.6372 106.28 22.3916C106.772 22.1621 107.214 21.838 107.58 21.4376C107.948 21.0287 108.235 20.5537 108.426 20.0376C108.631 19.491 108.735 18.9115 108.732 18.3276C108.736 17.7495 108.632 17.1757 108.426 16.6356C108.23 16.1223 107.943 15.6482 107.58 15.2356C107.218 14.8262 106.775 14.4954 106.28 14.2636C105.75 14.018 105.172 13.895 104.588 13.9036C104.004 13.895 103.426 14.018 102.896 14.2636C102.401 14.4954 101.958 14.8262 101.596 15.2356C101.233 15.6482 100.946 16.1223 100.75 16.6356C100.544 17.1757 100.44 17.7495 100.444 18.3276C100.441 18.9115 100.545 19.491 100.75 20.0376C100.941 20.5537 101.228 21.0287 101.596 21.4376C101.962 21.838 102.404 22.1621 102.896 22.3916C103.426 22.6372 104.004 22.7603 104.588 22.7516ZM114.236 9.65164V26.9996H108.728V24.5516C108.502 24.973 108.21 25.3558 107.864 25.6856C107.493 26.0413 107.075 26.3442 106.622 26.5856C106.136 26.8449 105.623 27.0501 105.092 27.1976C104.553 27.3518 103.996 27.4305 103.436 27.4316C102.254 27.4448 101.082 27.2054 100 26.7296C98.9855 26.2827 98.0729 25.6334 97.318 24.8216C96.5554 23.9867 95.9678 23.0075 95.59 21.9416C95.1744 20.7811 94.9672 19.5563 94.978 18.3236C94.9672 17.091 95.1744 15.8661 95.59 14.7056C95.9678 13.6398 96.5554 12.6605 97.318 11.8256C98.0729 11.0138 98.9855 10.3646 100 9.91764C101.083 9.44225 102.255 9.2036 103.438 9.21764C103.998 9.21878 104.555 9.29753 105.094 9.45164C105.627 9.59991 106.141 9.81141 106.624 10.0816C107.079 10.3356 107.497 10.6505 107.866 11.0176C108.204 11.3485 108.494 11.724 108.73 12.1336V9.64964L114.236 9.65164ZM118.916 9.65164H124.424V12.1716C124.903 11.2343 125.664 10.4711 126.6 9.98964C127.689 9.4471 128.894 9.18125 130.11 9.21564C131.107 9.19132 132.099 9.36888 133.026 9.73764C133.79 10.0462 134.46 10.5488 134.97 11.1956C135.523 11.8671 135.9 12.6648 136.07 13.5176C136.265 14.568 136.356 15.6353 136.34 16.7036V26.9996H130.832V18.1076C130.876 17.0531 130.647 16.0051 130.166 15.0656C129.916 14.6661 129.56 14.3445 129.137 14.1377C128.713 13.9309 128.241 13.847 127.772 13.8956C127.286 13.8628 126.799 13.9547 126.358 14.1626C125.917 14.3705 125.536 14.6875 125.252 15.0836C124.655 16.0405 124.366 17.1574 124.424 18.2836V26.9996H118.916V9.65164ZM139.976 3.89164C139.965 3.43071 140.05 2.97252 140.223 2.5453C140.396 2.11809 140.655 1.73091 140.984 1.40764C141.312 1.077 141.705 0.817016 142.138 0.643673C142.57 0.47033 143.034 0.387284 143.5 0.399639C143.98 0.395778 144.456 0.487564 144.9 0.669639C145.321 0.842398 145.706 1.09275 146.034 1.40764C146.36 1.72333 146.618 2.10334 146.79 2.52364C146.97 2.95708 147.062 3.4222 147.06 3.89164C147.063 4.35537 146.971 4.81484 146.79 5.24164C146.612 5.65872 146.355 6.03762 146.034 6.35764C145.71 6.68196 145.324 6.93889 144.9 7.11364C144.456 7.29571 143.98 7.3875 143.5 7.38364C143.024 7.38925 142.553 7.29736 142.114 7.11364C141.697 6.93421 141.319 6.67617 141 6.35364C140.679 6.03362 140.422 5.65472 140.244 5.23764C140.063 4.81069 139.972 4.35123 139.976 3.88764V3.89164ZM140.768 9.65164H146.276V26.9996H140.768V9.65164Z" fill="white"></path>
  </g>
  <g transform="translate(148,0)">
    <path d="M0.955994 0.799805H6.284V11.1678C6.77151 10.2478 7.52399 9.49532 8.444 9.0078C9.51006 8.45462 10.6994 8.18206 11.9 8.21581C12.8743 8.18641 13.8437 8.36434 14.744 8.73781C15.4796 9.06048 16.123 9.56162 16.616 10.1958C17.1712 10.8744 17.5541 11.6772 17.732 12.5358C17.9394 13.5895 18.036 14.662 18.02 15.7358V25.9998H12.692V17.1078C12.7364 16.0533 12.507 15.0053 12.026 14.0658C11.7765 13.6662 11.4198 13.3447 10.9966 13.1379C10.5734 12.931 10.1006 12.8472 9.632 12.8958C9.14557 12.863 8.6588 12.9548 8.2178 13.1627C7.77681 13.3706 7.3962 13.6877 7.112 14.0838C6.51514 15.0407 6.22614 16.1576 6.284 17.2838V25.9998H0.955994V0.799805ZM31.016 34.3158C29.7723 34.3367 28.5313 34.1914 27.326 33.8838C26.3345 33.6224 25.4087 33.1564 24.608 32.5158C23.8995 31.9243 23.3179 31.1957 22.898 30.3738C22.4328 29.4287 22.2042 28.3848 22.232 27.3318H27.74C27.7363 27.759 27.8262 28.1819 28.0034 28.5706C28.1807 28.9593 28.441 29.3045 28.766 29.5818C29.4245 30.1056 30.2469 30.3797 31.088 30.3558C31.9825 30.4082 32.8656 30.1331 33.572 29.5818C33.912 29.2076 34.1681 28.7652 34.3233 28.284C34.4786 27.8029 34.5292 27.2941 34.472 26.7918V23.2278C34.0016 24.1542 33.2524 24.9097 32.33 25.3878C31.2762 25.916 30.1083 26.1757 28.93 26.1438C27.8985 26.1675 26.8737 25.9712 25.924 25.5678C25.1419 25.2381 24.4545 24.7184 23.924 24.0558C23.3832 23.4068 23.0121 22.6337 22.844 21.8058C22.6589 20.7785 22.5745 19.7355 22.592 18.6918V8.64781H28.064V17.5398C28.0196 18.5943 28.249 19.6423 28.73 20.5818C28.9795 20.9814 29.3362 21.3029 29.7594 21.5097C30.1826 21.7166 30.6554 21.8005 31.124 21.7518C31.6135 21.7887 32.1042 21.6987 32.5488 21.4906C32.9934 21.2825 33.3768 20.9633 33.662 20.5638C34.2471 19.6026 34.5293 18.4876 34.472 17.3638V8.65181H39.98V26.4318C40.0083 27.6528 39.7879 28.8668 39.332 29.9998C38.9463 30.944 38.3416 31.7831 37.568 32.4478C36.7735 33.1098 35.8469 33.5946 34.85 33.8698C33.5986 34.194 32.3084 34.3441 31.016 34.3158ZM54.272 12.8998C53.6825 12.8925 53.0985 13.0154 52.562 13.2598C52.0644 13.4864 51.6175 13.8109 51.248 14.2138C50.8799 14.6227 50.5928 15.0978 50.402 15.6138C50.1968 16.1605 50.0931 16.7399 50.096 17.3238C50.0931 17.9077 50.1968 18.4872 50.402 19.0338C50.5928 19.5498 50.8799 20.0249 51.248 20.4338C51.6175 20.8368 52.0644 21.1612 52.562 21.3878C53.0985 21.6322 53.6825 21.7551 54.272 21.7478C54.8441 21.754 55.4101 21.6309 55.928 21.3878C56.4198 21.1583 56.8616 20.8341 57.228 20.4338C57.5961 20.0249 57.8832 19.5498 58.074 19.0338C58.2792 18.4872 58.3829 17.9077 58.38 17.3238C58.3829 16.7399 58.2792 16.1605 58.074 15.6138C57.8832 15.0978 57.5961 14.6227 57.228 14.2138C56.8616 13.8135 56.4198 13.4893 55.928 13.2598C55.4101 13.0167 54.8441 12.8936 54.272 12.8998ZM50.1 11.1318C50.3358 10.7221 50.6265 10.3467 50.964 10.0158C51.3376 9.64571 51.7618 9.33056 52.224 9.07981C52.7091 8.81372 53.2222 8.60242 53.754 8.44981C54.2982 8.29321 54.8617 8.21442 55.428 8.21581C56.6108 8.20177 57.7829 8.44042 58.866 8.91581C59.8805 9.36276 60.7931 10.012 61.548 10.8238C62.3106 11.6587 62.8982 12.638 63.276 13.7038C63.6916 14.8643 63.8988 16.0892 63.888 17.3218C63.8988 18.5544 63.6916 19.7793 63.276 20.9398C62.8982 22.0056 62.3106 22.9849 61.548 23.8198C60.7921 24.6328 59.8781 25.2827 58.862 25.7298C57.7789 26.2052 56.6068 26.4438 55.424 26.4298C54.8579 26.4325 54.2944 26.3551 53.75 26.1998C53.2182 26.0472 52.7051 25.8359 52.22 25.5698C51.7611 25.3212 51.3373 25.0125 50.96 24.6518C50.6138 24.3219 50.3221 23.9392 50.096 23.5178V33.8478H44.588V8.64781H50.1V11.1318ZM75.944 26.4678C74.5704 26.4893 73.2061 26.2385 71.93 25.7298C70.8008 25.2765 69.773 24.6035 68.906 23.7498C68.08 22.9236 67.4314 21.9375 67 20.8518C66.5526 19.7298 66.3264 18.5318 66.334 17.3238C66.3269 16.1172 66.5531 14.9206 67 13.7998C67.4318 12.7132 68.0811 11.7264 68.908 10.8998C69.775 10.0461 70.8029 9.37309 71.932 8.91981C73.2081 8.41111 74.5724 8.16028 75.946 8.1818C77.3315 8.15816 78.7079 8.40898 79.996 8.91981C81.1252 9.37309 82.153 10.0461 83.02 10.8998C83.8469 11.7264 84.4962 12.7132 84.928 13.7998C85.3754 14.9219 85.6016 16.1199 85.594 17.3278C85.6016 18.5357 85.3754 19.7338 84.928 20.8558C84.4962 21.9424 83.8469 22.9292 83.02 23.7558C82.153 24.6095 81.1252 25.2825 79.996 25.7358C78.7069 26.2448 77.3297 26.4936 75.944 26.4678ZM75.944 21.7518C76.5317 21.7591 77.1143 21.6426 77.654 21.4098C78.1565 21.1916 78.605 20.866 78.968 20.4558C79.3311 20.0432 79.6176 19.5691 79.814 19.0558C80.0223 18.5038 80.1261 17.9178 80.12 17.3278C80.1228 16.7439 80.0191 16.1645 79.814 15.6178C79.6232 15.1018 79.3361 14.6267 78.968 14.2178C78.5985 13.8149 78.1516 13.4904 77.654 13.2638C77.1175 13.0194 76.5336 12.8965 75.944 12.9038C75.3601 12.8952 74.7818 13.0182 74.252 13.2638C73.7602 13.4933 73.3184 13.8175 72.952 14.2178C72.5853 14.6245 72.3037 15.1005 72.124 15.6178C71.9304 16.167 71.833 16.7455 71.836 17.3278C71.83 17.9162 71.9275 18.5011 72.124 19.0558C72.3094 19.5704 72.5903 20.0454 72.952 20.4558C73.3119 20.8633 73.7553 21.1887 74.252 21.4098C74.785 21.6438 75.362 21.7604 75.944 21.7518Z" fill="#D54D51"></path>
  </g>
</svg>
