<?xml version="1.0" encoding="UTF-8"?>
<svg xmlns="http://www.w3.org/2000/svg" width="76" height="63" viewBox="0 0 76 63" fill="none">
  <path d="M50.963 58.462H49.627C49.6271 57.866 49.5098 57.2757 49.2818 56.7251C49.0538 56.1744 48.7196 55.674 48.2982 55.2525C47.8768 54.831 47.3765 54.4966 46.8258 54.2685C46.2752 54.0404 45.685 53.923 45.089 53.923H41.619V3.47098C41.619 3.01529 41.5292 2.56406 41.3549 2.14306C41.1805 1.72207 40.9249 1.33954 40.6026 1.01732C40.2804 0.695097 39.8979 0.439498 39.4769 0.265115C39.0559 0.0907307 38.6047 0.000976562 38.149 0.000976562C37.6933 0.000976562 37.2421 0.0907307 36.8211 0.265115C36.4001 0.439498 36.0175 0.695097 35.6953 1.01732C35.3731 1.33954 35.1175 1.72207 34.9431 2.14306C34.7687 2.56406 34.679 3.01529 34.679 3.47098V53.923H31.208C30.6118 53.9227 30.0214 54.0399 29.4705 54.2679C28.9197 54.4959 28.4191 54.8302 27.9975 55.2518C27.5759 55.6733 27.2415 56.1738 27.0133 56.7246C26.7852 57.2754 26.6679 57.8658 26.668 58.462H25.335C24.1314 58.462 22.9772 58.9401 22.1261 59.7911C21.2751 60.6422 20.797 61.7964 20.797 63H55.497C55.497 61.7971 55.0194 60.6435 54.1693 59.7925C53.3191 58.9416 52.1658 58.463 50.963 58.462Z" fill="#1B1464"></path>
  <path d="M24.97 45.0019C24.7272 44.907 24.4687 44.8588 24.208 44.8599H2.43699C2.10216 44.8585 1.77208 44.9391 1.47549 45.0945C1.1789 45.2498 0.924789 45.4754 0.735297 45.7514C0.545805 46.0275 0.426673 46.3457 0.388276 46.6783C0.349879 47.0109 0.39338 47.3479 0.514993 47.6599C1.54903 50.2092 3.3203 52.392 5.6021 53.9289C7.8839 55.4657 10.5724 56.2867 13.3235 56.2867C16.0746 56.2867 18.7631 55.4657 21.0449 53.9289C23.3267 52.392 25.098 50.2092 26.132 47.6599C26.3299 47.1533 26.3187 46.5889 26.1008 46.0905C25.883 45.5922 25.4763 45.2006 24.97 45.0019Z" fill="#1B1464"></path>
  <path d="M15.057 20.5439L14.965 20.5709L12.482 21.2929L11.148 21.6809L2.884 42.9869H5.74699L13.321 23.4589L20.897 42.9959H23.76L15.057 20.5439Z" fill="#1B1464"></path>
  <path d="M73.822 30.5859C73.5793 30.4905 73.3207 30.4423 73.06 30.4439H51.289C50.9542 30.4425 50.6241 30.5231 50.3275 30.6785C50.0309 30.8338 49.7768 31.0594 49.5873 31.3355C49.3978 31.6115 49.2787 31.9297 49.2403 32.2623C49.2019 32.5949 49.2454 32.9319 49.367 33.2439C50.401 35.7932 52.1723 37.9761 54.4541 39.5129C56.7359 41.0497 59.4244 41.8707 62.1755 41.8707C64.9266 41.8707 67.6151 41.0497 69.8969 39.5129C72.1787 37.9761 73.95 35.7932 74.984 33.2439C75.1819 32.7373 75.1707 32.1729 74.9528 31.6745C74.735 31.1762 74.3283 30.7846 73.822 30.5859Z" fill="#D54D51"></path>
  <path d="M63.985 6.32422L63.134 6.57122L59.904 7.51022L51.736 28.5712H54.604L62.177 9.04122L69.751 28.5742H72.614L63.985 6.32422Z" fill="#D54D51"></path>
  <path d="M67.66 0.596191L7.077 18.2032L7.822 20.7622L11.147 19.7962L12.481 19.4082L14.375 18.8582L15.055 18.6582L59.904 5.63019L61.409 5.19219L63.132 4.69219L63.983 4.44519L68.405 3.16219L67.66 0.596191Z" fill="#1B1464"></path>
</svg>
