<?xml version="1.0" encoding="UTF-8"?>
<svg xmlns="http://www.w3.org/2000/svg" width="77" height="64" viewBox="0 0 77 64" fill="none">
  <path d="M25.199 45.4749C24.4618 45.5023 23.7434 45.2387 23.199 44.7409C22.9481 44.5182 22.748 44.2442 22.6123 43.9374C22.4765 43.6307 22.4082 43.2983 22.412 42.9629C22.4033 42.6242 22.4707 42.2878 22.6091 41.9786C22.7476 41.6693 22.9536 41.395 23.212 41.1759C23.765 40.7034 24.4751 40.4554 25.202 40.4809C25.9284 40.451 26.6384 40.7016 27.185 41.1809C27.4352 41.4035 27.6339 41.678 27.7672 41.9853C27.9005 42.2925 27.9653 42.6251 27.957 42.9599C27.966 43.2972 27.9024 43.6326 27.7704 43.9431C27.6384 44.2537 27.4411 44.5323 27.192 44.7599C26.6469 45.2499 25.9313 45.5066 25.199 45.4749ZM27.681 23.4209L27.091 38.3759H23.212L22.652 23.4209H27.681Z" fill="white"></path>
  <path d="M70.529 -0.000976562H31.275C29.7323 -0.000711428 28.2529 0.612234 27.162 1.70308C26.0712 2.79392 25.4583 4.27334 25.458 5.81602V13.189H45.068C47.1001 13.1911 49.0485 13.9992 50.4856 15.436C51.9228 16.8727 52.7313 18.8209 52.734 20.853V38.36H56.651L66.932 48.642C67.0837 48.7937 67.277 48.8969 67.4874 48.9388C67.6978 48.9806 67.9159 48.9591 68.1142 48.877C68.3124 48.7949 68.4818 48.6559 68.601 48.4776C68.7202 48.2992 68.7839 48.0896 68.784 47.875V38.36H70.528C71.2918 38.36 72.0482 38.2096 72.7539 37.9172C73.4596 37.6249 74.1008 37.1964 74.6409 36.6562C75.181 36.116 75.6093 35.4748 75.9016 34.769C76.1938 34.0633 76.3441 33.3069 76.344 32.543V5.81702C76.3443 5.05317 76.194 4.29675 75.9019 3.59095C75.6098 2.88516 75.1816 2.24382 74.6416 1.70355C74.1016 1.16329 73.4605 0.734684 72.7548 0.442218C72.0492 0.149753 71.2928 -0.000845271 70.529 -0.000976562Z" fill="#D54D51"></path>
  <path d="M45.07 15.0361H5.81699C4.27414 15.0361 2.79446 15.649 1.7034 16.7398C0.612342 17.8307 -0.00074112 19.3103 -0.00100631 20.8531V47.5791C-0.00140046 48.3434 0.148803 49.1002 0.441021 49.8064C0.733238 50.5125 1.16174 51.1542 1.70205 51.6947C2.24235 52.2352 2.88386 52.6639 3.58992 52.9563C4.29599 53.2488 5.05276 53.3993 5.81699 53.3991H7.55999V62.9141C7.55973 63.2013 7.67341 63.4768 7.87608 63.6802C8.07874 63.8836 8.35385 63.9983 8.64099 63.9991H8.65299C8.79442 63.9989 8.93437 63.9704 9.06468 63.9155C9.195 63.8605 9.31306 63.7802 9.41199 63.6791L19.693 53.3991H45.07C45.8338 53.3991 46.5902 53.2487 47.2959 52.9563C48.0016 52.664 48.6428 52.2355 49.1829 51.6953C49.723 51.1551 50.1513 50.5139 50.4436 49.8081C50.7358 49.1024 50.8861 48.346 50.886 47.5821V20.8521C50.8855 19.3098 50.2725 17.8308 49.1819 16.7402C48.0913 15.6496 46.6123 15.0367 45.07 15.0361ZM27.678 23.4221L27.087 38.3771H23.212L22.652 23.4221H27.678ZM27.186 44.7651C26.6235 45.2285 25.9163 45.4801 25.1875 45.4761C24.4587 45.4721 23.7544 45.2127 23.197 44.7431C22.9461 44.5202 22.746 44.246 22.6102 43.9391C22.4745 43.6322 22.4062 43.2997 22.41 42.9641C22.4016 42.6255 22.4691 42.2892 22.6075 41.98C22.746 41.6708 22.9518 41.3965 23.21 41.1771C23.7631 40.7048 24.4731 40.4569 25.2 40.4821C25.9264 40.452 26.6365 40.7027 27.183 41.1821C27.4335 41.4046 27.6323 41.679 27.7657 41.9863C27.899 42.2936 27.9636 42.6263 27.955 42.9611C27.9639 43.2994 27.8998 43.6357 27.7671 43.9469C27.6344 44.2582 27.4362 44.5373 27.186 44.7651Z" fill="#1B1464"></path>
</svg>
