<?xml version="1.0" encoding="UTF-8"?>
<svg xmlns="http://www.w3.org/2000/svg" width="90" height="56" viewBox="0 0 90 56" fill="none">
  <path d="M39.08 41.0473C39.1167 40.1584 38.9412 39.2736 38.5679 38.4661C38.1946 37.6586 37.6343 36.9517 36.9334 36.4039C36.2325 35.856 35.4111 35.483 34.5374 35.3158C33.6636 35.1486 32.7626 35.192 31.909 35.4423C31.869 34.9903 31.856 34.5423 31.787 34.1053C31.6766 33.036 31.2367 32.0275 30.5279 31.2193C29.8192 30.4111 28.8767 29.8432 27.831 29.5943C26.8141 29.2848 25.7266 29.2961 24.7164 29.6266C23.7062 29.957 22.8223 30.5907 22.185 31.4413C21.503 32.2513 20.878 33.1103 20.158 34.0353C20.018 33.6263 19.92 33.3103 19.802 33.0013C19.492 32.0632 18.9244 31.2313 18.164 30.6005C17.4036 29.9698 16.4811 29.5656 15.502 29.4343C14.5539 29.2632 13.5769 29.3598 12.6807 29.7131C11.7844 30.0663 11.0044 30.6624 10.428 31.4343C9.44196 32.6533 8.49597 33.9033 7.51597 35.1603C6.47197 34.5383 5.49897 33.8603 4.44197 33.3603C3.32365 32.8542 2.17551 32.4167 1.00396 32.0503C0.0769643 31.7393 -0.213029 31.2773 0.144971 30.3653C3.3283 22.2519 6.51696 14.1403 9.71097 6.03027C9.99597 5.30727 10.443 5.04928 11.125 5.26528C17.186 7.19028 23.225 6.57128 29.189 4.92028C32.063 4.12028 34.833 2.94426 37.633 1.89126C40.8082 0.524439 44.307 0.0901839 47.72 0.639277C47.12 0.913277 46.611 1.15226 46.096 1.38726C43.3622 2.56192 40.8045 4.11 38.496 5.98727C37.1312 7.15077 36.0159 8.57841 35.2173 10.1842C34.4187 11.7901 33.9532 13.5408 33.849 15.3313C33.7393 16.6738 33.4362 17.9935 32.949 19.2493C32.402 20.6909 31.9739 22.1748 31.669 23.6863C31.5771 23.943 31.5406 24.2162 31.5618 24.488C31.583 24.7598 31.6614 25.0241 31.7919 25.2635C31.9224 25.5029 32.102 25.7119 32.319 25.877C32.536 26.0421 32.7854 26.1594 33.051 26.2213C34.4088 26.8245 35.9124 27.0209 37.3796 26.7866C38.8468 26.5523 40.2146 25.8974 41.317 24.9013C42.7054 23.6478 43.7511 22.0607 44.355 20.2903C44.4677 20.0197 44.669 19.7954 44.926 19.6543C47.175 18.5543 49.448 17.4973 51.69 16.3793C51.8646 16.2657 52.0655 16.1989 52.2734 16.1854C52.4813 16.1719 52.6891 16.2122 52.877 16.3023C57.5709 18.5274 62.0883 21.1073 66.39 24.0193C69.8481 26.1939 73.1155 28.6581 76.157 31.3853C76.9607 32.1157 77.682 32.9319 78.308 33.8193C78.7801 34.559 78.9862 35.4374 78.8924 36.3098C78.7986 37.1823 78.4105 37.9968 77.792 38.6193C77.1826 39.2667 76.3731 39.6904 75.4937 39.822C74.6144 39.9537 73.7163 39.7858 72.944 39.3453C67.116 35.9653 61.2873 32.5859 55.458 29.2073C55.1315 29.0311 54.7573 28.9638 54.39 29.0153C54.2674 29.077 54.1629 29.1693 54.0867 29.2834C54.0104 29.3975 53.965 29.5294 53.955 29.6663C53.9795 29.8246 54.0355 29.9765 54.1196 30.1128C54.2038 30.2492 54.3144 30.3673 54.445 30.4603C55.908 31.3543 57.402 32.1953 58.885 33.0603C62.664 35.2603 66.437 37.4603 70.228 39.6383C70.517 39.788 70.7586 40.0152 70.9258 40.2944C71.0931 40.5736 71.1794 40.8938 71.175 41.2193C71.1778 41.7889 71.0629 42.353 70.8374 42.8762C70.612 43.3993 70.2808 43.8702 69.8648 44.2593C69.4487 44.6484 68.9567 44.9473 68.4197 45.1373C67.8827 45.3273 67.3122 45.4042 66.744 45.3633C65.9056 45.3421 65.0837 45.1253 64.344 44.7303C59.36 41.9683 54.413 39.1383 49.454 36.3303C48.793 35.9563 48.345 36.0033 48.087 36.5103C47.756 37.1603 48.177 37.4863 48.676 37.7683C53.2573 40.3616 57.8376 42.9566 62.417 45.5533C64.151 46.5373 64.37 48.0643 63.035 49.5533C62.394 50.1921 61.5739 50.6209 60.6836 50.7827C59.7932 50.9445 58.8747 50.8317 58.05 50.4593C54.173 48.3913 50.236 46.4363 46.33 44.4233C46.074 44.3007 45.8547 44.1131 45.694 43.8793C45.1503 42.7577 44.2353 41.8588 43.1044 41.3349C41.9734 40.8111 40.696 40.6946 39.489 41.0053C39.359 41.0183 39.221 41.0293 39.08 41.0473Z" fill="#260E55"></path>
  <path d="M45.11 18.0223C45.285 16.6913 45.433 15.5733 45.579 14.4553C45.604 14.2633 45.627 14.0713 45.637 13.8783C45.664 13.3433 45.437 12.9513 44.886 12.9113C44.335 12.8713 44.086 13.2223 44.009 13.7593C43.801 15.1913 43.623 16.6323 43.318 18.0453C42.9954 19.6889 42.3014 21.237 41.289 22.5713C40.5468 23.6148 39.5054 24.4083 38.3024 24.847C37.0995 25.2858 35.7917 25.349 34.552 25.0283C33.205 24.7433 33.028 24.5163 33.378 23.2083C33.7109 21.9237 34.1326 20.6636 34.64 19.4373C35.1224 18.2529 35.4016 16.9956 35.466 15.7183C35.5343 13.9488 35.9958 12.2167 36.8169 10.6477C37.638 9.07867 38.7981 7.71217 40.213 6.64733C43.5441 4.14515 47.3155 2.29067 51.331 1.18032C53.5954 0.61444 55.9601 0.580239 58.24 1.08034C62.372 1.82934 66.483 2.69434 70.603 3.51134C73.6028 4.20967 76.72 4.23561 79.731 3.58733C80.269 3.45633 80.796 3.27832 81.322 3.10232C82.422 2.73332 82.874 2.96833 83.172 4.09533C84.5367 9.25333 85.9 14.4117 87.262 19.5703C88.0767 22.651 88.8923 25.7313 89.709 28.8113C90.009 29.9473 89.843 30.2183 88.746 30.6823C87.724 31.1143 86.722 31.5953 85.711 32.0553C83.9217 32.8155 81.9593 33.0748 80.034 32.8053C79.7734 32.7872 79.5277 32.677 79.341 32.4943C77.1129 29.9102 74.5492 27.6357 71.718 25.7313C66.0862 21.6425 60.1182 18.0379 53.878 14.9563C53.3775 14.6477 52.7951 14.4985 52.2078 14.5285C51.6206 14.5585 51.0564 14.7663 50.59 15.1243C48.8135 16.1823 46.9845 17.1496 45.11 18.0223Z" fill="#D54D51"></path>
  <path d="M18.097 49.2444C17.4008 49.2439 16.7191 49.0452 16.1317 48.6716C15.5443 48.2979 15.0755 47.7647 14.78 47.1343C14.438 46.501 14.2928 45.78 14.363 45.0637C14.4332 44.3474 14.7156 43.6682 15.174 43.1133C17.215 40.4493 19.285 37.8084 21.343 35.1584C22.024 34.2814 22.696 33.3974 23.392 32.5314C23.6947 32.1303 24.0739 31.7932 24.5077 31.5397C24.9416 31.2861 25.4214 31.1212 25.9194 31.0543C26.4174 30.9874 26.9238 31.02 27.4091 31.1501C27.8945 31.2803 28.3492 31.5053 28.747 31.8124C29.1446 32.12 29.4771 32.5036 29.7251 32.9409C29.9731 33.3782 30.1317 33.8604 30.1916 34.3595C30.2515 34.8587 30.2116 35.3648 30.0742 35.8484C29.9367 36.3319 29.7045 36.7834 29.391 37.1764C26.668 40.7164 23.916 44.2333 21.172 47.7583C20.8083 48.226 20.3417 48.6033 19.8083 48.8611C19.2749 49.1188 18.6893 49.25 18.097 49.2444Z" fill="#D54D51"></path>
  <path d="M23.42 48.5431C23.6704 47.7571 24.0082 47.0017 24.427 46.2911C26.427 43.6021 28.507 40.9671 30.58 38.3311C31.1228 37.6247 31.8977 37.1328 32.7679 36.9424C33.6382 36.7519 34.5477 36.875 35.336 37.2901C36.1129 37.6967 36.7245 38.3603 37.0667 39.1676C37.4088 39.975 37.4602 40.8761 37.212 41.7171C37.1161 42.0654 36.9582 42.3937 36.746 42.6861C34.638 45.4471 32.528 48.2071 30.385 50.9411C29.9562 51.535 29.3555 51.9831 28.664 52.2248C27.9725 52.4666 27.2234 52.4904 26.518 52.2931C25.8259 52.1518 25.1906 51.8103 24.6909 51.3111C24.1911 50.8119 23.849 50.177 23.707 49.4851C23.65 49.2023 23.609 48.9165 23.584 48.6291L23.42 48.5431Z" fill="#D54D51"></path>
  <path d="M36.3319 55.5001C35.6661 55.4827 35.019 55.2759 34.4664 54.9039C33.9139 54.532 33.4787 54.0103 33.2119 53.4C32.8743 52.78 32.7314 52.0727 32.8016 51.3703C32.8719 50.6679 33.1522 50.0029 33.6059 49.462C35.0959 47.562 36.5579 45.6431 38.0339 43.7341C38.6478 43.0413 39.4954 42.5993 40.4148 42.4924C41.3342 42.3856 42.2607 42.6215 43.0169 43.155C43.8175 43.6981 44.3734 44.5332 44.5658 45.4812C44.7581 46.4292 44.5715 47.4149 44.0459 48.2271C42.5519 50.3271 40.9299 52.3451 39.3019 54.3491C38.9308 54.759 38.4689 55.0765 37.9533 55.2764C37.4376 55.4762 36.8824 55.5528 36.3319 55.5001Z" fill="#D54D51"></path>
  <path d="M10.475 43.5762C9.83784 43.5439 9.22101 43.3413 8.68879 42.9895C8.15657 42.6377 7.72842 42.1497 7.44898 41.5762C7.09751 40.9882 6.92748 40.3096 6.96021 39.6254C6.99295 38.9412 7.22698 38.2819 7.63297 37.7302C8.99297 35.8542 10.41 34.0132 11.894 32.2302C12.5281 31.5159 13.4121 31.0724 14.3638 30.9911C15.3154 30.9098 16.2619 31.1969 17.008 31.7931C17.7718 32.3672 18.2847 33.2138 18.4399 34.1565C18.5951 35.0993 18.3806 36.0656 17.841 36.8542C16.487 38.7342 15.034 40.5462 13.579 42.3542C13.192 42.7849 12.71 43.1195 12.1712 43.3316C11.6325 43.5437 11.0517 43.6274 10.475 43.5762Z" fill="#D54D51"></path>
  <path d="M43.3459 51.9063C44.6779 50.0603 46.2759 48.6273 46.2629 46.2783C46.5459 46.3933 46.7429 46.4573 46.9239 46.5503C49.7159 47.9783 52.5029 49.4173 55.2999 50.8373C55.9949 51.1903 56.5089 51.5903 56.3999 52.4923C56.3568 52.867 56.1958 53.2183 55.94 53.4954C55.6842 53.7726 55.347 53.9613 54.9769 54.0343C53.5894 54.4027 52.1268 54.3788 50.7519 53.9653C48.3189 53.3673 45.9229 52.6313 43.3459 51.9063Z" fill="#260E55"></path>
</svg>
