<svg width="86" height="35" viewBox="0 0 86 35" fill="none" xmlns="http://www.w3.org/2000/svg">
<path d="M0.955994 0.799805H6.284V11.1678C6.77151 10.2478 7.52399 9.49532 8.444 9.0078C9.51006 8.45462 10.6994 8.18206 11.9 8.21581C12.8743 8.18641 13.8437 8.36434 14.744 8.73781C15.4796 9.06048 16.123 9.56162 16.616 10.1958C17.1712 10.8744 17.5541 11.6772 17.732 12.5358C17.9394 13.5895 18.036 14.662 18.02 15.7358V25.9998H12.692V17.1078C12.7364 16.0533 12.507 15.0053 12.026 14.0658C11.7765 13.6662 11.4198 13.3447 10.9966 13.1379C10.5734 12.931 10.1006 12.8472 9.632 12.8958C9.14557 12.863 8.6588 12.9548 8.2178 13.1627C7.77681 13.3706 7.3962 13.6877 7.112 14.0838C6.51514 15.0407 6.22614 16.1576 6.284 17.2838V25.9998H0.955994V0.799805ZM31.016 34.3158C29.7723 34.3367 28.5313 34.1914 27.326 33.8838C26.3345 33.6224 25.4087 33.1564 24.608 32.5158C23.8995 31.9243 23.3179 31.1957 22.898 30.3738C22.4328 29.4287 22.2042 28.3848 22.232 27.3318H27.74C27.7363 27.759 27.8262 28.1819 28.0034 28.5706C28.1807 28.9593 28.441 29.3045 28.766 29.5818C29.4245 30.1056 30.2469 30.3797 31.088 30.3558C31.9825 30.4082 32.8656 30.1331 33.572 29.5818C33.912 29.2076 34.1681 28.7652 34.3233 28.284C34.4786 27.8029 34.5292 27.2941 34.472 26.7918V23.2278C34.0016 24.1542 33.2524 24.9097 32.33 25.3878C31.2762 25.916 30.1083 26.1757 28.93 26.1438C27.8985 26.1675 26.8737 25.9712 25.924 25.5678C25.1419 25.2381 24.4545 24.7184 23.924 24.0558C23.3832 23.4068 23.0121 22.6337 22.844 21.8058C22.6589 20.7785 22.5745 19.7355 22.592 18.6918V8.64781H28.064V17.5398C28.0196 18.5943 28.249 19.6423 28.73 20.5818C28.9795 20.9814 29.3362 21.3029 29.7594 21.5097C30.1826 21.7166 30.6554 21.8005 31.124 21.7518C31.6135 21.7887 32.1042 21.6987 32.5488 21.4906C32.9934 21.2825 33.3768 20.9633 33.662 20.5638C34.2471 19.6026 34.5293 18.4876 34.472 17.3638V8.65181H39.98V26.4318C40.0083 27.6528 39.7879 28.8668 39.332 29.9998C38.9463 30.944 38.3416 31.7831 37.568 32.4478C36.7735 33.1098 35.8469 33.5946 34.85 33.8698C33.5986 34.194 32.3084 34.3441 31.016 34.3158ZM54.272 12.8998C53.6825 12.8925 53.0985 13.0154 52.562 13.2598C52.0644 13.4864 51.6175 13.8109 51.248 14.2138C50.8799 14.6227 50.5928 15.0978 50.402 15.6138C50.1968 16.1605 50.0931 16.7399 50.096 17.3238C50.0931 17.9077 50.1968 18.4872 50.402 19.0338C50.5928 19.5498 50.8799 20.0249 51.248 20.4338C51.6175 20.8368 52.0644 21.1612 52.562 21.3878C53.0985 21.6322 53.6825 21.7551 54.272 21.7478C54.8441 21.754 55.4101 21.6309 55.928 21.3878C56.4198 21.1583 56.8616 20.8341 57.228 20.4338C57.5961 20.0249 57.8832 19.5498 58.074 19.0338C58.2792 18.4872 58.3829 17.9077 58.38 17.3238C58.3829 16.7399 58.2792 16.1605 58.074 15.6138C57.8832 15.0978 57.5961 14.6227 57.228 14.2138C56.8616 13.8135 56.4198 13.4893 55.928 13.2598C55.4101 13.0167 54.8441 12.8936 54.272 12.8998ZM50.1 11.1318C50.3358 10.7221 50.6265 10.3467 50.964 10.0158C51.3376 9.64571 51.7618 9.33056 52.224 9.07981C52.7091 8.81372 53.2222 8.60242 53.754 8.44981C54.2982 8.29321 54.8617 8.21442 55.428 8.21581C56.6108 8.20177 57.7829 8.44042 58.866 8.91581C59.8805 9.36276 60.7931 10.012 61.548 10.8238C62.3106 11.6587 62.8982 12.638 63.276 13.7038C63.6916 14.8643 63.8988 16.0892 63.888 17.3218C63.8988 18.5544 63.6916 19.7793 63.276 20.9398C62.8982 22.0056 62.3106 22.9849 61.548 23.8198C60.7921 24.6328 59.8781 25.2827 58.862 25.7298C57.7789 26.2052 56.6068 26.4438 55.424 26.4298C54.8579 26.4325 54.2944 26.3551 53.75 26.1998C53.2182 26.0472 52.7051 25.8359 52.22 25.5698C51.7611 25.3212 51.3373 25.0125 50.96 24.6518C50.6138 24.3219 50.3221 23.9392 50.096 23.5178V33.8478H44.588V8.64781H50.1V11.1318ZM75.944 26.4678C74.5704 26.4893 73.2061 26.2385 71.93 25.7298C70.8008 25.2765 69.773 24.6035 68.906 23.7498C68.08 22.9236 67.4314 21.9375 67 20.8518C66.5526 19.7298 66.3264 18.5318 66.334 17.3238C66.3269 16.1172 66.5531 14.9206 67 13.7998C67.4318 12.7132 68.0811 11.7264 68.908 10.8998C69.775 10.0461 70.8029 9.37309 71.932 8.91981C73.2081 8.41111 74.5724 8.16028 75.946 8.1818C77.3315 8.15816 78.7079 8.40898 79.996 8.91981C81.1252 9.37309 82.153 10.0461 83.02 10.8998C83.8469 11.7264 84.4962 12.7132 84.928 13.7998C85.3754 14.9219 85.6016 16.1199 85.594 17.3278C85.6016 18.5357 85.3754 19.7338 84.928 20.8558C84.4962 21.9424 83.8469 22.9292 83.02 23.7558C82.153 24.6095 81.1252 25.2825 79.996 25.7358C78.7069 26.2448 77.3297 26.4936 75.944 26.4678ZM75.944 21.7518C76.5317 21.7591 77.1143 21.6426 77.654 21.4098C78.1565 21.1916 78.605 20.866 78.968 20.4558C79.3311 20.0432 79.6176 19.5691 79.814 19.0558C80.0223 18.5038 80.1261 17.9178 80.12 17.3278C80.1228 16.7439 80.0191 16.1645 79.814 15.6178C79.6232 15.1018 79.3361 14.6267 78.968 14.2178C78.5985 13.8149 78.1516 13.4904 77.654 13.2638C77.1175 13.0194 76.5336 12.8965 75.944 12.9038C75.3601 12.8952 74.7818 13.0182 74.252 13.2638C73.7602 13.4933 73.3184 13.8175 72.952 14.2178C72.5853 14.6245 72.3037 15.1005 72.124 15.6178C71.9304 16.167 71.833 16.7455 71.836 17.3278C71.83 17.9162 71.9275 18.5011 72.124 19.0558C72.3094 19.5704 72.5903 20.0454 72.952 20.4558C73.3119 20.8633 73.7553 21.1887 74.252 21.4098C74.785 21.6438 75.362 21.7604 75.944 21.7518Z" fill="#D54D51"/>
</svg>
