<svg width="148" height="28" viewBox="0 0 148 28" fill="none" xmlns="http://www.w3.org/2000/svg">
<path d="M10.448 16.7756C11.216 16.9916 11.936 17.225 12.608 17.4756C13.2365 17.7044 13.8302 18.0194 14.372 18.4116C14.8719 18.7792 15.2838 19.2533 15.578 19.7996C15.8997 20.4473 16.0544 21.165 16.028 21.8876C16.0578 22.7964 15.8467 23.6969 15.416 24.4976C15.0066 25.207 14.4246 25.8014 13.724 26.2256C12.9536 26.689 12.1072 27.012 11.224 27.1796C10.2215 27.377 9.20173 27.4734 8.17999 27.4676C6.1052 27.5829 4.04995 27.0137 2.32999 25.8476C1.62123 25.3061 1.05556 24.5995 0.682235 23.7894C0.30891 22.9793 0.139239 22.0903 0.187992 21.1996H5.58799C5.5528 21.5646 5.6046 21.9326 5.73914 22.2737C5.87368 22.6147 6.08713 22.919 6.36199 23.1616C6.94323 23.5782 7.64759 23.7874 8.36199 23.7556C8.93177 23.7815 9.49789 23.6522 9.99999 23.3816C10.2091 23.2526 10.3786 23.0684 10.4898 22.8493C10.6009 22.6302 10.6495 22.3846 10.63 22.1396C10.6443 21.8454 10.5479 21.5565 10.36 21.3296C10.124 21.0858 9.84273 20.8901 9.53199 20.7536C9.06611 20.538 8.58477 20.3575 8.09199 20.2136C7.50399 20.0336 6.80199 19.8116 5.98599 19.5476C5.26599 19.3316 4.58199 19.0983 3.93399 18.8476C3.32643 18.6174 2.75156 18.3088 2.22399 17.9296C1.73295 17.5708 1.33235 17.1024 1.05399 16.5616C0.744387 15.9104 0.596207 15.1942 0.621992 14.4736C0.57292 13.682 0.739525 12.8919 1.10406 12.1875C1.46859 11.4831 2.01739 10.8908 2.69199 10.4736C4.40091 9.52658 6.34062 9.07629 8.29199 9.17364C9.40651 9.15484 10.5174 9.3066 11.586 9.62364C12.4423 9.87438 13.2385 10.297 13.926 10.8656C14.5248 11.3757 14.9989 12.0161 15.312 12.7376C15.625 13.4638 15.7843 14.2469 15.78 15.0376H10.34C10.3784 14.4284 10.1783 13.828 9.78199 13.3636C9.55394 13.1512 9.28408 12.9886 8.98964 12.8863C8.6952 12.784 8.38266 12.7443 8.07199 12.7696C7.56596 12.7574 7.06676 12.8884 6.63199 13.1476C6.43313 13.2685 6.27104 13.4413 6.16319 13.6475C6.05534 13.8537 6.00582 14.0854 6.01999 14.3176C6.01021 14.6035 6.11372 14.8817 6.30799 15.0916C6.55148 15.3303 6.83873 15.5198 7.15399 15.6496C7.60504 15.8452 8.06795 16.0122 8.53999 16.1496C9.09199 16.327 9.72799 16.5356 10.448 16.7756ZM32.156 14.6516C31.8358 14.5678 31.5113 14.501 31.184 14.4516C30.8615 14.4122 30.5368 14.3942 30.212 14.3976C29.5477 14.3661 28.8839 14.4677 28.2595 14.6965C27.6351 14.9252 27.0627 15.2765 26.576 15.7296C25.664 16.6176 25.208 18.1176 25.208 20.2296V26.9996H19.7V9.64764H25.208V12.4556C25.6823 11.5679 26.3844 10.8224 27.242 10.2956C28.2103 9.66566 29.3449 9.33969 30.5 9.35964C31.0656 9.34476 31.6286 9.44266 32.156 9.64764V14.6516ZM42.308 27.4676C40.9344 27.4892 39.5701 27.2383 38.294 26.7296C37.1648 26.2764 36.137 25.6033 35.27 24.7496C34.4431 23.9231 33.7938 22.9362 33.362 21.8496C32.9162 20.7279 32.6914 19.5306 32.7 18.3236C32.6924 17.1157 32.9186 15.9177 33.366 14.7956C33.7978 13.7091 34.4471 12.7222 35.274 11.8956C36.141 11.0419 37.1688 10.3689 38.298 9.91564C39.5741 9.40694 40.9384 9.15611 42.312 9.17764C43.6975 9.15399 45.0739 9.40481 46.362 9.91564C47.4911 10.3689 48.519 11.0419 49.386 11.8956C50.2129 12.7222 50.8622 13.7091 51.294 14.7956C51.7414 15.9177 51.9676 17.1157 51.96 18.3236C51.9676 19.5316 51.7414 20.7296 51.294 21.8516C50.8622 22.9382 50.2129 23.925 49.386 24.7516C48.5177 25.6051 47.4884 26.2774 46.358 26.7296C45.0699 27.2405 43.6935 27.4913 42.308 27.4676ZM42.308 22.7516C42.8957 22.759 43.4783 22.6425 44.018 22.4096C44.5204 22.1915 44.969 21.8658 45.332 21.4556C45.6951 21.0431 45.9816 20.5689 46.178 20.0556C46.3863 19.5036 46.4901 18.9176 46.484 18.3276C46.4868 17.7438 46.3831 17.1643 46.178 16.6176C45.9872 16.1016 45.7001 15.6265 45.332 15.2176C44.9624 14.8147 44.5156 14.4902 44.018 14.2636C43.4814 14.0192 42.8975 13.8963 42.308 13.9036C41.7241 13.895 41.1458 14.018 40.616 14.2636C40.1242 14.4931 39.6824 14.8173 39.316 15.2176C38.9493 15.6243 38.6677 16.1004 38.488 16.6176C38.2944 17.1669 38.197 17.7453 38.2 18.3276C38.194 18.9161 38.2915 19.501 38.488 20.0556C38.6734 20.5703 38.9543 21.0453 39.316 21.4556C39.6759 21.8632 40.1193 22.1885 40.616 22.4096C41.149 22.6436 41.726 22.7602 42.308 22.7516ZM57.716 9.65164L61.928 20.5556L66.176 9.64764H71.936L64.088 26.9996H59.7L51.96 9.64764L57.716 9.65164ZM74.204 9.65164H79.712V12.1716C80.1914 11.234 80.9533 10.4707 81.89 9.98964C82.9786 9.4471 84.1842 9.18125 85.4 9.21564C86.3972 9.19132 87.3891 9.36888 88.316 9.73764C89.0803 10.0473 89.7504 10.5513 90.26 11.1996C90.8125 11.8711 91.1904 12.6688 91.36 13.5216C91.5555 14.5721 91.6459 15.6393 91.63 16.7076V26.9996H86.12V18.1076C86.1644 17.0531 85.935 16.0051 85.454 15.0656C85.204 14.6668 84.8471 14.3461 84.4239 14.14C84.0007 13.9338 83.5282 13.8506 83.06 13.8996C82.5736 13.8668 82.0868 13.9587 81.6458 14.1666C81.2048 14.3745 80.8242 14.6915 80.54 15.0876C79.9431 16.0445 79.6541 17.1614 79.712 18.2876V26.9996H74.2L74.204 9.65164ZM104.588 22.7516C105.172 22.7603 105.75 22.6372 106.28 22.3916C106.772 22.1621 107.214 21.838 107.58 21.4376C107.948 21.0287 108.235 20.5537 108.426 20.0376C108.631 19.491 108.735 18.9115 108.732 18.3276C108.736 17.7495 108.632 17.1757 108.426 16.6356C108.23 16.1223 107.943 15.6482 107.58 15.2356C107.218 14.8262 106.775 14.4954 106.28 14.2636C105.75 14.018 105.172 13.895 104.588 13.9036C104.004 13.895 103.426 14.018 102.896 14.2636C102.401 14.4954 101.958 14.8262 101.596 15.2356C101.233 15.6482 100.946 16.1223 100.75 16.6356C100.544 17.1757 100.44 17.7495 100.444 18.3276C100.441 18.9115 100.545 19.491 100.75 20.0376C100.941 20.5537 101.228 21.0287 101.596 21.4376C101.962 21.838 102.404 22.1621 102.896 22.3916C103.426 22.6372 104.004 22.7603 104.588 22.7516ZM114.236 9.65164V26.9996H108.728V24.5516C108.502 24.973 108.21 25.3558 107.864 25.6856C107.493 26.0413 107.075 26.3442 106.622 26.5856C106.136 26.8449 105.623 27.0501 105.092 27.1976C104.553 27.3518 103.996 27.4305 103.436 27.4316C102.254 27.4448 101.082 27.2054 100 26.7296C98.9855 26.2827 98.0729 25.6334 97.318 24.8216C96.5554 23.9867 95.9678 23.0075 95.59 21.9416C95.1744 20.7811 94.9672 19.5563 94.978 18.3236C94.9672 17.091 95.1744 15.8661 95.59 14.7056C95.9678 13.6398 96.5554 12.6605 97.318 11.8256C98.0729 11.0138 98.9855 10.3646 100 9.91764C101.083 9.44225 102.255 9.2036 103.438 9.21764C103.998 9.21878 104.555 9.29753 105.094 9.45164C105.627 9.59991 106.141 9.81141 106.624 10.0816C107.079 10.3356 107.497 10.6505 107.866 11.0176C108.204 11.3485 108.494 11.724 108.73 12.1336V9.64964L114.236 9.65164ZM118.916 9.65164H124.424V12.1716C124.903 11.2343 125.664 10.4711 126.6 9.98964C127.689 9.4471 128.894 9.18125 130.11 9.21564C131.107 9.19132 132.099 9.36888 133.026 9.73764C133.79 10.0462 134.46 10.5488 134.97 11.1956C135.523 11.8671 135.9 12.6648 136.07 13.5176C136.265 14.568 136.356 15.6353 136.34 16.7036V26.9996H130.832V18.1076C130.876 17.0531 130.647 16.0051 130.166 15.0656C129.916 14.6661 129.56 14.3445 129.137 14.1377C128.713 13.9309 128.241 13.847 127.772 13.8956C127.286 13.8628 126.799 13.9547 126.358 14.1626C125.917 14.3705 125.536 14.6875 125.252 15.0836C124.655 16.0405 124.366 17.1574 124.424 18.2836V26.9996H118.916V9.65164ZM139.976 3.89164C139.965 3.43071 140.05 2.97252 140.223 2.5453C140.396 2.11809 140.655 1.73091 140.984 1.40764C141.312 1.077 141.705 0.817016 142.138 0.643673C142.57 0.47033 143.034 0.387284 143.5 0.399639C143.98 0.395778 144.456 0.487564 144.9 0.669639C145.321 0.842398 145.706 1.09275 146.034 1.40764C146.36 1.72333 146.618 2.10334 146.79 2.52364C146.97 2.95708 147.062 3.4222 147.06 3.89164C147.063 4.35537 146.971 4.81484 146.79 5.24164C146.612 5.65872 146.355 6.03762 146.034 6.35764C145.71 6.68196 145.324 6.93889 144.9 7.11364C144.456 7.29571 143.98 7.3875 143.5 7.38364C143.024 7.38925 142.553 7.29736 142.114 7.11364C141.697 6.93421 141.319 6.67617 141 6.35364C140.679 6.03362 140.422 5.65472 140.244 5.23764C140.063 4.81069 139.972 4.35123 139.976 3.88764V3.89164ZM140.768 9.65164H146.276V26.9996H140.768V9.65164Z" fill="white"/>
</svg>
