<?xml version="1.0" encoding="utf-8"?>
<!-- Generator: Adobe Illustrator 26.0.3, SVG Export Plug-In . SVG Version: 6.00 Build 0)  -->
<svg version="1.1" id="Vrstva_1" xmlns="http://www.w3.org/2000/svg" xmlns:xlink="http://www.w3.org/1999/xlink" x="0px" y="0px"
	 width="40px" height="40px" viewBox="0 0 40 40" style="enable-background:new 0 0 40 40;" xml:space="preserve">
<style type="text/css">
	.st0{fill:#010202;}
	.st1{fill-rule:evenodd;clip-rule:evenodd;fill:#010202;}
	.st2{fill:none;stroke:#010202;stroke-width:1.6;stroke-linecap:round;stroke-linejoin:round;}
	.st3{fill:none;stroke:#010202;stroke-width:1.6;stroke-linecap:round;}
	.st4{fill:none;stroke:#010202;stroke-width:1.6;stroke-linejoin:round;}
	.st5{fill:none;stroke:#010202;stroke-width:1.6;}
</style>
<path class="st1" d="M15.9,1.7c-4.5,0-8.2,3.7-8.2,8.2c0,4.5,3.7,8.2,8.2,8.2c4.5,0,8.2-3.7,8.2-8.2C24.1,5.3,20.4,1.7,15.9,1.7z
	 M10.6,9.9c0-2.9,2.4-5.3,5.3-5.3c2.9,0,5.3,2.4,5.3,5.3c0,2.9-2.4,5.3-5.3,5.3C13,15.1,10.6,12.8,10.6,9.9z"/>
<path class="st0" d="M3.9,28.1c0-2.4,1.9-4.3,4.3-4.3h0.7c0.1,0,0.1,0,0.1,0l1.7,0.5c1.3,0.4,2.7,0.7,4,0.8c0.3,0,0.5-0.2,0.6-0.5
	c0.1-0.6,0.3-1.2,0.6-1.8c0.1-0.3-0.1-0.5-0.4-0.6c-1.3,0-2.6-0.3-3.9-0.7l-1.7-0.5c-0.3-0.1-0.7-0.2-1-0.2H8.2
	c-4,0-7.2,3.2-7.2,7.2v2.3c0,1.4,1.1,2.7,2.5,2.9c4.2,0.7,8.3,1,12.5,1c0.3,0,0.5-0.3,0.3-0.6c-0.3-0.6-0.5-1.2-0.7-1.8
	c-0.1-0.3-0.4-0.6-0.7-0.6c-3.7-0.1-7.3-0.4-10.9-1c0,0-0.1,0-0.1-0.1V28.1z"/>
<path class="st0" d="M29.9,24.9c0-0.8-0.6-1.4-1.4-1.4c-0.8,0-1.4,0.6-1.4,1.4v3.4c0,0.5,0.2,0.9,0.6,1.2l1.9,1.4
	c0.6,0.5,1.5,0.3,2-0.3c0.5-0.6,0.3-1.5-0.3-2l-1.3-1V24.9z"/>
<path class="st1" d="M28.4,38.3c5.8,0,10.6-4.7,10.6-10.6s-4.7-10.6-10.6-10.6s-10.6,4.7-10.6,10.6S22.6,38.3,28.4,38.3z M28.4,35.4
	c4.3,0,7.7-3.4,7.7-7.7S32.7,20,28.4,20s-7.7,3.4-7.7,7.7S24.2,35.4,28.4,35.4z"/>
</svg>
