<svg xmlns="http://www.w3.org/2000/svg" width="65" height="64" fill="none" viewBox="0 0 65 64">
  <circle cx="32.5" cy="32" r="32" fill="#DCF8F5"/>
  <path stroke="#323232" stroke-linecap="round" stroke-linejoin="round" stroke-width="2" d="M53.833 21.333V16a8 8 0 0 0-8-8h-32a8 8 0 0 0-8 8v24a8 8 0 0 0 8 8H32.5"/>
  <path stroke="#323232" stroke-linecap="round" stroke-linejoin="round" stroke-width="2" d="M17.833 26.666h5.334c.736 0 1.333.597 1.333 1.333v9.334h-8v-9.334c0-.736.597-1.333 1.333-1.333Zm8-10.666h5.334c.736 0 1.333.597 1.333 1.333v20h-8v-20c0-.736.597-1.333 1.333-1.333Z" clip-rule="evenodd"/>
  <path stroke="#323232" stroke-linecap="round" stroke-linejoin="round" stroke-width="2" d="M40.5 26.667v-4c0-.736-.597-1.333-1.333-1.333h-5.334c-.736 0-1.333.597-1.333 1.333v14.667h2.667"/>
  <path stroke="#323232" stroke-linecap="round" stroke-linejoin="round" stroke-width="2" d="M59.833 54.66v-1.332a5.333 5.333 0 0 0-5.333-5.334h-9.334a5.333 5.333 0 0 0-5.333 5.334v1.333c0 .736.597 1.333 1.333 1.333H58.5c.736 0 1.333-.597 1.333-1.333Z" clip-rule="evenodd"/>
  <circle cx="49.833" cy="35.999" r="5.333" stroke="#323232" stroke-linecap="round" stroke-linejoin="round" stroke-width="2"/>
</svg>
