<?xml version="1.0" encoding="utf-8"?>
<!-- Generator: Adobe Illustrator 26.0.3, SVG Export Plug-In . SVG Version: 6.00 Build 0)  -->
<svg version="1.1" id="Vrstva_1" xmlns="http://www.w3.org/2000/svg" xmlns:xlink="http://www.w3.org/1999/xlink" x="0px" y="0px"
	 width="40px" height="40px" viewBox="0 0 40 40" style="enable-background:new 0 0 40 40;" xml:space="preserve">
<style type="text/css">
	.st0{fill:#010202;}
	.st1{fill-rule:evenodd;clip-rule:evenodd;fill:#010202;}
	.st2{fill:none;stroke:#010202;stroke-width:1.6;stroke-linecap:round;stroke-linejoin:round;}
	.st3{fill:none;stroke:#010202;stroke-width:1.6;stroke-linecap:round;}
	.st4{fill:none;stroke:#010202;stroke-width:1.6;stroke-linejoin:round;}
	.st5{fill:none;stroke:#010202;stroke-width:1.6;}
</style>
<path class="st0" d="M38.2,6.4L23.7,1.2C22.9,0.9,22,1.5,22,2.4v5.8H18V2.4c0-0.8-0.8-1.4-1.6-1.1L1.8,6.4C1.3,6.6,1,7,1,7.6v30.4
	c0,0.7,0.5,1.2,1.2,1.2h35.6c0.7,0,1.2-0.5,1.2-1.2V7.6C39,7,38.7,6.6,38.2,6.4z M36.6,36.7H3.4V8.4l12.1-4.3v29.8H18V10.6H22V34
	h2.4V4.1l12.1,4.3V36.7z"/>
<path class="st0" d="M26.7,8.5h2.4v3.3h-2.4V8.5z"/>
<path class="st0" d="M26.7,16.1h2.4v3.2h-2.4V16.1z"/>
<path class="st0" d="M26.7,23.5h2.4v3.2h-2.4V23.5z"/>
<path class="st0" d="M31.9,16.1h2.4v3.2h-2.4V16.1z"/>
<path class="st0" d="M31.9,23.5h2.4v3.2h-2.4V23.5z"/>
<path class="st0" d="M26.7,30.9h2.4v3.2h-2.4V30.9z"/>
<path class="st0" d="M31.9,30.9h2.4v3.2h-2.4V30.9z"/>
<path class="st0" d="M10.9,8.5h2.4v3.3h-2.4V8.5z"/>
<path class="st0" d="M10.9,16.1h2.4v3.2h-2.4V16.1z"/>
<path class="st0" d="M10.9,23.5h2.4v3.2h-2.4V23.5z"/>
<path class="st0" d="M5.7,16.1h2.4v3.2H5.7V16.1z"/>
<path class="st0" d="M5.7,23.5h2.4v3.2H5.7V23.5z"/>
<path class="st0" d="M10.9,30.9h2.4v3.2h-2.4V30.9z"/>
<path class="st0" d="M5.7,30.9h2.4v3.2H5.7V30.9z"/>
</svg>
