<svg xmlns="http://www.w3.org/2000/svg" width="40" height="40" fill="none" viewBox="0 0 40 40">
  <path stroke="#7FDAD1" stroke-linecap="round" stroke-linejoin="round" stroke-width="2" d="M21.667 35h7.857a3.332 3.332 0 0 0 3.333-3.333v-25c0-.92-.747-1.667-1.667-1.667h-3.095c-.92 0-1.666.747-1.666 1.667v3.843"/>
  <path stroke="#7FDAD1" stroke-linecap="round" stroke-linejoin="round" stroke-width="2" d="M5 17.856 17.83 6.859a3.333 3.333 0 0 1 4.338 0L35 17.856M5.437 34.124a.435.435 0 0 0-.435.437.436.436 0 1 0 .872.002.439.439 0 0 0-.437-.439m5.396.876c-.075-3.417-2.418-5.76-5.833-5.835m0-5.831c1.475.017 2.858.267 4.123.713 3.239 1.145 5.687 3.592 6.83 6.83.447 1.265.697 2.649.714 4.124"/>
</svg>
