<?xml version="1.0" encoding="utf-8"?>
<!-- Generator: Adobe Illustrator 26.0.3, SVG Export Plug-In . SVG Version: 6.00 Build 0)  -->
<svg version="1.1" id="Vrstva_1" xmlns="http://www.w3.org/2000/svg" xmlns:xlink="http://www.w3.org/1999/xlink" x="0px" y="0px"
	 width="40px" height="40px" viewBox="0 0 40 40" style="enable-background:new 0 0 40 40;" xml:space="preserve">
<style type="text/css">
	.st0{fill:#010202;}
	.st1{fill-rule:evenodd;clip-rule:evenodd;fill:#010202;}
	.st2{fill:none;stroke:#010202;stroke-width:1.6;stroke-linecap:round;stroke-linejoin:round;}
	.st3{fill:none;stroke:#010202;stroke-width:1.6;stroke-linecap:round;}
	.st4{fill:none;stroke:#010202;stroke-width:1.6;stroke-linejoin:round;}
	.st5{fill:none;stroke:#010202;stroke-width:1.6;}
</style>
<path class="st0" d="M20,36c-0.7,0-1.2-0.6-1.2-1.2v-6.2c0-0.7,0.6-1.2,1.2-1.2s1.2,0.6,1.2,1.2v6.2C21.2,35.4,20.7,36,20,36z"/>
<path class="st0" d="M23.9,36h-7.8c-0.7,0-1.2-0.6-1.2-1.2s0.6-1.2,1.2-1.2h7.8c0.7,0,1.2,0.6,1.2,1.2S24.6,36,23.9,36z"/>
<path class="st0" d="M20,29.8c-11.5,0-15.2-3.1-15.2-12.9S8.5,4,20,4c11.5,0,15.2,3.1,15.2,12.9S31.5,29.8,20,29.8z M20,6.5
	c-10.2,0-12.7,2-12.7,10.4c0,8.3,2.6,10.4,12.7,10.4c10.1,0,12.7-2.1,12.7-10.4C32.7,8.5,30.2,6.5,20,6.5z"/>
</svg>
