<?xml version="1.0" encoding="utf-8"?>
<!-- Generator: Adobe Illustrator 26.0.3, SVG Export Plug-In . SVG Version: 6.00 Build 0)  -->
<svg version="1.1" id="Vrstva_1" xmlns="http://www.w3.org/2000/svg" xmlns:xlink="http://www.w3.org/1999/xlink" x="0px" y="0px"
	 width="40px" height="40px" viewBox="0 0 40 40" style="enable-background:new 0 0 40 40;" xml:space="preserve">
<style type="text/css">
	.st0{fill:#010202;}
	.st1{fill-rule:evenodd;clip-rule:evenodd;fill:#010202;}
	.st2{fill:none;stroke:#010202;stroke-width:1.6;stroke-linecap:round;stroke-linejoin:round;}
	.st3{fill:none;stroke:#010202;stroke-width:1.6;stroke-linecap:round;}
	.st4{fill:none;stroke:#010202;stroke-width:1.6;stroke-linejoin:round;}
	.st5{fill:none;stroke:#010202;stroke-width:1.6;}
</style>
<path class="st0" d="M20,36.2C5.5,36.2,1,34,1,20C1,6,5.5,3.8,20,3.8C34.5,3.8,39,6,39,20C39,34,34.5,36.2,20,36.2z M20,6.7
	C6.2,6.7,4,8.6,4,20S6.2,33.3,20,33.3c13.8,0,16-1.9,16-13.3S33.8,6.7,20,6.7z"/>
<path class="st0" d="M29.2,15.9H10.8c-0.8,0-1.5-0.7-1.5-1.5S10,13,10.8,13h18.4c0.8,0,1.5,0.7,1.5,1.5S30,15.9,29.2,15.9z"/>
</svg>
