<svg xmlns="http://www.w3.org/2000/svg" width="40" height="40" fill="none" viewBox="0 0 40 40">
  <path stroke="#7FDAD1" stroke-linecap="round" stroke-linejoin="round" stroke-width="2" d="M12.5 19.333a7.502 7.502 0 0 0 15 0v-.063a7.42 7.42 0 0 0-2.515-5.575 1.5 1.5 0 0 0-2.465 1.157v4.105a.375.375 0 0 1-.375.375h-4.29a.375.375 0 0 1-.375-.375v-4.105a1.5 1.5 0 0 0-2.465-1.157A7.419 7.419 0 0 0 12.5 19.27"/>
  <circle cx="20" cy="20" r="15" stroke="#7FDAD1" stroke-linecap="round" stroke-linejoin="round" stroke-width="2"/>
  <path stroke="#7FDAD1" stroke-linecap="round" stroke-linejoin="round" stroke-width="2" d="M16.666 34.628v-8.724m6.667 8.725v-8.725"/>
</svg>
