<?xml version="1.0" encoding="utf-8"?>
<!-- Generator: Adobe Illustrator 26.0.3, SVG Export Plug-In . SVG Version: 6.00 Build 0)  -->
<svg version="1.1" id="Vrstva_1" xmlns="http://www.w3.org/2000/svg" xmlns:xlink="http://www.w3.org/1999/xlink" x="0px" y="0px"
	 width="40px" height="40px" viewBox="0 0 40 40" style="enable-background:new 0 0 40 40;" xml:space="preserve">
<style type="text/css">
	.st0{fill:#010202;}
	.st1{fill-rule:evenodd;clip-rule:evenodd;fill:#010202;}
	.st2{fill:none;stroke:#010202;stroke-width:1.6;stroke-linecap:round;stroke-linejoin:round;}
	.st3{fill:none;stroke:#010202;stroke-width:1.6;stroke-linecap:round;}
	.st4{fill:none;stroke:#010202;stroke-width:1.6;stroke-linejoin:round;}
	.st5{fill:none;stroke:#010202;stroke-width:1.6;}
</style>
<path class="st0" d="M17.1,28c0-1.6,1.3-2.9,2.9-2.9c1.6,0,2.9,1.3,2.9,2.9c0,1.6-1.3,2.9-2.9,2.9C18.4,30.9,17.1,29.6,17.1,28z"/>
<path class="st1" d="M11.4,17.4l-0.6-5.6c-0.1-0.7-0.1-1.4,0-2.2l0-0.4c0.5-4.3,3.8-7.7,8.1-8.2c0.7-0.1,1.4-0.1,2.2,0
	c4.3,0.5,7.6,3.9,8.1,8.2l0,0.4c0.1,0.7,0.1,1.4,0,2.2l-0.6,5.6l1.3,0.1c2.1,0.2,3.9,1.8,4.2,3.9c0.7,4.4,0.7,8.9,0,13.3
	c-0.3,2.1-2.1,3.7-4.2,3.9L27,38.7c-4.7,0.4-9.4,0.4-14,0L10,38.5c-2.1-0.2-3.9-1.8-4.2-3.9c-0.7-4.4-0.7-8.9,0-13.3
	c0.3-2.1,2.1-3.7,4.2-3.9L11.4,17.4z M19.3,4c0.5-0.1,1-0.1,1.5,0c2.9,0.3,5.2,2.6,5.5,5.6l0,0.4c0.1,0.5,0.1,1,0,1.5l-0.6,5.7
	c-3.8-0.2-7.6-0.2-11.3,0l-0.6-5.7c-0.1-0.5-0.1-1,0-1.5l0-0.4C14.1,6.6,16.4,4.3,19.3,4z M26.8,20.2c-4.5-0.4-9-0.4-13.6,0
	l-2.9,0.2c-0.8,0.1-1.4,0.6-1.5,1.4c-0.7,4.1-0.7,8.2,0,12.3c0.1,0.8,0.8,1.4,1.5,1.4l2.9,0.2c4.5,0.4,9,0.4,13.6,0l2.9-0.2
	c0.8-0.1,1.4-0.6,1.5-1.4c0.7-4.1,0.7-8.2,0-12.3c-0.1-0.8-0.8-1.4-1.5-1.4L26.8,20.2z"/>
</svg>
