<?xml version="1.0" encoding="utf-8"?>
<!-- Generator: Adobe Illustrator 26.0.3, SVG Export Plug-In . SVG Version: 6.00 Build 0)  -->
<svg version="1.1" id="Vrstva_1" xmlns="http://www.w3.org/2000/svg" xmlns:xlink="http://www.w3.org/1999/xlink" x="0px" y="0px"
	 width="40px" height="40px" viewBox="0 0 40 40" style="enable-background:new 0 0 40 40;" xml:space="preserve">
<style type="text/css">
	.st0{fill:#010202;}
	.st1{fill-rule:evenodd;clip-rule:evenodd;fill:#010202;}
	.st2{fill:none;stroke:#010202;stroke-width:1.6;stroke-linecap:round;stroke-linejoin:round;}
	.st3{fill:none;stroke:#010202;stroke-width:1.6;stroke-linecap:round;}
	.st4{fill:none;stroke:#010202;stroke-width:1.6;stroke-linejoin:round;}
	.st5{fill:none;stroke:#010202;stroke-width:1.6;}
</style>
<path class="st0" d="M20,39c-1.8,0-3.5-0.1-5.2-0.3c-2.4-0.3-4.7-0.9-6.5-1.7c-1.9-0.8-3.3-1.8-4.2-2.9c-1-1.3-1.1-2.8-0.5-4.2
	c0.3-0.6,1-0.9,1.6-0.6c0.6,0.3,0.9,1,0.6,1.6c-0.2,0.3-0.3,0.9,0.2,1.7c0.4,0.5,1.3,1.3,3.2,2.1c1.6,0.7,3.6,1.2,5.9,1.5
	c2.3,0.3,4.7,0.4,7,0.3c2.3-0.1,4.6-0.5,6.5-1c1.9-0.5,3.4-1.2,4.4-2c0.6-0.4,1.2-1.1,1.2-1.9c0-0.7,0.5-1.2,1.2-1.2
	c0.7,0,1.2,0.5,1.2,1.2c0,1-0.4,2.4-2.2,3.8c-1.3,1-3,1.8-5.2,2.4c-2.1,0.6-4.5,1-7.1,1.1C21.5,39,20.8,39,20,39z"/>
<path class="st0" d="M20,34.1c-3.1,0-5.9-1.7-7.1-4.3L7.5,18.2c-1.7-3.6-1.4-7.6,0.8-11C10.7,3.3,15.1,1,20,1s9.3,2.3,11.7,6.1
	c2.2,3.4,2.5,7.4,0.8,11l-5.4,11.7C25.9,32.4,23.1,34.1,20,34.1z M20,3.5c-4,0-7.7,1.9-9.6,5c-1.7,2.7-1.9,5.9-0.6,8.7l5.4,11.7
	c0.8,1.7,2.7,2.9,4.9,2.9s4.1-1.1,4.9-2.9l5.4-11.7c1.3-2.8,1.1-6-0.6-8.7C27.7,5.3,24,3.5,20,3.5z"/>
<ellipse class="st0" cx="20" cy="12" rx="3.9" ry="3.7"/>
</svg>
