<?xml version="1.0" encoding="utf-8"?>
<!-- Generator: Adobe Illustrator 26.0.3, SVG Export Plug-In . SVG Version: 6.00 Build 0)  -->
<svg version="1.1" id="Vrstva_1" xmlns="http://www.w3.org/2000/svg" xmlns:xlink="http://www.w3.org/1999/xlink" x="0px" y="0px"
	 width="40px" height="40px" viewBox="0 0 40 40" style="enable-background:new 0 0 40 40;" xml:space="preserve">
<style type="text/css">
	.st0{fill:#010202;}
	.st1{fill-rule:evenodd;clip-rule:evenodd;fill:#010202;}
	.st2{fill:none;stroke:#010202;stroke-width:1.6;stroke-linecap:round;stroke-linejoin:round;}
	.st3{fill:none;stroke:#010202;stroke-width:1.6;stroke-linecap:round;}
	.st4{fill:none;stroke:#010202;stroke-width:1.6;stroke-linejoin:round;}
	.st5{fill:none;stroke:#010202;stroke-width:1.6;}
</style>
<path class="st0" d="M20,39c-4.7,0-16.7-9.4-16.7-21.3c0-4.5,1.7-8.7,4.9-11.8C11.3,2.7,15.5,1,20,1c0,0,0,0,0,0
	c9.2,0,16.7,7.5,16.7,16.7C36.7,29.6,24.7,39,20,39z M20,4c-3.7,0-7.1,1.4-9.7,4c-2.6,2.6-4,6-4,9.7C6.3,28.2,17.1,36,20,36
	s13.7-7.8,13.7-18.2C33.7,10.2,27.6,4,20,4L20,4z"/>
<path class="st0" d="M20,23.8c-3.8,0-7-3.1-7-7c0-3.8,3.1-7,7-7s7,3.1,7,7C27,20.6,23.8,23.8,20,23.8z M20,12.9
	c-2.2,0-3.9,1.8-3.9,4c0,2.2,1.8,4,3.9,4c2.2,0,4-1.8,4-4C24,14.6,22.2,12.9,20,12.9z"/>
</svg>
