<?xml version="1.0" encoding="utf-8"?>
<!-- Generator: Adobe Illustrator 26.0.3, SVG Export Plug-In . SVG Version: 6.00 Build 0)  -->
<svg version="1.1" id="Vrstva_1" xmlns="http://www.w3.org/2000/svg" xmlns:xlink="http://www.w3.org/1999/xlink" x="0px" y="0px"
	 width="40px" height="40px" viewBox="0 0 40 40" style="enable-background:new 0 0 40 40;" xml:space="preserve">
<style type="text/css">
	.st0{fill:#010202;}
	.st1{fill-rule:evenodd;clip-rule:evenodd;fill:#010202;}
	.st2{fill:none;stroke:#010202;stroke-width:1.6;stroke-linecap:round;stroke-linejoin:round;}
	.st3{fill:none;stroke:#010202;stroke-width:1.6;stroke-linecap:round;}
	.st4{fill:none;stroke:#010202;stroke-width:1.6;stroke-linejoin:round;}
	.st5{fill:none;stroke:#010202;stroke-width:1.6;}
</style>
<path class="st3" d="M5.6,11.8H1.5 M17.9,11.8h20.6"/>
<path class="st3" d="M34.4,28.2h4.1 M22.1,28.2H1.5"/>
<path class="st3" d="M11.8,17.9c3.4,0,6.2-2.7,6.2-6.2s-2.8-6.2-6.2-6.2c-3.4,0-6.2,2.7-6.2,6.2S8.4,17.9,11.8,17.9z"/>
<path class="st3" d="M28.2,34.4c-3.4,0-6.2-2.7-6.2-6.2c0-3.4,2.8-6.2,6.2-6.2c3.4,0,6.2,2.7,6.2,6.2C34.4,31.7,31.6,34.4,28.2,34.4
	z"/>
</svg>
