<svg xmlns="http://www.w3.org/2000/svg" width="65" height="64" fill="none" viewBox="0 0 65 64">
  <circle cx="32.5" cy="32" r="32" fill="#DCF8F5"/>
  <path stroke="#323232" stroke-linecap="round" stroke-linejoin="round" stroke-width="2" d="M19.167 53.334V27.778c0-1.82.928-3.514 2.462-4.494l8-5.111a5.333 5.333 0 0 1 5.743 0l8 5.111a5.333 5.333 0 0 1 2.462 4.494v4M32.5 5.334h10.667v6.667H32.5m0 5.333v-12"/>
  <path stroke="#323232" stroke-linecap="round" stroke-linejoin="round" stroke-width="2" d="M32.499 29a.332.332 0 1 0 .005 0h-.005M5.833 53.333H32.5m-24 0v-24a2.667 2.667 0 0 1 2.667-2.667h8.119M56.5 32v-2.667a2.667 2.667 0 0 0-2.667-2.667h-8.12"/>
  <circle cx="48.5" cy="48.001" r="10.667" stroke="#323232" stroke-linecap="round" stroke-linejoin="round" stroke-width="2"/>
  <path stroke="#323232" stroke-linecap="round" stroke-linejoin="round" stroke-width="2" d="M48.246 44.404v4.157l3.276 1.998M32.5 40h-1.333a2.667 2.667 0 0 0-2.667 2.667v10.666"/>
</svg>
