<svg xmlns="http://www.w3.org/2000/svg" width="40" height="40" fill="none" viewBox="0 0 40 40">
  <path stroke="#7FDAD1" stroke-linecap="round" stroke-linejoin="round" stroke-width="2" d="M8.853 17.526 23.18 22.74a1.665 1.665 0 0 0 2.133-.995l1.59-4.37a1.653 1.653 0 0 1 1.716-1.08l6.394.628a.992.992 0 0 0 1.03-.648l.564-1.551a.992.992 0 0 0-.593-1.272l-22.668-8.25a3.33 3.33 0 0 0-4.268 1.99L6.87 13.26a3.324 3.324 0 0 0 1.984 4.266ZM5 23.334h3.333c.92 0 1.667.746 1.667 1.667v6.666c0 .92-.746 1.667-1.667 1.667H5v-10Z" clip-rule="evenodd"/>
  <path stroke="#7FDAD1" stroke-linecap="round" stroke-linejoin="round" stroke-width="2" d="M16.667 20.37v6.296c0 .92-.747 1.667-1.667 1.667h-5m6.666-17.12L13.333 10m20.092 6.768L32 20.68a2.763 2.763 0 0 1-3.542 1.652l-2.966-1.08"/>
</svg>
