<svg xmlns="http://www.w3.org/2000/svg" width="40" height="40" fill="none" viewBox="0 0 40 40">
  <path stroke="#7FDAD1" stroke-linecap="round" stroke-linejoin="round" stroke-width="2" d="M27.5 21.742v0a3.903 3.903 0 0 1-3.68 4.092h-7.636a3.905 3.905 0 0 1-3.684-4.09v0a3.903 3.903 0 0 1 3.682-4.092h7.636a3.902 3.902 0 0 1 3.682 4.09v0Z" clip-rule="evenodd"/>
  <path stroke="#7FDAD1" stroke-linecap="round" stroke-linejoin="round" stroke-width="2" d="m27.488 21.412-.405-5.81a3.333 3.333 0 0 0-3.326-3.102h-7.513a3.333 3.333 0 0 0-3.325 3.101l-.405 5.809"/>
  <path stroke="#7FDAD1" stroke-linecap="round" stroke-linejoin="round" stroke-width="2" d="M5.833 17.945a17.682 17.682 0 0 0 11.487 16.56l.05.02a7.5 7.5 0 0 0 5.26-.002l.04-.015a17.711 17.711 0 0 0 11.496-16.585v-6.206a3.333 3.333 0 0 0-2.34-3.182L20.995 5.152a3.333 3.333 0 0 0-1.988 0L8.173 8.535a3.333 3.333 0 0 0-2.34 3.182v6.228Z" clip-rule="evenodd"/>
  <path stroke="#7FDAD1" stroke-linecap="round" stroke-linejoin="round" stroke-width="2" d="M16.75 21.667a.083.083 0 1 1-.167 0 .083.083 0 0 1 .167 0"/>
</svg>
