<?xml version="1.0" encoding="utf-8"?>
<!-- Generator: Adobe Illustrator 26.0.3, SVG Export Plug-In . SVG Version: 6.00 Build 0)  -->
<svg version="1.1" id="Vrstva_1" xmlns="http://www.w3.org/2000/svg" xmlns:xlink="http://www.w3.org/1999/xlink" x="0px" y="0px"
	 width="40px" height="40px" viewBox="0 0 40 40" style="enable-background:new 0 0 40 40;" xml:space="preserve">
<style type="text/css">
	.st0{fill:#010202;}
	.st1{fill-rule:evenodd;clip-rule:evenodd;fill:#010202;}
	.st2{fill:none;stroke:#010202;stroke-width:1.6;stroke-linecap:round;stroke-linejoin:round;}
	.st3{fill:none;stroke:#010202;stroke-width:1.6;stroke-linecap:round;}
	.st4{fill:none;stroke:#010202;stroke-width:1.6;stroke-linejoin:round;}
	.st5{fill:none;stroke:#010202;stroke-width:1.6;}
</style>
<path class="st0" d="M20,35.2C7.9,35.2,3.2,31,3.2,20C3.2,9,7.9,4.8,20,4.8S36.8,9,36.8,20C36.8,31,32.1,35.2,20,35.2z M20,7.3
	C9.2,7.3,5.7,10.4,5.7,20c0,9.6,3.5,12.7,14.3,12.7S34.3,29.6,34.3,20C34.3,10.4,30.8,7.3,20,7.3z"/>
<circle class="st0" cx="20" cy="20" r="1.6"/>
<circle class="st0" cx="26.2" cy="20" r="1.6"/>
<circle class="st0" cx="20" cy="13.8" r="1.6"/>
<circle class="st0" cx="13.8" cy="13.8" r="1.6"/>
<circle class="st0" cx="13.8" cy="20" r="1.6"/>
<circle class="st0" cx="26.2" cy="13.8" r="1.6"/>
<path class="st0" d="M26.2,27.5H13.8c-0.7,0-1.2-0.6-1.2-1.2c0-0.7,0.6-1.2,1.2-1.2h12.4c0.7,0,1.2,0.6,1.2,1.2
	C27.5,26.9,26.9,27.5,26.2,27.5z"/>
</svg>
