<?xml version="1.0" encoding="utf-8"?>
<!-- Generator: Adobe Illustrator 26.0.3, SVG Export Plug-In . SVG Version: 6.00 Build 0)  -->
<svg version="1.1" id="Vrstva_1" xmlns="http://www.w3.org/2000/svg" xmlns:xlink="http://www.w3.org/1999/xlink" x="0px" y="0px"
	 width="40px" height="40px" viewBox="0 0 40 40" style="enable-background:new 0 0 40 40;" xml:space="preserve">
<style type="text/css">
	.st0{fill:#010202;}
	.st1{fill-rule:evenodd;clip-rule:evenodd;fill:#010202;}
	.st2{fill:none;stroke:#010202;stroke-width:1.6;stroke-linecap:round;stroke-linejoin:round;}
	.st3{fill:none;stroke:#010202;stroke-width:1.6;stroke-linecap:round;}
	.st4{fill:none;stroke:#010202;stroke-width:1.6;stroke-linejoin:round;}
	.st5{fill:none;stroke:#010202;stroke-width:1.6;}
</style>
<path class="st0" d="M35,1h-6.1c-0.7,0-1.3,0.6-1.3,1.3v5.8l-5.2,6.6h-7.7l-3.1-3.1V6.7c0-0.7-0.6-1.3-1.3-1.3H5
	C4.3,5.4,3.7,6,3.7,6.7v5.4c0,0.7,0.6,1.3,1.3,1.3h4.8l3.1,3.1v8.3L10.2,28H5.5c-0.7,0-1.3,0.6-1.3,1.3v5.4c0,0.7,0.6,1.3,1.3,1.3
	h5.3c0.7,0,1.3-0.6,1.3-1.3v-5l2.7-3.1h7.8c0,0,2.6,3.9,2.6,4v7.2c0,0.7,0.6,1.3,1.3,1.3h7.7c0.7,0,1.3-0.6,1.3-1.3V30
	c0-0.7-0.6-1.3-1.3-1.3h-7.1l-2.3-3.5c0,0,0-9.3,0-9.3l4.8-6H35c0.7,0,1.3-0.6,1.3-1.3V2.3C36.3,1.6,35.7,1,35,1L35,1z M27.8,31.2
	h5.1v5.2h-5.1V31.2z M15.5,17.2h6.7V24h-6.7V17.2z M6.3,8H9v2.8H6.3V8z M9.6,33.4H6.8v-2.8h2.7L9.6,33.4L9.6,33.4z M33.7,7.2h-3.5
	V3.6h3.5V7.2z"/>
</svg>
