<?xml version="1.0" encoding="utf-8"?>
<!-- Generator: Adobe Illustrator 26.0.3, SVG Export Plug-In . SVG Version: 6.00 Build 0)  -->
<svg version="1.1" id="Vrstva_1" xmlns="http://www.w3.org/2000/svg" xmlns:xlink="http://www.w3.org/1999/xlink" x="0px" y="0px"
	 width="40px" height="40px" viewBox="0 0 40 40" style="enable-background:new 0 0 40 40;" xml:space="preserve">
<style type="text/css">
	.st0{fill:#010202;}
	.st1{fill-rule:evenodd;clip-rule:evenodd;fill:#010202;}
	.st2{fill:none;stroke:#010202;stroke-width:1.6;stroke-linecap:round;stroke-linejoin:round;}
	.st3{fill:none;stroke:#010202;stroke-width:1.6;stroke-linecap:round;}
	.st4{fill:none;stroke:#010202;stroke-width:1.6;stroke-linejoin:round;}
	.st5{fill:none;stroke:#010202;stroke-width:1.6;}
</style>
<path class="st0" d="M20.7,1.2c-4.2,0.2-7.9,2.9-9.6,6.8C7,8.2,3.6,11.8,3.6,16.2c0,2.4,1,4.6,2.7,6.1c0.5,0.5,1.4,0.4,1.8-0.1
	c0.5-0.5,0.4-1.4-0.1-1.8c-1.2-1.1-1.8-2.6-1.8-4.2c0-3.1,2.4-5.6,5.3-5.6c1.1,0,2.3,0.4,3.1,1.1c0.6,0.4,1.4,0.3,1.8-0.2
	c0.4-0.6,0.3-1.4-0.2-1.8c-0.7-0.6-1.5-1-2.4-1.3c1.4-2.7,4-4.5,7-4.6c4.2-0.2,7.9,3,8.8,7c-0.9,0-1.7,0-1.7,0
	c-0.7,0-1.3,0.6-1.3,1.3c0,0.7,0.6,1.3,1.3,1.3c0.6,0,2.5,0.1,2.9,0.1c1.8,0.5,3,2.1,3,4.1c0,1.3-0.6,2.6-1.6,3.4
	c-0.6,0.4-0.7,1.3-0.2,1.8c0.4,0.6,1.3,0.6,1.8,0.2c1.6-1.3,2.6-3.3,2.6-5.4c0-2.8-1.6-5.2-4-6.3C31.7,5.5,26.6,0.9,20.7,1.2z"/>
<path class="st0" d="M27.2,17.9H12.8c-1.6,0-2.9,1.3-2.9,2.9v3.8c0,1.6,1.3,2.9,2.9,2.9h14.3c1.6,0,2.9-1.3,2.9-2.9v-3.8
	C30.1,19.2,28.8,17.9,27.2,17.9z M27.5,24.6c0,0.2-0.1,0.3-0.3,0.3H12.8c-0.2,0-0.3-0.1-0.3-0.3v-3.8c0-0.2,0.1-0.3,0.3-0.3h14.3
	c0.2,0,0.3,0.1,0.3,0.3L27.5,24.6z"/>
<path class="st0" d="M14.9,24c0.7,0,1.3-0.6,1.3-1.3c0-0.7-0.6-1.3-1.3-1.3c-0.7,0-1.3,0.6-1.3,1.3C13.6,23.5,14.2,24,14.9,24z"/>
<path class="st0" d="M19,24c0.7,0,1.3-0.6,1.3-1.3c0-0.7-0.6-1.3-1.3-1.3c-0.7,0-1.3,0.6-1.3,1.3C17.7,23.5,18.3,24,19,24z"/>
<path class="st0" d="M27.2,29.5H12.8c-1.6,0-2.9,1.3-2.9,2.9v3.8c0,1.6,1.3,2.9,2.9,2.9h14.3c1.6,0,2.9-1.3,2.9-2.9v-3.8
	C30.1,30.8,28.8,29.5,27.2,29.5z M27.5,36.2c0,0.2-0.1,0.3-0.3,0.3H12.8c-0.2,0-0.3-0.1-0.3-0.3v-3.8c0-0.2,0.1-0.3,0.3-0.3h14.3
	c0.2,0,0.3,0.1,0.3,0.3L27.5,36.2z"/>
<path class="st0" d="M14.9,35.6c0.7,0,1.3-0.6,1.3-1.3c0-0.7-0.6-1.3-1.3-1.3c-0.7,0-1.3,0.6-1.3,1.3C13.6,35.1,14.2,35.6,14.9,35.6
	z"/>
<path class="st0" d="M19,35.6c0.7,0,1.3-0.6,1.3-1.3c0-0.7-0.6-1.3-1.3-1.3c-0.7,0-1.3,0.6-1.3,1.3C17.7,35.1,18.3,35.6,19,35.6z"/>
</svg>
