<?xml version="1.0" encoding="utf-8"?>
<!-- Generator: Adobe Illustrator 26.0.3, SVG Export Plug-In . SVG Version: 6.00 Build 0)  -->
<svg version="1.1" id="Vrstva_1" xmlns="http://www.w3.org/2000/svg" xmlns:xlink="http://www.w3.org/1999/xlink" x="0px" y="0px"
	 width="40px" height="40px" viewBox="0 0 40 40" style="enable-background:new 0 0 40 40;" xml:space="preserve">
<style type="text/css">
	.st0{fill:#010202;}
	.st1{fill-rule:evenodd;clip-rule:evenodd;fill:#010202;}
	.st2{fill:none;stroke:#010202;stroke-width:1.6;stroke-linecap:round;stroke-linejoin:round;}
	.st3{fill:none;stroke:#010202;stroke-width:1.6;stroke-linecap:round;}
	.st4{fill:none;stroke:#010202;stroke-width:1.6;stroke-linejoin:round;}
	.st5{fill:none;stroke:#010202;stroke-width:1.6;}
</style>
<path class="st5" d="M16,7.2c1.3-1.8,2-2.8,2.8-3.1c0.8-0.3,1.7-0.3,2.5,0c0.8,0.3,1.5,1.3,2.8,3.1c1.2,1.7,1.8,2.5,2.5,3.2
	c0.7,0.7,1.5,1.3,2.4,1.7c0.9,0.5,1.9,0.7,3.9,1.3c2.2,0.6,3.3,0.9,3.9,1.6c0.6,0.6,0.9,1.5,0.8,2.3c-0.1,0.8-0.8,1.7-2.2,3.5
	c-1.3,1.6-1.9,2.4-2.3,3.3c-0.4,0.9-0.8,1.8-0.9,2.8c-0.2,1-0.1,2-0.1,4c0.1,2.2,0.1,3.3-0.3,4.1c-0.4,0.7-1.2,1.2-2,1.4
	c-0.9,0.2-2-0.2-4.1-0.9c-2-0.7-2.9-1-3.9-1.1c-1-0.1-2-0.1-3,0c-1,0.1-2,0.5-3.9,1.1c-2.2,0.7-3.3,1.1-4.1,0.9
	c-0.8-0.2-1.6-0.7-2-1.4C8,34,8,32.9,8.1,30.7c0.1-2,0.1-3-0.1-4c-0.2-1-0.5-1.9-0.9-2.8c-0.4-0.9-1.1-1.7-2.3-3.3
	c-1.4-1.8-2.1-2.6-2.2-3.5c-0.1-0.8,0.2-1.7,0.8-2.3C3.9,14.3,5,14,7.2,13.3c2-0.6,3-0.8,3.9-1.3c0.9-0.4,1.7-1,2.4-1.7
	C14.2,9.6,14.8,8.8,16,7.2z"/>
</svg>
