<?xml version="1.0" encoding="utf-8"?>
<!-- Generator: Adobe Illustrator 26.0.3, SVG Export Plug-In . SVG Version: 6.00 Build 0)  -->
<svg version="1.1" id="Vrstva_1" xmlns="http://www.w3.org/2000/svg" xmlns:xlink="http://www.w3.org/1999/xlink" x="0px" y="0px"
	 width="40px" height="40px" viewBox="0 0 40 40" style="enable-background:new 0 0 40 40;" xml:space="preserve">
<style type="text/css">
	.st0{fill:#010202;}
	.st1{fill-rule:evenodd;clip-rule:evenodd;fill:#010202;}
	.st2{fill:none;stroke:#010202;stroke-width:1.6;stroke-linecap:round;stroke-linejoin:round;}
	.st3{fill:none;stroke:#010202;stroke-width:1.6;stroke-linecap:round;}
	.st4{fill:none;stroke:#010202;stroke-width:1.6;stroke-linejoin:round;}
	.st5{fill:none;stroke:#010202;stroke-width:1.6;}
</style>
<path class="st0" d="M37.7,1h-7.1c-0.7,0-1.3,0.6-1.3,1.3v2.3h-4.4V2.3c0-0.7-0.6-1.3-1.3-1.3h-7.1c-0.7,0-1.3,0.6-1.3,1.3v2.3h-4.4
	V2.3c0-0.7-0.6-1.3-1.3-1.3H2.3C1.6,1,1,1.6,1,2.3v7.2c0,0.7,0.6,1.3,1.3,1.3h7.1c0.7,0,1.3-0.6,1.3-1.3V7.2h4.4v2.3
	c0,0.7,0.6,1.3,1.3,1.3h2.3v4.9h-3.8c-0.7,0-1.3,0.6-1.3,1.3c0,1.8-1.4,2.8-2.9,3.2c-0.6,0.1-1,0.6-1,1.2c-0.2,6.9,2.5,14.2,9,17.4
	c0.9,0.4,1.9,0.4,2.7-0.1c6.1-3.5,9.1-10.4,9-17.2c0-0.6-0.5-1.2-1.1-1.3c-1.6-0.3-2.8-1.6-2.8-3.2c0-0.7-0.6-1.3-1.3-1.3h-3.8v-4.9
	h2.3c0.7,0,1.3-0.6,1.3-1.3V7.2h4.4v2.3c0,0.7,0.6,1.3,1.3,1.3h7.1c0.7,0,1.3-0.6,1.3-1.3V2.3C39,1.6,38.4,1,37.7,1L37.7,1z
	 M8.1,8.2H3.6V3.6h4.5V8.2z M27.7,22.4c-0.2,9-5.9,12.9-7.7,14c-0.1,0.1-0.2,0.1-0.3,0c-2.3-1.1-7.4-4.6-7.5-14
	c1.9-0.7,3.4-2.3,3.8-4.2H24C24.4,20.1,25.8,21.7,27.7,22.4z M22.3,8.2h-4.5V3.6h4.5V8.2z M36.4,8.2h-4.5V3.6h4.5V8.2z"/>
</svg>
