<?xml version="1.0" encoding="utf-8"?>
<!-- Generator: Adobe Illustrator 26.0.3, SVG Export Plug-In . SVG Version: 6.00 Build 0)  -->
<svg version="1.1" id="Vrstva_1" xmlns="http://www.w3.org/2000/svg" xmlns:xlink="http://www.w3.org/1999/xlink" x="0px" y="0px"
	 width="40px" height="40px" viewBox="0 0 40 40" style="enable-background:new 0 0 40 40;" xml:space="preserve">
<style type="text/css">
	.st0{fill:#010202;}
	.st1{fill-rule:evenodd;clip-rule:evenodd;fill:#010202;}
	.st2{fill:none;stroke:#010202;stroke-width:1.6;stroke-linecap:round;stroke-linejoin:round;}
	.st3{fill:none;stroke:#010202;stroke-width:1.6;stroke-linecap:round;}
	.st4{fill:none;stroke:#010202;stroke-width:1.6;stroke-linejoin:round;}
	.st5{fill:none;stroke:#010202;stroke-width:1.6;}
</style>
<path class="st0" d="M1.5,18c0,2.4,0.9,4.6,2.5,6.3c0.5,0.5,1.3,0.5,1.8,0.1c0.5-0.5,0.6-1.3,0.1-1.8c-1.1-1.2-1.8-2.8-1.8-4.5
	c0-3.6,2.8-6.5,6.2-6.5c1.2-0.2,2.8,0.6,3.7,1.3c0.6,0.4,1.4,0.3,1.8-0.2c0.4-0.6,0.3-1.4-0.2-1.8c-0.9-0.7-1.8-1.1-2.8-1.5
	C14.3,6.1,17.4,4,21,3.8c5-0.3,9.3,3.5,10.2,8.3c-1,0-2.1-0.1-2.1-0.1c-0.7,0-1.3,0.6-1.3,1.3c0,0.7,0.6,1.3,1.3,1.3
	c0.6,0,2.8,0.1,3.2,0.2c2.1,0.5,3.5,2.5,3.5,4.7c0,1.1-0.4,2.2-1,3c-0.4,0.6-0.3,1.4,0.2,1.8c0.6,0.4,1.4,0.3,1.8-0.2
	c1-1.3,1.5-2.9,1.5-4.6c0-3.1-1.8-5.8-4.6-7C33.2,6.1,27.5,0.8,20.8,1.2C16.1,1.5,11.9,4.5,10,8.9C5.3,9.1,1.5,13.1,1.5,18z"/>
<path class="st0" d="M28.9,22.2v-2.3c0-4.3-3.6-7.8-8-7.8s-8,3.5-8,7.8v2.3c-1.2,0.4-2,1.5-2,2.8v11.3c0,1.6,1.3,2.9,2.9,2.9H28
	c1.6,0,2.9-1.3,2.9-2.9V25C30.9,23.7,30.1,22.6,28.9,22.2z M15.4,19.9c0-2.9,2.4-5.2,5.4-5.2s5.4,2.3,5.4,5.2v2.2H15.4V19.9z
	 M28.3,36.3c0,0.2-0.1,0.3-0.3,0.3H13.7c-0.2,0-0.3-0.1-0.3-0.3V25c0-0.2,0.1-0.3,0.3-0.3H28c0.2,0,0.3,0.1,0.3,0.3V36.3z"/>
<path class="st0" d="M20.9,27c-1.2,0-2.2,1-2.2,2.1c0,0.7,0.3,1.3,0.9,1.7v2.1c0,0.7,0.6,1.3,1.3,1.3c0.7,0,1.3-0.6,1.3-1.3v-2.1
	c0.5-0.4,0.9-1,0.9-1.7C23,28,22,27,20.9,27z"/>
</svg>
