<?xml version="1.0" encoding="utf-8"?>
<!-- Generator: Adobe Illustrator 26.0.3, SVG Export Plug-In . SVG Version: 6.00 Build 0)  -->
<svg version="1.1" id="Vrstva_1" xmlns="http://www.w3.org/2000/svg" xmlns:xlink="http://www.w3.org/1999/xlink" x="0px" y="0px"
	 width="40px" height="40px" viewBox="0 0 40 40" style="enable-background:new 0 0 40 40;" xml:space="preserve">
<style type="text/css">
	.st0{fill:#010202;}
	.st1{fill-rule:evenodd;clip-rule:evenodd;fill:#010202;}
	.st2{fill:none;stroke:#010202;stroke-width:1.6;stroke-linecap:round;stroke-linejoin:round;}
	.st3{fill:none;stroke:#010202;stroke-width:1.6;stroke-linecap:round;}
	.st4{fill:none;stroke:#010202;stroke-width:1.6;stroke-linejoin:round;}
	.st5{fill:none;stroke:#010202;stroke-width:1.6;}
</style>
<path class="st0" d="M12.4,18.4h2.4v2.1h-2.4V18.4z"/>
<path class="st0" d="M9.3,39.1c-3.8,0-6.9-3.1-6.9-6.9c0-1.5,0.5-3,1.4-4.2V14.9C2.1,13.3,1,11.1,1,8.7c0-1.6,0.4-3.1,1.3-4.4
	C3.1,3,4.2,2,5.6,1.3c0.8-0.4,1.8,0.2,1.8,1.1v5.7l1.8,1l2.2-1.1V2.4c0-0.9,1-1.5,1.8-1.1c2.8,1.4,4.6,4.3,4.6,7.4
	c0,2.4-1,4.6-2.8,6.2v1.8h-2.4v-2.3c0-0.4,0.2-0.7,0.5-1c1.5-1.1,2.3-2.8,2.3-4.7c0-1.5-0.5-2.8-1.5-3.9v4c0,0.5-0.3,0.9-0.7,1.1
	l-3.5,1.7c-0.4,0.2-0.8,0.2-1.2,0L5.5,9.9c-0.4-0.2-0.6-0.6-0.6-1v-4C4,5.9,3.4,7.3,3.4,8.7c0,1.8,0.9,3.5,2.4,4.7
	c0.3,0.2,0.5,0.6,0.5,1v14.1c0,0.3-0.1,0.6-0.3,0.8c-0.7,0.8-1.1,1.9-1.1,2.9c0,2.5,2,4.4,4.5,4.4c2.5,0,4.5-2,4.5-4.4
	c0-1.1-0.4-2.1-1.1-2.9c-0.2-0.2-0.3-0.5-0.3-0.8V22h2.4v6c0.9,1.2,1.4,2.7,1.4,4.2C16.3,36,13.2,39.1,9.3,39.1z"/>
<path class="st0" d="M10.5,33.5c0.6-0.6,0.6-1.7,0-2.3c-0.6-0.6-1.7-0.6-2.3,0c-0.6,0.6-0.6,1.7,0,2.3C8.8,34.1,9.9,34.1,10.5,33.5z
	"/>
<path class="st0" d="M30.1,39.2h-3c-0.6,0-1-0.4-1.2-0.9l-0.4-1.4c-0.2-0.1-0.3-0.1-0.5-0.2l-1.3,0.8c-0.5,0.3-1.1,0.2-1.5-0.2
	l-2.1-2.1c-0.4-0.4-0.5-1-0.2-1.5l0.8-1.3c-0.1-0.1-0.1-0.3-0.2-0.4l-1.5-0.4c-0.5-0.1-0.9-0.6-0.9-1.2v-2.9c0-0.6,0.4-1.1,0.9-1.2
	l1.5-0.4c0.1-0.1,0.1-0.3,0.2-0.4l-0.8-1.3c-0.3-0.5-0.2-1.1,0.2-1.5l2.1-2.1c0.4-0.4,1-0.5,1.5-0.2l1.3,0.8
	c0.2-0.1,0.3-0.1,0.5-0.2l0.4-1.4c0.1-0.5,0.6-0.9,1.2-0.9h3c0.6,0,1,0.4,1.2,0.9l0.4,1.5c0.2,0.1,0.3,0.1,0.5,0.2l1.3-0.8
	c0.5-0.3,1.1-0.2,1.5,0.2l2.1,2.1c0.4,0.4,0.5,1,0.2,1.5l-0.8,1.3c0.1,0.1,0.1,0.3,0.2,0.4l1.5,0.4c0.5,0.1,0.9,0.6,0.9,1.2v2.9
	c0,0.6-0.4,1.1-0.9,1.2l-1.5,0.4c-0.1,0.2-0.1,0.3-0.2,0.4l0.8,1.3c0.3,0.5,0.2,1.1-0.2,1.5l-2.1,2.1c-0.4,0.4-1,0.5-1.5,0.2
	l-1.3-0.8c-0.2,0.1-0.3,0.1-0.5,0.2l-0.4,1.4C31.2,38.8,30.7,39.2,30.1,39.2z M28.1,36.7h1.1l0.3-1.2c0.1-0.4,0.4-0.8,0.9-0.9
	c0.5-0.1,0.9-0.3,1.3-0.5c0.4-0.2,0.8-0.2,1.2,0l1.1,0.6l0.7-0.7l-0.6-1c-0.2-0.4-0.2-0.9,0-1.2c0.2-0.4,0.4-0.8,0.5-1.3
	c0.1-0.4,0.5-0.7,0.9-0.8l1.2-0.3v-1l-1.2-0.3c-0.4-0.1-0.8-0.4-0.9-0.8c-0.1-0.4-0.3-0.9-0.5-1.3c-0.2-0.4-0.2-0.9,0-1.2l0.6-1
	L33.9,23l-1.1,0.6c-0.4,0.2-0.8,0.2-1.2,0c-0.4-0.2-0.9-0.4-1.3-0.5c-0.4-0.1-0.7-0.5-0.9-0.9l-0.3-1.2h-1.1l-0.3,1.2
	c-0.1,0.4-0.4,0.8-0.9,0.9c-0.4,0.1-0.9,0.3-1.3,0.5c-0.4,0.2-0.8,0.2-1.2,0L23.4,23l-0.7,0.7l0.6,1c0.2,0.4,0.2,0.9,0,1.2
	c-0.2,0.4-0.4,0.9-0.5,1.3c-0.1,0.4-0.5,0.7-0.9,0.8l-1.2,0.3v1l1.2,0.3c0.4,0.1,0.8,0.4,0.9,0.8c0.1,0.4,0.3,0.9,0.5,1.3
	c0.2,0.4,0.2,0.9,0,1.2l-0.6,1l0.7,0.7l1.1-0.6c0.4-0.2,0.8-0.2,1.2,0c0.4,0.2,0.8,0.4,1.3,0.5c0.4,0.1,0.7,0.5,0.9,0.9L28.1,36.7z"
	/>
<path class="st0" d="M30.8,15h-2.4V8.4h-6.9V5.9h8.1c0.7,0,1.2,0.6,1.2,1.2V15z"/>
<path class="st0" d="M30.2,32.6l-2.8-2.9c-0.2-0.2-0.3-0.5-0.3-0.8l0-4.2l2.4,0l0,3.7l2.4,2.5L30.2,32.6z"/>
</svg>
